<svg xmlns="http://www.w3.org/2000/svg" viewBox="0 0 44.82 117.85"><defs><style>.cls-1{fill:#fff;}</style></defs><g id="Layer_2" data-name="Layer 2"><g id="Layer_1-2" data-name="Layer 1"><path class="cls-1" d="M33.88,59a18.61,18.61,0,0,1,1-7.82c1.77-5.54,5-7.69,6.82-10.83,4.09-6.94,3.87-16.36,1.2-23C39,7.63,27.71-2.19,16.41.43,3.76,3.36-1.67,20.22.45,30.43c.71,3.44,3.74,10.11,6.94,15.9,2.1,3.78,3.93,6.43,3.91,10.47,0,1.87-.48,2.06-2.79,8.92-2.75,8.18-2.82,9.93-2.81,11a17.9,17.9,0,0,0,1.23,7.6,18,18,0,0,1,1.61,4.8,16,16,0,0,1,.21,2.66c0,5-1.68,6-1.24,8.24.84,4.17,7.75,4.65,7.66,7.76-.05,1.92-2.73,2.89-2.26,4.51.38,1.27,2.19,1.28,2.65,2.75a3.5,3.5,0,0,1-.68,2.85c.86-.73,1.94-1.86,1.76-3-.2-1.37-1.9-1.66-2-2.75-.09-1.71,4-2.15,4.42-4.22.49-2.34-4.34-3.41-5.21-7.17s3.75-5.13,4.32-11c.48-4.85-2.46-6.35-1.08-11.09a9.27,9.27,0,0,1,3.3-5,8.76,8.76,0,0,1,4.36-1.63,6.4,6.4,0,0,1,3.34,2C30,76,29.59,78.94,29.37,80.62a22,22,0,0,1-2.22,6.47,22.58,22.58,0,0,0-2,4.8c-.42,1.74-.63,2.61-.31,3.63.78,2.48,3.6,2.51,3.78,4.33.13,1.32-1.76,2.71-1.64,4a2.85,2.85,0,0,0,.87,1.78c.35.37.82.9,1.42,1.66-.23-.46-.42-.85-.56-1.15a6.62,6.62,0,0,1-.31-.73,4.23,4.23,0,0,1-.17-1c0-1.21,2.94-2.79,3.2-4.65s-2.11-2.46-2.22-4.64,2.25-3.17,4.84-6.55a25.3,25.3,0,0,0,3.67-7.19,23,23,0,0,0,.09-12.61C36.43,63.74,34.34,63.46,33.88,59Zm-20-24.48c-2.31,0-3.74-5.91-3.81-6.19-.34-1.46-1.35-5.74,1-7.87a4.55,4.55,0,0,1,3.56-1.1,4.5,4.5,0,0,1,2.94,1.77c1.24,1.66.85,3.73.47,5.64C18,27.16,16.45,34.5,13.86,34.48Zm11.37,17a4.16,4.16,0,0,1-6,.53c-.37-.33-1.8-1.8-.7-7.93.4-2.23,1.61-9,3.45-9,1.54,0,2.47,4.34,3.46,9C26.5,49.05,26,50.54,25.23,51.47Zm4.26-17.7c-2.31,0-3.74-5.9-3.81-6.18-.34-1.46-1.35-5.74,1.05-7.87a4.55,4.55,0,0,1,3.56-1.1,4.61,4.61,0,0,1,3,1.76c1.23,1.67.85,3.73.46,5.65C33.61,26.46,32.08,33.8,29.49,33.77Z"/></g></g></svg>