<svg xmlns="http://www.w3.org/2000/svg" viewBox="0 0 44.82 117.26"><defs><style>.cls-1{fill:#fff;}</style></defs><g id="Layer_2" data-name="Layer 2"><g id="Layer_1-2" data-name="Layer 1"><path class="cls-1" d="M33.88,59a18.61,18.61,0,0,1,1-7.82c1.77-5.54,5-7.69,6.82-10.83,4.09-6.94,3.87-16.36,1.2-23C39,7.63,27.71-2.19,16.41.43,3.76,3.36-1.67,20.22.45,30.43c.71,3.44,3.74,10.11,6.94,15.9,2.1,3.78,3.93,6.43,3.91,10.47,0,1.87-.48,2.06-2.79,8.92-2.75,8.18-2.82,9.93-2.81,11a17.9,17.9,0,0,0,1.23,7.6,18,18,0,0,1,1.61,4.8,16.79,16.79,0,0,1,.21,2.66c0,3.18-.83,4.14-1.1,6.61-.13,1.21-.48,4.45,1.23,7.18,1,1.55,1.67,1.45,4.06,4.41,1.92,2.38,2,3.09,2,3.49-.16,2.33-4,3.67-4.43,3.83.63-.09,4.76-.71,6.07-3.39a3.67,3.67,0,0,0,.4-1.29c.18-1.53-.65-2.69-1.62-4.17-1.74-2.67-2.61-4-2.78-4.83-.37-1.79.46-2.89,1.68-5.81a41.71,41.71,0,0,0,2.59-8.46c.79-4.71-.64-5.43.32-10.72C18,74,19.37,72.88,20,72.5a6.43,6.43,0,0,1,4.81-.59,9,9,0,0,1,2.08,2.7,9.74,9.74,0,0,1,.56,6.61c-.55,2.2-1.27,2-2.81,5.77-1.2,3-1.19,4.13-1.13,4.78a9.19,9.19,0,0,0,1.38,3.75c1.48,2.68,2.5,2.63,2.77,4.26a8.65,8.65,0,0,1-.63,4.07,5.05,5.05,0,0,0-.56,2.83,3.68,3.68,0,0,0,.63,1.4,5,5,0,0,0,2.44,1.84,4,4,0,0,1-1.62-2,3,3,0,0,1,0-1.87,3.78,3.78,0,0,1,.42-.83A6.44,6.44,0,0,1,29.33,104a9.18,9.18,0,0,0,1.3-1.79,7.47,7.47,0,0,0,.83-2.52c.3-2.53-1.54-2.94-1.5-5,.05-2.23,1.84-3.1,4.12-6.19a26.08,26.08,0,0,0,3.67-7.19,22.94,22.94,0,0,0,.09-12.6C36.43,63.74,34.34,63.46,33.88,59Zm-20-24.48c-2.31,0-3.74-5.91-3.81-6.19-.34-1.46-1.35-5.74,1-7.87a4.55,4.55,0,0,1,3.56-1.1,4.5,4.5,0,0,1,2.94,1.77c1.24,1.66.85,3.73.47,5.64C18,27.16,16.45,34.5,13.86,34.48Zm11.37,17a4.16,4.16,0,0,1-6,.53c-.37-.33-1.8-1.8-.7-7.93.4-2.23,1.61-9,3.45-9,1.54,0,2.46,4.34,3.46,9C26.5,49.05,26,50.54,25.23,51.47Zm4.26-17.7c-2.31,0-3.74-5.9-3.81-6.18-.34-1.46-1.35-5.74,1.05-7.87a4.55,4.55,0,0,1,3.56-1.1,4.61,4.61,0,0,1,3,1.76c1.23,1.67.85,3.73.46,5.65C33.61,26.46,32.08,33.8,29.49,33.77Z"/></g></g></svg>