<svg xmlns="http://www.w3.org/2000/svg" viewBox="0 0 44.82 126.64"><defs><style>.cls-1{fill:#fff;}</style></defs><g id="Layer_2" data-name="Layer 2"><g id="Layer_1-2" data-name="Layer 1"><path class="cls-1" d="M33.88,59a18.61,18.61,0,0,1,1-7.82c1.77-5.54,5-7.69,6.82-10.83,4.09-6.94,3.87-16.36,1.2-23C39,7.63,27.71-2.19,16.41.43,3.76,3.36-1.67,20.22.45,30.43c.71,3.44,3.74,10.11,6.94,15.9,2.1,3.78,3.93,6.43,3.91,10.47,0,3-1,3.52-2.79,8.92C6.57,71.61,5.07,76,5.79,81c.79,5.48,3.17,6,3,10.74S6.23,97.61,5.8,101s1.24,8.57,10.6,15.7c-6.08-6.65-6.7-11.19-6.08-14.13,1-4.9,5.43-5.22,6.87-11.19,1.34-5.54-1.65-8.53.59-13a11.62,11.62,0,0,1,5.45-5c4.38,4.06,5.2,7.32,5.15,9.53-.1,4.59-4,5.8-5.89,13.15-.7,2.68-1.63,6.27,0,9.62s4.39,3.39,5.69,5.89.93,6.76-5.48,15.07c5.08-3.83,10.73-9.47,10.59-16.25-.08-3.68-1.79-4.35-1.77-8.25,0-8,7-9.34,8.64-18.06,1.32-7.2-2-14.56-2.32-15.35C36.21,65.16,34.31,63.23,33.88,59Zm-20-24.48c-2.31,0-3.74-5.91-3.81-6.19-.34-1.46-1.35-5.74,1-7.87a4.55,4.55,0,0,1,3.56-1.1,4.5,4.5,0,0,1,2.94,1.77c1.24,1.66.85,3.73.47,5.64C18,27.16,16.45,34.5,13.86,34.48Zm11.37,17a4.16,4.16,0,0,1-6,.53c-.37-.33-1.8-1.8-.7-7.93.4-2.23,1.61-9,3.45-9,1.54,0,2.47,4.34,3.46,9C26.5,49.05,26,50.54,25.23,51.47Zm4.26-17.7c-2.31,0-3.74-5.9-3.81-6.18-.34-1.46-1.35-5.74,1.05-7.87a4.55,4.55,0,0,1,3.56-1.1,4.61,4.61,0,0,1,3,1.76c1.23,1.67.85,3.73.46,5.65C33.61,26.46,32.08,33.8,29.49,33.77Z"/></g></g></svg>