<svg xmlns="http://www.w3.org/2000/svg" viewBox="0 0 44.82 127.5"><defs><style>.cls-1{fill:#fff;}</style></defs><g id="Layer_2" data-name="Layer 2"><g id="Layer_1-2" data-name="Layer 1"><path class="cls-1" d="M33.05,62c-.16-.84-.78-4.53,1.8-10.82,2.34-5.71,4.76-7.34,6.82-10.83,4.09-6.94,3.87-16.36,1.2-23C39,7.63,27.71-2.19,16.41.43,3.76,3.36-1.67,20.22.45,30.43a43.73,43.73,0,0,0,6.94,15.9C10.1,49.89,13.46,52.87,13,57c-.22,1.88-1.1,2.72-2.41,4.81C9.82,63,4.62,71.54,5.79,81A20.41,20.41,0,0,0,9.4,90.92c2.45,3.32,4.74,3.89,5.91,6.81,1.3,3.23.21,6.78-1.1,9.52,3.44-4.75,3.75-8.19,3.31-10.52C17,93.82,15.38,93.29,15,90.12c-.41-3.52,1.13-6.38,2.81-9.52a29.58,29.58,0,0,1,5.41-7.22,29.37,29.37,0,0,0,1,7.42c2.17,8.06,6.27,9.21,6.21,14-.07,5.37-5.21,5.66-6.21,12.82-.47,3.33.24,6.1,1.4,10.62,1.26,4.91,3.21,9.34,3.61,9.22s-.64-2.65-.8-6c-.13-2.5.13-6.41,3.2-13,4.37-9.39,7-8.21,9-14C43.26,87.05,42,77,37.46,70,35.61,67.11,33.74,65.59,33.05,62ZM13.86,34.48c-2.31,0-3.74-5.91-3.81-6.19-.34-1.46-1.35-5.74,1-7.87a4.55,4.55,0,0,1,3.56-1.1,4.5,4.5,0,0,1,2.94,1.77c1.24,1.66.85,3.73.47,5.64C18,27.16,16.45,34.5,13.86,34.48Zm11.37,17a4.16,4.16,0,0,1-6,.53c-.37-.33-1.8-1.8-.7-7.93.4-2.23,1.61-9,3.45-9,1.54,0,2.47,4.34,3.46,9C26.5,49.05,26,50.54,25.23,51.47Zm4.26-17.7c-2.31,0-3.74-5.9-3.81-6.18-.34-1.46-1.35-5.74,1.05-7.87a4.55,4.55,0,0,1,3.56-1.1,4.61,4.61,0,0,1,3,1.76c1.23,1.67.85,3.73.46,5.65C33.61,26.46,32.08,33.8,29.49,33.77Z"/></g></g></svg>