<svg xmlns="http://www.w3.org/2000/svg" viewBox="0 0 81.03 96.24"><g id="Layer_2" data-name="Layer 2"><g id="Layer_1-2" data-name="Layer 1"><path d="M.09,0A104.71,104.71,0,0,1,31.7,11.85a98.64,98.64,0,0,1,14,9.72A96.82,96.82,0,0,1,57.89,33.49c2,2.09,3.62,4.41,5.4,6.66.86,1.14,1.63,2.34,2.46,3.51L67,45.42c.39.6.75,1.22,1.12,1.83a80.58,80.58,0,0,1,7.48,15.44A91.74,91.74,0,0,1,79.9,79.25a79.88,79.88,0,0,1,1,17l-.4,0a150.8,150.8,0,0,0-3.38-16.4,125.6,125.6,0,0,0-5.31-15.71,132,132,0,0,0-7.16-14.87c-.33-.6-.65-1.22-1-1.81L62.6,45.69c-.74-1.16-1.43-2.36-2.21-3.5-1.62-2.23-3.14-4.55-5-6.64A93.43,93.43,0,0,0,44,23.55a96,96,0,0,0-13.32-10,107.4,107.4,0,0,0-14.78-7.8c-2.58-1.08-5.18-2.1-7.84-3S2.72,1.07,0,.39Z"/></g></g></svg>