<svg xmlns="http://www.w3.org/2000/svg" viewBox="0 0 89.78 106.43"><g id="Layer_2" data-name="Layer 2"><g id="Layer_1-2" data-name="Layer 1"><path d="M.71,106.43A100.66,100.66,0,0,1,.27,87.1,97.35,97.35,0,0,1,3.52,68,94.23,94.23,0,0,1,21.44,33.49a99.43,99.43,0,0,1,14-13.79c2.61-2,5.25-3.95,8-5.68A86.82,86.82,0,0,1,52.06,9.3,98.28,98.28,0,0,1,70.48,2.69,84.92,84.92,0,0,1,89.74,0l0,.4A133.83,133.83,0,0,0,53.85,12.87c-2.81,1.44-5.53,3-8.21,4.68S40.36,21,37.82,22.84A90,90,0,0,0,23.87,35.57,91.61,91.61,0,0,0,5.44,68.52a96.74,96.74,0,0,0-4,18.69,100.72,100.72,0,0,0-.36,19.18Z"/></g></g></svg>