<svg xmlns="http://www.w3.org/2000/svg" xmlns:xlink="http://www.w3.org/1999/xlink" viewBox="0 0 37.11 37.11"><defs><style>.cls-1{isolation:isolate;}.cls-2{fill:#5b0000;}.cls-2,.cls-3,.cls-4,.cls-6,.cls-8,.cls-9{fill-rule:evenodd;}.cls-3{fill:url(#radial-gradient);}.cls-4{fill:#2d0000;}.cls-5,.cls-7{mix-blend-mode:screen;}.cls-5{fill:url(#linear-gradient);}.cls-6{fill:url(#radial-gradient-2);}.cls-7{fill:url(#linear-gradient-2);}.cls-8{fill:#f90000;}.cls-9{fill:#b20000;}</style><radialGradient id="radial-gradient" cx="217.92" cy="806.58" r="8.87" gradientTransform="translate(-193.76 -788.03)" gradientUnits="userSpaceOnUse"><stop offset="0" stop-color="#690000"/><stop offset="1" stop-color="#300000"/></radialGradient><linearGradient id="linear-gradient" x1="220.87" y1="806.58" x2="220.87" y2="789.1" gradientTransform="translate(-193.76 -788.03)" gradientUnits="userSpaceOnUse"><stop offset="0.35" stop-color="#430000" stop-opacity="0.5"/><stop offset="1" stop-color="#f90000"/></linearGradient><radialGradient id="radial-gradient-2" cx="1340.17" cy="806.58" r="8.87" gradientTransform="matrix(-1, 0, 0, 1, 1353.11, -788.03)" xlink:href="#radial-gradient"/><linearGradient id="linear-gradient-2" x1="1343.11" y1="806.58" x2="1343.11" y2="789.1" gradientTransform="matrix(-1, 0, 0, 1, 1353.11, -788.03)" xlink:href="#linear-gradient"/></defs><g class="cls-1"><g id="Layer_2" data-name="Layer 2"><g id="Layer_1-2" data-name="Layer 1"><path class="cls-2" d="M18.55,0a18.56,18.56,0,1,1,0,37.11"/><path class="cls-3" d="M18.55,29.77a11.22,11.22,0,0,0,0-22.44"/><path class="cls-4" d="M18.55,37.11A18.61,18.61,0,0,0,37.11,18.55c0-.49,0-1-.06-1.45a18.62,18.62,0,0,1-18.5,17.1h0"/><path class="cls-5" d="M18.55,1.07A17.56,17.56,0,0,1,35.63,15.7c.54,3.27-4.58,4-5.11.81h0a12.4,12.4,0,0,0-3.45-6.65,12.26,12.26,0,0,0-8.52-3.61"/><path class="cls-2" d="M18.55,0a18.56,18.56,0,0,0,0,37.11"/><path class="cls-6" d="M18.55,29.77a11.22,11.22,0,0,1,0-22.44"/><path class="cls-4" d="M18.55,37.11A18.61,18.61,0,0,1,0,18.55c0-.49,0-1,.06-1.45A18.61,18.61,0,0,0,18.55,34.2h0"/><path class="cls-7" d="M18.55,1.07A17.56,17.56,0,0,0,1.48,15.7c-.55,3.27,4.57,4,5.11.81h0a12.34,12.34,0,0,1,12-10.26"/><polygon class="cls-8" points="12.62 12.46 12.62 24.65 14.99 25.37 17.37 24.65 17.37 12.46 14.99 11.74 12.62 12.46 12.62 12.46"/><polygon class="cls-9" points="14.99 11.74 14.99 25.37 12.62 24.65 12.62 12.46 14.99 11.74 14.99 11.74"/><polygon class="cls-8" points="14.99 25.37 14.99 11.74 17.37 12.46 17.37 24.65 14.99 25.37 14.99 25.37"/><polygon class="cls-8" points="19.74 12.46 19.74 24.65 22.11 25.37 24.49 24.65 24.49 12.46 22.11 11.74 19.74 12.46 19.74 12.46"/><polygon class="cls-9" points="22.11 11.74 22.11 25.37 19.74 24.65 19.74 12.46 22.11 11.74 22.11 11.74"/><polygon class="cls-8" points="22.11 25.37 22.11 11.74 24.49 12.46 24.49 24.65 22.11 25.37 22.11 25.37"/></g></g></g></svg>