<svg xmlns="http://www.w3.org/2000/svg" xmlns:xlink="http://www.w3.org/1999/xlink" viewBox="0 0 141.46 45.88"><defs><style>.cls-1{isolation:isolate;}.cls-10,.cls-11,.cls-12,.cls-13,.cls-14,.cls-15,.cls-16,.cls-17,.cls-18,.cls-19,.cls-2,.cls-20,.cls-21,.cls-22,.cls-23,.cls-24,.cls-25,.cls-26,.cls-27,.cls-28,.cls-29,.cls-3,.cls-31,.cls-32,.cls-4,.cls-5,.cls-6,.cls-7,.cls-8,.cls-9{fill-rule:evenodd;}.cls-2{fill:url(#radial-gradient);}.cls-3{fill:url(#radial-gradient-2);}.cls-4{fill:url(#linear-gradient);}.cls-5{fill:url(#linear-gradient-2);}.cls-6{fill:url(#linear-gradient-3);}.cls-7{fill:url(#radial-gradient-3);}.cls-8{fill:url(#radial-gradient-4);}.cls-9{fill:url(#radial-gradient-5);}.cls-10,.cls-11,.cls-12,.cls-13,.cls-14,.cls-23,.cls-24,.cls-25,.cls-26,.cls-27,.cls-30,.cls-33{mix-blend-mode:screen;}.cls-10{fill:url(#radial-gradient-6);}.cls-11{fill:url(#radial-gradient-7);}.cls-12{fill:url(#radial-gradient-8);}.cls-13{fill:url(#radial-gradient-9);}.cls-14{fill:url(#radial-gradient-10);}.cls-15{fill:url(#radial-gradient-11);}.cls-16{fill:url(#radial-gradient-12);}.cls-17{fill:url(#linear-gradient-4);}.cls-18{fill:url(#linear-gradient-5);}.cls-19{fill:url(#linear-gradient-6);}.cls-20{fill:url(#radial-gradient-13);}.cls-21{fill:url(#radial-gradient-14);}.cls-22{fill:url(#radial-gradient-15);}.cls-23{fill:url(#radial-gradient-16);}.cls-24{fill:url(#radial-gradient-17);}.cls-25{fill:url(#radial-gradient-18);}.cls-26{fill:url(#radial-gradient-19);}.cls-27{fill:url(#radial-gradient-20);}.cls-28{fill:#5b0000;}.cls-29{fill:#2d0000;}.cls-30{fill:url(#linear-gradient-7);}.cls-31{fill:url(#radial-gradient-21);}.cls-32{fill:url(#radial-gradient-22);}.cls-33{fill:url(#linear-gradient-8);}.cls-34{fill:#f90000;stroke:#f90000;stroke-miterlimit:10;stroke-width:0.41px;}</style><radialGradient id="radial-gradient" cx="-806.17" cy="45.83" r="8.86" gradientTransform="matrix(-0.9, 0, 0, 1, -614.71, 0)" gradientUnits="userSpaceOnUse"><stop offset="0" stop-color="#d40000"/><stop offset="1" stop-color="#630000"/></radialGradient><radialGradient id="radial-gradient-2" cx="-809.28" cy="2.86" r="4.1" gradientTransform="matrix(-0.9, 0, 0, 1, -614.71, 0)" gradientUnits="userSpaceOnUse"><stop offset="0" stop-color="red"/><stop offset="1" stop-color="#780000"/></radialGradient><linearGradient id="linear-gradient" x1="-46.48" y1="26.44" x2="-46.48" y2="19.14" gradientTransform="matrix(-1, 0, 0, 1, 86.85, 0)" gradientUnits="userSpaceOnUse"><stop offset="0" stop-color="#c90404"/><stop offset="0.12" stop-color="#b40303"/><stop offset="0.38" stop-color="#8f0202"/><stop offset="0.62" stop-color="#740101"/><stop offset="0.84" stop-color="#640000"/><stop offset="1" stop-color="#5e0000"/></linearGradient><linearGradient id="linear-gradient-2" x1="-37.82" y1="35.19" x2="-37.82" y2="28.56" xlink:href="#linear-gradient"/><linearGradient id="linear-gradient-3" x1="-39.98" y1="18.22" x2="-39.98" y2="11.75" xlink:href="#linear-gradient"/><radialGradient id="radial-gradient-3" cx="-812.29" cy="7.14" r="18.98" gradientTransform="matrix(-0.9, 0, 0, 1, -614.71, 0)" gradientUnits="userSpaceOnUse"><stop offset="0" stop-color="#ff2b2b"/><stop offset="0.21" stop-color="#dd1c1c"/><stop offset="0.53" stop-color="#b00808"/><stop offset="0.69" stop-color="#9e0000"/><stop offset="0.77" stop-color="#a20000"/><stop offset="0.84" stop-color="#ae0000"/><stop offset="0.91" stop-color="#c10000"/><stop offset="0.98" stop-color="#dc0000"/><stop offset="1" stop-color="#e60000"/></radialGradient><radialGradient id="radial-gradient-4" cx="-820.5" cy="17.73" r="19.47" gradientTransform="matrix(-0.9, 0, 0, 1, -614.71, 0)" gradientUnits="userSpaceOnUse"><stop offset="0" stop-color="#ff0505"/><stop offset="0.24" stop-color="#c90303"/><stop offset="0.48" stop-color="#9c0101"/><stop offset="0.6" stop-color="#8a0000"/><stop offset="0.72" stop-color="#8e0000"/><stop offset="0.85" stop-color="#9a0000"/><stop offset="0.97" stop-color="#ad0000"/><stop offset="1" stop-color="#b30000"/></radialGradient><radialGradient id="radial-gradient-5" cx="-813.89" cy="30.15" r="14.71" xlink:href="#radial-gradient-4"/><radialGradient id="radial-gradient-6" cx="-823.93" cy="17.04" r="19.03" gradientTransform="matrix(-0.9, 0, 0, 1, -614.71, 0)" gradientUnits="userSpaceOnUse"><stop offset="0" stop-color="#ff4a56"/><stop offset="1"/></radialGradient><radialGradient id="radial-gradient-7" cx="-817.64" cy="11.11" r="12.27" xlink:href="#radial-gradient-6"/><radialGradient id="radial-gradient-8" cx="-815.27" cy="27.96" r="8.33" xlink:href="#radial-gradient-6"/><radialGradient id="radial-gradient-9" cx="-808.14" cy="3.57" r="5.28" xlink:href="#radial-gradient-6"/><radialGradient id="radial-gradient-10" cx="-808.05" cy="42.8" r="5.14" xlink:href="#radial-gradient-6"/><radialGradient id="radial-gradient-11" cx="-3520" cy="45.83" r="8.86" gradientTransform="translate(3202.61 0) scale(0.9 1)" xlink:href="#radial-gradient"/><radialGradient id="radial-gradient-12" cx="-3523.1" cy="2.86" r="4.1" gradientTransform="translate(3202.61 0) scale(0.9 1)" xlink:href="#radial-gradient-2"/><linearGradient id="linear-gradient-4" x1="-2492.92" y1="26.44" x2="-2492.92" y2="19.14" gradientTransform="translate(2501.05)" xlink:href="#linear-gradient"/><linearGradient id="linear-gradient-5" x1="-2484.26" y1="35.19" x2="-2484.26" y2="28.56" gradientTransform="translate(2501.05)" xlink:href="#linear-gradient"/><linearGradient id="linear-gradient-6" x1="-2486.42" y1="18.22" x2="-2486.42" y2="11.75" gradientTransform="translate(2501.05)" xlink:href="#linear-gradient"/><radialGradient id="radial-gradient-13" cx="-3526.11" cy="7.14" r="18.98" gradientTransform="translate(3202.61 0) scale(0.9 1)" xlink:href="#radial-gradient-3"/><radialGradient id="radial-gradient-14" cx="-3534.32" cy="17.73" r="19.47" gradientTransform="translate(3202.61 0) scale(0.9 1)" xlink:href="#radial-gradient-4"/><radialGradient id="radial-gradient-15" cx="-3527.71" cy="30.15" r="14.71" gradientTransform="translate(3202.61 0) scale(0.9 1)" xlink:href="#radial-gradient-4"/><radialGradient id="radial-gradient-16" cx="-3537.75" cy="17.04" r="19.03" gradientTransform="translate(3202.61 0) scale(0.9 1)" xlink:href="#radial-gradient-6"/><radialGradient id="radial-gradient-17" cx="-3531.46" cy="11.11" r="12.27" gradientTransform="translate(3202.61 0) scale(0.9 1)" xlink:href="#radial-gradient-6"/><radialGradient id="radial-gradient-18" cx="-3529.09" cy="27.96" r="8.33" gradientTransform="translate(3202.61 0) scale(0.9 1)" xlink:href="#radial-gradient-6"/><radialGradient id="radial-gradient-19" cx="-3521.97" cy="3.57" r="5.28" gradientTransform="translate(3202.61 0) scale(0.9 1)" xlink:href="#radial-gradient-6"/><radialGradient id="radial-gradient-20" cx="-3521.87" cy="42.8" r="5.14" gradientTransform="translate(3202.61 0) scale(0.9 1)" xlink:href="#radial-gradient-6"/><linearGradient id="linear-gradient-7" x1="290.13" y1="810.97" x2="290.13" y2="789.35" gradientTransform="translate(-193.76 -788.03)" gradientUnits="userSpaceOnUse"><stop offset="0.35" stop-color="#430000" stop-opacity="0.5"/><stop offset="1" stop-color="#f90000"/></linearGradient><radialGradient id="radial-gradient-21" cx="92.73" cy="22.94" r="18.23" gradientUnits="userSpaceOnUse"><stop offset="0" stop-color="#690000"/><stop offset="1" stop-color="#300000"/></radialGradient><radialGradient id="radial-gradient-22" cx="49.28" cy="22.94" r="18.23" xlink:href="#radial-gradient-21"/><linearGradient id="linear-gradient-8" x1="1119.05" y1="889.4" x2="1119.05" y2="867.79" gradientTransform="matrix(-1, 0, 0, 1, 1164.69, -866.46)" gradientUnits="userSpaceOnUse"><stop offset="0.27" stop-color="#4d0000"/><stop offset="1" stop-color="#f90000"/></linearGradient></defs><g class="cls-1"><g id="Layer_2" data-name="Layer 2"><g id="Layer_1-2" data-name="Layer 1"><path class="cls-2" d="M117.68,41.75a2.31,2.31,0,0,0-4,1.38,2.29,2.29,0,0,1,.56-3,2.22,2.22,0,0,1,3.47,1.63Z"/><path class="cls-3" d="M117.68,4.39a2.31,2.31,0,0,1-4-1.38,2.3,2.3,0,0,0,.56,3,2.22,2.22,0,0,0,3.47-1.63Z"/><path class="cls-4" d="M130.91,26c-2.94,1.25-5.36-.05-5.69-2.89-.2-1.68,1.11-5.07,4.59-3.54a34.73,34.73,0,0,0,4.62,1.86,9,9,0,0,0,7-.46c-4.3,3.82-8.92,1.44-10.3,1.11-1.88-.44-2.67.31-2.67,1.27s.79,1.72,2.67,1.27a4.63,4.63,0,0,1,4.69,1.34,5.13,5.13,0,0,0-4.94,0Z"/><path class="cls-5" d="M124.36,29.5a2.13,2.13,0,0,0-2.45,3c.44,1.3,1.94,1.65,3.64,1.29a29.61,29.61,0,0,1,3.89-1.07c-1.59.67-3.12,1.83-4.58,2.32-2.89.95-6-1.57-4.67-4.75a2.72,2.72,0,0,1,.11-.25,2.54,2.54,0,0,1,2.29-1.42c2.43-.14,3.45,2,5.74,1.57a3.84,3.84,0,0,1-1,.19c-1.11,0-2-.66-3-.83Z"/><path class="cls-6" d="M127,13.28c-5-1-5.14,4.59-1.56,3.43,2.13-.68,3-.89,4.9.14-1.92-.8-3.21-.49-5.39.86-1.34.84-3.64.73-4.43-1l-.07-.16c-1.14-2.83,1.93-6.46,7.34-4,2.15,1,3.24,1.31,5.59.89-2.2,1.39-4.5.2-6.38-.17Z"/><path class="cls-7" d="M127.82,12.56c-5.41-2.46-8.48,1.17-7.34,4-1.91-4.41-4.34-9.22-6.27-10.54a2.22,2.22,0,0,0,3.47-1.63c.37,5.28,3.43,5.45,6.22,4.76,3.75-.94,6,3.64,9.51,4.3-2.35.42-3.44.09-5.59-.89Z"/><path class="cls-8" d="M120.55,16.72c.79,1.72,3.09,1.83,4.43,1,2.18-1.35,3.47-1.66,5.39-.86.37.2.78.45,1.25.75,2.85,1.82,5.55,4.37,9.84,3.33a9,9,0,0,1-7,.46,34.73,34.73,0,0,1-4.62-1.86c-3.48-1.53-4.79,1.86-4.59,3.54.33,2.84,2.75,4.14,5.69,2.89a5.13,5.13,0,0,1,4.94,0c-3.32.14-5,3.4-7.52,4.22-2.5.25-3.54-1.68-5.74-1.57A2.54,2.54,0,0,0,120.3,30c1.18-2.7,2.18-5.3,2.77-6.92-.54-1.51-1.45-3.86-2.52-6.35Z"/><path class="cls-9" d="M120.19,30.24c-1.29,3.18,1.78,5.7,4.67,4.75,1.46-.49,3-1.65,4.58-2.32a15,15,0,0,0-2,2.19c-1.52,1.81-2.69,2-4.91,2.12-2.4.16-4.47.81-4.84,4.77a2.22,2.22,0,0,0-3.47-1.63c1.83-1.25,4.11-5.66,6-9.88Z"/><path class="cls-10" d="M130.91,26c-2.54.89-5.27.37-5.57-2.92a3.25,3.25,0,0,1,2.14-3.64,3.74,3.74,0,0,1,2.33.3c4.19,1.75,6.6,3.14,10.81,1.59-4.25,1.41-7.12-.21-10.74-1.79-3.35-1.45-4.93,1.35-4.7,3.59A3.65,3.65,0,0,0,126.7,26c1,.61,2.31.77,4.21,0Z"/><path class="cls-11" d="M126.53,16.87c-1.56.77-4.5,2.65-5.91-.24a3,3,0,0,1,1.63-4.2,5.66,5.66,0,0,1,3.77-.38c1.84.46,2.71,1.32,4.87,1.53-1.74-.22-3.26-1.27-4.84-1.67-3.37-.86-7.18,1.49-5.56,4.83,1.32,2.7,4.29,1.28,6,.13Z"/><path class="cls-12" d="M124.89,29.17c-1.39-.78-3-1-4-.07A3.56,3.56,0,0,0,122.46,35c-2.43-.86-3.37-4-1.5-5.81.93-.88,2.48-.74,3.93,0Z"/><path class="cls-13" d="M117.47,5.11A2.23,2.23,0,0,1,113.33,4a2.17,2.17,0,0,0,4.14,1.16Z"/><path class="cls-14" d="M117.47,41a2.23,2.23,0,0,0-4.14,1.16A2.17,2.17,0,0,1,117.47,41Z"/><path class="cls-15" d="M23.78,41.75a2.31,2.31,0,0,1,4,1.38,2.29,2.29,0,0,0-.56-3,2.22,2.22,0,0,0-3.47,1.63Z"/><path class="cls-16" d="M23.78,4.39a2.31,2.31,0,0,0,4-1.38,2.3,2.3,0,0,1-.56,3,2.22,2.22,0,0,1-3.47-1.63Z"/><path class="cls-17" d="M10.55,26c2.94,1.25,5.36-.05,5.69-2.89.2-1.68-1.11-5.07-4.59-3.54A34.73,34.73,0,0,1,7,21.39a9,9,0,0,1-7-.46C4.3,24.75,8.92,22.37,10.3,22c1.88-.44,2.67.31,2.67,1.27S12.18,25,10.3,24.58a4.63,4.63,0,0,0-4.69,1.34,5.13,5.13,0,0,1,4.94,0Z"/><path class="cls-18" d="M17.1,29.5a2.13,2.13,0,0,1,2.45,3c-.44,1.3-1.94,1.65-3.64,1.29A29.61,29.61,0,0,0,12,32.67c1.59.67,3.12,1.83,4.58,2.32,2.89.95,6-1.57,4.67-4.75a2.72,2.72,0,0,0-.11-.25,2.54,2.54,0,0,0-2.29-1.42c-2.43-.14-3.45,2-5.74,1.57a3.84,3.84,0,0,0,1,.19c1.11,0,2-.66,3-.83Z"/><path class="cls-19" d="M14.43,13.28c4.95-1,5.14,4.59,1.56,3.43-2.13-.68-3-.89-4.9.14,1.92-.8,3.21-.49,5.39.86,1.34.84,3.64.73,4.43-1l.07-.16c1.14-2.83-1.93-6.46-7.34-4-2.15,1-3.24,1.31-5.59.89,2.2,1.39,4.5.2,6.38-.17Z"/><path class="cls-20" d="M13.64,12.56c5.41-2.46,8.48,1.17,7.34,4C22.89,12.15,25.32,7.34,27.25,6a2.22,2.22,0,0,1-3.47-1.63c-.37,5.28-3.43,5.45-6.22,4.76-3.75-.94-6,3.64-9.51,4.3,2.35.42,3.44.09,5.59-.89Z"/><path class="cls-21" d="M20.91,16.72c-.79,1.72-3.09,1.83-4.43,1-2.18-1.35-3.47-1.66-5.39-.86-.37.2-.78.45-1.25.75C7,19.42,4.29,22,0,20.93a9,9,0,0,0,7,.46,34.73,34.73,0,0,0,4.62-1.86c3.48-1.53,4.79,1.86,4.59,3.54-.33,2.84-2.75,4.14-5.69,2.89a5.13,5.13,0,0,0-4.94,0c3.32.14,5,3.4,7.52,4.22,2.5.25,3.54-1.68,5.74-1.57A2.53,2.53,0,0,1,21.16,30c-1.18-2.7-2.18-5.3-2.77-6.92.54-1.51,1.45-3.86,2.52-6.35Z"/><path class="cls-22" d="M21.27,30.24c1.29,3.18-1.78,5.7-4.67,4.75-1.46-.49-3-1.65-4.58-2.32a15,15,0,0,1,2,2.19c1.52,1.81,2.69,2,4.91,2.12,2.4.16,4.47.81,4.84,4.77a2.22,2.22,0,0,1,3.47-1.63c-1.83-1.25-4.11-5.66-6-9.88Z"/><path class="cls-23" d="M10.55,26c2.54.89,5.27.37,5.57-2.92A3.25,3.25,0,0,0,14,19.4a3.74,3.74,0,0,0-2.33.3C7.46,21.45,5.05,22.84.84,21.29,5.09,22.7,8,21.08,11.58,19.5c3.35-1.45,4.93,1.35,4.7,3.59A3.65,3.65,0,0,1,14.76,26c-1,.61-2.31.77-4.21,0Z"/><path class="cls-24" d="M14.93,16.87c1.56.77,4.5,2.65,5.91-.24a3,3,0,0,0-1.62-4.2,5.69,5.69,0,0,0-3.78-.38c-1.84.46-2.71,1.32-4.87,1.53,1.74-.22,3.26-1.27,4.84-1.67,3.37-.86,7.18,1.49,5.56,4.83-1.32,2.7-4.29,1.28-6,.13Z"/><path class="cls-25" d="M16.57,29.17c1.39-.78,3-1,4-.07A3.56,3.56,0,0,1,19,35c2.43-.86,3.37-4,1.5-5.81-.93-.88-2.48-.74-3.93,0Z"/><path class="cls-26" d="M24,5.11A2.23,2.23,0,0,0,28.13,4,2.17,2.17,0,0,1,24,5.11Z"/><path class="cls-27" d="M24,41a2.23,2.23,0,0,1,4.14,1.16A2.17,2.17,0,0,0,24,41Z"/><path class="cls-28" d="M71.16,0h29.42V45.88H71"/><path class="cls-28" d="M100.58,0a22.94,22.94,0,0,1,0,45.88"/><path class="cls-29" d="M100.58,45.88a23,23,0,0,0,22.94-22.94c0-.61,0-1.21-.07-1.8a23,23,0,0,1-22.87,21.14h0"/><path class="cls-29" d="M71.08,45.88h29.5v-3.6H71"/><path class="cls-30" d="M71,1.32h29.37A21.7,21.7,0,0,1,121.7,19.41c.67,4-5.66,4.93-6.32,1h0a15.3,15.3,0,0,0-15-12.69H71"/><path class="cls-28" d="M70.85,0H41.43V45.88H71"/><path class="cls-28" d="M41.43,0a22.94,22.94,0,0,0,0,45.88"/><path class="cls-31" d="M100.58,9.07H71.08L71,36.81h29.57a13.87,13.87,0,1,0,0-27.74Z"/><path class="cls-32" d="M41.43,9.07h0a13.87,13.87,0,0,0,0,27.74H71L70.93,9.07Z"/><path class="cls-29" d="M41.43,45.88A23,23,0,0,1,18.49,22.94c0-.61,0-1.21.07-1.8A23,23,0,0,0,41.43,42.28h0"/><path class="cls-29" d="M70.93,45.88H41.43v-3.6H71"/><path class="cls-33" d="M71,1.32H41.63A21.7,21.7,0,0,0,20.32,19.41c-.67,4,5.66,4.93,6.32,1h0a15.28,15.28,0,0,1,15-12.69H71"/><path class="cls-34" d="M58.4,31.5a8.27,8.27,0,0,1-2.88.66,39.09,39.09,0,0,1-1-6.93c-.32,0-.84.05-1.56.05a19,19,0,0,1-3.14-.22,13.54,13.54,0,0,1-1.79,5,3.3,3.3,0,0,1-2.75,1.72,1.79,1.79,0,0,1-1.4-.75,2.5,2.5,0,0,1-.62-1.6,2.66,2.66,0,0,1,.56-1.49,1.5,1.5,0,0,1,1.18-.8,1,1,0,0,1,.67.36,1.11,1.11,0,0,1,.34.71,1.67,1.67,0,0,1-.24.83.69.69,0,0,1-.58.43.39.39,0,0,1-.17-.07.75.75,0,0,0,.16-1.1.47.47,0,0,0-.39-.24c-.72,0-1.08.32-1.08,1a1.65,1.65,0,0,0,.48,1.3,2.51,2.51,0,0,0,1.63.42,2.35,2.35,0,0,0,2.28-1.93,12.36,12.36,0,0,0,.64-4q-3.85-.87-3.86-2.64a1.47,1.47,0,0,1,.32-.92.91.91,0,0,1,.76-.41h.24a1.64,1.64,0,0,0-.4,1.1,1.91,1.91,0,0,0,.78,1.51,5.12,5.12,0,0,0,2.14,1c-.05-.59-.07-1.18-.07-1.77a8.35,8.35,0,0,1,.44-2.92,5.12,5.12,0,0,1,1.51-2.06A7,7,0,0,1,53,16.32a8.58,8.58,0,0,1,2.7-.44c.55,0,.87,0,1,0a47.28,47.28,0,0,0-1.13,8.34,5.26,5.26,0,0,0,.63-.19l.05,1-.68.07V26A25.38,25.38,0,0,0,56,31.48a7.05,7.05,0,0,0,2.25-.59ZM54.94,16.44a4,4,0,0,0-3.23,1.31c-.85.92-1.39,2.84-1.64,5.76a10.11,10.11,0,0,1-.11,1.1,14.79,14.79,0,0,0,1.5.11,21.87,21.87,0,0,0,3.07-.27q-.06-1.36-.06-2.13A35.38,35.38,0,0,1,54.94,16.44Z"/><path class="cls-34" d="M62.94,25.28c-.39,0-.58-.18-.58-.5a.86.86,0,0,1,.24-.59.74.74,0,0,1,.55-.26.83.83,0,0,1,.64.34,1.28,1.28,0,0,1,.28.81,1.18,1.18,0,0,1-.42,1,1.35,1.35,0,0,1-.93.35,1.29,1.29,0,0,1-1-.45,1.63,1.63,0,0,1-.41-1.14A2.55,2.55,0,0,1,62.19,23a2.72,2.72,0,0,1,1.92-.85,3.46,3.46,0,0,1,2.65,1.38,4.49,4.49,0,0,1,1.19,3,5.33,5.33,0,0,1-1.51,3.69,4.45,4.45,0,0,1-3.32,1.65,3.26,3.26,0,0,1-2-.74A2.81,2.81,0,0,1,60,29.2a5.49,5.49,0,0,1-1.07,1.39l-.37-.22a4.76,4.76,0,0,0,.75-1,4.88,4.88,0,0,0,.47-1,16.72,16.72,0,0,0,.35-2.16c.13-1.12.26-2.48.37-4.09s.17-3.22.17-4.83q0-.86-.09-2.34L59.16,15l0-.43a12.43,12.43,0,0,0,4.18-.75l.06.4-1,.31q-.44,3.6-1.25,7.82a39.72,39.72,0,0,0-.82,5.41,3.8,3.8,0,0,0,.81,2.54,2.49,2.49,0,0,0,2,1,2.7,2.7,0,0,0,2.25-1.45,5.76,5.76,0,0,0,1-3.25,5,5,0,0,0-.78-2.69,2.16,2.16,0,0,0-1.78-1.24,2.1,2.1,0,0,0-1.47.6,1.94,1.94,0,0,0-.65,1.46.91.91,0,0,0,.34.66,1,1,0,0,0,.69.32,1.17,1.17,0,0,0,.65-.21.58.58,0,0,0,.32-.45q0-.45-.63-.45a.23.23,0,0,0-.25.26A2,2,0,0,0,62.94,25.28Z"/><path class="cls-34" d="M74.43,24.05a.46.46,0,0,1-.4.26.36.36,0,0,1-.28-.14.57.57,0,0,1-.12-.37.53.53,0,0,1,.25-.46.94.94,0,0,1,.55-.19.92.92,0,0,1,.63.29.82.82,0,0,1,.29.59,1.63,1.63,0,0,1-.41,1.16,1.42,1.42,0,0,1-1.07.43,1,1,0,0,1-.81-.49,2,2,0,0,1-.34-1.2,2.06,2.06,0,0,1,.72-1.51,2.18,2.18,0,0,1,1.49-.69,3.84,3.84,0,0,1,2.84,1.38,4.43,4.43,0,0,1,1.29,3.11,5.82,5.82,0,0,1-1.48,3.87,4.23,4.23,0,0,1-3.17,1.72A4.72,4.72,0,0,1,71,30.25a5,5,0,0,1-.12-7,6.15,6.15,0,0,1,3.33-2l.13.28a3.7,3.7,0,0,0-2.43,1.7,5.52,5.52,0,0,0-1,3.12,6.64,6.64,0,0,0,1,3.75,2.91,2.91,0,0,0,2.52,1.44A2.75,2.75,0,0,0,76.59,30a5.83,5.83,0,0,0,1-3.4,5.32,5.32,0,0,0-.88-3.13,2.53,2.53,0,0,0-2.13-1.27,1.42,1.42,0,0,0-1.12.53A1.79,1.79,0,0,0,73,23.89a.89.89,0,0,0,.31.69.88.88,0,0,0,.59.3,1.22,1.22,0,0,0,.74-.29.74.74,0,0,0,.37-.54c0-.38-.22-.56-.64-.56-.18,0-.27.09-.27.28S74.22,24,74.43,24.05Z"/><path class="cls-34" d="M91,31.83a12.3,12.3,0,0,0-2.13.81l-.27-2.71A4.17,4.17,0,0,1,85.1,32a4,4,0,0,1-2.84-1.24,4,4,0,0,1-1.3-3,3.7,3.7,0,0,1,.43-1.61,5,5,0,0,1,1-1.42,6.2,6.2,0,0,0,.94-1.25,2.5,2.5,0,0,0,.39-1.1q0-1.23-1-1.23a1.67,1.67,0,0,0-.88.26.78.78,0,0,0-.42.66.6.6,0,0,0,.22.46.64.64,0,0,0,.47.2.73.73,0,0,0,.37-.05.23.23,0,0,0,.08-.19c0-.19-.17-.31-.5-.38q.24-.27.39-.27a.5.5,0,0,1,.38.19.63.63,0,0,1,.16.44,1,1,0,0,1-.31.71,1,1,0,0,1-.7.32.85.85,0,0,1-.66-.35,1.09,1.09,0,0,1-.3-.73,2.14,2.14,0,0,1,.53-1.37,1.44,1.44,0,0,1,1.12-.67,1.29,1.29,0,0,1,1.08.55,2.08,2.08,0,0,1,.42,1.31,4,4,0,0,1-.56,2,7.67,7.67,0,0,0-1.23,3.37,4.24,4.24,0,0,0,.86,2.8,2.85,2.85,0,0,0,2.3,1q1.77,0,3-2.37a72.94,72.94,0,0,0-1.2-7.22L86.07,22l0-.49a12.27,12.27,0,0,0,3.81-.63l.12.46-1.17.32q0,3.88.41,10.17a6.81,6.81,0,0,0,1.54-.52Z"/><path class="cls-34" d="M98.15,20.71c-.62.11-1.14.2-1.55.25a10.42,10.42,0,0,0-1.79.44A36.29,36.29,0,0,1,94.14,25a22.11,22.11,0,0,0-.62,3.88,3.28,3.28,0,0,0,.53,2,1.79,1.79,0,0,0,1.51.7,1.23,1.23,0,0,0,1.1-.63A3.25,3.25,0,0,0,97,29.32a1.5,1.5,0,0,0-.27-.81.78.78,0,0,0-.61-.41.55.55,0,0,0-.48.29,1.14,1.14,0,0,0-.19.66c0,.23.1.34.31.34s.36-.17.45-.5l.14.1a.92.92,0,0,1-.2.59.6.6,0,0,1-.43.23,1.15,1.15,0,0,1-.72-.25.73.73,0,0,1-.34-.62,1.15,1.15,0,0,1,.43-.88,1.36,1.36,0,0,1,.92-.38,2.2,2.2,0,0,1,1.26.43,1.19,1.19,0,0,1,.63.92,3.42,3.42,0,0,1-.67,2,1.9,1.9,0,0,1-1.54.92,2.8,2.8,0,0,1-2.12-.83,3.06,3.06,0,0,1-.79-2.2c0-.45.09-1.67.27-3.64s.26-3.13.24-3.45l-2.12.6v-.63l2.12-.49c0-.23,0-.5,0-.8a17.81,17.81,0,0,0-.2-2.66l2-.33a18.09,18.09,0,0,1-.28,3.32c1-.31,1.6-.49,1.94-.56A11.73,11.73,0,0,0,98,20Z"/></g></g></g></svg>