<svg xmlns="http://www.w3.org/2000/svg" xmlns:xlink="http://www.w3.org/1999/xlink" viewBox="0 0 41.07 125.69"><defs><style>.cls-1{isolation:isolate;}.cls-2{fill:#232323;}.cls-2,.cls-4,.cls-5{fill-rule:evenodd;}.cls-3{mix-blend-mode:screen;fill:url(#linear-gradient);}.cls-4{fill:url(#linear-gradient-2);}</style><linearGradient id="linear-gradient" x1="1063.14" y1="4.66" x2="1063.14" y2="-3.11" gradientTransform="translate(15.88 1133.92) rotate(-90)" gradientUnits="userSpaceOnUse"><stop offset="0"/><stop offset="1" stop-color="#a0a0a0"/></linearGradient><linearGradient id="linear-gradient-2" x1="1063.14" y1="9.64" x2="1063.14" y2="-0.33" gradientTransform="translate(15.88 1133.92) rotate(-90)" gradientUnits="userSpaceOnUse"><stop offset="0" stop-color="#333"/><stop offset="1"/></linearGradient></defs><g class="cls-1"><g id="Layer_2" data-name="Layer 2"><g id="Layer_1-2" data-name="Layer 1"><path d="M22.86,14.41a6.24,6.24,0,0,1,2.05-2.88c1.38-.9,2.6-.4,4.61-.51a13.72,13.72,0,0,0,6.26-2.15c3.67-2.49,4.38-7.3,4.54-8.87a12.78,12.78,0,0,1,.48,6.92,11.52,11.52,0,0,1-3.38,6.26,13.28,13.28,0,0,1-5.88,3,6.57,6.57,0,0,0-2.87.82,5.54,5.54,0,0,0-2.09,2.8c-2.08.29-3.93-.31-4.52-1.52C21.56,17.2,22.14,16,22.86,14.41Z"/><path d="M18.21,14.41a6.17,6.17,0,0,0-2.05-2.88c-1.38-.9-2.6-.4-4.61-.51A13.66,13.66,0,0,1,5.3,8.87C1.63,6.38.92,1.57.75,0A12.78,12.78,0,0,0,.27,6.92a11.55,11.55,0,0,0,3.39,6.26,13.27,13.27,0,0,0,5.87,3A6.54,6.54,0,0,1,12.4,17a5.54,5.54,0,0,1,2.09,2.8c2.08.29,3.94-.31,4.52-1.52C19.51,17.2,18.94,16,18.21,14.41Z"/><path class="cls-2" d="M12.3,117.45V24.1a8.24,8.24,0,0,1,16.48,0v93.35a8.24,8.24,0,0,1-16.48,0Z"/><path class="cls-3" d="M19.63,18.72a5.5,5.5,0,0,0-4.56,5.38v93.35a5.48,5.48,0,0,0,1.61,3.86,5.57,5.57,0,0,0,2.95,1.53,1.15,1.15,0,0,1-.36,2.27,7.8,7.8,0,0,1-6.49-7.66V24.1a7.78,7.78,0,0,1,6.49-7.65,1.15,1.15,0,0,1,.36,2.27Z"/><path class="cls-4" d="M15.55,117.45a5,5,0,0,0,10,0V24.1a5,5,0,0,0-10,0v93.35Z"/><path class="cls-5" d="M27.48,24.1v93.35a8.26,8.26,0,0,1-7.59,8.21c.21,0,.43,0,.65,0a8.27,8.27,0,0,0,8.24-8.24V24.1a8.27,8.27,0,0,0-8.24-8.24c-.22,0-.44,0-.65,0a8.26,8.26,0,0,1,7.59,8.21Z"/></g></g></g></svg>