<svg xmlns="http://www.w3.org/2000/svg" xmlns:xlink="http://www.w3.org/1999/xlink" viewBox="0 0 121.54 135.97"><defs><style>.cls-1{isolation:isolate;}.cls-10,.cls-11,.cls-12,.cls-13,.cls-14,.cls-15,.cls-16,.cls-17,.cls-18,.cls-19,.cls-2,.cls-20,.cls-21,.cls-22,.cls-23,.cls-24,.cls-25,.cls-26,.cls-27,.cls-28,.cls-29,.cls-3,.cls-30,.cls-31,.cls-32,.cls-33,.cls-34,.cls-35,.cls-36,.cls-37,.cls-38,.cls-39,.cls-4,.cls-40,.cls-41,.cls-42,.cls-43,.cls-44,.cls-45,.cls-46,.cls-47,.cls-48,.cls-49,.cls-5,.cls-50,.cls-51,.cls-52,.cls-53,.cls-54,.cls-55,.cls-56,.cls-57,.cls-59,.cls-6,.cls-60,.cls-63,.cls-64,.cls-67,.cls-68,.cls-69,.cls-7,.cls-70,.cls-71,.cls-72,.cls-73,.cls-74,.cls-75,.cls-78,.cls-79,.cls-8,.cls-80,.cls-81,.cls-83,.cls-84,.cls-85,.cls-86,.cls-87,.cls-88,.cls-9{fill-rule:evenodd;}.cls-2{fill:url(#radial-gradient);}.cls-3{fill:#cfcfcf;}.cls-4{fill:url(#linear-gradient);}.cls-5{fill:url(#linear-gradient-2);}.cls-6{fill:url(#linear-gradient-3);}.cls-7{fill:url(#linear-gradient-4);}.cls-14,.cls-15,.cls-20,.cls-21,.cls-22,.cls-27,.cls-28,.cls-29,.cls-38,.cls-39,.cls-40,.cls-41,.cls-42,.cls-51,.cls-52,.cls-53,.cls-54,.cls-55,.cls-58,.cls-61,.cls-62,.cls-65,.cls-73,.cls-77,.cls-8,.cls-80,.cls-82,.cls-84,.cls-87,.cls-9{mix-blend-mode:screen;}.cls-8{fill:url(#linear-gradient-5);}.cls-15,.cls-9{opacity:0.5;}.cls-9{fill:url(#linear-gradient-6);}.cls-10{fill:url(#linear-gradient-7);}.cls-11{fill:url(#linear-gradient-8);}.cls-12{fill:url(#linear-gradient-9);}.cls-13{fill:url(#linear-gradient-10);}.cls-14{fill:url(#linear-gradient-11);}.cls-15{fill:url(#linear-gradient-12);}.cls-16{fill:url(#linear-gradient-13);}.cls-17{fill:url(#linear-gradient-14);}.cls-18{fill:url(#linear-gradient-15);}.cls-19{fill:url(#linear-gradient-16);}.cls-20{fill:url(#radial-gradient-2);}.cls-21{fill:url(#radial-gradient-3);}.cls-22{fill:url(#radial-gradient-4);}.cls-23{fill:url(#linear-gradient-17);}.cls-24{fill:url(#linear-gradient-18);}.cls-25{fill:url(#linear-gradient-19);}.cls-26{fill:url(#linear-gradient-20);}.cls-27{fill:url(#radial-gradient-5);}.cls-28{fill:url(#radial-gradient-6);}.cls-29{fill:url(#radial-gradient-7);}.cls-30{fill:url(#radial-gradient-8);}.cls-31{fill:url(#radial-gradient-9);}.cls-32{fill:url(#linear-gradient-21);}.cls-33{fill:url(#linear-gradient-22);}.cls-34{fill:url(#linear-gradient-23);}.cls-35{fill:url(#radial-gradient-10);}.cls-36{fill:url(#radial-gradient-11);}.cls-37{fill:url(#radial-gradient-12);}.cls-38{fill:url(#radial-gradient-13);}.cls-39{fill:url(#radial-gradient-14);}.cls-40{fill:url(#radial-gradient-15);}.cls-41{fill:url(#radial-gradient-16);}.cls-42{fill:url(#radial-gradient-17);}.cls-43{fill:url(#radial-gradient-18);}.cls-44{fill:url(#radial-gradient-19);}.cls-45{fill:url(#linear-gradient-24);}.cls-46{fill:url(#linear-gradient-25);}.cls-47{fill:url(#linear-gradient-26);}.cls-48{fill:url(#radial-gradient-20);}.cls-49{fill:url(#radial-gradient-21);}.cls-50{fill:url(#radial-gradient-22);}.cls-51{fill:url(#radial-gradient-23);}.cls-52{fill:url(#radial-gradient-24);}.cls-53{fill:url(#radial-gradient-25);}.cls-54{fill:url(#radial-gradient-26);}.cls-55{fill:url(#radial-gradient-27);}.cls-56{fill:#5b0000;}.cls-57{fill:#2d0000;}.cls-58{fill:url(#linear-gradient-27);}.cls-59{fill:url(#radial-gradient-28);}.cls-60{fill:url(#radial-gradient-29);}.cls-61{fill:url(#linear-gradient-28);}.cls-62{fill:url(#linear-gradient-29);}.cls-63{fill:url(#radial-gradient-30);}.cls-64{fill:url(#radial-gradient-31);}.cls-65{fill:url(#linear-gradient-30);}.cls-66,.cls-75,.cls-76{fill:#f90000;}.cls-66{stroke:red;stroke-width:0.19px;}.cls-66,.cls-76{stroke-miterlimit:10;}.cls-67{fill:url(#linear-gradient-31);}.cls-68{fill:url(#linear-gradient-32);}.cls-69{fill:url(#linear-gradient-33);}.cls-70{fill:url(#linear-gradient-34);}.cls-71{fill:url(#linear-gradient-35);}.cls-72{fill:url(#linear-gradient-36);}.cls-73{fill:url(#linear-gradient-37);}.cls-74{fill:url(#radial-gradient-32);}.cls-76{stroke:#f90000;stroke-width:0.21px;}.cls-77{fill:url(#linear-gradient-38);}.cls-78{fill:url(#radial-gradient-33);}.cls-79{fill:url(#linear-gradient-39);}.cls-80{fill:url(#linear-gradient-40);}.cls-81,.cls-85,.cls-88{mix-blend-mode:multiply;}.cls-81{fill:url(#linear-gradient-41);}.cls-82{fill:url(#linear-gradient-42);}.cls-83{fill:url(#linear-gradient-43);}.cls-84{fill:url(#linear-gradient-44);}.cls-85{fill:url(#linear-gradient-45);}.cls-86{fill:url(#linear-gradient-46);}.cls-87{fill:url(#linear-gradient-47);}.cls-88{fill:url(#linear-gradient-48);}</style><radialGradient id="radial-gradient" cx="120.24" cy="-332.71" r="145.85" gradientTransform="translate(-44.06 231.63) scale(0.87 0.64)" gradientUnits="userSpaceOnUse"><stop offset="0" stop-color="#690000"/><stop offset="1" stop-color="#300000"/></radialGradient><linearGradient id="linear-gradient" x1="1.94" y1="-576.2" x2="60.77" y2="-576.2" gradientTransform="matrix(1, 0, 0, -1, 0, -561.18)" gradientUnits="userSpaceOnUse"><stop offset="0" stop-color="#9e0000"/><stop offset="1" stop-color="#ff1212"/></linearGradient><linearGradient id="linear-gradient-2" x1="0.49" y1="-572.41" x2="60.77" y2="-572.41" gradientTransform="matrix(1, 0, 0, -1, 0, -561.18)" gradientUnits="userSpaceOnUse"><stop offset="0" stop-color="#6e0000"/><stop offset="1" stop-color="#ad0000"/></linearGradient><linearGradient id="linear-gradient-3" x1="60.77" y1="-572.41" x2="121.05" y2="-572.41" gradientTransform="matrix(1, 0, 0, -1, 0, -561.18)" gradientUnits="userSpaceOnUse"><stop offset="0" stop-color="#6b0000"/><stop offset="1" stop-color="#c90000"/></linearGradient><linearGradient id="linear-gradient-4" x1="60.77" y1="-576.2" x2="119.61" y2="-576.2" xlink:href="#linear-gradient"/><linearGradient id="linear-gradient-5" x1="24.88" y1="-575.95" x2="60.77" y2="-575.95" gradientTransform="matrix(1, 0, 0, -1, 0, -561.18)" gradientUnits="userSpaceOnUse"><stop offset="0"/><stop offset="1" stop-color="#ff4a56"/></linearGradient><linearGradient id="linear-gradient-6" x1="60.77" y1="-575.95" x2="96.66" y2="-575.95" gradientTransform="matrix(1, 0, 0, -1, 0, -561.18)" gradientUnits="userSpaceOnUse"><stop offset="0" stop-color="#ff4a56"/><stop offset="1"/></linearGradient><linearGradient id="linear-gradient-7" x1="1.94" y1="-688.03" x2="60.77" y2="-688.03" xlink:href="#linear-gradient"/><linearGradient id="linear-gradient-8" x1="0.49" y1="-684.25" x2="60.77" y2="-684.25" xlink:href="#linear-gradient-2"/><linearGradient id="linear-gradient-9" x1="60.77" y1="-684.25" x2="121.05" y2="-684.25" xlink:href="#linear-gradient-3"/><linearGradient id="linear-gradient-10" x1="60.77" y1="-688.03" x2="119.61" y2="-688.03" xlink:href="#linear-gradient"/><linearGradient id="linear-gradient-11" x1="24.88" y1="-687.78" x2="60.77" y2="-687.78" xlink:href="#linear-gradient-5"/><linearGradient id="linear-gradient-12" x1="60.77" y1="-687.78" x2="96.66" y2="-687.78" xlink:href="#linear-gradient-6"/><linearGradient id="linear-gradient-13" x1="0.97" y1="124.04" x2="0.97" y2="70.95" gradientUnits="userSpaceOnUse"><stop offset="0" stop-color="#c90404"/><stop offset="1" stop-color="#8c0000"/></linearGradient><linearGradient id="linear-gradient-14" x1="0.97" y1="70.95" x2="0.97" y2="11.45" xlink:href="#linear-gradient-13"/><linearGradient id="linear-gradient-15" x1="2.91" y1="70.95" x2="2.91" y2="13.12" gradientUnits="userSpaceOnUse"><stop offset="0" stop-color="#870000"/><stop offset="1" stop-color="#4d0000"/></linearGradient><linearGradient id="linear-gradient-16" x1="2.91" y1="124.04" x2="2.91" y2="70.95" xlink:href="#linear-gradient-15"/><radialGradient id="radial-gradient-2" cx="53.8" cy="12.06" r="21.37" gradientTransform="translate(-44.59) scale(0.86 1)" xlink:href="#linear-gradient-6"/><radialGradient id="radial-gradient-3" cx="53.89" cy="71.12" r="6.79" gradientTransform="translate(-44.59) scale(0.86 1)" gradientUnits="userSpaceOnUse"><stop offset="0" stop-color="#ff5460"/><stop offset="1"/></radialGradient><radialGradient id="radial-gradient-4" cx="53.89" cy="124.22" r="6.79" xlink:href="#radial-gradient-3"/><linearGradient id="linear-gradient-17" x1="120.57" y1="124.04" x2="120.57" y2="70.95" xlink:href="#linear-gradient-15"/><linearGradient id="linear-gradient-18" x1="120.57" y1="70.95" x2="120.57" y2="11.45" xlink:href="#linear-gradient-15"/><linearGradient id="linear-gradient-19" x1="118.64" y1="70.95" x2="118.64" y2="13.12" xlink:href="#linear-gradient-13"/><linearGradient id="linear-gradient-20" x1="118.64" y1="124.04" x2="118.64" y2="70.95" xlink:href="#linear-gradient-13"/><radialGradient id="radial-gradient-5" cx="-1309.02" cy="12.06" r="21.37" gradientTransform="matrix(-0.86, 0, 0, 1, -1011.85, 0)" xlink:href="#linear-gradient-6"/><radialGradient id="radial-gradient-6" cx="190.02" cy="71.12" r="6.79" xlink:href="#radial-gradient-3"/><radialGradient id="radial-gradient-7" cx="190.02" cy="124.22" r="6.79" xlink:href="#radial-gradient-3"/><radialGradient id="radial-gradient-8" cx="-1449.75" cy="26.45" r="5.11" gradientTransform="matrix(-0.9, 0, 0, 1, -1222.3, 0)" gradientUnits="userSpaceOnUse"><stop offset="0" stop-color="#d40000"/><stop offset="1" stop-color="#630000"/></radialGradient><radialGradient id="radial-gradient-9" cx="-1451.54" cy="1.65" r="2.37" gradientTransform="matrix(-0.9, 0, 0, 1, -1222.3, 0)" gradientUnits="userSpaceOnUse"><stop offset="0" stop-color="red"/><stop offset="1" stop-color="#780000"/></radialGradient><linearGradient id="linear-gradient-21" x1="-649.12" y1="15.26" x2="-649.12" y2="11.05" gradientTransform="matrix(-1, 0, 0, 1, -552.22, 0)" gradientUnits="userSpaceOnUse"><stop offset="0" stop-color="#c90404"/><stop offset="0.12" stop-color="#b40303"/><stop offset="0.38" stop-color="#8f0202"/><stop offset="0.62" stop-color="#740101"/><stop offset="0.84" stop-color="#640000"/><stop offset="1" stop-color="#5e0000"/></linearGradient><linearGradient id="linear-gradient-22" x1="-644.12" y1="20.31" x2="-644.12" y2="16.48" xlink:href="#linear-gradient-21"/><linearGradient id="linear-gradient-23" x1="-645.37" y1="10.51" x2="-645.37" y2="6.78" xlink:href="#linear-gradient-21"/><radialGradient id="radial-gradient-10" cx="-1453.28" cy="4.12" r="10.95" gradientTransform="matrix(-0.9, 0, 0, 1, -1222.3, 0)" gradientUnits="userSpaceOnUse"><stop offset="0" stop-color="#ff2b2b"/><stop offset="0.21" stop-color="#dd1c1c"/><stop offset="0.53" stop-color="#b00808"/><stop offset="0.69" stop-color="#9e0000"/><stop offset="0.77" stop-color="#a20000"/><stop offset="0.84" stop-color="#ae0000"/><stop offset="0.91" stop-color="#c10000"/><stop offset="0.98" stop-color="#dc0000"/><stop offset="1" stop-color="#e60000"/></radialGradient><radialGradient id="radial-gradient-11" cx="-1458.01" cy="10.23" r="11.24" gradientTransform="matrix(-0.9, 0, 0, 1, -1222.3, 0)" gradientUnits="userSpaceOnUse"><stop offset="0" stop-color="#ff0505"/><stop offset="0.24" stop-color="#c90303"/><stop offset="0.48" stop-color="#9c0101"/><stop offset="0.6" stop-color="#8a0000"/><stop offset="0.72" stop-color="#8e0000"/><stop offset="0.85" stop-color="#9a0000"/><stop offset="0.97" stop-color="#ad0000"/><stop offset="1" stop-color="#b30000"/></radialGradient><radialGradient id="radial-gradient-12" cx="-1454.2" cy="17.4" r="8.49" xlink:href="#radial-gradient-11"/><radialGradient id="radial-gradient-13" cx="-1459.99" cy="9.84" r="10.99" gradientTransform="matrix(-0.9, 0, 0, 1, -1222.3, 0)" xlink:href="#linear-gradient-6"/><radialGradient id="radial-gradient-14" cx="-1456.36" cy="6.41" r="7.08" gradientTransform="matrix(-0.9, 0, 0, 1, -1222.3, 0)" xlink:href="#linear-gradient-6"/><radialGradient id="radial-gradient-15" cx="-1455" cy="16.14" r="4.81" gradientTransform="matrix(-0.9, 0, 0, 1, -1222.3, 0)" xlink:href="#linear-gradient-6"/><radialGradient id="radial-gradient-16" cx="-1450.88" cy="2.06" r="3.05" gradientTransform="matrix(-0.9, 0, 0, 1, -1222.3, 0)" xlink:href="#linear-gradient-6"/><radialGradient id="radial-gradient-17" cx="-1450.83" cy="24.7" r="2.97" gradientTransform="matrix(-0.9, 0, 0, 1, -1222.3, 0)" xlink:href="#linear-gradient-6"/><radialGradient id="radial-gradient-18" cx="-3476.75" cy="26.45" r="5.11" gradientTransform="translate(3171.13 0) scale(0.9 1)" xlink:href="#radial-gradient-8"/><radialGradient id="radial-gradient-19" cx="-3478.54" cy="1.65" r="2.37" gradientTransform="translate(3171.13 0) scale(0.9 1)" xlink:href="#radial-gradient-9"/><linearGradient id="linear-gradient-24" x1="-2476.41" y1="15.26" x2="-2476.41" y2="11.05" gradientTransform="translate(2501.05)" xlink:href="#linear-gradient-21"/><linearGradient id="linear-gradient-25" x1="-2471.41" y1="20.31" x2="-2471.41" y2="16.48" gradientTransform="translate(2501.05)" xlink:href="#linear-gradient-21"/><linearGradient id="linear-gradient-26" x1="-2472.66" y1="10.51" x2="-2472.66" y2="6.78" gradientTransform="translate(2501.05)" xlink:href="#linear-gradient-21"/><radialGradient id="radial-gradient-20" cx="-3480.27" cy="4.12" r="10.95" gradientTransform="translate(3171.13 0) scale(0.9 1)" xlink:href="#radial-gradient-10"/><radialGradient id="radial-gradient-21" cx="-3485.01" cy="10.23" r="11.24" gradientTransform="translate(3171.13 0) scale(0.9 1)" xlink:href="#radial-gradient-11"/><radialGradient id="radial-gradient-22" cx="-3481.2" cy="17.4" r="8.49" gradientTransform="translate(3171.13 0) scale(0.9 1)" xlink:href="#radial-gradient-11"/><radialGradient id="radial-gradient-23" cx="-3486.99" cy="9.84" r="10.99" gradientTransform="translate(3171.13 0) scale(0.9 1)" xlink:href="#linear-gradient-6"/><radialGradient id="radial-gradient-24" cx="-3483.36" cy="6.41" r="7.08" gradientTransform="translate(3171.13 0) scale(0.9 1)" xlink:href="#linear-gradient-6"/><radialGradient id="radial-gradient-25" cx="-3482" cy="16.14" r="4.81" gradientTransform="translate(3171.13 0) scale(0.9 1)" xlink:href="#linear-gradient-6"/><radialGradient id="radial-gradient-26" cx="-3477.88" cy="2.06" r="3.05" gradientTransform="translate(3171.13 0) scale(0.9 1)" xlink:href="#linear-gradient-6"/><radialGradient id="radial-gradient-27" cx="-3477.83" cy="24.7" r="2.97" gradientTransform="translate(3171.13 0) scale(0.9 1)" xlink:href="#linear-gradient-6"/><linearGradient id="linear-gradient-27" x1="269.33" y1="801.27" x2="269.33" y2="788.79" gradientTransform="translate(-193.76 -788.03)" gradientUnits="userSpaceOnUse"><stop offset="0.35" stop-color="#430000" stop-opacity="0.5"/><stop offset="1" stop-color="#f90000"/></linearGradient><radialGradient id="radial-gradient-28" cx="73.47" cy="13.24" r="10.52" gradientTransform="matrix(1, 0, 0, 1, 0, 0)" xlink:href="#radial-gradient"/><radialGradient id="radial-gradient-29" cx="48.4" cy="13.24" r="10.52" gradientTransform="matrix(1, 0, 0, 1, 0, 0)" xlink:href="#radial-gradient"/><linearGradient id="linear-gradient-28" x1="479.33" y1="879.7" x2="479.33" y2="867.23" gradientTransform="matrix(-1, 0, 0, 1, 525.62, -866.46)" gradientUnits="userSpaceOnUse"><stop offset="0.27" stop-color="#4d0000"/><stop offset="1" stop-color="#f90000"/></linearGradient><linearGradient id="linear-gradient-29" x1="267.5" y1="912.99" x2="267.5" y2="902.62" xlink:href="#linear-gradient-27"/><radialGradient id="radial-gradient-30" cx="72" cy="124.96" r="8.75" gradientTransform="matrix(1, 0, 0, 1, 0, 0)" xlink:href="#radial-gradient"/><radialGradient id="radial-gradient-31" cx="51.15" cy="124.96" r="8.75" gradientTransform="matrix(1, 0, 0, 1, 0, 0)" xlink:href="#radial-gradient"/><linearGradient id="linear-gradient-30" x1="476.22" y1="991.42" x2="476.22" y2="981.05" xlink:href="#linear-gradient-28"/><linearGradient id="linear-gradient-31" x1="60.77" y1="65.64" x2="60.77" y2="45.28" gradientUnits="userSpaceOnUse"><stop offset="0" stop-color="#380000"/><stop offset="0.15" stop-color="#3c0101"/><stop offset="0.29" stop-color="#480303"/><stop offset="0.43" stop-color="#5b0707"/><stop offset="0.57" stop-color="#770d0d"/><stop offset="0.71" stop-color="#9a1414"/><stop offset="0.85" stop-color="#c51d1d"/><stop offset="0.98" stop-color="#f82828"/><stop offset="1" stop-color="#ff2929"/></linearGradient><linearGradient id="linear-gradient-32" x1="47.37" y1="48.76" x2="60.77" y2="48.76" gradientTransform="matrix(1, 0, 0, 1, 0, 0)" xlink:href="#linear-gradient"/><linearGradient id="linear-gradient-33" x1="60.77" y1="48.76" x2="74.17" y2="48.76" gradientTransform="matrix(1, 0, 0, 1, 0, 0)" xlink:href="#linear-gradient"/><linearGradient id="linear-gradient-34" x1="47.37" y1="62.16" x2="60.77" y2="62.16" gradientUnits="userSpaceOnUse"><stop offset="0" stop-color="#4d0000"/><stop offset="1" stop-color="#870000"/></linearGradient><linearGradient id="linear-gradient-35" x1="60.77" y1="62.16" x2="74.17" y2="62.16" xlink:href="#linear-gradient-34"/><linearGradient id="linear-gradient-36" x1="60.77" y1="66.69" x2="60.77" y2="44.22" gradientUnits="userSpaceOnUse"><stop offset="0" stop-color="#ff2929"/><stop offset="0.02" stop-color="#f82828"/><stop offset="0.15" stop-color="#c51d1d"/><stop offset="0.29" stop-color="#9a1414"/><stop offset="0.43" stop-color="#770d0d"/><stop offset="0.57" stop-color="#5b0707"/><stop offset="0.71" stop-color="#480303"/><stop offset="0.85" stop-color="#3c0101"/><stop offset="1" stop-color="#380000"/></linearGradient><linearGradient id="linear-gradient-37" x1="60.77" y1="64.06" x2="60.77" y2="46.5" gradientUnits="userSpaceOnUse"><stop offset="0"/><stop offset="0.1" stop-color="#060202"/><stop offset="0.22" stop-color="#160708"/><stop offset="0.36" stop-color="#311013"/><stop offset="0.51" stop-color="#571d21"/><stop offset="0.68" stop-color="#882d33"/><stop offset="0.84" stop-color="#c24049"/><stop offset="1" stop-color="#ff5460"/></linearGradient><radialGradient id="radial-gradient-32" cx="60.77" cy="55.46" r="8.6" gradientTransform="matrix(1, 0, 0, 1, 0, 0)" xlink:href="#radial-gradient"/><linearGradient id="linear-gradient-38" x1="-546.23" y1="-728.94" x2="-546.23" y2="-735.98" gradientTransform="translate(607.81 811.51)" xlink:href="#linear-gradient-27"/><radialGradient id="radial-gradient-33" cx="-546.23" cy="-728.95" r="33.26" gradientTransform="translate(607.81 811.51)" xlink:href="#radial-gradient"/><linearGradient id="linear-gradient-39" x1="-564.58" y1="-725.42" x2="-564.58" y2="-732.48" gradientTransform="translate(607.81 811.51)" gradientUnits="userSpaceOnUse"><stop offset="0" stop-color="#8a1f1f"/><stop offset="1" stop-color="#e30613"/></linearGradient><linearGradient id="linear-gradient-40" x1="-564.58" y1="-728.95" x2="-564.58" y2="-731.5" gradientTransform="translate(607.81 811.51)" gradientUnits="userSpaceOnUse"><stop offset="0"/><stop offset="1" stop-color="#ff8383"/></linearGradient><linearGradient id="linear-gradient-41" x1="-564.58" y1="-725.42" x2="-564.58" y2="-729.45" gradientTransform="translate(607.81 811.51)" gradientUnits="userSpaceOnUse"><stop offset="0" stop-color="#c30"/><stop offset="0.1" stop-color="#d5572d"/><stop offset="0.46" stop-color="#f3cfc3"/><stop offset="0.62" stop-color="#fff"/></linearGradient><linearGradient id="linear-gradient-42" x1="-503.99" y1="-731.49" x2="-503.99" y2="-731.49" xlink:href="#linear-gradient-40"/><linearGradient id="linear-gradient-43" x1="-538.68" y1="-725.42" x2="-538.68" y2="-732.48" xlink:href="#linear-gradient-39"/><linearGradient id="linear-gradient-44" x1="-539.32" y1="-728.95" x2="-539.32" y2="-731.5" xlink:href="#linear-gradient-40"/><linearGradient id="linear-gradient-45" x1="-538.68" y1="-725.42" x2="-538.68" y2="-729.45" xlink:href="#linear-gradient-41"/><linearGradient id="linear-gradient-46" x1="636.99" y1="-639.08" x2="636.99" y2="-646.15" gradientTransform="matrix(-1, 0, 0, 1, 654.62, 725.18)" xlink:href="#linear-gradient-39"/><linearGradient id="linear-gradient-47" x1="636.35" y1="-642.62" x2="636.35" y2="-645.16" gradientTransform="matrix(-1, 0, 0, 1, 654.62, 725.18)" xlink:href="#linear-gradient-40"/><linearGradient id="linear-gradient-48" x1="636.99" y1="-639.08" x2="636.99" y2="-643.12" gradientTransform="matrix(-1, 0, 0, 1, 654.62, 725.18)" xlink:href="#linear-gradient-41"/></defs><g class="cls-1"><g id="Layer_2" data-name="Layer 2"><g id="Layer_1-2" data-name="Layer 1"><polygon class="cls-2" points="7.31 19.75 114.23 19.75 114.23 116.98 7.31 116.98 7.31 19.75 7.31 19.75"/><path class="cls-3" d="M60.77,9.34a5.21,5.21,0,0,0,4.41,2.8H116c1.73,0,4.18-.21,5-.69l-2.29,2.65H65.18a5.21,5.21,0,0,0-4.41,2.8,5.18,5.18,0,0,0-4.4-2.8H2.78L.49,11.45c.85.48,3.3.69,5,.69H56.37a5.18,5.18,0,0,0,4.4-2.8Z"/><path class="cls-4" d="M1.94,13.12H60.77V16.9a5.18,5.18,0,0,0-4.4-2.8H2.78l-.84-1Z"/><path class="cls-5" d="M56.37,12.14a5.18,5.18,0,0,0,4.4-2.8v3.78H1.94L.49,11.45c.85.48,3.3.69,5,.69Z"/><path class="cls-6" d="M60.77,13.12V9.34a5.21,5.21,0,0,0,4.41,2.8H116c1.73,0,4.18-.21,5-.69l-1.44,1.67Z"/><path class="cls-7" d="M60.77,13.12h58.84l-.85,1H65.18a5.21,5.21,0,0,0-4.41,2.8V13.12Z"/><path class="cls-8" d="M24.88,13.12l34.78.47c.54,0,1,.91,1.11,2.81V13.12Z"/><path class="cls-9" d="M96.66,13.12l-34.77.47c-.55,0-1,.91-1.12,2.81V13.12Z"/><path class="cls-3" d="M60.77,121.18a5.21,5.21,0,0,0,4.41,2.8H116a14.48,14.48,0,0,0,5-.69l-2.29,2.65H65.18a5.21,5.21,0,0,0-4.41,2.8,5.18,5.18,0,0,0-4.4-2.8H2.78L.49,123.29a14.59,14.59,0,0,0,5,.69H56.37a5.18,5.18,0,0,0,4.4-2.8Z"/><path class="cls-10" d="M1.94,125H60.77v3.78a5.18,5.18,0,0,0-4.4-2.8H2.78l-.84-1Z"/><path class="cls-11" d="M56.37,124a5.18,5.18,0,0,0,4.4-2.8V125H1.94L.49,123.29a14.59,14.59,0,0,0,5,.69Z"/><path class="cls-12" d="M60.77,125v-3.78a5.21,5.21,0,0,0,4.41,2.8H116a14.48,14.48,0,0,0,5-.69L119.61,125Z"/><path class="cls-13" d="M60.77,125h58.84l-.85,1H65.18a5.21,5.21,0,0,0-4.41,2.8V125Z"/><path class="cls-14" d="M24.88,125l34.78.46c.54,0,1,.92,1.11,2.82V125Z"/><path class="cls-15" d="M96.66,125l-34.77.46c-.55,0-1,.92-1.12,2.82V125Z"/><path class="cls-16" d="M0,124H1.94V71H0c.49.41,1.09.86,1.09,1.64v49.82A2.21,2.21,0,0,1,0,124Z"/><path class="cls-17" d="M0,71H1.94V13.12L.49,11.45a21.52,21.52,0,0,1,.6,5.81V69.31c0,.78-.6,1.23-1.09,1.64Z"/><path class="cls-18" d="M1.94,71H3.88c-.49-.41-1.1-.86-1.1-1.64V14.1l-.84-1V71Z"/><path class="cls-19" d="M1.94,124H3.88a2.22,2.22,0,0,1-1.1-1.63V72.59c0-.78.61-1.23,1.1-1.64H1.94V124Z"/><path class="cls-20" d="M1.94,39.22,1.69,13.58a1.4,1.4,0,0,0-.24-.8L.67,11.65l1,.91a1,1,0,0,0,.67.27l9.25.29-9.6.1-.08,26Z"/><path class="cls-21" d="M1.68,70.65A4.62,4.62,0,0,1,.13,71a4.88,4.88,0,0,1,1.55.3,29,29,0,0,1,.26,3.4,29,29,0,0,1,.26-3.4A4.87,4.87,0,0,1,3.74,71a4.61,4.61,0,0,1-1.54-.3C2,70.29,2,64.57,1.94,63.9c-.05.67-.1,6.39-.26,6.75Z"/><path class="cls-22" d="M1.68,123.74a4.38,4.38,0,0,1-1.55.3,4.88,4.88,0,0,1,1.55.3,29,29,0,0,1,.26,3.4,29,29,0,0,1,.26-3.4,4.87,4.87,0,0,1,1.54-.3,4.37,4.37,0,0,1-1.54-.3C2,123.38,2,117.66,1.94,117c-.05.66-.1,6.38-.26,6.74Z"/><path class="cls-23" d="M121.54,124h-1.93V71h1.93c-.49.41-1.09.86-1.09,1.64v49.82a2.21,2.21,0,0,0,1.09,1.63Z"/><path class="cls-24" d="M121.54,71h-1.93V13.12l1.44-1.67a21.94,21.94,0,0,0-.6,5.81V69.31c0,.78.6,1.23,1.09,1.64Z"/><path class="cls-25" d="M119.61,71h-1.94c.49-.41,1.09-.86,1.09-1.64V14.1l.85-1V71Z"/><path class="cls-26" d="M119.61,124h-1.94a2.21,2.21,0,0,0,1.09-1.63V72.59c0-.78-.6-1.23-1.09-1.64h1.94V124Z"/><path class="cls-27" d="M119.61,39.22l.24-25.64a1.4,1.4,0,0,1,.25-.8l.78-1.13-1,.91a1,1,0,0,1-.68.27l-9.25.29,9.6.1.09,26Z"/><path class="cls-28" d="M119.35,70.65a4.62,4.62,0,0,1-1.55.3,4.88,4.88,0,0,1,1.55.3,29,29,0,0,1,.26,3.4,27,27,0,0,1,.26-3.4,4.81,4.81,0,0,1,1.54-.3,4.55,4.55,0,0,1-1.54-.3c-.16-.36-.22-6.08-.26-6.75,0,.67-.1,6.39-.26,6.75Z"/><path class="cls-29" d="M119.35,123.74a4.38,4.38,0,0,1-1.55.3,4.88,4.88,0,0,1,1.55.3,29,29,0,0,1,.26,3.4,27,27,0,0,1,.26-3.4,4.81,4.81,0,0,1,1.54-.3,4.32,4.32,0,0,1-1.54-.3c-.16-.36-.22-6.08-.26-6.74,0,.66-.1,6.38-.26,6.74Z"/><path class="cls-30" d="M87.87,24.09a1.34,1.34,0,0,0-2.33.8,1.33,1.33,0,0,1,.33-1.74,1.28,1.28,0,0,1,2,.94Z"/><path class="cls-31" d="M87.87,2.53a1.34,1.34,0,0,1-2.33-.8,1.33,1.33,0,0,0,.33,1.74,1.28,1.28,0,0,0,2-.94Z"/><path class="cls-32" d="M95.5,15c-1.69.73-3.09,0-3.28-1.67-.12-1,.64-2.92,2.65-2a19.42,19.42,0,0,0,2.67,1.07,5.13,5.13,0,0,0,4-.26c-2.48,2.2-5.14.83-5.94.64-1.09-.26-1.54.18-1.54.74s.45,1,1.54.73a2.67,2.67,0,0,1,2.71.77,3,3,0,0,0-2.86,0Z"/><path class="cls-33" d="M91.72,17a1.23,1.23,0,0,0-1.41,1.7c.26.75,1.12.95,2.1.74a19,19,0,0,1,2.25-.62c-.92.39-1.8,1.06-2.65,1.34a2.08,2.08,0,0,1-2.69-2.74l.06-.14a1.46,1.46,0,0,1,1.32-.82c1.4-.08,2,1.16,3.31.91a2.2,2.2,0,0,1-.58.1c-.64,0-1.18-.38-1.71-.47Z"/><path class="cls-34" d="M93.27,7.67c-2.86-.57-3,2.64-.91,2a2.85,2.85,0,0,1,2.83.08c-1.11-.47-1.85-.29-3.11.49a1.81,1.81,0,0,1-2.56-.57l0-.09c-.65-1.63,1.12-3.73,4.24-2.31A4.56,4.56,0,0,0,97,7.76c-1.27.81-2.6.12-3.68-.09Z"/><path class="cls-35" d="M93.72,7.25c-3.12-1.42-4.89.68-4.24,2.31C88.38,7,87,4.23,85.87,3.47a1.28,1.28,0,0,0,2-.94c.21,3.05,2,3.15,3.59,2.75,2.17-.54,3.48,2.1,5.49,2.48a4.56,4.56,0,0,1-3.23-.51Z"/><path class="cls-36" d="M89.52,9.65a1.81,1.81,0,0,0,2.56.57c1.26-.78,2-1,3.11-.49a8,8,0,0,1,.73.43c1.64,1.05,3.2,2.52,5.67,1.92a5.13,5.13,0,0,1-4,.26,19.42,19.42,0,0,1-2.67-1.07c-2-.88-2.77,1.08-2.65,2,.19,1.65,1.59,2.4,3.28,1.67a3,3,0,0,1,2.86,0c-1.92.08-2.87,2-4.35,2.44-1.44.14-2-1-3.31-.91a1.46,1.46,0,0,0-1.32.82c.68-1.56,1.26-3.06,1.6-4-.31-.87-.84-2.22-1.46-3.66Z"/><path class="cls-37" d="M89.32,17.45A2.08,2.08,0,0,0,92,20.19c.85-.28,1.73-1,2.65-1.34a8.21,8.21,0,0,0-1.16,1.27,3.23,3.23,0,0,1-2.84,1.22c-1.38.09-2.58.47-2.79,2.75a1.28,1.28,0,0,0-2-.94c1-.72,2.37-3.26,3.45-5.7Z"/><path class="cls-38" d="M95.5,15c-1.46.52-3,.21-3.21-1.68a1.87,1.87,0,0,1,1.24-2.1,2.15,2.15,0,0,1,1.34.17c2.42,1,3.81,1.81,6.24.92-2.45.81-4.11-.12-6.2-1-1.93-.84-2.85.78-2.71,2.06A2.11,2.11,0,0,0,93.07,15a2.55,2.55,0,0,0,2.43,0Z"/><path class="cls-39" d="M93,9.74c-.9.44-2.6,1.53-3.41-.15a1.73,1.73,0,0,1,.93-2.42A3.32,3.32,0,0,1,92.68,7a14.47,14.47,0,0,0,2.81.89,21.81,21.81,0,0,1-2.79-1c-2-.49-4.14.86-3.21,2.79.76,1.56,2.48.74,3.49.08Z"/><path class="cls-40" d="M92,16.84a2,2,0,0,0-2.32,0,2,2,0,0,0,.92,3.41,2,2,0,0,1-.87-3.34,2,2,0,0,1,2.27,0Z"/><path class="cls-41" d="M87.74,3a1.28,1.28,0,0,1-2.38-.67A1.25,1.25,0,0,0,87.74,3Z"/><path class="cls-42" d="M87.74,23.68a1.28,1.28,0,0,0-2.38.67,1.25,1.25,0,0,1,2.38-.67Z"/><path class="cls-43" d="M33.68,24.09a1.34,1.34,0,0,1,2.32.8,1.33,1.33,0,0,0-.32-1.74,1.28,1.28,0,0,0-2,.94Z"/><path class="cls-44" d="M33.68,2.53A1.33,1.33,0,0,0,36,1.73a1.32,1.32,0,0,1-.32,1.74,1.28,1.28,0,0,1-2-.94Z"/><path class="cls-45" d="M26,15c1.69.73,3.09,0,3.29-1.67.11-1-.64-2.92-2.65-2A20,20,0,0,1,24,12.34,5.15,5.15,0,0,1,20,12.08c2.48,2.2,5.15.83,5.95.64,1.08-.26,1.54.18,1.54.74s-.46,1-1.54.73a2.67,2.67,0,0,0-2.71.77A2.94,2.94,0,0,1,26,15Z"/><path class="cls-46" d="M29.82,17a1.23,1.23,0,0,1,1.41,1.7c-.25.75-1.11.95-2.1.74a19.35,19.35,0,0,0-2.24-.62c.92.39,1.8,1.06,2.64,1.34a2.09,2.09,0,0,0,2.7-2.74l-.07-.14a1.46,1.46,0,0,0-1.32-.82c-1.4-.08-2,1.16-3.31.91a2.28,2.28,0,0,0,.59.1c.64,0,1.18-.38,1.7-.47Z"/><path class="cls-47" d="M28.28,7.67c2.86-.57,3,2.64.9,2a2.85,2.85,0,0,0-2.83.08c1.11-.47,1.85-.29,3.11.49A1.81,1.81,0,0,0,32,9.65l0-.09c.66-1.63-1.11-3.73-4.23-2.31a4.57,4.57,0,0,1-3.23.51c1.27.81,2.6.12,3.68-.09Z"/><path class="cls-48" d="M27.83,7.25c3.12-1.42,4.89.68,4.23,2.31,1.1-2.55,2.51-5.33,3.62-6.09a1.28,1.28,0,0,1-2-.94c-.22,3.05-2,3.15-3.59,2.75-2.17-.54-3.49,2.1-5.49,2.48a4.57,4.57,0,0,0,3.23-.51Z"/><path class="cls-49" d="M32,9.65a1.81,1.81,0,0,1-2.56.57c-1.26-.78-2-1-3.11-.49a8,8,0,0,0-.72.43C24,11.21,22.43,12.68,20,12.08a5.15,5.15,0,0,0,4.06.26,20,20,0,0,0,2.67-1.07c2-.88,2.76,1.08,2.65,2C29.13,15,27.73,15.71,26,15a2.94,2.94,0,0,0-2.85,0c1.92.08,2.86,2,4.34,2.44,1.44.14,2-1,3.31-.91a1.46,1.46,0,0,1,1.32.82c-.68-1.56-1.26-3.06-1.6-4,.32-.87.84-2.22,1.46-3.66Z"/><path class="cls-50" d="M32.23,17.45a2.09,2.09,0,0,1-2.7,2.74c-.84-.28-1.72-1-2.64-1.34a9.35,9.35,0,0,1,1.16,1.27,3.2,3.2,0,0,0,2.83,1.22c1.39.09,2.58.47,2.8,2.75a1.28,1.28,0,0,1,2-.94c-1.06-.72-2.38-3.26-3.45-5.7Z"/><path class="cls-51" d="M26,15c1.47.52,3,.21,3.21-1.68A1.85,1.85,0,0,0,28,11.2a2.18,2.18,0,0,0-1.35.17c-2.41,1-3.81,1.81-6.23.92,2.45.81,4.11-.12,6.2-1,1.93-.84,2.84.78,2.71,2.06A2.09,2.09,0,0,1,28.47,15,2.55,2.55,0,0,1,26,15Z"/><path class="cls-52" d="M28.57,9.74c.9.44,2.59,1.53,3.41-.15A1.74,1.74,0,0,0,31,7.17,3.32,3.32,0,0,0,28.86,7a14.47,14.47,0,0,1-2.81.89,21.44,21.44,0,0,0,2.8-1c1.94-.49,4.14.86,3.2,2.79-.76,1.56-2.47.74-3.48.08Z"/><path class="cls-53" d="M29.51,16.84a2,2,0,0,1,2.32,0,2,2,0,0,1-.92,3.41,2,2,0,0,0,.87-3.34,2,2,0,0,0-2.27,0Z"/><path class="cls-54" d="M33.8,3a1.28,1.28,0,0,0,2.38-.67A1.25,1.25,0,0,1,33.8,3Z"/><path class="cls-55" d="M33.8,23.68a1.28,1.28,0,0,1,2.38.67,1.25,1.25,0,0,0-2.38-.67Z"/><path class="cls-56" d="M61,0H78V26.48H60.93"/><path class="cls-56" d="M78,0a13.24,13.24,0,0,1,0,26.48"/><path class="cls-57" d="M78,26.48A13.28,13.28,0,0,0,91.24,13.24c0-.35,0-.7,0-1A13.28,13.28,0,0,1,78,24.4h0"/><path class="cls-57" d="M61,26.48H78V24.4H60.93"/><path class="cls-58" d="M60.93.76H77.88A12.54,12.54,0,0,1,90.19,11.2c.38,2.34-3.27,2.84-3.65.58h0a8.82,8.82,0,0,0-8.66-7.32H60.93"/><path class="cls-56" d="M60.84,0h-17V26.48H60.93"/><path class="cls-56" d="M43.86,0a13.24,13.24,0,1,0,0,26.48"/><path class="cls-59" d="M78,5.23H61l0,16H78a8,8,0,1,0,0-16Z"/><path class="cls-60" d="M43.86,5.23h0a8,8,0,0,0,0,16H60.93l0-16Z"/><path class="cls-57" d="M43.86,26.48A13.28,13.28,0,0,1,30.62,13.24c0-.35,0-.7,0-1a13.29,13.29,0,0,0,13.2,12.2h0"/><path class="cls-57" d="M60.89,26.48h-17V24.4H60.93"/><path class="cls-61" d="M60.93.76H44A12.52,12.52,0,0,0,31.68,11.2c-.39,2.34,3.26,2.84,3.65.58h0A8.82,8.82,0,0,1,44,4.46h17"/><path class="cls-56" d="M61.65,114H75.76v22H61.57"/><path class="cls-56" d="M75.76,114a11,11,0,0,1,0,22"/><path class="cls-57" d="M75.76,136a11,11,0,0,0,11-11c0-.29,0-.58,0-.86a11.05,11.05,0,0,1-11,10.14h0"/><path class="cls-57" d="M61.61,136H75.76v-1.73H61.57"/><path class="cls-62" d="M61.57,114.59h14.1a10.33,10.33,0,0,1,7.32,3,10.45,10.45,0,0,1,2.91,5.64c.32,1.93-2.72,2.36-3,.48h0a7.31,7.31,0,0,0-7.19-6.09H61.57"/><path class="cls-56" d="M61.5,114H47.38v22H61.57"/><path class="cls-56" d="M47.38,114a11,11,0,0,0,0,22"/><path class="cls-63" d="M75.76,118.3H61.61l0,13.31H75.76a6.66,6.66,0,1,0,0-13.31Z"/><path class="cls-64" d="M47.38,118.3h0a6.66,6.66,0,0,0,0,13.31H61.57l0-13.31Z"/><path class="cls-57" d="M47.38,136a11,11,0,0,1-11-11,8.12,8.12,0,0,1,0-.86,11,11,0,0,0,11,10.14h0"/><path class="cls-57" d="M61.54,136H47.38v-1.73H61.57"/><path class="cls-65" d="M61.57,114.59H47.48a10.4,10.4,0,0,0-10.23,8.68c-.32,1.93,2.71,2.36,3,.48h0a7.33,7.33,0,0,1,7.2-6.09H61.57"/><path class="cls-66" d="M55.5,125.15c-.18,0-.27-.08-.27-.23a.4.4,0,0,1,.11-.27.33.33,0,0,1,.25-.12.35.35,0,0,1,.3.16.59.59,0,0,1,.13.37.59.59,0,0,1-.19.45.69.69,0,0,1-.43.16.59.59,0,0,1-.46-.21.73.73,0,0,1-.19-.53,1.13,1.13,0,0,1,.41-.85,1.24,1.24,0,0,1,.88-.39,1.59,1.59,0,0,1,1.21.63,2.05,2.05,0,0,1,.55,1.37,2.45,2.45,0,0,1-.69,1.7,2.07,2.07,0,0,1-1.53.75,1.49,1.49,0,0,1-.94-.34,1.28,1.28,0,0,1-.51-.84,2.59,2.59,0,0,1-.49.63l-.17-.1a2.15,2.15,0,0,0,.34-.44,2.19,2.19,0,0,0,.22-.47,8.18,8.18,0,0,0,.16-1c.06-.51.12-1.14.17-1.88s.08-1.48.08-2.22c0-.26,0-.62,0-1.08l-.64,0v-.19a5.65,5.65,0,0,0,1.92-.35l0,.18-.45.15q-.2,1.65-.57,3.6a18,18,0,0,0-.38,2.49,1.82,1.82,0,0,0,.37,1.17,1.16,1.16,0,0,0,.9.44,1.26,1.26,0,0,0,1-.67,2.72,2.72,0,0,0,.44-1.5,2.26,2.26,0,0,0-.36-1.23.92.92,0,0,0-1.5-.3.89.89,0,0,0-.3.67.45.45,0,0,0,.16.31.45.45,0,0,0,.32.15.6.6,0,0,0,.3-.1.29.29,0,0,0,.14-.21c0-.14-.09-.21-.29-.21s-.11,0-.11.12A.74.74,0,0,0,55.5,125.15Z"/><path class="cls-66" d="M59.79,124.67a.23.23,0,0,1-.25.22.27.27,0,0,1-.19-.08.31.31,0,0,1-.07-.21.43.43,0,0,1,.13-.29.42.42,0,0,1,.29-.14c.48,0,.72.14.72.41a.85.85,0,0,1-.37.64,1.07,1.07,0,0,1-.63.28.86.86,0,0,1-.53-.17.6.6,0,0,1-.21-.48,1.89,1.89,0,0,1,.57-1.24,1.68,1.68,0,0,1,1.2-.64,1.07,1.07,0,0,1,.86.44,1.68,1.68,0,0,1,.35,1.09,2.08,2.08,0,0,1-.13.79,5.58,5.58,0,0,1-.39.77,4,4,0,0,0-.68,2.05c0,.07,0,.14,0,.22h-.21v-.7a2.27,2.27,0,0,1-1,.43.8.8,0,0,1-.59-.22.72.72,0,0,1,.11-1.16,1.28,1.28,0,0,1,.77-.26q.3,0,1-.06a3.71,3.71,0,0,0,.39-1.52c0-1-.23-1.53-.7-1.53a1,1,0,0,0-.93.42,2,2,0,0,0-.28,1.14.52.52,0,0,0,.12.34.38.38,0,0,0,.29.14.59.59,0,0,0,.42-.2.61.61,0,0,0,.19-.44.29.29,0,0,0-.12-.23.45.45,0,0,0-.27-.1.15.15,0,0,0-.11.07.18.18,0,0,0,0,.13c0,.09,0,.14.11.14A.3.3,0,0,0,59.79,124.67Zm.7,1.87-.71.07a.73.73,0,0,0-.44.25.69.69,0,0,0-.17.43.51.51,0,0,0,.12.35.35.35,0,0,0,.3.13,1.1,1.1,0,0,0,.72-.4Z"/><path class="cls-66" d="M65.42,127.87a3.47,3.47,0,0,1-.94.16,1.83,1.83,0,0,1-1.49-.78,2.89,2.89,0,0,1-.61-1.81,2.38,2.38,0,0,1,.74-1.7,2.34,2.34,0,0,1,1.69-.76,1.71,1.71,0,0,1,.88.28.76.76,0,0,1,.45.64.85.85,0,0,1-.3.61.92.92,0,0,1-.64.29.88.88,0,0,1-.53-.16.52.52,0,0,1-.09-.8.6.6,0,0,1,.42-.13.55.55,0,0,1,.28.07.24.24,0,0,1,.12.2.19.19,0,0,1-.1.15.29.29,0,0,1-.18.08h-.06a1.39,1.39,0,0,0,0-.23c0-.09-.06-.13-.16-.13a.21.21,0,0,0-.17.11.4.4,0,0,0-.07.22c0,.29.13.43.39.43a.55.55,0,0,0,.43-.2.69.69,0,0,0,.17-.46.72.72,0,0,0-.28-.56,1,1,0,0,0-.62-.23,1.41,1.41,0,0,0-1.2.74,2.89,2.89,0,0,0-.48,1.58,3.58,3.58,0,0,0,.37,1.65,1.11,1.11,0,0,0,1,.73.75.75,0,0,0,.71-.4Z"/><path class="cls-66" d="M70.83,123.8l0,.16a1.86,1.86,0,0,1-.68-.26l-2.35,1.72a1.94,1.94,0,0,1,.7.17,1,1,0,0,1,.43.35.7.7,0,0,1,.16.36c0,.1,0,.32,0,.67a1.76,1.76,0,0,0,.08.6.55.55,0,0,0,.27.27.85.85,0,0,0,.38.09.64.64,0,0,0,.52-.25.88.88,0,0,0,.2-.53q0-.39-.42-.39a.49.49,0,0,0-.2,0s-.06.06-.06.13.06.13.2.13l.11,0,.09,0a.22.22,0,0,1,0,.08.19.19,0,0,1-.07.16.24.24,0,0,1-.18.07.26.26,0,0,1-.24-.12.52.52,0,0,1-.08-.29.52.52,0,0,1,.19-.34.58.58,0,0,1,.39-.18.4.4,0,0,1,.35.21,1,1,0,0,1,.12.48,1,1,0,0,1-.35.81,1.45,1.45,0,0,1-1,.3.74.74,0,0,1-.58-.27.9.9,0,0,1-.26-.55,3.83,3.83,0,0,0-.15-1,1.25,1.25,0,0,0-.92-.8l-.28,2.19.86,0,0,.25A10.22,10.22,0,0,0,66.2,128l0-.25.85,0q.09-1.11.15-3.87c0-1.84.07-3,.07-3.57a6.45,6.45,0,0,1-.75-.06l0-.19c.33,0,.7,0,1.13,0a11.32,11.32,0,0,0,1.16,0v.15l-.79.06c0,.71-.2,2.4-.49,5.07l2.21-1.79a1.6,1.6,0,0,0-.25-.2,1.81,1.81,0,0,1-.31-.29l.14-.15A3.51,3.51,0,0,0,70.83,123.8Z"/><path class="cls-67" d="M60.77,45.28A10.18,10.18,0,1,1,50.59,55.46,10.18,10.18,0,0,1,60.77,45.28Z"/><path class="cls-68" d="M49.54,55.46A11.25,11.25,0,0,1,60.77,44.22V42.06a3.56,3.56,0,0,1-2.12,1.29,12.29,12.29,0,0,0-10,10,3.58,3.58,0,0,1-1.3,2.12Z"/><path class="cls-69" d="M72,55.46A11.23,11.23,0,0,0,60.77,44.23V42.06a3.59,3.59,0,0,0,2.12,1.29,12.32,12.32,0,0,1,10,10,3.56,3.56,0,0,0,1.29,2.12Z"/><path class="cls-70" d="M49.54,55.46A11.23,11.23,0,0,0,60.77,66.69v2.17a3.58,3.58,0,0,0-2.12-1.3,12.26,12.26,0,0,1-10-10,3.58,3.58,0,0,0-1.3-2.12Z"/><path class="cls-71" d="M72,55.46A11.23,11.23,0,0,1,60.77,66.69v2.17a3.61,3.61,0,0,1,2.12-1.3,12.29,12.29,0,0,0,10-10,3.56,3.56,0,0,1,1.29-2.12Z"/><path class="cls-72" d="M60.77,65.64A10.18,10.18,0,1,1,71,55.46,10.18,10.18,0,0,1,60.77,65.64ZM52.83,63.4a11.23,11.23,0,1,0-3.29-7.94,11.16,11.16,0,0,0,3.29,7.94Z"/><path class="cls-73" d="M60.77,46.5a8.78,8.78,0,1,1-8.6,8.78,8.69,8.69,0,0,1,8.6-8.78Z"/><path class="cls-74" d="M60.77,46.86a8.6,8.6,0,1,1-8.6,8.6,8.6,8.6,0,0,1,8.6-8.6Z"/><path class="cls-75" d="M55.93,53.23h1.68l3.89-3.34c.11.06.11,3.82.11,3.82a1.81,1.81,0,0,1,0,3.5V61c-.11.05-4-3.28-4-3.28H55.93a.39.39,0,0,1-.39-.39V53.62a.39.39,0,0,1,.39-.39ZM62.58,53a.34.34,0,0,1-.12-.44.33.33,0,0,1,.44-.12,3.55,3.55,0,0,1,1.29,1.29,3.51,3.51,0,0,1,.48,1.77,3.44,3.44,0,0,1-.48,1.76,3.5,3.5,0,0,1-1.29,1.3.32.32,0,0,1-.32-.56,2.77,2.77,0,0,0,1.06-1.06A2.85,2.85,0,0,0,64,55.46,2.92,2.92,0,0,0,63.64,54a2.81,2.81,0,0,0-1.06-1Zm.67-1.16a.34.34,0,0,1-.12-.44.33.33,0,0,1,.44-.12A5,5,0,0,1,65.35,53a4.89,4.89,0,0,1-1.78,6.66.32.32,0,1,1-.32-.56,4.19,4.19,0,0,0,1.55-1.55,4.21,4.21,0,0,0-1.55-5.77Z"/><path class="cls-76" d="M48.44,10.14a.61.61,0,0,0-.25-.06c-.1,0-.15.12-.15.35a.3.3,0,0,0,.1.22.36.36,0,0,0,.25.1q.51,0,.51-.9a.85.85,0,0,0-.29-.63A1,1,0,0,0,47.94,9a1.18,1.18,0,0,0-.88.39,1.2,1.2,0,0,0-.38.87A1.23,1.23,0,0,0,47,11a3.7,3.7,0,0,0,1.18.87c.6.32,1,.57,1.27.74a2.52,2.52,0,0,1,.64.62,1.41,1.41,0,0,1,.27.85,2.41,2.41,0,0,1-.81,1.71,2.5,2.5,0,0,1-1.79.82A1.69,1.69,0,0,1,46.49,16,1.78,1.78,0,0,1,46,14.76a1.39,1.39,0,0,1,.52-1,1.54,1.54,0,0,1,1.06-.48,1.24,1.24,0,0,1,.81.25.76.76,0,0,1,.31.64,1,1,0,0,1-.35.75,1.14,1.14,0,0,1-.79.32.43.43,0,0,1-.32-.14.45.45,0,0,1-.12-.31.34.34,0,0,1,.13-.28.49.49,0,0,1,.33-.11.25.25,0,0,1,.22.13q-.3.09-.3.21c0,.21.1.31.29.31a.39.39,0,0,0,.36-.23.94.94,0,0,0,.14-.51.79.79,0,0,0-.23-.58.75.75,0,0,0-.57-.25.72.72,0,0,0-.67.41,2.05,2.05,0,0,0-.24,1.06,1.52,1.52,0,0,0,.37,1,1.22,1.22,0,0,0,.93.43,2,2,0,0,0,1.47-.6,2.15,2.15,0,0,0,.61-1.58,1.15,1.15,0,0,0-.27-.77,2.26,2.26,0,0,0-.65-.52c-.26-.13-.61-.29-1.06-.47s-.81-.35-1.09-.5a2.28,2.28,0,0,1-.7-.57,1.35,1.35,0,0,1-.28-.87,1.48,1.48,0,0,1,.63-1.2A2.37,2.37,0,0,1,48,8.79a1.54,1.54,0,0,1,.92.27.8.8,0,0,1,.38.69,1.37,1.37,0,0,1-.26.83.77.77,0,0,1-.67.34,1,1,0,0,1-.55-.14.42.42,0,0,1-.24-.38.53.53,0,0,1,.15-.36.45.45,0,0,1,.36-.17C48.32,9.87,48.44,10,48.44,10.14Z"/><path class="cls-76" d="M54.09,15.29c.17,0,.26.08.26.25a.33.33,0,0,1-.14.27.45.45,0,0,1-.27.12.57.57,0,0,1-.5-.54.62.62,0,0,1,.2-.5.76.76,0,0,1,.51-.18.84.84,0,0,1,.62.26.92.92,0,0,1,.24.66.88.88,0,0,1-.41.75,1.65,1.65,0,0,1-.91.28A2.39,2.39,0,0,1,52,15.91a2.46,2.46,0,0,1-.77-1.82A2.66,2.66,0,0,1,52,12.26a2.15,2.15,0,0,1,1.6-.82,1.87,1.87,0,0,1,1.17.42,1,1,0,0,1,.08,1.8,1.84,1.84,0,0,1-1.16.36,2.42,2.42,0,0,1-1-.18.59.59,0,0,1-.37-.53.63.63,0,0,1,.23-.5.73.73,0,0,1,.48-.2.77.77,0,0,1,.4.11.33.33,0,0,1,.18.27.49.49,0,0,1-.12.32.38.38,0,0,1-.24.14c-.16,0-.23,0-.23-.16.17,0,.26-.13.26-.25a.27.27,0,0,0-.1-.22.41.41,0,0,0-.24-.08c-.07,0-.13.06-.19.17a.69.69,0,0,0-.09.34c0,.16.12.3.35.42a1.93,1.93,0,0,0,.84.17.83.83,0,0,0,.66-.26,1,1,0,0,0,.23-.69,1.33,1.33,0,0,0-.34-.86,1,1,0,0,0-.83-.41,1.24,1.24,0,0,0-1,.69A3.51,3.51,0,0,0,52,14.19a2.59,2.59,0,0,0,.5,1.62,1.49,1.49,0,0,0,1.23.64,1.15,1.15,0,0,0,.67-.24.68.68,0,0,0,.34-.59.49.49,0,0,0-.24-.42A.83.83,0,0,0,54,15a.38.38,0,0,0-.27.1.32.32,0,0,0-.11.24c0,.16.09.24.28.24s.1,0,.14-.1A.59.59,0,0,0,54.09,15.29Z"/><path class="cls-76" d="M59,11.12c-.31.06-.56.1-.76.12a5.69,5.69,0,0,0-.86.22c0,.24-.13.82-.33,1.75a11.2,11.2,0,0,0-.3,1.88,1.55,1.55,0,0,0,.26,1,.87.87,0,0,0,.73.34.59.59,0,0,0,.53-.31,1.58,1.58,0,0,0,.19-.8.69.69,0,0,0-.14-.39.38.38,0,0,0-.29-.2.28.28,0,0,0-.24.14.57.57,0,0,0-.09.32c0,.11,0,.16.15.16s.18-.08.22-.24l.07.05a.39.39,0,0,1-.1.28.26.26,0,0,1-.21.12.59.59,0,0,1-.35-.12.38.38,0,0,1-.16-.3.56.56,0,0,1,.21-.43A.69.69,0,0,1,58,14.5a1.09,1.09,0,0,1,.61.21.59.59,0,0,1,.3.45,1.69,1.69,0,0,1-.32,1,.92.92,0,0,1-.75.44,1.36,1.36,0,0,1-1-.4,1.5,1.5,0,0,1-.38-1.06c0-.22,0-.81.13-1.77s.13-1.52.12-1.67l-1,.29v-.31l1-.24c0-.11,0-.24,0-.39a7.63,7.63,0,0,0-.1-1.28l1-.16a8.88,8.88,0,0,1-.13,1.61,9.22,9.22,0,0,1,.94-.27c.16,0,.35-.08.57-.15Z"/><path class="cls-76" d="M62.48,11.12c-.31.06-.56.1-.76.12a5.69,5.69,0,0,0-.86.22c0,.24-.13.82-.33,1.75a11.2,11.2,0,0,0-.3,1.88,1.55,1.55,0,0,0,.26,1,.87.87,0,0,0,.73.34.59.59,0,0,0,.53-.31,1.58,1.58,0,0,0,.19-.8.69.69,0,0,0-.14-.39.37.37,0,0,0-.29-.2.28.28,0,0,0-.24.14.57.57,0,0,0-.09.32c0,.11,0,.16.15.16s.18-.08.22-.24l.07.05a.39.39,0,0,1-.1.28.26.26,0,0,1-.21.12.59.59,0,0,1-.35-.12.38.38,0,0,1-.16-.3.56.56,0,0,1,.21-.43.69.69,0,0,1,.45-.19,1.09,1.09,0,0,1,.61.21.59.59,0,0,1,.3.45,1.69,1.69,0,0,1-.32,1,.92.92,0,0,1-.75.44,1.36,1.36,0,0,1-1-.4,1.5,1.5,0,0,1-.38-1.06c0-.22,0-.81.13-1.77s.13-1.52.12-1.67l-1,.29v-.31l1-.24c0-.11,0-.24,0-.39a7.63,7.63,0,0,0-.1-1.28l1-.16a8.88,8.88,0,0,1-.13,1.61,9.22,9.22,0,0,1,.94-.27c.16,0,.35-.08.57-.15Z"/><path class="cls-76" d="M65,16.61c-.86,0-1.39,0-1.6,0a5,5,0,0,0-.55.1v-.31l.71,0a40.26,40.26,0,0,0-.25-4.62l-.61,0v-.21h.79a3.8,3.8,0,0,0,1.07-.21v.26l-.51.12-.11,1.8-.14,2.82A9,9,0,0,0,65,16.3Zm-.4-6.71-.07,0a.69.69,0,0,0-.63-.34.91.91,0,0,0-.57.19.53.53,0,0,0-.27.44.56.56,0,0,0,.23.47.67.67,0,0,0,.43.18c.28,0,.42-.12.42-.37s-.1-.42-.32-.42a.22.22,0,0,0-.13,0,.14.14,0,0,0-.08.11c0,.09.06.14.16.14a.41.41,0,0,0,.18-.07c0,.19-.13.29-.26.29a.19.19,0,0,1-.16-.11.32.32,0,0,1-.07-.18.31.31,0,0,1,.12-.24.39.39,0,0,1,.28-.1.73.73,0,0,1,.41.12.39.39,0,0,1,.19.35.49.49,0,0,1-.24.4.91.91,0,0,1-.51.16.81.81,0,0,1-.57-.23.72.72,0,0,1-.25-.57.92.92,0,0,1,.26-.64.73.73,0,0,1,.55-.28A.82.82,0,0,1,64.58,9.9Z"/><path class="cls-76" d="M66.38,13c.39-1.11,1-1.67,1.76-1.67a2,2,0,0,1,1.49.7,2.31,2.31,0,0,1,.66,1.64,3.57,3.57,0,0,1-.61,2c-.41.64-.84,1-1.29,1a.83.83,0,0,1-.58-.26.74.74,0,0,1-.28-.55.55.55,0,0,1,.24-.42.8.8,0,0,1,.49-.18c.39,0,.58.12.58.36s-.14.35-.42.35c-.13,0-.2,0-.23-.09l0-.05.13,0c.07,0,.11-.07.11-.2s-.07-.23-.22-.23-.15.06-.21.18a.74.74,0,0,0-.1.35c0,.35.16.53.48.53.73,0,1.09-1,1.09-2.9a2.23,2.23,0,0,0-.43-1.31,1.19,1.19,0,0,0-1-.62,1.24,1.24,0,0,0-.86.37,2.79,2.79,0,0,0-.61.87,3,3,0,0,0-.22.57l-.22,2.93.6-.15.07.25a3.83,3.83,0,0,1-.87.14l-.81,0,0-.25.74.06c0-.14,0-.32,0-.52a21.53,21.53,0,0,0-.43-4.32l-.63.11-.06-.21a4.91,4.91,0,0,0,1.59-.49Z"/><path class="cls-76" d="M72.63,16.25c.38-.19.65-.33.8-.42a4.71,4.71,0,0,1,.71-.32,2.53,2.53,0,0,1,.93-.19.83.83,0,0,1,.67.33,1.32,1.32,0,0,1,.25.83A2,2,0,0,1,75.18,18a3.12,3.12,0,0,1-2.07.67,2.24,2.24,0,0,1-1.34-.4,1.17,1.17,0,0,1-.57-1c0-.46.33-.86,1-1.19l.07.11a1.07,1.07,0,0,0-.43.93,1.43,1.43,0,0,0,.35,1,1.24,1.24,0,0,0,1,.4,2.57,2.57,0,0,0,1.78-.61,1.73,1.73,0,0,0,.68-1.23.59.59,0,0,0-.19-.46.65.65,0,0,0-.48-.18,2.87,2.87,0,0,0-.83.11,4.85,4.85,0,0,0-.88.35,7.22,7.22,0,0,0-.82.47l-.15-.09a2.8,2.8,0,0,0,.22-.94c.05-.44.08-.77.11-1a1.87,1.87,0,0,1-1-.61,1.59,1.59,0,0,1-.39-1.05,2.19,2.19,0,0,1,.62-1.55,1.85,1.85,0,0,1,1.35-.65,1.2,1.2,0,0,1,.77.23,1.43,1.43,0,0,1-.26-.79.73.73,0,0,1,.26-.56.9.9,0,0,1,.63-.23.73.73,0,0,1,.49.17.48.48,0,0,1,.2.37.42.42,0,0,1-.15.32.53.53,0,0,1-.37.15c-.09,0-.15-.07-.19-.2a.65.65,0,0,0,.18,0c.11,0,.17-.1.17-.29a.48.48,0,0,0-.09-.29.25.25,0,0,0-.22-.12.45.45,0,0,0-.4.21.89.89,0,0,0-.15.54,1.82,1.82,0,0,0,.12.79l-.16.1a1.15,1.15,0,0,0-.8-.26,1.23,1.23,0,0,0-1,.54,2.17,2.17,0,0,0-.39,1.29,2.16,2.16,0,0,0,.31,1.25.89.89,0,0,0,.75.46,1.14,1.14,0,0,0,.94-.55A2.1,2.1,0,0,0,74.14,13a1.34,1.34,0,0,0-.28-.83.83.83,0,0,0-.67-.37.4.4,0,0,0-.3.15.49.49,0,0,0-.14.34.8.8,0,0,0,.09.39.25.25,0,0,0,.22.17.28.28,0,0,0,.15-.08.29.29,0,0,0,.09-.21c0-.09,0-.14-.08-.14a.26.26,0,0,0-.19.09.35.35,0,0,1,.07-.23.19.19,0,0,1,.14-.08c.22,0,.34.1.34.3a.4.4,0,0,1-.18.32A.57.57,0,0,1,73,13a.62.62,0,0,1-.46-.18.66.66,0,0,1-.18-.47.6.6,0,0,1,.25-.41.79.79,0,0,1,.53-.22,1.49,1.49,0,0,1,1,.4,1.32,1.32,0,0,1,.45,1A1.74,1.74,0,0,1,74,14.39a1.89,1.89,0,0,1-1.27.56C72.72,15.57,72.67,16,72.63,16.25Z"/><path class="cls-56" d="M19.27,75.09h84.6a7.47,7.47,0,0,1,0,14.94H19.27a7.47,7.47,0,1,1,0-14.94Z"/><path class="cls-77" d="M108.76,81.74a5,5,0,0,0-1.39-2.67,5,5,0,0,0-3.5-1.46H19.27a5,5,0,0,0-4.88,4.13,1,1,0,0,1-2.06-.32,7.14,7.14,0,0,1,2-3.83,7,7,0,0,1,5-2.06h84.6a7,7,0,0,1,6.94,5.89,1,1,0,0,1-2,.32Z"/><path class="cls-78" d="M19.27,78a4.52,4.52,0,0,0,0,9h84.6a4.52,4.52,0,0,0,0-9Z"/><path class="cls-57" d="M103.87,88.86H19.27A7.49,7.49,0,0,1,11.83,82a5.83,5.83,0,0,0,0,.59A7.49,7.49,0,0,0,19.27,90h84.6a7.49,7.49,0,0,0,7.47-7.47c0-.2,0-.39,0-.59a7.5,7.5,0,0,1-7.45,6.89Z"/><path class="cls-79" d="M19.1,79c-1.11,0-2,1.6-2,3.53s.91,3.53,2,3.53H67.3c1.1,0,2.06-1.59,2.06-3.53s-.91-3.53-2-3.53Z"/><path class="cls-80" d="M19.1,80c-.45,0-.85.37-1.12.94a1.62,1.62,0,0,0-.08,1c.1.35.29.56.51.56H68c.22,0,.41-.21.5-.56a1.54,1.54,0,0,0-.07-1c-.26-.58-.66-.95-1.12-.95Z"/><path class="cls-81" d="M19.1,85.08c-1,0-1.85-1.32-2-3,0,.16,0,.33,0,.5,0,1.94.91,3.53,2,3.53H67.3c1.1,0,2.06-1.59,2.06-3.53a4.1,4.1,0,0,0,0-.5c-.14,1.7-1,3-2,3Z"/><line class="cls-82" x1="103.86" y1="80.02" x2="103.78" y2="80.02"/><path class="cls-83" d="M67.32,86.09a3.63,3.63,0,0,0,3.62-3.53A3.55,3.55,0,0,0,67.41,79"/><path class="cls-84" d="M67.36,82.56h1.26A1,1,0,0,0,69.5,82a.94.94,0,0,0-.12-1,2.49,2.49,0,0,0-2-.95h0"/><path class="cls-85" d="M67.32,86.09a3.63,3.63,0,0,0,3.62-3.53,4.07,4.07,0,0,0,0-.5,3.55,3.55,0,0,1-3.5,3h-.09"/><path class="cls-86" d="M19.44,86.09a3.63,3.63,0,0,1-3.63-3.53A3.56,3.56,0,0,1,19.34,79"/><path class="cls-87" d="M19.39,82.56H18.14a1,1,0,0,1-.77-1.6,2.5,2.5,0,0,1,2-.95h0"/><path class="cls-88" d="M19.44,86.09a3.63,3.63,0,0,1-3.63-3.53,2.74,2.74,0,0,1,0-.5,3.54,3.54,0,0,0,3.49,3h.1"/></g></g></g></svg>