<svg xmlns="http://www.w3.org/2000/svg" xmlns:xlink="http://www.w3.org/1999/xlink" viewBox="0 0 37.11 37.11"><defs><style>.cls-1{isolation:isolate;}.cls-2{fill:#5b0000;}.cls-2,.cls-3,.cls-4,.cls-6,.cls-8,.cls-9{fill-rule:evenodd;}.cls-3{fill:url(#radial-gradient);}.cls-4{fill:#2d0000;}.cls-5,.cls-7{mix-blend-mode:screen;}.cls-5{fill:url(#linear-gradient);}.cls-6{fill:url(#radial-gradient-2);}.cls-7{fill:url(#linear-gradient-2);}.cls-8{fill:#f90000;}.cls-9{fill:#900;}</style><radialGradient id="radial-gradient" cx="217.92" cy="806.58" r="8.87" gradientTransform="translate(-193.76 -788.03)" gradientUnits="userSpaceOnUse"><stop offset="0" stop-color="#690000"/><stop offset="1" stop-color="#300000"/></radialGradient><linearGradient id="linear-gradient" x1="220.87" y1="806.58" x2="220.87" y2="789.1" gradientTransform="translate(-193.76 -788.03)" gradientUnits="userSpaceOnUse"><stop offset="0.35" stop-color="#430000" stop-opacity="0.5"/><stop offset="1" stop-color="#f90000"/></linearGradient><radialGradient id="radial-gradient-2" cx="1257.28" cy="806.58" r="8.87" gradientTransform="matrix(-1, 0, 0, 1, 1270.22, -788.03)" xlink:href="#radial-gradient"/><linearGradient id="linear-gradient-2" x1="1260.23" y1="806.58" x2="1260.23" y2="789.1" gradientTransform="matrix(-1, 0, 0, 1, 1270.22, -788.03)" xlink:href="#linear-gradient"/></defs><g class="cls-1"><g id="Layer_2" data-name="Layer 2"><g id="Layer_1-2" data-name="Layer 1"><path class="cls-2" d="M18.55,0a18.56,18.56,0,1,1,0,37.11"/><path class="cls-3" d="M18.55,29.77a11.22,11.22,0,0,0,0-22.44"/><path class="cls-4" d="M18.55,37.11A18.61,18.61,0,0,0,37.11,18.55c0-.49,0-1-.06-1.45a18.62,18.62,0,0,1-18.5,17.1h0"/><path class="cls-5" d="M18.55,1.07A17.56,17.56,0,0,1,35.63,15.7c.54,3.27-4.58,4-5.11.81h0a12.4,12.4,0,0,0-3.45-6.65,12.26,12.26,0,0,0-8.52-3.61"/><path class="cls-2" d="M18.55,0a18.56,18.56,0,0,0,0,37.11"/><path class="cls-6" d="M18.55,29.77a11.22,11.22,0,0,1,0-22.44"/><path class="cls-4" d="M18.55,37.11A18.61,18.61,0,0,1,0,18.55c0-.49,0-1,.06-1.45A18.61,18.61,0,0,0,18.55,34.2h0"/><path class="cls-7" d="M18.55,1.07A17.56,17.56,0,0,0,1.48,15.7c-.55,3.27,4.57,4,5.11.81h0a12.34,12.34,0,0,1,12-10.26"/><polygon class="cls-8" points="12.41 12.24 24.7 12.24 25.18 13.82 24.7 15.4 12.41 15.4 11.93 13.82 12.41 12.24 12.41 12.24"/><polygon class="cls-8" points="11.93 13.82 25.18 13.82 24.7 12.24 12.41 12.24 11.93 13.82 11.93 13.82"/><polygon class="cls-9" points="25.18 13.82 11.93 13.82 12.41 15.4 24.7 15.4 25.18 13.82 25.18 13.82"/><polygon class="cls-8" points="12.41 16.98 24.7 16.98 25.18 18.55 24.7 20.13 12.41 20.13 11.93 18.55 12.41 16.98 12.41 16.98"/><polygon class="cls-8" points="11.93 18.55 25.18 18.55 24.7 16.98 12.41 16.98 11.93 18.55 11.93 18.55"/><polygon class="cls-9" points="25.18 18.55 11.93 18.55 12.41 20.13 24.7 20.13 25.18 18.55 25.18 18.55"/><polygon class="cls-8" points="12.41 21.71 24.7 21.71 25.18 23.29 24.7 24.86 12.41 24.86 11.93 23.29 12.41 21.71 12.41 21.71"/><polygon class="cls-8" points="11.93 23.29 25.18 23.29 24.7 21.71 12.41 21.71 11.93 23.29 11.93 23.29"/><polygon class="cls-9" points="25.18 23.29 11.93 23.29 12.41 24.86 24.7 24.86 25.18 23.29 25.18 23.29"/></g></g></g></svg>