<svg xmlns="http://www.w3.org/2000/svg" xmlns:xlink="http://www.w3.org/1999/xlink" viewBox="0 0 41.07 125.69"><defs><style>.cls-1{isolation:isolate;}.cls-2{fill:#232323;}.cls-10,.cls-11,.cls-12,.cls-13,.cls-14,.cls-15,.cls-2,.cls-4,.cls-5,.cls-6,.cls-7,.cls-8{fill-rule:evenodd;}.cls-11,.cls-14,.cls-3,.cls-7,.cls-9{mix-blend-mode:screen;}.cls-3{fill:url(#linear-gradient);}.cls-4{fill:url(#linear-gradient-2);}.cls-6{fill:url(#linear-gradient-3);}.cls-7{fill:url(#linear-gradient-4);}.cls-12,.cls-15,.cls-8{mix-blend-mode:multiply;}.cls-8{fill:url(#linear-gradient-5);}.cls-9{fill:url(#linear-gradient-6);}.cls-10{fill:url(#linear-gradient-7);}.cls-11{fill:url(#linear-gradient-8);}.cls-12{fill:url(#linear-gradient-9);}.cls-13{fill:url(#linear-gradient-10);}.cls-14{fill:url(#linear-gradient-11);}.cls-15{fill:url(#linear-gradient-12);}</style><linearGradient id="linear-gradient" x1="1109.65" y1="-41.84" x2="1109.65" y2="-49.61" gradientTransform="translate(62.38 1180.42) rotate(-90)" gradientUnits="userSpaceOnUse"><stop offset="0"/><stop offset="1" stop-color="#a0a0a0"/></linearGradient><linearGradient id="linear-gradient-2" x1="1109.64" y1="-36.86" x2="1109.64" y2="-46.83" gradientTransform="translate(62.38 1180.42) rotate(-90)" gradientUnits="userSpaceOnUse"><stop offset="0" stop-color="#333"/><stop offset="1"/></linearGradient><linearGradient id="linear-gradient-3" x1="1069.3" y1="-37.95" x2="1069.3" y2="-45.74" gradientTransform="translate(62.38 1180.42) rotate(-90)" gradientUnits="userSpaceOnUse"><stop offset="0" stop-color="#8a1f1f"/><stop offset="1" stop-color="#e30613"/></linearGradient><linearGradient id="linear-gradient-4" x1="1069.3" y1="-41.85" x2="1069.3" y2="-44.66" gradientTransform="translate(62.38 1180.42) rotate(-90)" gradientUnits="userSpaceOnUse"><stop offset="0"/><stop offset="1" stop-color="#ff8383"/></linearGradient><linearGradient id="linear-gradient-5" x1="1069.3" y1="-37.95" x2="1069.3" y2="-42.4" gradientTransform="translate(62.38 1180.42) rotate(-90)" gradientUnits="userSpaceOnUse"><stop offset="0" stop-color="#c30"/><stop offset="0.1" stop-color="#d5572d"/><stop offset="0.46" stop-color="#f3cfc3"/><stop offset="0.62" stop-color="#fff"/></linearGradient><linearGradient id="linear-gradient-6" x1="1156.26" y1="-44.66" x2="1156.26" y2="-44.66" xlink:href="#linear-gradient-4"/><linearGradient id="linear-gradient-7" x1="1077.39" y1="-37.95" x2="1077.39" y2="-45.74" xlink:href="#linear-gradient-3"/><linearGradient id="linear-gradient-8" x1="1076.67" y1="-41.84" x2="1076.67" y2="-44.66" xlink:href="#linear-gradient-4"/><linearGradient id="linear-gradient-9" x1="1077.39" y1="-37.95" x2="1077.39" y2="-42.4" xlink:href="#linear-gradient-5"/><linearGradient id="linear-gradient-10" x1="282.98" y1="48.39" x2="282.98" y2="40.59" gradientTransform="matrix(0, 1, 1, 0, -23.95, -163.19)" xlink:href="#linear-gradient-3"/><linearGradient id="linear-gradient-11" x1="282.27" y1="44.49" x2="282.27" y2="41.68" gradientTransform="matrix(0, 1, 1, 0, -23.95, -163.19)" xlink:href="#linear-gradient-4"/><linearGradient id="linear-gradient-12" x1="282.98" y1="48.39" x2="282.98" y2="43.93" gradientTransform="matrix(0, 1, 1, 0, -23.95, -163.19)" xlink:href="#linear-gradient-5"/></defs><g class="cls-1"><g id="Layer_2" data-name="Layer 2"><g id="Layer_1-2" data-name="Layer 1"><path d="M22.86,14.41a6.24,6.24,0,0,1,2.05-2.88c1.38-.9,2.6-.4,4.61-.51a13.72,13.72,0,0,0,6.26-2.15c3.67-2.49,4.38-7.3,4.54-8.87a12.78,12.78,0,0,1,.48,6.92,11.52,11.52,0,0,1-3.38,6.26,13.28,13.28,0,0,1-5.88,3,6.57,6.57,0,0,0-2.87.82,5.54,5.54,0,0,0-2.09,2.8c-2.08.29-3.93-.31-4.52-1.52C21.56,17.2,22.14,16,22.86,14.41Z"/><path d="M18.21,14.41a6.17,6.17,0,0,0-2.05-2.88c-1.38-.9-2.6-.4-4.61-.51A13.66,13.66,0,0,1,5.3,8.87C1.63,6.38.92,1.57.75,0A12.78,12.78,0,0,0,.27,6.92a11.55,11.55,0,0,0,3.39,6.26,13.27,13.27,0,0,0,5.87,3A6.54,6.54,0,0,1,12.4,17a5.54,5.54,0,0,1,2.09,2.8c2.08.29,3.94-.31,4.52-1.52C19.51,17.2,18.94,16,18.21,14.41Z"/><path class="cls-2" d="M12.3,117.45V24.1a8.24,8.24,0,0,1,16.48,0v93.35a8.24,8.24,0,0,1-16.48,0Z"/><path class="cls-3" d="M19.63,18.72a5.5,5.5,0,0,0-4.56,5.38v93.35a5.48,5.48,0,0,0,1.61,3.86,5.57,5.57,0,0,0,2.95,1.53,1.15,1.15,0,0,1-.36,2.27,7.8,7.8,0,0,1-6.49-7.66V24.1a7.78,7.78,0,0,1,6.49-7.65,1.15,1.15,0,0,1,.36,2.27Z"/><path class="cls-4" d="M15.55,117.45a5,5,0,0,0,10,0V24.1a5,5,0,0,0-10,0v93.35Z"/><path class="cls-5" d="M27.48,24.1v93.35a8.26,8.26,0,0,1-7.59,8.21c.21,0,.43,0,.65,0a8.27,8.27,0,0,0,8.24-8.24V24.1a8.27,8.27,0,0,0-8.24-8.24c-.22,0-.44,0-.65,0a8.26,8.26,0,0,1,7.59,8.21Z"/><path class="cls-6" d="M16.64,117.92c0,.31,1.76.57,3.9.57s3.89-.26,3.89-.57V104.33c0-.31-1.76-.58-3.89-.58s-3.9.25-3.9.57v13.6Z"/><path class="cls-7" d="M17.73,117.92c0,.13.4.24,1,.32a6.21,6.21,0,0,0,1.15,0c.39,0,.63-.08.63-.14v-14c0-.06-.23-.11-.62-.14a6.25,6.25,0,0,0-1.15,0c-.64.07-1,.19-1,.32v13.6Z"/><path class="cls-8" d="M23.32,117.92c0,.29-1.46.53-3.34.57h.56c2.13,0,3.89-.26,3.89-.57V104.33c0-.31-1.76-.58-3.89-.58H20c1.88,0,3.34.28,3.34.57v13.6Z"/><line class="cls-9" x1="17.73" y1="24.12" x2="17.73" y2="24.21"/><path class="cls-10" d="M24.44,105a4,4,0,0,0-3.9-4,3.92,3.92,0,0,0-3.9,3.9"/><path class="cls-11" d="M20.54,105V103.6a1.07,1.07,0,0,0-.61-1,1.09,1.09,0,0,0-1.15.13,2.77,2.77,0,0,0-1.05,2.18h0"/><path class="cls-12" d="M24.44,105a4,4,0,0,0-3.9-4,5.27,5.27,0,0,0-.56,0,3.93,3.93,0,0,1,3.34,3.86v.1"/><path class="cls-13" d="M24.44,117.79a4,4,0,0,1-3.9,4,3.92,3.92,0,0,1-3.9-3.9"/><path class="cls-14" d="M20.54,117.84v1.38a1.06,1.06,0,0,1-.61,1,1,1,0,0,1-1.15-.13,2.77,2.77,0,0,1-1.05-2.18h0"/><path class="cls-15" d="M24.44,117.79a4,4,0,0,1-3.9,4,3.52,3.52,0,0,1-.56,0,3.92,3.92,0,0,0,3.34-3.86v-.1"/></g></g></g></svg>