<svg xmlns="http://www.w3.org/2000/svg" xmlns:xlink="http://www.w3.org/1999/xlink" viewBox="0 0 41.07 125.69"><defs><style>.cls-1{isolation:isolate;}.cls-2{fill:#232323;}.cls-10,.cls-11,.cls-12,.cls-13,.cls-14,.cls-15,.cls-2,.cls-4,.cls-5,.cls-6,.cls-7,.cls-8{fill-rule:evenodd;}.cls-11,.cls-14,.cls-3,.cls-7,.cls-9{mix-blend-mode:screen;}.cls-3{fill:url(#linear-gradient);}.cls-4{fill:url(#linear-gradient-2);}.cls-6{fill:url(#linear-gradient-3);}.cls-7{fill:url(#linear-gradient-4);}.cls-12,.cls-15,.cls-8{mix-blend-mode:multiply;}.cls-8{fill:url(#linear-gradient-5);}.cls-9{fill:url(#linear-gradient-6);}.cls-10{fill:url(#linear-gradient-7);}.cls-11{fill:url(#linear-gradient-8);}.cls-12{fill:url(#linear-gradient-9);}.cls-13{fill:url(#linear-gradient-10);}.cls-14{fill:url(#linear-gradient-11);}.cls-15{fill:url(#linear-gradient-12);}</style><linearGradient id="linear-gradient" x1="1205.64" y1="-137.84" x2="1205.64" y2="-145.6" gradientTransform="translate(158.38 1276.42) rotate(-90)" gradientUnits="userSpaceOnUse"><stop offset="0"/><stop offset="1" stop-color="#a0a0a0"/></linearGradient><linearGradient id="linear-gradient-2" x1="1205.64" y1="-132.86" x2="1205.64" y2="-142.83" gradientTransform="translate(158.38 1276.42) rotate(-90)" gradientUnits="userSpaceOnUse"><stop offset="0" stop-color="#333"/><stop offset="1"/></linearGradient><linearGradient id="linear-gradient-3" x1="1185.4" y1="-133.95" x2="1185.4" y2="-141.74" gradientTransform="translate(158.38 1276.42) rotate(-90)" gradientUnits="userSpaceOnUse"><stop offset="0" stop-color="#8a1f1f"/><stop offset="1" stop-color="#e30613"/></linearGradient><linearGradient id="linear-gradient-4" x1="1185.4" y1="-137.84" x2="1185.4" y2="-140.66" gradientTransform="translate(158.38 1276.42) rotate(-90)" gradientUnits="userSpaceOnUse"><stop offset="0"/><stop offset="1" stop-color="#ff8383"/></linearGradient><linearGradient id="linear-gradient-5" x1="1185.4" y1="-133.95" x2="1185.4" y2="-138.4" gradientTransform="translate(158.38 1276.42) rotate(-90)" gradientUnits="userSpaceOnUse"><stop offset="0" stop-color="#c30"/><stop offset="0.1" stop-color="#d5572d"/><stop offset="0.46" stop-color="#f3cfc3"/><stop offset="0.62" stop-color="#fff"/></linearGradient><linearGradient id="linear-gradient-6" x1="1252.25" y1="-140.65" x2="1252.25" y2="-140.65" xlink:href="#linear-gradient-4"/><linearGradient id="linear-gradient-7" x1="1213.98" y1="-133.95" x2="1213.98" y2="-141.74" xlink:href="#linear-gradient-3"/><linearGradient id="linear-gradient-8" x1="1213.26" y1="-137.84" x2="1213.26" y2="-140.66" xlink:href="#linear-gradient-4"/><linearGradient id="linear-gradient-9" x1="1213.98" y1="-133.95" x2="1213.98" y2="-138.4" xlink:href="#linear-gradient-5"/><linearGradient id="linear-gradient-10" x1="378.46" y1="-47.61" x2="378.46" y2="-55.41" gradientTransform="matrix(0, 1, 1, 0, 72.05, -259.19)" xlink:href="#linear-gradient-3"/><linearGradient id="linear-gradient-11" x1="377.74" y1="-51.51" x2="377.74" y2="-54.32" gradientTransform="matrix(0, 1, 1, 0, 72.05, -259.19)" xlink:href="#linear-gradient-4"/><linearGradient id="linear-gradient-12" x1="378.46" y1="-47.61" x2="378.46" y2="-52.07" gradientTransform="matrix(0, 1, 1, 0, 72.05, -259.19)" xlink:href="#linear-gradient-5"/></defs><g class="cls-1"><g id="Layer_2" data-name="Layer 2"><g id="Layer_1-2" data-name="Layer 1"><path d="M22.86,14.41a6.24,6.24,0,0,1,2.05-2.88c1.38-.9,2.6-.4,4.61-.51a13.72,13.72,0,0,0,6.26-2.15c3.67-2.49,4.38-7.3,4.54-8.87a12.78,12.78,0,0,1,.48,6.92,11.52,11.52,0,0,1-3.38,6.26,13.28,13.28,0,0,1-5.88,3,6.57,6.57,0,0,0-2.87.82,5.54,5.54,0,0,0-2.09,2.8c-2.08.29-3.93-.31-4.52-1.52C21.56,17.2,22.14,16,22.86,14.41Z"/><path d="M18.21,14.41a6.17,6.17,0,0,0-2.05-2.88c-1.38-.9-2.6-.4-4.61-.51A13.66,13.66,0,0,1,5.3,8.87C1.63,6.38.92,1.57.75,0A12.78,12.78,0,0,0,.27,6.92a11.55,11.55,0,0,0,3.39,6.26,13.27,13.27,0,0,0,5.87,3A6.54,6.54,0,0,1,12.4,17a5.54,5.54,0,0,1,2.09,2.8c2.08.29,3.94-.31,4.52-1.52C19.51,17.2,18.94,16,18.21,14.41Z"/><path class="cls-2" d="M12.3,117.45V24.1a8.24,8.24,0,0,1,16.48,0v93.35a8.24,8.24,0,0,1-16.48,0Z"/><path class="cls-3" d="M19.63,18.72a5.5,5.5,0,0,0-4.56,5.38v93.35a5.48,5.48,0,0,0,1.61,3.86,5.57,5.57,0,0,0,2.95,1.53,1.15,1.15,0,0,1-.36,2.27,7.8,7.8,0,0,1-6.49-7.66V24.1a7.78,7.78,0,0,1,6.49-7.65,1.15,1.15,0,0,1,.36,2.27Z"/><path class="cls-4" d="M15.55,117.45a5,5,0,0,0,10,0V24.1a5,5,0,0,0-10,0v93.35Z"/><path class="cls-5" d="M27.48,24.1v93.35a8.26,8.26,0,0,1-7.59,8.21c.21,0,.43,0,.65,0a8.27,8.27,0,0,0,8.24-8.24V24.1a8.27,8.27,0,0,0-8.24-8.24c-.22,0-.44,0-.65,0a8.26,8.26,0,0,1,7.59,8.21Z"/><path class="cls-6" d="M16.64,117.64c0,1.22,1.76,2.22,3.9,2.22s3.89-1,3.89-2.22V64.46c0-1.21-1.76-2.28-3.89-2.28s-3.9,1-3.9,2.22v53.24Z"/><path class="cls-7" d="M17.73,117.64c0,.5.4.94,1,1.24a1.79,1.79,0,0,0,1.15.08c.39-.1.63-.32.63-.56V63.65c0-.25-.23-.46-.62-.56a1.74,1.74,0,0,0-1.15.07,1.5,1.5,0,0,0-1,1.24v53.24Z"/><path class="cls-8" d="M23.32,117.64c0,1.11-1.46,2-3.34,2.2a5.15,5.15,0,0,0,.56,0c2.13,0,3.89-1,3.89-2.22V64.46c0-1.21-1.76-2.28-3.89-2.28l-.56,0c1.88.16,3.34,1.09,3.34,2.2v53.24Z"/><line class="cls-9" x1="17.73" y1="24.12" x2="17.73" y2="24.21"/><path class="cls-10" d="M24.43,64.44a4,4,0,0,0-3.89-4,3.92,3.92,0,0,0-3.9,3.89"/><path class="cls-11" d="M20.54,64.39V63a1.09,1.09,0,0,0-1.77-.85,2.74,2.74,0,0,0-1,2.17v0"/><path class="cls-12" d="M24.43,64.44a4,4,0,0,0-3.89-4,3.43,3.43,0,0,0-.56,0,3.92,3.92,0,0,1,3.34,3.85v.11"/><path class="cls-13" d="M24.43,117.27a4,4,0,0,1-3.89,4,3.92,3.92,0,0,1-3.9-3.9"/><path class="cls-14" d="M20.54,117.32v1.38a1.06,1.06,0,0,1-.62,1,1.05,1.05,0,0,1-1.15-.13,2.76,2.76,0,0,1-1-2.18h0"/><path class="cls-15" d="M24.43,117.27a4,4,0,0,1-3.89,4,3.43,3.43,0,0,1-.56,0,3.93,3.93,0,0,0,3.34-3.86v-.1"/></g></g></g></svg>