<svg xmlns="http://www.w3.org/2000/svg" xmlns:xlink="http://www.w3.org/1999/xlink" viewBox="0 0 7.79 3.95"><defs><style>.cls-1{isolation:isolate;}.cls-2,.cls-3,.cls-4{fill-rule:evenodd;}.cls-2{fill:url(#linear-gradient);}.cls-3{mix-blend-mode:screen;fill:url(#linear-gradient-2);}.cls-4{mix-blend-mode:multiply;fill:url(#linear-gradient-3);}</style><linearGradient id="linear-gradient" x1="1376.87" y1="74.57" x2="1376.87" y2="66.77" gradientTransform="translate(-66.77 1378.85) rotate(-90)" gradientUnits="userSpaceOnUse"><stop offset="0" stop-color="#8a1f1f"/><stop offset="1" stop-color="#e30613"/></linearGradient><linearGradient id="linear-gradient-2" x1="1376.17" y1="70.67" x2="1376.17" y2="67.86" gradientTransform="translate(-66.77 1378.85) rotate(-90)" gradientUnits="userSpaceOnUse"><stop offset="0"/><stop offset="1" stop-color="#ff8383"/></linearGradient><linearGradient id="linear-gradient-3" x1="1376.87" y1="74.57" x2="1376.87" y2="70.11" gradientTransform="translate(-66.77 1378.85) rotate(-90)" gradientUnits="userSpaceOnUse"><stop offset="0" stop-color="#c30"/><stop offset="0.1" stop-color="#d5572d"/><stop offset="0.46" stop-color="#f3cfc3"/><stop offset="0.62" stop-color="#fff"/></linearGradient></defs><g class="cls-1"><g id="Layer_2" data-name="Layer 2"><g id="Layer_1-2" data-name="Layer 1"><path class="cls-2" d="M7.79,4A4,4,0,0,0,3.9,0,3.89,3.89,0,0,0,0,3.85"/><path class="cls-3" d="M3.9,3.91V2.54a1.05,1.05,0,0,0-.62-1,1.09,1.09,0,0,0-1.15.13,2.73,2.73,0,0,0-1,2.15v0"/><path class="cls-4" d="M7.79,4A4,4,0,0,0,3.9,0a3.43,3.43,0,0,0-.56,0A3.89,3.89,0,0,1,6.68,3.85V4"/></g></g></g></svg>