<svg xmlns="http://www.w3.org/2000/svg" xmlns:xlink="http://www.w3.org/1999/xlink" viewBox="0 0 7.79 4"><defs><style>.cls-1{isolation:isolate;}.cls-2,.cls-3,.cls-4{fill-rule:evenodd;}.cls-2{fill:url(#linear-gradient);}.cls-3{mix-blend-mode:screen;fill:url(#linear-gradient-2);}.cls-4{mix-blend-mode:multiply;fill:url(#linear-gradient-3);}</style><linearGradient id="linear-gradient" x1="113.35" y1="83.59" x2="113.35" y2="75.79" gradientTransform="matrix(0, 1, 1, 0, -75.79, -111.35)" gradientUnits="userSpaceOnUse"><stop offset="0" stop-color="#8a1f1f"/><stop offset="1" stop-color="#e30613"/></linearGradient><linearGradient id="linear-gradient-2" x1="112.63" y1="79.69" x2="112.63" y2="76.88" gradientTransform="matrix(0, 1, 1, 0, -75.79, -111.35)" gradientUnits="userSpaceOnUse"><stop offset="0"/><stop offset="1" stop-color="#ff8383"/></linearGradient><linearGradient id="linear-gradient-3" x1="113.35" y1="83.59" x2="113.35" y2="79.13" gradientTransform="matrix(0, 1, 1, 0, -75.79, -111.35)" gradientUnits="userSpaceOnUse"><stop offset="0" stop-color="#c30"/><stop offset="0.1" stop-color="#d5572d"/><stop offset="0.46" stop-color="#f3cfc3"/><stop offset="0.62" stop-color="#fff"/></linearGradient></defs><g class="cls-1"><g id="Layer_2" data-name="Layer 2"><g id="Layer_1-2" data-name="Layer 1"><path class="cls-2" d="M7.79,0A4,4,0,0,1,3.9,4,3.92,3.92,0,0,1,0,.1"/><path class="cls-3" d="M3.9.05V1.43a1.05,1.05,0,0,1-.62,1,1.05,1.05,0,0,1-1.15-.13A2.79,2.79,0,0,1,1.09.1h0"/><path class="cls-4" d="M7.79,0A4,4,0,0,1,3.9,4a3.43,3.43,0,0,1-.56,0A3.92,3.92,0,0,0,6.68.1V0"/></g></g></g></svg>