<svg xmlns="http://www.w3.org/2000/svg" xmlns:xlink="http://www.w3.org/1999/xlink" viewBox="0 0 99.54 14.94"><defs><style>.cls-1{isolation:isolate;}.cls-2{fill:#5b0000;}.cls-2,.cls-4,.cls-5{fill-rule:evenodd;}.cls-3{mix-blend-mode:screen;fill:url(#linear-gradient);}.cls-4{fill:url(#radial-gradient);}.cls-5{fill:#2d0000;}</style><linearGradient id="linear-gradient" x1="-558.04" y1="-804.04" x2="-558.04" y2="-811.07" gradientTransform="translate(607.81 811.51)" gradientUnits="userSpaceOnUse"><stop offset="0.35" stop-color="#430000" stop-opacity="0.5"/><stop offset="1" stop-color="#f90000"/></linearGradient><radialGradient id="radial-gradient" cx="-558.04" cy="-804.04" r="33.26" gradientTransform="translate(607.81 811.51)" gradientUnits="userSpaceOnUse"><stop offset="0" stop-color="#690000"/><stop offset="1" stop-color="#300000"/></radialGradient></defs><g class="cls-1"><g id="Layer_2" data-name="Layer 2"><g id="Layer_1-2" data-name="Layer 1"><path class="cls-2" d="M7.47,0h84.6a7.47,7.47,0,1,1,0,14.94H7.47A7.47,7.47,0,0,1,7.47,0Z"/><path class="cls-3" d="M97,6.65a5,5,0,0,0-4.88-4.13H7.47A4.95,4.95,0,0,0,2.59,6.65,1,1,0,0,1,.53,6.32,7.06,7.06,0,0,1,7.47.43h84.6A7.06,7.06,0,0,1,97,2.5a7.15,7.15,0,0,1,2,3.82A1,1,0,0,1,97,6.65Z"/><path class="cls-4" d="M7.47,3a4.52,4.52,0,1,0,0,9h84.6a4.52,4.52,0,1,0,0-9Z"/><path class="cls-5" d="M92.07,13.77H7.47A7.5,7.5,0,0,1,0,6.88c0,.2,0,.39,0,.59a7.49,7.49,0,0,0,7.47,7.47h84.6a7.49,7.49,0,0,0,7.47-7.47c0-.2,0-.39,0-.59a7.51,7.51,0,0,1-7.45,6.89Z"/></g></g></g></svg>