<svg xmlns="http://www.w3.org/2000/svg" xmlns:xlink="http://www.w3.org/1999/xlink" viewBox="0 0 7.79 79.14"><defs><style>.cls-1{isolation:isolate;}.cls-2,.cls-3,.cls-4{fill-rule:evenodd;}.cls-2{fill:url(#linear-gradient);}.cls-3{mix-blend-mode:screen;fill:url(#linear-gradient-2);}.cls-4{mix-blend-mode:multiply;fill:url(#linear-gradient-3);}</style><linearGradient id="linear-gradient" x1="1326.14" y1="85.48" x2="1326.14" y2="77.68" gradientTransform="translate(-77.68 1365.71) rotate(-90)" gradientUnits="userSpaceOnUse"><stop offset="0" stop-color="#8a1f1f"/><stop offset="1" stop-color="#e30613"/></linearGradient><linearGradient id="linear-gradient-2" x1="1326.14" y1="81.58" x2="1326.14" y2="78.77" gradientTransform="translate(-77.68 1365.71) rotate(-90)" gradientUnits="userSpaceOnUse"><stop offset="0"/><stop offset="1" stop-color="#ff8383"/></linearGradient><linearGradient id="linear-gradient-3" x1="1326.14" y1="85.48" x2="1326.14" y2="81.02" gradientTransform="translate(-77.68 1365.71) rotate(-90)" gradientUnits="userSpaceOnUse"><stop offset="0" stop-color="#c30"/><stop offset="0.1" stop-color="#d5572d"/><stop offset="0.46" stop-color="#f3cfc3"/><stop offset="0.62" stop-color="#fff"/></linearGradient></defs><g class="cls-1"><g id="Layer_2" data-name="Layer 2"><g id="Layer_1-2" data-name="Layer 1"><path class="cls-2" d="M0,76.09c0,1.67,1.76,3,3.9,3s3.89-1.38,3.89-3v-73C7.79,1.46,6,0,3.9,0S0,1.38,0,3.05v73Z"/><path class="cls-3" d="M1.09,76.09a2,2,0,0,0,1,1.69,1.29,1.29,0,0,0,1.15.12.87.87,0,0,0,.63-.77V2a.86.86,0,0,0-.62-.77,1.33,1.33,0,0,0-1.15.11,2,2,0,0,0-1,1.7v73Z"/><path class="cls-4" d="M6.68,76.09c0,1.52-1.46,2.8-3.34,3a5.12,5.12,0,0,0,.56,0c2.13,0,3.89-1.38,3.89-3v-73C7.79,1.46,6,0,3.9,0a5.12,5.12,0,0,0-.56,0c1.88.22,3.34,1.5,3.34,3v73Z"/></g></g></g></svg>