<svg xmlns="http://www.w3.org/2000/svg" viewBox="0 0 133.3 181.22"><defs><style>.cls-1{fill:#d30000;stroke-width:2px;}.cls-1,.cls-2{stroke:#000;stroke-miterlimit:10;}.cls-2{stroke-width:1.59px;}.cls-3{fill:#8c0000;opacity:0.46;}</style></defs><g id="Layer_2" data-name="Layer 2"><g id="Layer_1-2" data-name="Layer 1"><path class="cls-1" d="M50.14,145.39a9.82,9.82,0,0,1-8-.21A9.49,9.49,0,0,1,38.29,141c-1.39-2.77-.39-3.91-1.85-6.89a9.24,9.24,0,0,0-3.32-4c-2.62-1.63-5.59-1.12-7.3-.82-5,.88-5.42,3.51-9.4,3.9-2.59.25-6.35-.47-8.16-3.06-2.72-3.9.08-9.88,3-12.95,4.25-4.41,10.15-4.16,11.15-4.11a15.85,15.85,0,0,0-18.76,5.73A15.39,15.39,0,0,0,1,126.27,14.57,14.57,0,0,0,9.49,140.7a12.35,12.35,0,0,0,6.82,1.65,15.09,15.09,0,0,0,5.29-1.43c1-.54,2.15-1.38,3.6-1.13a1.77,1.77,0,0,1,.4.1A2.52,2.52,0,0,1,27,141.38c.67,1.54.94,4.37,1.31,5.94a15.11,15.11,0,0,0,4.47,6.89,19.06,19.06,0,0,0,2.87,2.17l.2.13c.51.26,1.27.64,2.22,1a21.44,21.44,0,0,0,8.07,1.68,18.44,18.44,0,0,0,4.51-.51,16.72,16.72,0,0,0,3.91-1.53"/><path class="cls-2" d="M13.48,124.15a45.15,45.15,0,0,1,18-10.27,52.46,52.46,0,0,1-8.39-3.53,51.68,51.68,0,0,1-8.77-5.87Q13.91,114.32,13.48,124.15Z"/><path d="M103.15,166.05c-2.3-4.51.17-7.19-2.24-10.07s-7-2.71-10.33-2.58c-2.48.1-6.59.34-9,3.3a7.15,7.15,0,0,0-1.32,2.92c-.31,1.14-.91,4.14,1.53,10.25,2.26,5.65,3.39,8.48,5.79,9.36,3.17,1.16,9.7.11,10.34.07h.16c.07,0,11.16-2.07,11.44-6C109.7,170.83,105.54,170.75,103.15,166.05Z"/><path d="M74.3,170.78c1.36-4.22,4.51-4.27,5.41-7.61,1.33-5-2.81-7.62-6.79-10.17-3-1.94-6-3.87-9-3.32A7.28,7.28,0,0,0,61,151.05c-1,.67-3.38,2.56-5.48,8.8-1.94,5.78-2.91,8.66-1.66,10.88,1.67,2.94,7.33,6.37,7.84,6.76l.06,0,.07.05s9.84,5.66,12.59,2.86C76.24,178.61,72.75,175.53,74.3,170.78Z"/><path class="cls-1" d="M105.35,125.17c1,4.75,5.33,24.51-4.85,32.78-4.1,3.33-10.21,3.46-22.44,3.73s-18.44.39-22.24-2.71c-8.72-7.12-7.68-24-5-33.8.19-.71.35-1.2.49-1.67,2.34-7.81,11.35-34.83,26.79-34.83C91.27,88.67,102.15,110.49,105.35,125.17Z"/><path class="cls-3" d="M54.88,113.28c2.51,2.28,10.94,9.34,23.27,9.3s20.86-7.23,23.35-9.53"/><path class="cls-3" d="M69.48,126.75a25.36,25.36,0,0,0,2.89,15.75c1.49,2.59,4.5,7.84,9.7,8.34a9.57,9.57,0,0,0,5.2-1.08"/><path d="M88.41,131.18c.79,11.14,1.25,17.58-1.61,18.86-4,1.79-13.83-7.06-16.44-17.57-1.28-5.14-2.17-15.53,3.68-18.17a11.48,11.48,0,0,1,9.45.63C84.69,115.58,87.47,118,88.41,131.18Z"/><path d="M104,90.82l2.37,5.92c.78-2,1.57-3.95,2.36-5.92"/><path class="cls-1" d="M132.07,58.24c-2.2-23.63-20.92-54.57-52.82-54.57-31,0-50.13,30.53-52.83,54.57-.41,3.64-2.58,28.87,15.65,46.28C56.5,118.3,74.28,118.15,79.2,118c3.91-.1,25.57-1.07,40.62-19.63C120.82,97.17,134.19,81,132.07,58.24Z"/><path d="M78.25,24.58A42.17,42.17,0,0,1,66.91,9.38,41.69,41.69,0,0,1,64.11,0C62.85,5.34,62,9.83,61.45,13.12,60.14,20.86,60.07,24,60.18,25.77c0,.4,0,.72.06.78a28.5,28.5,0,0,0,2.92,10.3A10.45,10.45,0,0,0,78.25,24.58Z"/><path d="M100.06,90.82a74.35,74.35,0,0,1,25.26-1.65l-1,1.78-24.27-.13"/><path class="cls-3" d="M92.93,55.24a29.56,29.56,0,0,0,1.84,10.34c1.41,3.76,2.51,6.7,5.43,8.17,3.92,2,8.68.07,11.3-1.85,5-3.69,5.37-9.75,5.4-10.61"/><path d="M117,59.55a11.73,11.73,0,0,1-11.73,11.73c-8.56,0-11.47-10.72-11.72-11.73-.44-1.71-1.7-6.64,1.18-9.83,3.24-3.58,9.22-2.2,10.54-1.89C105.73,47.94,117,50.72,117,59.55Z"/><path d="M104,90.82c.78,2,1.57,4,2.36,5.92.79-2,1.57-3.95,2.36-5.92"/></g></g></svg>