<svg xmlns="http://www.w3.org/2000/svg" viewBox="0 0 138.11 181.64"><defs><style>.cls-1{fill:#d30000;stroke-width:2px;}.cls-1,.cls-3{stroke:#000;stroke-miterlimit:10;}.cls-2{fill:#8c0000;opacity:0.46;}.cls-3{stroke-width:1.59px;}</style></defs><g id="Layer_2" data-name="Layer 2"><g id="Layer_1-2" data-name="Layer 1"><path class="cls-1" d="M54.3,146.6c-2.87,3.13-6.85,4.68-10.32,3.71-4-1.11-5.87-5.12-6.43-6.3-1.56-3.31-.37-4.36-1.91-7.91-.66-1.52-2.5-5.74-6-6.75-3.89-1.1-6,2.76-10.3,1.77-3.18-.73-5-3.46-6-4.81-3.64-5.34-2.2-11.5-1.87-12.77a30.13,30.13,0,0,0-2,9.71c-.12,2.94-.2,4.92.85,7.14A12.33,12.33,0,0,0,19.47,137c3.76.51,5.48-1.33,7.32,0,1.68,1.22,1.36,3.5,1.87,6.81.11.72,1.3,8.07,5.58,12.73,5.36,5.86,13.89,5.65,15.32,5.62A23,23,0,0,0,60.63,159"/><path d="M94.38,169.56c-.91-4.35,1.8-5.95.92-9.3-1.31-5-6.22-5.21-10.94-5.45-3.6-.17-7.13-.38-9.46,1.59A7.15,7.15,0,0,0,73.07,159c-.51,1.06-1.66,3.9-.38,10.36,1.18,6,1.77,9,4,10.26,2.91,1.73,9.52,1.89,10.16,2H87c.06,0,11.35,0,12.34-3.77C100,175.39,95.4,174.45,94.38,169.56Z"/><path class="cls-1" d="M110.16,125.17c1,4.75,5.34,24.51-4.85,32.78-4.1,3.33-10.21,3.46-22.43,3.73s-18.45.39-22.25-2.71c-8.72-7.12-7.67-24-5-33.8.2-.71.35-1.2.49-1.67,2.34-7.81,11.35-34.83,26.8-34.83C96.08,88.67,107,110.49,110.16,125.17Z"/><path class="cls-2" d="M59.69,113.28c2.52,2.28,10.94,9.34,23.28,9.3s20.86-7.23,23.35-9.53"/><path class="cls-2" d="M74.3,126.75a25.34,25.34,0,0,0,2.88,15.75c1.49,2.59,4.51,7.84,9.7,8.34a9.57,9.57,0,0,0,5.2-1.08"/><path d="M93.22,131.18c.8,11.14,1.26,17.58-1.61,18.86-4,1.79-13.83-7.06-16.44-17.57-1.28-5.14-2.16-15.53,3.68-18.17a11.51,11.51,0,0,1,9.46.63C89.51,115.58,92.28,118,93.22,131.18Z"/><path d="M108.84,90.82c.78,2,1.57,4,2.36,5.92.79-2,1.57-3.95,2.36-5.92"/><path class="cls-1" d="M136.88,58.24C134.68,34.61,116,3.67,84.06,3.67c-31,0-50.12,30.53-52.82,54.57-.41,3.64-2.59,28.87,15.64,46.28C61.32,118.3,79.1,118.15,84,118c3.9-.1,25.57-1.07,40.62-19.63C125.64,97.17,139,81,136.88,58.24Z"/><path d="M83.07,24.58A42.05,42.05,0,0,1,71.73,9.38,41.26,41.26,0,0,1,68.92,0c-1.26,5.34-2.1,9.83-2.66,13.12C65,20.86,64.88,24,65,25.77c0,.4.06.72.06.78A28.71,28.71,0,0,0,68,36.85a10.46,10.46,0,0,0,15.1-12.27Z"/><path d="M104.88,90.82a74.31,74.31,0,0,1,25.26-1.65l-1,1.78-24.27-.13"/><path class="cls-2" d="M97.75,55.24a29.09,29.09,0,0,0,1.84,10.34c1.4,3.76,2.5,6.7,5.42,8.17,3.93,2,8.68.07,11.3-1.85,5-3.69,5.37-9.75,5.4-10.61"/><path d="M121.78,59.55a11.73,11.73,0,0,1-11.72,11.73c-8.57,0-11.47-10.72-11.73-11.73-.44-1.71-1.7-6.64,1.19-9.83,3.24-3.58,9.21-2.2,10.54-1.89C110.54,47.94,121.78,50.72,121.78,59.55Z"/><path d="M108.76,90.82c.79,2,1.57,4,2.36,5.92l2.37-5.92"/><path class="cls-3" d="M21.09,121.34A45.13,45.13,0,0,1,8.34,105a50.62,50.62,0,0,1-2.29,8.82,51.24,51.24,0,0,1-4.54,9.52Z"/></g></g></svg>