<svg xmlns="http://www.w3.org/2000/svg" viewBox="0 0 154.18 181.77"><defs><style>.cls-1{fill:#d30000;stroke-width:2px;}.cls-1,.cls-2{stroke:#000;stroke-miterlimit:10;}.cls-2{stroke-width:1.59px;}.cls-3{fill:#8c0000;opacity:0.46;}</style></defs><g id="Layer_2" data-name="Layer 2"><g id="Layer_1-2" data-name="Layer 1"><path class="cls-1" d="M71,145.39a9.8,9.8,0,0,1-8-.21A9.49,9.49,0,0,1,59.18,141c-1.4-2.77-.39-3.91-1.86-6.89a9.21,9.21,0,0,0-3.31-4c-2.62-1.63-5.59-1.12-7.3-.82-5,.88-5.43,3.51-9.41,3.9a10.28,10.28,0,0,1-8.15-3.06c-3.74-4-.51-9.06-4.38-13A8.58,8.58,0,0,0,18,114.74c-4.84.52-9.31,6.26-9.82,14.26,2.37-5.93,6.1-9.88,9.57-9.7a4.84,4.84,0,0,1,3.32,1.4c1.19,1.34.78,3,.86,5.57,0,1.35.05,5.52,2.14,8.88a14.88,14.88,0,0,0,6.31,5.55,12.33,12.33,0,0,0,6.82,1.65,15,15,0,0,0,5.28-1.43c1-.54,2.15-1.38,3.61-1.13a1.9,1.9,0,0,1,.4.1,2.48,2.48,0,0,1,1.35,1.49c.68,1.54.95,4.37,1.31,5.94a15.22,15.22,0,0,0,4.47,6.89,19.58,19.58,0,0,0,2.87,2.17l.21.13a14.18,14.18,0,0,0,2.22,1,17.8,17.8,0,0,0,10,1.06h0a12.44,12.44,0,0,0,6.71-3.46"/><path class="cls-2" d="M1.64,117.6a45.25,45.25,0,0,1,1.08,8.88,45.24,45.24,0,0,1-1.33,11.85,51.31,51.31,0,0,1,16.79-10.06Q9.9,122.95,1.64,117.6Z"/><path d="M126.49,160.85c-3.3-3-2.06-5.86-4.75-8-3-2.42-7.95.16-12,2.06-4.35,2-5.26,3.85-5.54,4.49a8.2,8.2,0,0,0-.23,4.87,18.23,18.23,0,0,0,5,9.29c2.93,3.17,5.8,6.27,9.26,5.94s8.8-4.09,9.36-4.4l.06,0,.08-.05c.05,0,9.17-6.68,7.74-10.33C134.43,162.27,130.2,164.2,126.49,160.85Z"/><path d="M87.64,171.57c1.88-6.69,8.11-8,7.49-11.79-.14-.83-2.47-2.58-7.13-6-4.43-3.29-6.26-4.38-8.63-4.17a7,7,0,0,0-3,1.08c-1,.57-3.61,2.22-6.31,8.22-2.49,5.56-3.74,8.34-2.71,10.67,1.37,3.09,6.67,7.05,7.15,7.48l.05,0,.07.06s9.24,6.59,12.25,4.07C88.76,179.61,86.2,176.71,87.64,171.57Z"/><path class="cls-1" d="M126.23,125.17c1,4.75,5.34,24.51-4.84,32.78-4.11,3.33-10.22,3.46-22.44,3.73s-18.45.39-22.24-2.71c-8.73-7.12-7.68-24-5-33.8.19-.71.34-1.2.48-1.67,2.34-7.81,11.36-34.83,26.8-34.83C112.16,88.67,123,110.49,126.23,125.17Z"/><path class="cls-3" d="M75.76,113.28c2.52,2.28,10.95,9.34,23.28,9.3s20.86-7.23,23.35-9.53"/><path class="cls-3" d="M90.37,126.75a25.41,25.41,0,0,0,2.88,15.75c1.5,2.59,4.51,7.84,9.7,8.34a9.61,9.61,0,0,0,5.21-1.08"/><path d="M109.29,131.18c.8,11.14,1.26,17.58-1.61,18.86-4,1.79-13.82-7.06-16.44-17.57-1.27-5.14-2.16-15.53,3.69-18.17a11.48,11.48,0,0,1,9.45.63C105.58,115.58,108.35,118,109.29,131.18Z"/><path d="M124.91,90.82c.79,2,1.57,4,2.36,5.92.79-2,1.58-3.95,2.36-5.92"/><path class="cls-1" d="M153,58.24C150.76,34.61,132,3.67,100.13,3.67c-31,0-50.12,30.53-52.82,54.57C46.9,61.88,44.72,87.11,63,104.52,77.39,118.3,95.17,118.15,100.09,118c3.9-.1,25.57-1.07,40.62-19.63C141.71,97.17,155.08,81,153,58.24Z"/><path d="M99.14,24.58A42.17,42.17,0,0,1,87.8,9.38,40.68,40.68,0,0,1,85,0c-1.27,5.34-2.11,9.83-2.67,13.12C81,20.86,81,24,81.06,25.77c0,.4.06.72.07.78A28.53,28.53,0,0,0,84,36.85a10.46,10.46,0,0,0,15.1-12.27Z"/><path d="M121,90.82a74.31,74.31,0,0,1,25.26-1.65l-1,1.78L121,90.82"/><path class="cls-3" d="M113.82,55.24a29.09,29.09,0,0,0,1.84,10.34c1.4,3.76,2.51,6.7,5.43,8.17,3.92,2,8.67.07,11.29-1.85,5.05-3.69,5.38-9.75,5.41-10.61"/><path d="M137.86,59.55a11.73,11.73,0,0,1-11.73,11.73c-8.56,0-11.47-10.72-11.73-11.73-.44-1.71-1.7-6.64,1.19-9.83,3.24-3.58,9.22-2.2,10.54-1.89C126.61,47.94,137.86,50.72,137.86,59.55Z"/><path d="M124.83,90.82c.79,2,1.58,4,2.36,5.92l2.37-5.92"/></g></g></svg>