<svg xmlns="http://www.w3.org/2000/svg" xmlns:xlink="http://www.w3.org/1999/xlink" viewBox="0 0 201.63 201.66"><defs><style>.cls-1{isolation:isolate;}.cls-2{fill:#232323;}.cls-2,.cls-3,.cls-4,.cls-6{fill-rule:evenodd;}.cls-3{fill:url(#linear-gradient);}.cls-5,.cls-7{mix-blend-mode:screen;}.cls-5{fill:url(#linear-gradient-2);}.cls-6{fill:url(#linear-gradient-3);}.cls-7{fill:url(#linear-gradient-4);}</style><linearGradient id="linear-gradient" x1="294.57" y1="888.86" x2="355.53" y2="888.86" gradientTransform="translate(-193.76 -788.03)" gradientUnits="userSpaceOnUse"><stop offset="0" stop-color="#333"/><stop offset="1"/></linearGradient><linearGradient id="linear-gradient-2" x1="341.08" y1="888.86" x2="341.08" y2="793.86" gradientTransform="translate(-193.76 -788.03)" gradientUnits="userSpaceOnUse"><stop offset="0"/><stop offset="1" stop-color="#a0a0a0"/></linearGradient><linearGradient id="linear-gradient-3" x1="251.79" y1="888.86" x2="312.75" y2="888.86" gradientTransform="matrix(-1, 0, 0, 1, 352.61, -788.03)" xlink:href="#linear-gradient"/><linearGradient id="linear-gradient-4" x1="298.3" y1="888.86" x2="298.3" y2="793.86" gradientTransform="matrix(-1, 0, 0, 1, 352.61, -788.03)" xlink:href="#linear-gradient-2"/></defs><g class="cls-1"><g id="Layer_2" data-name="Layer 2"><g id="Layer_1-2" data-name="Layer 1"><path class="cls-2" d="M100.81,0c55.46,0,100.82,45.37,100.82,100.83S156.27,201.66,100.81,201.66"/><path class="cls-3" d="M100.81,161.8a61,61,0,0,0,0-121.94"/><path class="cls-4" d="M100.81,201.66c55.46,0,100.82-45.37,100.82-100.83q0-4-.3-7.91c-4.07,51.8-47.72,92.92-100.52,92.92h0"/><path class="cls-5" d="M100.81,5.83a95.37,95.37,0,0,1,92.81,79.5c2.94,17.75-24.88,21.63-27.79,4.38h0a67.21,67.21,0,0,0-65-55.76"/><path class="cls-2" d="M100.82,0C45.37,0,0,45.37,0,100.83S45.37,201.66,100.82,201.66"/><path class="cls-6" d="M100.82,161.8a61,61,0,0,1,0-121.94"/><path class="cls-4" d="M100.82,201.66C45.37,201.66,0,156.29,0,100.83q0-4,.31-7.91c4.06,51.8,47.72,92.92,100.51,92.92h0"/><path class="cls-7" d="M100.82,5.83A95.35,95.35,0,0,0,8,85.33C5.08,103.08,32.89,107,35.8,89.71h0a67.21,67.21,0,0,1,65-55.76"/></g></g></g></svg>