<svg xmlns="http://www.w3.org/2000/svg" xmlns:xlink="http://www.w3.org/1999/xlink" viewBox="0 0 99.54 14.94"><defs><style>.cls-1{isolation:isolate;}.cls-2{fill:#5b0000;}.cls-10,.cls-11,.cls-12,.cls-13,.cls-14,.cls-15,.cls-2,.cls-4,.cls-5,.cls-6,.cls-7,.cls-8{fill-rule:evenodd;}.cls-11,.cls-14,.cls-3,.cls-7,.cls-9{mix-blend-mode:screen;}.cls-3{fill:url(#linear-gradient);}.cls-4{fill:url(#radial-gradient);}.cls-5{fill:#2d0000;}.cls-6{fill:url(#linear-gradient-2);}.cls-7{fill:url(#linear-gradient-3);}.cls-12,.cls-15,.cls-8{mix-blend-mode:multiply;}.cls-8{fill:url(#linear-gradient-4);}.cls-9{fill:url(#linear-gradient-5);}.cls-10{fill:url(#linear-gradient-6);}.cls-11{fill:url(#linear-gradient-7);}.cls-12{fill:url(#linear-gradient-8);}.cls-13{fill:url(#linear-gradient-9);}.cls-14{fill:url(#linear-gradient-10);}.cls-15{fill:url(#linear-gradient-11);}</style><linearGradient id="linear-gradient" x1="-558.04" y1="-804.04" x2="-558.04" y2="-811.07" gradientTransform="translate(607.81 811.51)" gradientUnits="userSpaceOnUse"><stop offset="0.35" stop-color="#430000" stop-opacity="0.5"/><stop offset="1" stop-color="#f90000"/></linearGradient><radialGradient id="radial-gradient" cx="-558.04" cy="-804.04" r="33.26" gradientTransform="translate(607.81 811.51)" gradientUnits="userSpaceOnUse"><stop offset="0" stop-color="#690000"/><stop offset="1" stop-color="#300000"/></radialGradient><linearGradient id="linear-gradient-2" x1="-576.39" y1="-800.51" x2="-576.39" y2="-807.57" gradientTransform="translate(607.81 811.51)" gradientUnits="userSpaceOnUse"><stop offset="0" stop-color="#8a1f1f"/><stop offset="1" stop-color="#e30613"/></linearGradient><linearGradient id="linear-gradient-3" x1="-576.39" y1="-804.04" x2="-576.39" y2="-806.59" gradientTransform="translate(607.81 811.51)" gradientUnits="userSpaceOnUse"><stop offset="0"/><stop offset="1" stop-color="#ff8383"/></linearGradient><linearGradient id="linear-gradient-4" x1="-576.39" y1="-800.51" x2="-576.39" y2="-804.54" gradientTransform="translate(607.81 811.51)" gradientUnits="userSpaceOnUse"><stop offset="0" stop-color="#c30"/><stop offset="0.1" stop-color="#d5572d"/><stop offset="0.46" stop-color="#f3cfc3"/><stop offset="0.62" stop-color="#fff"/></linearGradient><linearGradient id="linear-gradient-5" x1="-515.79" y1="-806.58" x2="-515.79" y2="-806.58" xlink:href="#linear-gradient-3"/><linearGradient id="linear-gradient-6" x1="-550.48" y1="-800.51" x2="-550.48" y2="-807.57" xlink:href="#linear-gradient-2"/><linearGradient id="linear-gradient-7" x1="-551.13" y1="-804.04" x2="-551.13" y2="-806.59" xlink:href="#linear-gradient-3"/><linearGradient id="linear-gradient-8" x1="-550.48" y1="-800.51" x2="-550.48" y2="-804.54" xlink:href="#linear-gradient-4"/><linearGradient id="linear-gradient-9" x1="812.1" y1="-714.18" x2="812.1" y2="-721.24" gradientTransform="matrix(-1, 0, 0, 1, 817.92, 725.18)" xlink:href="#linear-gradient-2"/><linearGradient id="linear-gradient-10" x1="811.45" y1="-717.71" x2="811.45" y2="-720.26" gradientTransform="matrix(-1, 0, 0, 1, 817.92, 725.18)" xlink:href="#linear-gradient-3"/><linearGradient id="linear-gradient-11" x1="812.1" y1="-714.18" x2="812.1" y2="-718.21" gradientTransform="matrix(-1, 0, 0, 1, 817.92, 725.18)" xlink:href="#linear-gradient-4"/></defs><g class="cls-1"><g id="Layer_2" data-name="Layer 2"><g id="Layer_1-2" data-name="Layer 1"><path class="cls-2" d="M7.47,0h84.6a7.47,7.47,0,1,1,0,14.94H7.47A7.47,7.47,0,0,1,7.47,0Z"/><path class="cls-3" d="M97,6.65a5,5,0,0,0-4.88-4.13H7.47A4.95,4.95,0,0,0,2.59,6.65,1,1,0,0,1,.53,6.32,7.06,7.06,0,0,1,7.47.43h84.6A7.06,7.06,0,0,1,97,2.5a7.15,7.15,0,0,1,2,3.82A1,1,0,0,1,97,6.65Z"/><path class="cls-4" d="M7.47,3a4.52,4.52,0,1,0,0,9h84.6a4.52,4.52,0,1,0,0-9Z"/><path class="cls-5" d="M92.07,13.77H7.47A7.5,7.5,0,0,1,0,6.88c0,.2,0,.39,0,.59a7.49,7.49,0,0,0,7.47,7.47h84.6a7.49,7.49,0,0,0,7.47-7.47c0-.2,0-.39,0-.59a7.51,7.51,0,0,1-7.45,6.89Z"/><path class="cls-6" d="M7.29,3.94c-1.1,0-2,1.59-2,3.53S6.19,11,7.29,11h48.2c1.11,0,2.07-1.6,2.07-3.53s-.91-3.53-2-3.53Z"/><path class="cls-7" d="M7.29,4.92a1.39,1.39,0,0,0-1.12.94,1.54,1.54,0,0,0-.07,1c.09.36.28.57.51.57H56.23c.22,0,.41-.21.51-.56a1.6,1.6,0,0,0-.07-1,1.36,1.36,0,0,0-1.13-1Z"/><path class="cls-8" d="M7.29,10c-1,0-1.85-1.33-2-3,0,.17,0,.34,0,.51,0,1.93.91,3.53,2,3.53h48.2c1.11,0,2.07-1.6,2.07-3.53,0-.17,0-.34,0-.51-.14,1.7-1,3-2,3Z"/><line class="cls-9" x1="92.06" y1="4.92" x2="91.98" y2="4.92"/><path class="cls-10" d="M55.51,11a3.64,3.64,0,0,0,3.63-3.53,3.55,3.55,0,0,0-3.53-3.53"/><path class="cls-11" d="M55.56,7.47h1.25a1,1,0,0,0,.77-1.6,2.5,2.5,0,0,0-2-1h0"/><path class="cls-12" d="M55.51,11a3.64,3.64,0,0,0,3.63-3.53,2.92,2.92,0,0,0,0-.51,3.56,3.56,0,0,1-3.49,3h-.1"/><path class="cls-13" d="M7.63,11A3.63,3.63,0,0,1,4,7.47,3.54,3.54,0,0,1,7.54,3.94"/><path class="cls-14" d="M7.59,7.47H6.33a1,1,0,0,1-.88-.56.94.94,0,0,1,.12-1,2.49,2.49,0,0,1,2-1h0"/><path class="cls-15" d="M7.63,11A3.63,3.63,0,0,1,4,7.47,4.36,4.36,0,0,1,4,7a3.56,3.56,0,0,0,3.5,3h.09"/></g></g></g></svg>