<svg xmlns="http://www.w3.org/2000/svg" xmlns:xlink="http://www.w3.org/1999/xlink" viewBox="0 0 199.83 362.5"><defs><style>.cls-1{isolation:isolate;}.cls-10,.cls-11,.cls-12,.cls-13,.cls-14,.cls-15,.cls-16,.cls-17,.cls-18,.cls-19,.cls-2,.cls-20,.cls-21,.cls-22,.cls-23,.cls-24,.cls-25,.cls-26,.cls-27,.cls-28,.cls-29,.cls-3,.cls-30,.cls-31,.cls-32,.cls-33,.cls-34,.cls-35,.cls-36,.cls-37,.cls-38,.cls-39,.cls-4,.cls-40,.cls-41,.cls-42,.cls-43,.cls-44,.cls-45,.cls-46,.cls-47,.cls-48,.cls-49,.cls-5,.cls-50,.cls-51,.cls-52,.cls-53,.cls-54,.cls-55,.cls-56,.cls-57,.cls-58,.cls-59,.cls-6,.cls-60,.cls-61,.cls-62,.cls-63,.cls-64,.cls-65,.cls-66,.cls-67,.cls-68,.cls-69,.cls-7,.cls-70,.cls-71,.cls-72,.cls-73,.cls-74,.cls-75,.cls-76,.cls-77,.cls-78,.cls-79,.cls-8,.cls-80,.cls-81,.cls-82,.cls-83,.cls-84,.cls-85,.cls-86,.cls-87,.cls-88,.cls-89,.cls-9,.cls-90,.cls-91,.cls-92,.cls-93,.cls-94{fill-rule:evenodd;}.cls-2{fill:url(#radial-gradient);}.cls-3{fill:url(#radial-gradient-2);}.cls-4{fill:url(#radial-gradient-3);}.cls-10,.cls-15,.cls-16,.cls-19,.cls-20,.cls-26,.cls-27,.cls-28,.cls-29,.cls-30,.cls-31,.cls-36,.cls-37,.cls-40,.cls-41,.cls-46,.cls-47,.cls-48,.cls-49,.cls-5,.cls-50,.cls-51,.cls-56,.cls-57,.cls-6,.cls-62,.cls-63,.cls-64,.cls-65,.cls-66,.cls-67,.cls-7,.cls-72,.cls-73,.cls-78,.cls-79,.cls-8,.cls-80,.cls-81,.cls-82,.cls-83,.cls-88,.cls-89,.cls-9,.cls-92,.cls-93{opacity:0.5;mix-blend-mode:screen;}.cls-5{fill:url(#radial-gradient-4);}.cls-6{fill:url(#radial-gradient-5);}.cls-7{fill:url(#radial-gradient-6);}.cls-8{fill:url(#radial-gradient-7);}.cls-9{fill:url(#radial-gradient-8);}.cls-10{fill:url(#radial-gradient-9);}.cls-11,.cls-12,.cls-13,.cls-17,.cls-21,.cls-32,.cls-33,.cls-34,.cls-38,.cls-42,.cls-52,.cls-53,.cls-54,.cls-58,.cls-68,.cls-69,.cls-70,.cls-74,.cls-84,.cls-85,.cls-86,.cls-90,.cls-94{mix-blend-mode:multiply;}.cls-11{fill:url(#radial-gradient-10);}.cls-12{fill:url(#radial-gradient-11);}.cls-13{fill:url(#radial-gradient-12);}.cls-14{fill:url(#radial-gradient-13);}.cls-15{fill:url(#radial-gradient-14);}.cls-16{fill:url(#radial-gradient-15);}.cls-17{fill:url(#radial-gradient-16);}.cls-18{fill:url(#radial-gradient-17);}.cls-19{fill:url(#radial-gradient-18);}.cls-20{fill:url(#radial-gradient-19);}.cls-21{fill:url(#radial-gradient-20);}.cls-22{fill:none;}.cls-23{fill:url(#radial-gradient-21);}.cls-24{fill:url(#radial-gradient-22);}.cls-25{fill:url(#radial-gradient-23);}.cls-26{fill:url(#radial-gradient-24);}.cls-27{fill:url(#radial-gradient-25);}.cls-28{fill:url(#radial-gradient-26);}.cls-29{fill:url(#radial-gradient-27);}.cls-30{fill:url(#radial-gradient-28);}.cls-31{fill:url(#radial-gradient-29);}.cls-32{fill:url(#radial-gradient-30);}.cls-33{fill:url(#radial-gradient-31);}.cls-34{fill:url(#radial-gradient-32);}.cls-35{fill:url(#radial-gradient-33);}.cls-36{fill:url(#radial-gradient-34);}.cls-37{fill:url(#radial-gradient-35);}.cls-38{fill:url(#radial-gradient-36);}.cls-39{fill:url(#radial-gradient-37);}.cls-40{fill:url(#radial-gradient-38);}.cls-41{fill:url(#radial-gradient-39);}.cls-42{fill:url(#radial-gradient-40);}.cls-43{fill:url(#radial-gradient-41);}.cls-44{fill:url(#radial-gradient-42);}.cls-45{fill:url(#radial-gradient-43);}.cls-46{fill:url(#radial-gradient-44);}.cls-47{fill:url(#radial-gradient-45);}.cls-48{fill:url(#radial-gradient-46);}.cls-49{fill:url(#radial-gradient-47);}.cls-50{fill:url(#radial-gradient-48);}.cls-51{fill:url(#radial-gradient-49);}.cls-52{fill:url(#radial-gradient-50);}.cls-53{fill:url(#radial-gradient-51);}.cls-54{fill:url(#radial-gradient-52);}.cls-55{fill:url(#radial-gradient-53);}.cls-56{fill:url(#radial-gradient-54);}.cls-57{fill:url(#radial-gradient-55);}.cls-58{fill:url(#radial-gradient-56);}.cls-59{fill:url(#radial-gradient-57);}.cls-60{fill:url(#radial-gradient-58);}.cls-61{fill:url(#radial-gradient-59);}.cls-62{fill:url(#radial-gradient-60);}.cls-63{fill:url(#radial-gradient-61);}.cls-64{fill:url(#radial-gradient-62);}.cls-65{fill:url(#radial-gradient-63);}.cls-66{fill:url(#radial-gradient-64);}.cls-67{fill:url(#radial-gradient-65);}.cls-68{fill:url(#radial-gradient-66);}.cls-69{fill:url(#radial-gradient-67);}.cls-70{fill:url(#radial-gradient-68);}.cls-71{fill:url(#radial-gradient-69);}.cls-72{fill:url(#radial-gradient-70);}.cls-73{fill:url(#radial-gradient-71);}.cls-74{fill:url(#radial-gradient-72);}.cls-75{fill:url(#radial-gradient-73);}.cls-76{fill:url(#radial-gradient-74);}.cls-77{fill:url(#radial-gradient-75);}.cls-78{fill:url(#radial-gradient-76);}.cls-79{fill:url(#radial-gradient-77);}.cls-80{fill:url(#radial-gradient-78);}.cls-81{fill:url(#radial-gradient-79);}.cls-82{fill:url(#radial-gradient-80);}.cls-83{fill:url(#radial-gradient-81);}.cls-84{fill:url(#radial-gradient-82);}.cls-85{fill:url(#radial-gradient-83);}.cls-86{fill:url(#radial-gradient-84);}.cls-87{fill:url(#radial-gradient-85);}.cls-88{fill:url(#radial-gradient-86);}.cls-89{fill:url(#radial-gradient-87);}.cls-90{fill:url(#radial-gradient-88);}.cls-91{fill:url(#radial-gradient-89);}.cls-92{fill:url(#radial-gradient-90);}.cls-93{fill:url(#radial-gradient-91);}.cls-94{fill:url(#radial-gradient-92);}</style><radialGradient id="radial-gradient" cx="9802.81" cy="-1358.71" r="34.87" gradientTransform="translate(9937.25 -1170.44) rotate(180)" gradientUnits="userSpaceOnUse"><stop offset="0" stop-color="#828282"/><stop offset="1" stop-color="#474747"/></radialGradient><radialGradient id="radial-gradient-2" cx="9775.32" cy="-1358.14" r="35.83" xlink:href="#radial-gradient"/><radialGradient id="radial-gradient-3" cx="9780.49" cy="-1348.11" r="33.81" xlink:href="#radial-gradient"/><radialGradient id="radial-gradient-4" cx="9762.49" cy="-1350.5" r="29.75" gradientTransform="translate(9937.25 -1170.44) rotate(180)" gradientUnits="userSpaceOnUse"><stop offset="0" stop-color="#707070"/><stop offset="1"/></radialGradient><radialGradient id="radial-gradient-5" cx="9779.77" cy="-1347.56" r="30.01" xlink:href="#radial-gradient-4"/><radialGradient id="radial-gradient-6" cx="9805.4" cy="-1346.86" r="26.9" xlink:href="#radial-gradient-4"/><radialGradient id="radial-gradient-7" cx="9768.59" cy="-1337.16" r="5.55" xlink:href="#radial-gradient-4"/><radialGradient id="radial-gradient-8" cx="9781.86" cy="-1337.77" r="3.87" xlink:href="#radial-gradient-4"/><radialGradient id="radial-gradient-9" cx="9799.93" cy="-1337.62" r="8.55" xlink:href="#radial-gradient-4"/><radialGradient id="radial-gradient-10" cx="9816.33" cy="-1311.21" r="41.67" gradientTransform="translate(9937.25 -1170.44) rotate(180)" gradientUnits="userSpaceOnUse"><stop offset="0" stop-color="#727272"/><stop offset="1" stop-color="#fff"/></radialGradient><radialGradient id="radial-gradient-11" cx="9774.41" cy="-1313.76" r="27.27" xlink:href="#radial-gradient-10"/><radialGradient id="radial-gradient-12" cx="9766.23" cy="-1314.57" r="35.25" xlink:href="#radial-gradient-10"/><radialGradient id="radial-gradient-13" cx="9737.37" cy="-1352.85" r="37.73" xlink:href="#radial-gradient"/><radialGradient id="radial-gradient-14" cx="9754.1" cy="-1347.84" r="30.45" xlink:href="#radial-gradient-4"/><radialGradient id="radial-gradient-15" cx="9747.4" cy="-1338.37" r="6.92" xlink:href="#radial-gradient-4"/><radialGradient id="radial-gradient-16" cx="9770.01" cy="-1309.13" r="47.9" xlink:href="#radial-gradient-10"/><radialGradient id="radial-gradient-17" cx="9812.28" cy="-1352.85" r="37.73" xlink:href="#radial-gradient"/><radialGradient id="radial-gradient-18" cx="9829.02" cy="-1347.84" r="30.45" xlink:href="#radial-gradient-4"/><radialGradient id="radial-gradient-19" cx="9822.32" cy="-1338.37" r="6.92" xlink:href="#radial-gradient-4"/><radialGradient id="radial-gradient-20" cx="9844.93" cy="-1309.13" r="47.9" xlink:href="#radial-gradient-10"/><radialGradient id="radial-gradient-21" cx="5825.38" cy="4127.23" r="34.87" gradientTransform="translate(4228.04 -5760) rotate(90)" xlink:href="#radial-gradient"/><radialGradient id="radial-gradient-22" cx="5797.89" cy="4127.8" r="35.83" gradientTransform="translate(4228.04 -5760) rotate(90)" xlink:href="#radial-gradient"/><radialGradient id="radial-gradient-23" cx="5803.06" cy="4137.83" r="33.81" gradientTransform="translate(4228.04 -5760) rotate(90)" xlink:href="#radial-gradient"/><radialGradient id="radial-gradient-24" cx="5785.06" cy="4135.44" r="29.75" gradientTransform="translate(4228.04 -5760) rotate(90)" xlink:href="#radial-gradient-4"/><radialGradient id="radial-gradient-25" cx="5802.34" cy="4138.38" r="30.01" gradientTransform="translate(4228.04 -5760) rotate(90)" xlink:href="#radial-gradient-4"/><radialGradient id="radial-gradient-26" cx="5827.97" cy="4139.08" r="26.9" gradientTransform="translate(4228.04 -5760) rotate(90)" xlink:href="#radial-gradient-4"/><radialGradient id="radial-gradient-27" cx="5791.16" cy="4148.78" r="5.55" gradientTransform="translate(4228.04 -5760) rotate(90)" xlink:href="#radial-gradient-4"/><radialGradient id="radial-gradient-28" cx="5804.44" cy="4148.17" r="3.87" gradientTransform="translate(4228.04 -5760) rotate(90)" xlink:href="#radial-gradient-4"/><radialGradient id="radial-gradient-29" cx="5822.5" cy="4148.32" r="8.55" gradientTransform="translate(4228.04 -5760) rotate(90)" xlink:href="#radial-gradient-4"/><radialGradient id="radial-gradient-30" cx="5838.91" cy="4174.73" r="41.67" gradientTransform="translate(4228.04 -5760) rotate(90)" xlink:href="#radial-gradient-10"/><radialGradient id="radial-gradient-31" cx="5796.98" cy="4172.18" r="27.27" gradientTransform="translate(4228.04 -5760) rotate(90)" xlink:href="#radial-gradient-10"/><radialGradient id="radial-gradient-32" cx="5788.8" cy="4171.37" r="35.25" gradientTransform="translate(4228.04 -5760) rotate(90)" xlink:href="#radial-gradient-10"/><radialGradient id="radial-gradient-33" cx="5759.94" cy="4133.09" r="37.73" gradientTransform="translate(4228.04 -5760) rotate(90)" xlink:href="#radial-gradient"/><radialGradient id="radial-gradient-34" cx="5776.67" cy="4138.1" r="30.45" gradientTransform="translate(4228.04 -5760) rotate(90)" xlink:href="#radial-gradient-4"/><radialGradient id="radial-gradient-35" cx="5769.97" cy="4147.58" r="6.92" gradientTransform="translate(4228.04 -5760) rotate(90)" xlink:href="#radial-gradient-4"/><radialGradient id="radial-gradient-36" cx="5792.59" cy="4176.82" r="47.9" gradientTransform="translate(4228.04 -5760) rotate(90)" xlink:href="#radial-gradient-10"/><radialGradient id="radial-gradient-37" cx="5834.86" cy="4133.09" r="37.73" gradientTransform="translate(4228.04 -5760) rotate(90)" xlink:href="#radial-gradient"/><radialGradient id="radial-gradient-38" cx="5851.59" cy="4138.1" r="30.45" gradientTransform="translate(4228.04 -5760) rotate(90)" xlink:href="#radial-gradient-4"/><radialGradient id="radial-gradient-39" cx="5844.89" cy="4147.58" r="6.92" gradientTransform="translate(4228.04 -5760) rotate(90)" xlink:href="#radial-gradient-4"/><radialGradient id="radial-gradient-40" cx="5867.5" cy="4176.82" r="47.9" gradientTransform="translate(4228.04 -5760) rotate(90)" xlink:href="#radial-gradient-10"/><radialGradient id="radial-gradient-41" cx="166.99" cy="78.65" r="34.87" gradientTransform="matrix(1, 0, 0, 1, 0, 0)" xlink:href="#radial-gradient"/><radialGradient id="radial-gradient-42" cx="139.5" cy="79.23" r="35.83" gradientTransform="matrix(1, 0, 0, 1, 0, 0)" xlink:href="#radial-gradient"/><radialGradient id="radial-gradient-43" cx="144.67" cy="89.26" r="33.81" gradientTransform="matrix(1, 0, 0, 1, 0, 0)" xlink:href="#radial-gradient"/><radialGradient id="radial-gradient-44" cx="126.67" cy="86.87" r="29.75" gradientTransform="matrix(1, 0, 0, 1, 0, 0)" xlink:href="#radial-gradient-4"/><radialGradient id="radial-gradient-45" cx="143.95" cy="89.81" r="30.01" gradientTransform="matrix(1, 0, 0, 1, 0, 0)" xlink:href="#radial-gradient-4"/><radialGradient id="radial-gradient-46" cx="169.58" cy="90.51" r="26.9" gradientTransform="matrix(1, 0, 0, 1, 0, 0)" xlink:href="#radial-gradient-4"/><radialGradient id="radial-gradient-47" cx="132.77" cy="100.21" r="5.55" gradientTransform="matrix(1, 0, 0, 1, 0, 0)" xlink:href="#radial-gradient-4"/><radialGradient id="radial-gradient-48" cx="146.04" cy="99.6" r="3.87" gradientTransform="matrix(1, 0, 0, 1, 0, 0)" xlink:href="#radial-gradient-4"/><radialGradient id="radial-gradient-49" cx="164.11" cy="99.74" r="8.55" gradientTransform="matrix(1, 0, 0, 1, 0, 0)" xlink:href="#radial-gradient-4"/><radialGradient id="radial-gradient-50" cx="180.51" cy="126.16" r="41.67" gradientTransform="matrix(1, 0, 0, 1, 0, 0)" xlink:href="#radial-gradient-10"/><radialGradient id="radial-gradient-51" cx="138.59" cy="123.61" r="27.27" gradientTransform="matrix(1, 0, 0, 1, 0, 0)" xlink:href="#radial-gradient-10"/><radialGradient id="radial-gradient-52" cx="130.41" cy="122.8" r="35.25" gradientTransform="matrix(1, 0, 0, 1, 0, 0)" xlink:href="#radial-gradient-10"/><radialGradient id="radial-gradient-53" cx="176.46" cy="84.52" r="37.73" gradientTransform="matrix(1, 0, 0, 1, 0, 0)" xlink:href="#radial-gradient"/><radialGradient id="radial-gradient-54" cx="193.2" cy="89.53" r="30.45" gradientTransform="matrix(1, 0, 0, 1, 0, 0)" xlink:href="#radial-gradient-4"/><radialGradient id="radial-gradient-55" cx="186.5" cy="99" r="6.92" gradientTransform="matrix(1, 0, 0, 1, 0, 0)" xlink:href="#radial-gradient-4"/><radialGradient id="radial-gradient-56" cx="209.11" cy="128.24" r="47.9" gradientTransform="matrix(1, 0, 0, 1, 0, 0)" xlink:href="#radial-gradient-10"/><radialGradient id="radial-gradient-57" cx="9464.84" cy="-1216.1" r="34.87" gradientTransform="translate(9524.44 -1032.83) rotate(180)" xlink:href="#radial-gradient"/><radialGradient id="radial-gradient-58" cx="9437.34" cy="-1215.53" r="35.83" gradientTransform="translate(9524.44 -1032.83) rotate(180)" xlink:href="#radial-gradient"/><radialGradient id="radial-gradient-59" cx="9442.52" cy="-1205.49" r="33.81" gradientTransform="translate(9524.44 -1032.83) rotate(180)" xlink:href="#radial-gradient"/><radialGradient id="radial-gradient-60" cx="9424.51" cy="-1207.88" r="29.75" gradientTransform="translate(9524.44 -1032.83) rotate(180)" xlink:href="#radial-gradient-4"/><radialGradient id="radial-gradient-61" cx="9441.79" cy="-1204.94" r="30.01" gradientTransform="translate(9524.44 -1032.83) rotate(180)" xlink:href="#radial-gradient-4"/><radialGradient id="radial-gradient-62" cx="9467.43" cy="-1204.25" r="26.9" gradientTransform="translate(9524.44 -1032.83) rotate(180)" xlink:href="#radial-gradient-4"/><radialGradient id="radial-gradient-63" cx="9430.61" cy="-1194.55" r="5.55" gradientTransform="translate(9524.44 -1032.83) rotate(180)" xlink:href="#radial-gradient-4"/><radialGradient id="radial-gradient-64" cx="9443.89" cy="-1195.16" r="3.87" gradientTransform="translate(9524.44 -1032.83) rotate(180)" xlink:href="#radial-gradient-4"/><radialGradient id="radial-gradient-65" cx="9461.95" cy="-1195.01" r="8.55" gradientTransform="translate(9524.44 -1032.83) rotate(180)" xlink:href="#radial-gradient-4"/><radialGradient id="radial-gradient-66" cx="9478.36" cy="-1168.6" r="41.67" gradientTransform="translate(9524.44 -1032.83) rotate(180)" xlink:href="#radial-gradient-10"/><radialGradient id="radial-gradient-67" cx="9436.43" cy="-1171.15" r="27.27" gradientTransform="translate(9524.44 -1032.83) rotate(180)" xlink:href="#radial-gradient-10"/><radialGradient id="radial-gradient-68" cx="9428.26" cy="-1171.95" r="35.25" gradientTransform="translate(9524.44 -1032.83) rotate(180)" xlink:href="#radial-gradient-10"/><radialGradient id="radial-gradient-69" cx="9474.31" cy="-1210.23" r="37.73" gradientTransform="translate(9524.44 -1032.83) rotate(180)" xlink:href="#radial-gradient"/><radialGradient id="radial-gradient-70" cx="9491.04" cy="-1205.22" r="30.45" gradientTransform="translate(9524.44 -1032.83) rotate(180)" xlink:href="#radial-gradient-4"/><radialGradient id="radial-gradient-71" cx="9484.34" cy="-1195.75" r="6.92" gradientTransform="translate(9524.44 -1032.83) rotate(180)" xlink:href="#radial-gradient-4"/><radialGradient id="radial-gradient-72" cx="9506.96" cy="-1166.51" r="47.9" gradientTransform="translate(9524.44 -1032.83) rotate(180)" xlink:href="#radial-gradient-10"/><radialGradient id="radial-gradient-73" cx="9691.68" cy="-469.18" r="34.87" gradientTransform="translate(9016.19 -87.56) rotate(180) scale(0.93 1)" xlink:href="#radial-gradient"/><radialGradient id="radial-gradient-74" cx="9664.19" cy="-468.6" r="35.83" gradientTransform="translate(9016.19 -87.56) rotate(180) scale(0.93 1)" xlink:href="#radial-gradient"/><radialGradient id="radial-gradient-75" cx="9669.36" cy="-458.57" r="33.81" gradientTransform="translate(9016.19 -87.56) rotate(180) scale(0.93 1)" xlink:href="#radial-gradient"/><radialGradient id="radial-gradient-76" cx="9651.36" cy="-460.96" r="29.75" gradientTransform="translate(9016.19 -87.56) rotate(180) scale(0.93 1)" xlink:href="#radial-gradient-4"/><radialGradient id="radial-gradient-77" cx="9668.64" cy="-458.02" r="30.01" gradientTransform="translate(9016.19 -87.56) rotate(180) scale(0.93 1)" xlink:href="#radial-gradient-4"/><radialGradient id="radial-gradient-78" cx="9694.27" cy="-457.32" r="26.9" gradientTransform="translate(9016.19 -87.56) rotate(180) scale(0.93 1)" xlink:href="#radial-gradient-4"/><radialGradient id="radial-gradient-79" cx="9657.46" cy="-447.62" r="5.55" gradientTransform="translate(9016.19 -87.56) rotate(180) scale(0.93 1)" xlink:href="#radial-gradient-4"/><radialGradient id="radial-gradient-80" cx="9670.74" cy="-448.23" r="3.87" gradientTransform="translate(9016.19 -87.56) rotate(180) scale(0.93 1)" xlink:href="#radial-gradient-4"/><radialGradient id="radial-gradient-81" cx="9688.8" cy="-448.08" r="8.55" gradientTransform="translate(9016.19 -87.56) rotate(180) scale(0.93 1)" xlink:href="#radial-gradient-4"/><radialGradient id="radial-gradient-82" cx="9705.2" cy="-421.67" r="41.67" gradientTransform="translate(9016.19 -87.56) rotate(180) scale(0.93 1)" xlink:href="#radial-gradient-10"/><radialGradient id="radial-gradient-83" cx="9663.28" cy="-424.22" r="27.27" gradientTransform="translate(9016.19 -87.56) rotate(180) scale(0.93 1)" xlink:href="#radial-gradient-10"/><radialGradient id="radial-gradient-84" cx="9655.1" cy="-425.03" r="35.25" gradientTransform="translate(9016.19 -87.56) rotate(180) scale(0.93 1)" xlink:href="#radial-gradient-10"/><radialGradient id="radial-gradient-85" cx="9701.15" cy="-463.31" r="37.73" gradientTransform="translate(9016.19 -87.56) rotate(180) scale(0.93 1)" xlink:href="#radial-gradient"/><radialGradient id="radial-gradient-86" cx="9717.89" cy="-458.3" r="30.45" gradientTransform="translate(9016.19 -87.56) rotate(180) scale(0.93 1)" xlink:href="#radial-gradient-4"/><radialGradient id="radial-gradient-87" cx="9711.19" cy="-448.83" r="6.92" gradientTransform="translate(9016.19 -87.56) rotate(180) scale(0.93 1)" xlink:href="#radial-gradient-4"/><radialGradient id="radial-gradient-88" cx="9733.8" cy="-419.59" r="47.9" gradientTransform="translate(9016.19 -87.56) rotate(180) scale(0.93 1)" xlink:href="#radial-gradient-10"/><radialGradient id="radial-gradient-89" cx="7395.24" cy="177.64" r="44.86" gradientTransform="matrix(-1.03, 0, 0, 1.11, 7602.9, -72.91)" xlink:href="#radial-gradient"/><radialGradient id="radial-gradient-90" cx="7403.74" cy="197.31" r="34.87" gradientTransform="matrix(-1.03, 0, 0, 1.11, 7602.9, -72.91)" xlink:href="#radial-gradient-4"/><radialGradient id="radial-gradient-91" cx="7397.8" cy="207.38" r="7.55" gradientTransform="matrix(-1.03, 0, 0, 1.11, 7602.9, -72.91)" xlink:href="#radial-gradient-4"/><radialGradient id="radial-gradient-92" cx="7382.94" cy="234.29" r="40.33" gradientTransform="matrix(-1.03, 0, 0, 1.11, 7602.9, -72.91)" xlink:href="#radial-gradient-10"/></defs><g class="cls-1"><g id="Layer_2" data-name="Layer 2"><g id="Layer_1-2" data-name="Layer 1"><path class="cls-2" d="M126.64,168c-1.41-.29-1.18-1.53-1.32-2.81-.26-2.58.23-4.47.38-7,.09-1.4,1.34-1.1,2.36-1.1,4.76,0,9.52,0,14.28,0,.73,0,6,.27,6.33.43.86.4.71,1.71.76,2.59,0,1,.16,7.1-.21,7.67s-2.84.62-3.67.73a39.09,39.09,0,0,1-9.23.16c-3.26-.24-6.45,0-9.68-.66Z"/><path class="cls-3" d="M160.22,168c-.82.82-9.39,1.38-9.8,1s-.36-9.72-.2-10.73c.06-.43.28-1,.75-1.1a24.37,24.37,0,0,1,4.3-.15c.83,0,4.3-.1,4.83.28s.46,1.4.46,2c0,2.32.11,5.15-.09,7.44a3.08,3.08,0,0,1-.25,1.21Z"/><path class="cls-4" d="M161.5,160.78a22.8,22.8,0,0,1,.61-3.39c.35-.44,2.18-.34,2.75-.34,2.45,0,4.95.08,7.39.25,3.37.21,3.34-.18,3.62,3.17.09,1.15.75,7.74-.06,8.36-.5.38-3.73.22-4.46.2-2.44-.06-4.65-.07-7.09-.36a5.88,5.88,0,0,1-2.49-.54c-.69-.33-.58-1.88-.58-2.5a29.2,29.2,0,0,1,.31-4.85Z"/><path class="cls-5" d="M164.3,166.32c2.35.46,4.69.7,7.06,1,.73.08,1.45.18,2.18.24a9.44,9.44,0,0,0,2.05,0,3.67,3.67,0,0,0,.24-1.21c0-.79,0-1.61,0-2.4-.06-1.25-.18-2.48-.3-3.72a12.71,12.71,0,0,0-.19-1.63A1.18,1.18,0,0,0,175,158a1.72,1.72,0,0,0-.82-.21c-.65-.07-1.33-.08-2-.11-2.7-.16-6.19-.42-8.79.3-.68.18-.73,1.14-.94,1.84-.26.86-1.36,5.3-.52,5.87a6.61,6.61,0,0,0,2.32.67Z"/><path class="cls-6" d="M160,165.41a3.64,3.64,0,0,0,.16-1c.06-.77.48-6-.34-6.23-1-.28-8.14-.85-8.8-.59l-.15.08a1.86,1.86,0,0,0-.29,1.18c0,.38,0,.75,0,1.12,0,1,0,2.06,0,3.08s0,2.09.08,3.13a11.14,11.14,0,0,0,.14,1.53,13.45,13.45,0,0,0,1.54,0q1.56,0,3.12-.18c1-.4,2.06-.83,3.07-1.31a9.72,9.72,0,0,0,1.52-.87Z"/><path class="cls-7" d="M126.71,166.73c3.17.6,6.42.38,9.64.6,1.5.1,3,.18,4.51.17a45.2,45.2,0,0,0,4.65-.32c.57-.07,1.17-.08,1.76-.14.29,0,1.48-.15,1.64-.37a18.32,18.32,0,0,0,.21-3.37c0-1.14,0-2.3-.05-3.43,0-.55.1-1.8-.53-2.07l-.34,0-.73-.07c-.67-.05-1.34-.09-2-.12l-1.95-.1c-.38,0-.78,0-1.16,0a58.19,58.19,0,0,0-7.91.37,67.71,67.71,0,0,1-7.27.44c-1.41,0-1,.8-1.28,2.22a14,14,0,0,0-.2,4,4.8,4.8,0,0,0,.33,1.91,1.05,1.05,0,0,0,.7.37Z"/><path class="cls-8" d="M175,168.48c-3-.36-5.88-1-8.84-1.35-.94-.11-1.9.12-2.84,0a3,3,0,0,1-1.26-.45,1.45,1.45,0,0,1-.57-.74,9.53,9.53,0,0,1-.32-1.59c0,.41,0,.83,0,1.26,0,.62-.11,2.17.58,2.5a5.88,5.88,0,0,0,2.49.54c2.44.29,4.65.3,7.09.36.73,0,4,.18,4.46-.2a1.8,1.8,0,0,0,.34-1.09,2.17,2.17,0,0,1-.45.55.9.9,0,0,1-.67.19Z"/><path class="cls-9" d="M160.22,168a3.08,3.08,0,0,0,.25-1.21c0-.42.07-.85.09-1.3a3.19,3.19,0,0,1-.75,1.16,6,6,0,0,1-2.21,1c-1.63.44-3.31.68-5,1a8.58,8.58,0,0,1-1.74.19.45.45,0,0,1-.38-.23,5.45,5.45,0,0,1-.29-1.05,5.55,5.55,0,0,0,.2,1.53c.41.34,9-.22,9.8-1Z"/><path class="cls-10" d="M142.4,168c-2,0-3.9-.21-5.85-.19-.61,0-1.2.24-1.81.26a27.4,27.4,0,0,1-4-.09,27.87,27.87,0,0,1-4.14-.84,1.67,1.67,0,0,1-.78-.5,2,2,0,0,1-.39-.71c0-.14-.09-.29-.13-.44.09,1.16,0,2.22,1.29,2.48,3.23.66,6.42.42,9.68.66a39.09,39.09,0,0,0,9.23-.16c.83-.11,3.26-.12,3.67-.73a1.18,1.18,0,0,0,.08-.23,1.36,1.36,0,0,1-.6.3c-2.09.18-4.2.19-6.3.19Z"/><path class="cls-11" d="M129,160.48c2.2,0,8-.82,9.93-1.81.52-.27,7.41-.12,8.35-.12,1.1,0,1.41.19,1.77.89,0-.61,0-1.43-.52-1.64l-.34,0-.73-.07c-.67-.05-1.34-.09-2-.12l-1.95-.1c-.38,0-.78,0-1.16,0a58.19,58.19,0,0,0-7.91.37,67.71,67.71,0,0,1-7.27.44c-1.38,0-1.06.77-1.26,2.14a20.65,20.65,0,0,0,3.11.1Z"/><path class="cls-12" d="M150.82,157.71a1.86,1.86,0,0,0-.29,1.18c0,.37,0,.73,0,1.1a11.27,11.27,0,0,0,4.29-1,15.44,15.44,0,0,1,5.08.38c.16.08.16.28.4.92,0-1.07-.17-1.95-.49-2-1-.28-8.14-.85-8.8-.59l-.15.08Z"/><path class="cls-13" d="M163.44,157.94c-.67.18-.73,1.13-.94,1.82,1.28-.95,1.87-1.13,2.6-1.09,2.09.1,4.79.27,6.79.5a6.26,6.26,0,0,1,3.76,2.49c-.05-.48-.09-1-.14-1.44a12.71,12.71,0,0,0-.19-1.63A1.18,1.18,0,0,0,175,158a1.72,1.72,0,0,0-.82-.21c-.65-.07-1.33-.08-2-.11-2.7-.16-6.19-.42-8.79.3Z"/><path class="cls-14" d="M177.58,168a1.1,1.1,0,0,1-1-1.08,25,25,0,0,1,.43-5.91,19.35,19.35,0,0,0,.33-2.82c.1-1.48,1.09-1.14,2.39-1.16,5.93,0,12-.12,17.95,0a6.66,6.66,0,0,1,.78,0c.78.36,1.29,3.22,1.34,4.06a35.37,35.37,0,0,1-.21,5.91c-.15,1.13-.54,1-1.46,1.4a2.36,2.36,0,0,1-1.58.34,186.92,186.92,0,0,1-19-.81Z"/><path class="cls-15" d="M177,164.32c-.06.89,0,1.78,0,2.67a.66.66,0,0,0,.7.62c1.91.12,3.85.16,5.78.18,2.15,0,4.3,0,6.46-.07s4.45-.13,6.67-.22a2.33,2.33,0,0,0,1.42-.28c.23-.1.45-.17.68-.25a1.33,1.33,0,0,0,.34-.16.92.92,0,0,0,.24-.61c.41-3,.38-5.48-1.05-8.25-.28-.53-.45-.41-1.07-.46-5-.2-9.65.83-14.72.48-.7-.05-4-.43-4.27.13-.18.36-1.07,5.35-1.14,6.22Z"/><path class="cls-16" d="M196.25,168c-1.26.07-2.52.07-3.78.09-1.64,0-3.28.06-4.92.07h-.29c-1.42,0-2.84,0-4.26,0-1,0-1.92.08-2.88.14,2.21.18,4.65.31,7.14.4,3.11.11,6.31.15,9.28.16a2.36,2.36,0,0,0,1.58-.34c.92-.44,1.31-.27,1.46-1.4V167a2.14,2.14,0,0,1-.13.19,1.44,1.44,0,0,1-.8.52,13.86,13.86,0,0,1-2.41.24Z"/><path class="cls-17" d="M178.11,158.1a19.76,19.76,0,0,0-.46,2.1c1.88.42,5.09-1.22,5.77-1.26.49,0,2.07,0,3.84.16a58.55,58.55,0,0,1,6.38.64,15,15,0,0,0,5.73,2,11.13,11.13,0,0,0-1.2-3.84c-.28-.53-.45-.41-1.07-.46-3.35-.13-6.56.29-9.84.47a39.7,39.7,0,0,1-4.88,0c-.7-.05-4-.43-4.27.13Z"/><path class="cls-18" d="M102.67,168a1.11,1.11,0,0,1-1-1.08,25.52,25.52,0,0,1,.43-5.91,18.06,18.06,0,0,0,.33-2.82c.1-1.48,1.09-1.14,2.39-1.16,5.93,0,12-.12,18,0a6.66,6.66,0,0,1,.78,0c.78.36,1.3,3.22,1.34,4.06a34.34,34.34,0,0,1-.21,5.91c-.15,1.13-.54,1-1.46,1.4a2.36,2.36,0,0,1-1.58.34,186.59,186.59,0,0,1-19-.81Z"/><path class="cls-19" d="M102.05,164.32c0,.89,0,1.78,0,2.67a.66.66,0,0,0,.7.62c1.92.12,3.85.16,5.78.18,2.15,0,4.31,0,6.46-.07s4.45-.13,6.67-.22a2.36,2.36,0,0,0,1.43-.28c.22-.1.44-.17.67-.25a1.39,1.39,0,0,0,.35-.16,1,1,0,0,0,.24-.61c.4-3,.37-5.48-1.06-8.25-.27-.53-.45-.41-1.06-.46-5-.2-9.66.83-14.73.48-.7-.05-4-.43-4.27.13-.17.36-1.07,5.35-1.14,6.22Z"/><path class="cls-20" d="M121.34,168c-1.26.07-2.53.07-3.79.09-1.64,0-3.28.06-4.92.07h-.28c-1.42,0-2.84,0-4.26,0-1,0-1.93.08-2.89.14,2.21.18,4.65.31,7.15.4,3.11.11,6.31.15,9.27.16a2.36,2.36,0,0,0,1.58-.34c.92-.44,1.31-.27,1.46-1.4l0-.1-.13.19a1.5,1.5,0,0,1-.81.52,13.75,13.75,0,0,1-2.4.24Z"/><path class="cls-21" d="M103.19,158.1c-.07.15-.25,1-.46,2.1,1.89.42,5.1-1.22,5.77-1.26.49,0,2.07,0,3.85.16a58.56,58.56,0,0,1,6.37.64,15,15,0,0,0,5.73,2,10.92,10.92,0,0,0-1.2-3.84c-.27-.53-.45-.41-1.06-.46-3.36-.13-6.56.29-9.84.47a39.86,39.86,0,0,1-4.89,0c-.7-.05-4-.43-4.27.13Z"/><polygon class="cls-22" points="193.09 236.85 118.17 236.85 118.17 161.93 193.09 161.93 193.09 236.85 193.09 236.85"/><path class="cls-23" d="M80.54,73.19c-.29,1.41-1.53,1.18-2.81,1.32-2.58.26-4.47-.23-7-.38-1.4-.09-1.1-1.34-1.1-2.36,0-4.76,0-9.52,0-14.28,0-.73.28-6,.43-6.33.4-.86,1.71-.71,2.59-.76,1,0,7.1-.16,7.67.21s.62,2.84.73,3.67a39.09,39.09,0,0,1,.16,9.23c-.24,3.26,0,6.45-.66,9.68Z"/><path class="cls-24" d="M80.56,39.61c.82.82,1.38,9.39,1,9.8s-9.72.36-10.73.2c-.43-.06-1-.29-1.1-.75a24.37,24.37,0,0,1-.15-4.3c0-.83-.1-4.3.28-4.83s1.41-.46,2-.46c2.32,0,5.15-.11,7.44.09a3.08,3.08,0,0,1,1.21.25Z"/><path class="cls-25" d="M73.32,38.33a22.8,22.8,0,0,1-3.39-.61c-.44-.35-.34-2.18-.34-2.75,0-2.45.08-4.95.25-7.39.21-3.37-.18-3.34,3.17-3.62,1.15-.09,7.74-.75,8.36.06.38.5.22,3.73.2,4.46a70.13,70.13,0,0,1-.36,7.09,5.88,5.88,0,0,1-.54,2.49c-.33.69-1.88.58-2.5.58a29.2,29.2,0,0,1-4.85-.31Z"/><path class="cls-26" d="M78.86,35.53c.46-2.35.7-4.69,1-7.06.08-.73.18-1.45.24-2.18a9.44,9.44,0,0,0,0-2.05A3.67,3.67,0,0,0,78.88,24c-.79,0-1.61,0-2.4,0-1.25.06-2.48.18-3.72.3a12.71,12.71,0,0,0-1.63.19,1.18,1.18,0,0,0-.63.29,1.72,1.72,0,0,0-.21.82c-.06.65-.07,1.33-.11,2-.16,2.69-.42,6.19.3,8.79.18.68,1.14.73,1.84.94.86.26,5.3,1.36,5.87.52a6.61,6.61,0,0,0,.67-2.32Z"/><path class="cls-27" d="M78,39.88a4.13,4.13,0,0,0-1-.17c-.77-.05-6-.47-6.23.35s-.85,8.14-.59,8.8l.08.15a1.86,1.86,0,0,0,1.18.29l1.13,0c1,0,2,0,3.07,0s2.09,0,3.13-.08a11.14,11.14,0,0,0,1.53-.14,13.45,13.45,0,0,0,0-1.54q0-1.56-.18-3.12c-.4-1-.83-2.06-1.31-3.07A9,9,0,0,0,78,39.88Z"/><path class="cls-28" d="M79.27,73.12c.6-3.17.38-6.42.6-9.64.1-1.5.18-3,.17-4.52a45.2,45.2,0,0,0-.32-4.64c-.07-.57-.08-1.17-.14-1.76,0-.29-.15-1.48-.37-1.64a18.32,18.32,0,0,0-3.37-.21c-1.14,0-2.3,0-3.43,0-.55,0-1.8-.1-2.06.53a2,2,0,0,0,0,.34c0,.24,0,.49-.07.73,0,.67-.09,1.34-.12,2s-.07,1.3-.1,1.95c0,.38,0,.78,0,1.16a59.85,59.85,0,0,0,.37,7.91,67.71,67.71,0,0,1,.44,7.27c0,1.41.8,1,2.22,1.28a14,14,0,0,0,4,.2,4.8,4.8,0,0,0,1.91-.33,1.05,1.05,0,0,0,.37-.7Z"/><path class="cls-29" d="M81,24.8c-.36,3-1,5.88-1.35,8.84-.11.94.12,1.9,0,2.83a3,3,0,0,1-.45,1.27,1.45,1.45,0,0,1-.74.57,9.53,9.53,0,0,1-1.59.32h1.26c.62,0,2.17.11,2.5-.58a5.88,5.88,0,0,0,.54-2.49,70.13,70.13,0,0,0,.36-7.09c0-.73.18-4-.2-4.46a1.8,1.8,0,0,0-1.09-.34,2.17,2.17,0,0,1,.55.45.9.9,0,0,1,.19.67Z"/><path class="cls-30" d="M80.56,39.61a3.08,3.08,0,0,0-1.21-.25c-.42,0-.85-.07-1.3-.09a3.1,3.1,0,0,1,1.16.75,6,6,0,0,1,1,2.21c.44,1.63.69,3.31,1,5a9.38,9.38,0,0,1,.2,1.74.46.46,0,0,1-.24.38,6.27,6.27,0,0,1-1.05.29,5.47,5.47,0,0,0,1.53-.2c.34-.41-.22-9-1-9.8Z"/><path class="cls-31" d="M80.57,57.43c0,2-.21,3.9-.19,5.85,0,.61.24,1.2.26,1.81a27.4,27.4,0,0,1-.09,4,27.87,27.87,0,0,1-.84,4.14,1.67,1.67,0,0,1-.5.78,1.88,1.88,0,0,1-.71.38,3.22,3.22,0,0,1-.44.14c1.16-.09,2.22,0,2.48-1.29.66-3.23.42-6.42.66-9.68A39.09,39.09,0,0,0,81,54.28c-.11-.83-.12-3.26-.73-3.67a1,1,0,0,0-.23-.08,1.36,1.36,0,0,1,.3.6c.18,2.09.19,4.2.19,6.3Z"/><path class="cls-32" d="M73,70.82c0-2.2-.82-8-1.81-9.93-.27-.52-.12-7.41-.12-8.35,0-1.1.19-1.41.89-1.77-.61,0-1.43,0-1.63.52a2,2,0,0,0,0,.34c0,.24,0,.49-.07.73,0,.67-.09,1.34-.12,2s-.07,1.3-.1,1.95c0,.38,0,.78,0,1.16a59.85,59.85,0,0,0,.37,7.91,67.71,67.71,0,0,1,.44,7.27c0,1.38.77,1.06,2.14,1.26a20.65,20.65,0,0,0,.1-3.11Z"/><path class="cls-33" d="M70.25,49a1.86,1.86,0,0,0,1.18.29l1.1,0a11.27,11.27,0,0,0-1-4.29A15.71,15.71,0,0,1,71.88,40c.08-.16.28-.16.92-.4-1.07,0-2,.17-2,.49-.28,1-.85,8.14-.59,8.8l.08.15Z"/><path class="cls-34" d="M70.48,36.39c.18.67,1.13.73,1.83.94-1-1.28-1.14-1.87-1.1-2.6.1-2.09.27-4.79.5-6.79a6.26,6.26,0,0,1,2.49-3.76l-1.44.14a12.71,12.71,0,0,0-1.63.19,1.18,1.18,0,0,0-.63.29,1.72,1.72,0,0,0-.21.82c-.06.65-.07,1.33-.11,2-.16,2.69-.42,6.19.3,8.79Z"/><path class="cls-35" d="M80.58,22.25a1.1,1.1,0,0,1-1.08,1,25,25,0,0,1-5.91-.43,19.35,19.35,0,0,0-2.82-.33c-1.48-.1-1.14-1.09-1.16-2.39,0-5.93-.12-12,0-17.95a6.66,6.66,0,0,1,.05-.78C70.05.6,72.9.09,73.74,0a35.37,35.37,0,0,1,5.91.21c1.13.15,1,.54,1.4,1.46a2.36,2.36,0,0,1,.34,1.58,186.92,186.92,0,0,1-.81,19Z"/><path class="cls-36" d="M76.86,22.86c.89.06,1.78,0,2.67,0a.66.66,0,0,0,.62-.7c.12-1.91.16-3.85.18-5.78,0-2.15,0-4.3-.07-6.46S80.13,5.51,80,3.29a2.33,2.33,0,0,0-.28-1.42c-.1-.23-.17-.45-.25-.68a1.33,1.33,0,0,0-.16-.34c-.12-.17-.43-.22-.61-.25-3-.4-5.48-.37-8.25,1.06-.53.28-.41.45-.46,1.07-.2,5,.83,9.65.48,14.72-.05.7-.43,4,.13,4.27.36.18,5.35,1.07,6.22,1.14Z"/><path class="cls-37" d="M80.5,3.58c.07,1.26.07,2.52.09,3.78,0,1.64.06,3.28.08,4.92v.29c0,1.42,0,2.84,0,4.26,0,1,.08,1.92.14,2.88.18-2.21.31-4.65.4-7.14.11-3.11.15-6.31.16-9.28a2.36,2.36,0,0,0-.34-1.58C80.61.79,80.78.4,79.65.25h-.1l.19.13a1.44,1.44,0,0,1,.52.8,13,13,0,0,1,.24,2.41Z"/><path class="cls-38" d="M70.64,21.72a20.43,20.43,0,0,0,2.1.46c.42-1.88-1.21-5.09-1.26-5.77,0-.49,0-2.07.16-3.84a58.55,58.55,0,0,1,.64-6.38A15.26,15.26,0,0,0,74.34.46a11.11,11.11,0,0,0-3.85,1.2c-.53.28-.41.45-.46,1.07-.13,3.35.29,6.56.47,9.84a39.7,39.7,0,0,1,0,4.88c-.05.7-.43,4,.13,4.27Z"/><path class="cls-39" d="M80.58,97.16a1.11,1.11,0,0,1-1.08,1,25.52,25.52,0,0,1-5.91-.43,18.06,18.06,0,0,0-2.82-.33c-1.48-.1-1.14-1.09-1.16-2.39,0-5.93-.12-12,0-18a6.66,6.66,0,0,1,.05-.78c.37-.78,3.22-1.3,4.06-1.34a34.34,34.34,0,0,1,5.91.21c1.13.15,1,.54,1.4,1.46a2.36,2.36,0,0,1,.34,1.58,186.59,186.59,0,0,1-.81,19Z"/><path class="cls-40" d="M76.86,97.78c.89,0,1.78,0,2.67,0a.67.67,0,0,0,.62-.7c.12-1.92.16-3.85.18-5.78,0-2.15,0-4.31-.07-6.46s-.13-4.45-.22-6.67a2.34,2.34,0,0,0-.28-1.43c-.1-.22-.17-.44-.25-.67a1.39,1.39,0,0,0-.16-.35c-.12-.17-.43-.21-.61-.24-3-.4-5.48-.37-8.25,1.06-.53.27-.41.45-.46,1.06-.2,5,.83,9.66.48,14.73-.05.7-.43,4,.13,4.27.36.17,5.35,1.07,6.22,1.14Z"/><path class="cls-41" d="M80.5,78.49c.07,1.26.07,2.53.09,3.79,0,1.64.06,3.28.08,4.92v.28c0,1.42,0,2.84,0,4.26,0,1,.08,1.93.14,2.89.18-2.21.31-4.65.4-7.15.11-3.11.15-6.31.16-9.27a2.36,2.36,0,0,0-.34-1.58c-.44-.92-.27-1.31-1.4-1.46l-.1,0,.19.13a1.5,1.5,0,0,1,.52.81,12.85,12.85,0,0,1,.24,2.4Z"/><path class="cls-42" d="M70.64,96.64c.15.07,1,.25,2.1.46.42-1.89-1.21-5.1-1.26-5.77,0-.49,0-2.07.16-3.85a58.56,58.56,0,0,1,.64-6.37,15.09,15.09,0,0,0,2.06-5.73,10.91,10.91,0,0,0-3.85,1.2c-.53.27-.41.45-.46,1.06-.13,3.36.29,6.56.47,9.84a39.86,39.86,0,0,1,0,4.89c-.05.7-.43,4,.13,4.27Z"/><polygon class="cls-22" points="149.39 6.74 149.39 81.66 74.47 81.66 74.47 6.74 149.39 6.74 149.39 6.74"/><path class="cls-43" d="M174.8,98.93c1.4.29,1.17,1.53,1.31,2.82.26,2.57-.22,4.47-.38,7-.09,1.4-1.33,1.1-2.36,1.11-4.76,0-9.52,0-14.28,0-.73,0-6-.27-6.32-.43-.87-.4-.72-1.7-.77-2.59s-.16-7.1.22-7.67,2.83-.62,3.66-.73a40.19,40.19,0,0,1,9.23-.16c3.27.24,6.46,0,9.69.66Z"/><path class="cls-44" d="M141.21,98.91c.82-.82,9.39-1.38,9.8-1s.36,9.72.21,10.74c-.07.42-.29,1-.75,1.09a24.51,24.51,0,0,1-4.31.15c-.82,0-4.29.11-4.82-.28s-.46-1.4-.46-2c0-2.32-.12-5.15.08-7.44a3.27,3.27,0,0,1,.25-1.21Z"/><path class="cls-45" d="M139.94,106.15a24.18,24.18,0,0,1-.61,3.39c-.36.45-2.19.34-2.76.34-2.45,0-4.94-.07-7.39-.25-3.36-.21-3.33.18-3.62-3.16-.09-1.16-.74-7.75.06-8.37.51-.38,3.73-.21,4.47-.2,2.44.06,4.65.07,7.09.36a5.87,5.87,0,0,1,2.48.54c.69.33.58,1.88.58,2.5a30.24,30.24,0,0,1-.3,4.85Z"/><path class="cls-46" d="M137.14,100.61c-2.36-.46-4.7-.7-7.06-1-.73-.08-1.45-.17-2.18-.24a9.45,9.45,0,0,0-2.05,0,3.22,3.22,0,0,0-.24,1.21c0,.79,0,1.61,0,2.4.07,1.25.18,2.48.3,3.73a14.89,14.89,0,0,0,.19,1.62,1.22,1.22,0,0,0,.29.63,1.89,1.89,0,0,0,.82.22c.65.06,1.33.07,2,.11,2.69.16,6.18.41,8.79-.3.67-.19.73-1.15.93-1.84.26-.87,1.36-5.31.52-5.87a6.31,6.31,0,0,0-2.31-.68Z"/><path class="cls-47" d="M141.48,101.52a4.19,4.19,0,0,0-.16,1c-.06.77-.48,6,.35,6.24s8.14.85,8.8.58l.14-.07a2,2,0,0,0,.3-1.19l0-1.12c0-1,0-2.06,0-3.08s0-2.09-.08-3.13a11.14,11.14,0,0,0-.14-1.53c-.37-.05-1.27,0-1.53,0-1,0-2.09.09-3.13.18-1,.4-2.06.83-3.06,1.32a9.3,9.3,0,0,0-1.53.86Z"/><path class="cls-48" d="M174.73,100.2c-3.18-.59-6.43-.38-9.64-.59-1.51-.1-3-.19-4.52-.18s-3.1.15-4.64.32c-.58.07-1.18.08-1.76.14-.29,0-1.49.16-1.65.38a18.21,18.21,0,0,0-.21,3.37c0,1.13,0,2.29.05,3.42,0,.55-.1,1.8.54,2.07l.34,0,.72.07c.67.05,1.35.09,2,.12l2,.1c.39,0,.78,0,1.17,0a59.84,59.84,0,0,0,7.91-.36,65,65,0,0,1,7.26-.45c1.41,0,1-.79,1.28-2.22a13.66,13.66,0,0,0,.2-4,4.83,4.83,0,0,0-.32-1.91,1.1,1.1,0,0,0-.7-.37Z"/><path class="cls-49" d="M126.4,98.45c3,.36,5.88,1,8.85,1.36.94.1,1.89-.13,2.83,0a3,3,0,0,1,1.26.45,1.44,1.44,0,0,1,.57.74,10.68,10.68,0,0,1,.33,1.59q0-.61,0-1.26c0-.62.11-2.17-.58-2.5a5.87,5.87,0,0,0-2.48-.54c-2.44-.29-4.65-.3-7.09-.36-.74,0-4-.18-4.47.2a1.81,1.81,0,0,0-.33,1.09,2.37,2.37,0,0,1,.44-.55,1,1,0,0,1,.67-.19Z"/><path class="cls-50" d="M141.21,98.91a3.27,3.27,0,0,0-.25,1.21c0,.42-.06.85-.08,1.3a3.16,3.16,0,0,1,.74-1.16,6.16,6.16,0,0,1,2.22-1c1.63-.44,3.3-.68,5-1a8.41,8.41,0,0,1,1.73-.19.42.42,0,0,1,.38.24,5.16,5.16,0,0,1,.29,1,5.22,5.22,0,0,0-.2-1.53c-.41-.34-9,.22-9.8,1Z"/><path class="cls-51" d="M159,98.9c2,0,3.9.21,5.85.19.61,0,1.2-.24,1.81-.26a27.26,27.26,0,0,1,3.94.1,27.84,27.84,0,0,1,4.14.83,1.75,1.75,0,0,1,.79.5,2,2,0,0,1,.38.71c.05.15.09.29.13.44-.08-1.16,0-2.22-1.28-2.48-3.23-.66-6.42-.42-9.69-.66a40.19,40.19,0,0,0-9.23.16c-.83.11-3.26.12-3.66.73a.76.76,0,0,0-.08.23,1.33,1.33,0,0,1,.59-.3c2.1-.17,4.2-.19,6.31-.19Z"/><path class="cls-52" d="M172.42,106.45c-2.2,0-8,.82-9.92,1.81-.53.27-7.42.12-8.36.12-1.1,0-1.41-.19-1.77-.89,0,.61,0,1.43.53,1.64l.34,0,.72.07c.67.05,1.35.09,2,.12l2,.1c.39,0,.78,0,1.17,0a59.84,59.84,0,0,0,7.91-.36,65,65,0,0,1,7.26-.45c1.39,0,1.06-.76,1.27-2.13a19.59,19.59,0,0,0-3.12-.11Z"/><path class="cls-53" d="M150.61,109.23a2,2,0,0,0,.3-1.19l0-1.1a11,11,0,0,0-4.28,1,15.77,15.77,0,0,1-5.09-.39c-.16-.08-.16-.28-.4-.92,0,1.07.17,2,.5,2,1,.28,8.14.85,8.8.58l.14-.07Z"/><path class="cls-54" d="M138,109c.67-.19.73-1.14.93-1.83-1.28,1-1.86,1.13-2.6,1.09-2.09-.1-4.79-.27-6.79-.5a6.27,6.27,0,0,1-3.75-2.48c0,.48.08,1,.13,1.44a14.89,14.89,0,0,0,.19,1.62,1.22,1.22,0,0,0,.29.63,1.89,1.89,0,0,0,.82.22c.65.06,1.33.07,2,.11,2.69.16,6.18.41,8.79-.3Z"/><path class="cls-55" d="M198.77,98.9a1.09,1.09,0,0,1,1,1.08,25.06,25.06,0,0,1-.43,5.91,19,19,0,0,0-.33,2.82c-.1,1.47-1.09,1.14-2.39,1.15-5.93,0-12,.13-17.95,0a6.68,6.68,0,0,1-.78,0c-.78-.37-1.29-3.23-1.34-4.07a35.37,35.37,0,0,1,.21-5.91c.15-1.13.54-1,1.46-1.4a2.36,2.36,0,0,1,1.58-.34,183.93,183.93,0,0,1,19,.82Z"/><path class="cls-56" d="M199.38,102.61c.06-.89,0-1.78,0-2.67a.66.66,0,0,0-.69-.62c-1.92-.12-3.86-.16-5.79-.18-2.15,0-4.3,0-6.46.07s-4.45.13-6.67.23a2.25,2.25,0,0,0-1.42.27c-.23.1-.45.18-.68.26a1,1,0,0,0-.34.15.94.94,0,0,0-.24.61c-.41,3.06-.38,5.49,1.05,8.25.28.54.45.41,1.07.46,5,.2,9.65-.83,14.72-.47.7,0,4,.43,4.27-.14.18-.36,1.07-5.35,1.14-6.22Z"/><path class="cls-57" d="M180.1,99c1.26-.06,2.52-.07,3.78-.09,1.64,0,3.28-.06,4.92-.07h.29c1.42,0,2.84,0,4.26,0,1,0,1.92-.08,2.88-.13-2.21-.19-4.65-.32-7.14-.41-3.11-.11-6.31-.15-9.28-.16a2.36,2.36,0,0,0-1.58.34c-.92.44-1.31.27-1.46,1.4v.1a2.14,2.14,0,0,1,.13-.19,1.54,1.54,0,0,1,.8-.52A14.91,14.91,0,0,1,180.1,99Z"/><path class="cls-58" d="M198.24,108.83a19.76,19.76,0,0,0,.46-2.1c-1.88-.42-5.09,1.22-5.77,1.26-.49,0-2.07,0-3.84-.16a56,56,0,0,1-6.38-.64,15.07,15.07,0,0,0-5.72-2,10.83,10.83,0,0,0,1.19,3.84c.28.54.45.41,1.07.46,3.35.13,6.56-.29,9.84-.47a37.84,37.84,0,0,1,4.88,0c.7,0,4,.43,4.27-.14Z"/><path class="cls-59" d="M51.79,167.75c-1.4-.29-1.17-1.53-1.31-2.83-.26-2.58.22-4.48.38-7,.09-1.41,1.33-1.11,2.36-1.11,4.76,0,9.52,0,14.28,0,.73,0,6,.28,6.32.44.87.4.72,1.71.77,2.59,0,1,.16,7.14-.21,7.7s-2.84.63-3.67.74a39.09,39.09,0,0,1-9.23.16c-3.27-.24-6.45,0-9.69-.66Z"/><path class="cls-60" d="M85.38,167.77c-.82.82-9.39,1.38-9.8,1s-.36-9.75-.2-10.77c.06-.43.28-1,.74-1.1a24.5,24.5,0,0,1,4.31-.16c.82,0,4.3-.1,4.83.29s.46,1.41.45,2c0,2.33.12,5.18-.08,7.47a3.09,3.09,0,0,1-.25,1.22Z"/><path class="cls-61" d="M86.65,160.5a22.87,22.87,0,0,1,.62-3.4c.35-.45,2.18-.35,2.75-.34,2.45,0,4.94.07,7.39.25,3.36.2,3.33-.18,3.62,3.17.09,1.17.74,7.78-.06,8.4-.5.39-3.73.22-4.46.2a67.38,67.38,0,0,1-7.1-.36,5.72,5.72,0,0,1-2.48-.54c-.69-.33-.58-1.89-.58-2.51a30.48,30.48,0,0,1,.3-4.87Z"/><path class="cls-62" d="M89.46,166.06c2.35.47,4.69.7,7.05,1l2.19.24a8.74,8.74,0,0,0,2,0,3.21,3.21,0,0,0,.24-1.2,21.71,21.71,0,0,0,0-2.42c-.06-1.25-.18-2.49-.3-3.74a14.79,14.79,0,0,0-.19-1.63,1.26,1.26,0,0,0-.29-.63,1.89,1.89,0,0,0-.82-.22c-.65-.06-1.33-.07-2-.11-2.69-.16-6.18-.41-8.79.3-.67.19-.72,1.15-.93,1.85-.26.87-1.36,5.33-.52,5.89a6.12,6.12,0,0,0,2.32.68Z"/><path class="cls-63" d="M85.11,165.15a4.18,4.18,0,0,0,.16-1c.06-.77.48-6-.34-6.25-1-.29-8.15-.86-8.8-.59l-.15.07a2,2,0,0,0-.3,1.19l0,1.13c0,1,0,2.06,0,3.09s0,2.1.08,3.14a11.27,11.27,0,0,0,.14,1.54c.37.05,1.27,0,1.53,0,1,0,2.09-.09,3.13-.18,1-.41,2.06-.84,3.06-1.32a8.69,8.69,0,0,0,1.53-.87Z"/><path class="cls-64" d="M51.87,166.48c3.17.59,6.42.38,9.64.59,1.5.1,3,.19,4.51.18a44.83,44.83,0,0,0,4.64-.33c.58-.06,1.18-.08,1.76-.13.29,0,1.49-.16,1.65-.38a18.43,18.43,0,0,0,.21-3.38c0-1.14,0-2.31,0-3.45,0-.55.1-1.8-.54-2.07l-.34,0-.72-.07-2-.13-2-.09c-.39,0-.78,0-1.16,0a59.76,59.76,0,0,0-7.91.36,65.38,65.38,0,0,1-7.27.45c-1.41,0-1,.8-1.28,2.23a13.8,13.8,0,0,0-.2,4,4.63,4.63,0,0,0,.33,1.91,1.11,1.11,0,0,0,.7.38Z"/><path class="cls-65" d="M100.19,168.23c-3-.36-5.88-1-8.85-1.36-.93-.11-1.89.12-2.83,0a2.9,2.9,0,0,1-1.26-.45,1.4,1.4,0,0,1-.57-.74,10.68,10.68,0,0,1-.33-1.59q0,.62,0,1.26c0,.62-.11,2.18.58,2.51a5.72,5.72,0,0,0,2.48.54,67.38,67.38,0,0,0,7.1.36c.73,0,4,.19,4.46-.2a1.81,1.81,0,0,0,.33-1.09,2.37,2.37,0,0,1-.44.55.9.9,0,0,1-.67.19Z"/><path class="cls-66" d="M85.38,167.77a3.09,3.09,0,0,0,.25-1.22c0-.41.06-.85.08-1.3a3.16,3.16,0,0,1-.74,1.17,6.29,6.29,0,0,1-2.21,1c-1.63.44-3.31.68-5,1a9.16,9.16,0,0,1-1.73.19.44.44,0,0,1-.38-.24,5.45,5.45,0,0,1-.29-1.05,5.55,5.55,0,0,0,.2,1.53c.41.34,9-.22,9.8-1Z"/><path class="cls-67" d="M67.56,167.78c-2,0-3.9-.21-5.86-.19-.6,0-1.2.24-1.8.26a27.4,27.4,0,0,1-3.95-.1,27.84,27.84,0,0,1-4.14-.83,1.84,1.84,0,0,1-.79-.5,2.37,2.37,0,0,1-.38-.72c0-.14-.09-.29-.13-.44.08,1.17,0,2.23,1.28,2.49,3.24.67,6.42.42,9.69.66a39.09,39.09,0,0,0,9.23-.16c.83-.11,3.26-.12,3.67-.74a.62.62,0,0,0,.07-.23,1.21,1.21,0,0,1-.59.31c-2.1.17-4.2.19-6.3.19Z"/><path class="cls-68" d="M54.17,160.2c2.2,0,8-.83,9.93-1.82.52-.27,7.41-.12,8.35-.12,1.1,0,1.41.19,1.77.89,0-.61,0-1.43-.53-1.64l-.34,0-.72-.07-2-.13-2-.09c-.39,0-.78,0-1.16,0a59.76,59.76,0,0,0-7.91.36,65.38,65.38,0,0,1-7.27.45c-1.38,0-1.06.77-1.27,2.14a19.62,19.62,0,0,0,3.12.11Z"/><path class="cls-69" d="M76,157.41a2,2,0,0,0-.3,1.19l0,1.1a11,11,0,0,0,4.28-1,16,16,0,0,1,5.09.38c.16.09.16.28.4.93,0-1.08-.17-2-.49-2-1-.29-8.15-.86-8.8-.59l-.15.07Z"/><path class="cls-70" d="M88.59,157.64c-.67.19-.72,1.14-.93,1.84,1.28-1,1.86-1.14,2.6-1.1,2.09.1,4.79.27,6.79.5a6.3,6.3,0,0,1,3.75,2.5c0-.48-.08-1-.13-1.45a14.79,14.79,0,0,0-.19-1.63,1.26,1.26,0,0,0-.29-.63,1.89,1.89,0,0,0-.82-.22c-.65-.06-1.33-.07-2-.11-2.69-.16-6.18-.41-8.79.3Z"/><path class="cls-71" d="M27.82,167.78a1.09,1.09,0,0,1-1-1.08,25.15,25.15,0,0,1,.43-5.93,19.48,19.48,0,0,0,.33-2.83c.1-1.49,1.09-1.15,2.39-1.16,5.93-.06,12-.13,17.95,0a5,5,0,0,1,.78,0c.78.37,1.29,3.24,1.34,4.08a35.73,35.73,0,0,1-.21,5.94c-.15,1.13-.54,1-1.46,1.4a2.36,2.36,0,0,1-1.58.34,183.93,183.93,0,0,1-19-.82Z"/><path class="cls-72" d="M27.21,164.05c-.06.9,0,1.79,0,2.68a.66.66,0,0,0,.7.63c1.91.12,3.85.16,5.78.17,2.15,0,4.3,0,6.46-.06s4.45-.13,6.67-.23A2.32,2.32,0,0,0,48.2,167c.23-.1.45-.18.68-.26a2.17,2.17,0,0,0,.35-.15,1.08,1.08,0,0,0,.24-.62c.4-3.06.37-5.5-1.06-8.28-.28-.54-.45-.41-1.07-.46-5-.2-9.65.83-14.72.47-.7,0-4-.43-4.27.14-.18.36-1.07,5.37-1.14,6.24Z"/><path class="cls-73" d="M46.49,167.71c-1.26.06-2.52.07-3.78.09-1.64,0-3.28.06-4.92.07h-.28c-1.43,0-2.85,0-4.27,0-1,0-1.92.08-2.88.14,2.21.18,4.65.31,7.15.4,3.1.11,6.3.16,9.27.16a2.36,2.36,0,0,0,1.58-.34c.92-.44,1.31-.27,1.46-1.4v-.11a1.22,1.22,0,0,1-.12.19,1.52,1.52,0,0,1-.81.53,14.91,14.91,0,0,1-2.41.24Z"/><path class="cls-74" d="M28.35,157.81a20.23,20.23,0,0,0-.46,2.11c1.88.42,5.09-1.22,5.77-1.27.49,0,2.07,0,3.85.16a55,55,0,0,1,6.37.65,15.09,15.09,0,0,0,5.73,2.06,11.16,11.16,0,0,0-1.2-3.86c-.28-.54-.45-.41-1.07-.46-3.35-.14-6.56.29-9.83.47a38,38,0,0,1-4.89,0c-.7,0-4-.43-4.27.14Z"/><path class="cls-75" d="M23.93,361.34c-1.3-.29-1.09-1.53-1.22-2.82-.24-2.57.21-4.47.36-7,.08-1.4,1.23-1.1,2.18-1.1,4.42,0,8.83,0,13.24,0,.68,0,5.54.28,5.86.44.81.39.67,1.7.71,2.58,0,1,.15,7.11-.19,7.67s-2.63.63-3.4.73a34.11,34.11,0,0,1-8.56.17c-3-.24-6,0-9-.66Z"/><path class="cls-76" d="M55.07,361.35c-.76.83-8.71,1.38-9.09,1s-.33-9.72-.19-10.74c.06-.42.27-1,.69-1.09a21.12,21.12,0,0,1,4-.16c.76,0,4-.1,4.47.29s.43,1.4.43,2c0,2.31.1,5.15-.08,7.44a3.37,3.37,0,0,1-.23,1.2Z"/><path class="cls-77" d="M56.25,354.11a26.42,26.42,0,0,1,.56-3.38c.33-.45,2-.34,2.56-.34,2.27,0,4.58.07,6.85.25,3.12.2,3.09-.18,3.36,3.16.08,1.16.68,7.75-.06,8.36-.47.39-3.46.22-4.14.21a62.88,62.88,0,0,1-6.57-.36,5.28,5.28,0,0,1-2.31-.54c-.63-.34-.54-1.88-.54-2.5a32.86,32.86,0,0,1,.29-4.86Z"/><path class="cls-78" d="M58.85,359.66c2.18.46,4.35.7,6.54,1l2,.24a7.59,7.59,0,0,0,1.9,0,3.37,3.37,0,0,0,.22-1.2c0-.79,0-1.61,0-2.41-.06-1.24-.17-2.48-.28-3.72a12.54,12.54,0,0,0-.18-1.62,1.12,1.12,0,0,0-.27-.63,1.49,1.49,0,0,0-.75-.22c-.61-.06-1.24-.07-1.85-.11-2.49-.16-5.73-.41-8.14.3-.63.19-.68,1.14-.87,1.84-.24.87-1.26,5.3-.48,5.87a5.58,5.58,0,0,0,2.15.68Z"/><path class="cls-79" d="M54.81,358.75a4.81,4.81,0,0,0,.16-1c.05-.77.44-6-.32-6.24s-7.55-.85-8.16-.59l-.14.08a2,2,0,0,0-.27,1.19c0,.37,0,.75,0,1.12,0,1,0,2,0,3.08s0,2.09.07,3.12a12.79,12.79,0,0,0,.13,1.54,13.81,13.81,0,0,0,1.42,0c1,0,1.94-.1,2.9-.18.94-.41,1.91-.84,2.84-1.32a8.32,8.32,0,0,0,1.41-.86Z"/><path class="cls-80" d="M24,360.07c2.94.59,5.95.38,8.93.59,1.4.1,2.79.19,4.19.17a36.27,36.27,0,0,0,4.3-.32c.54-.06,1.09-.07,1.64-.13.26,0,1.37-.16,1.52-.38a20.29,20.29,0,0,0,.2-3.37c0-1.13,0-2.29-.05-3.43,0-.55.09-1.79-.5-2.06l-.31-.05-.67-.06-1.88-.13-1.8-.09c-.36,0-.73,0-1.08,0a51.56,51.56,0,0,0-7.34.36,56.07,56.07,0,0,1-6.73.45c-1.31,0-1,.79-1.19,2.21a15.29,15.29,0,0,0-.19,4,5.21,5.21,0,0,0,.31,1.91,1,1,0,0,0,.65.37Z"/><path class="cls-81" d="M68.8,361.82c-2.75-.37-5.46-1-8.2-1.36-.87-.11-1.76.12-2.63,0A2.57,2.57,0,0,1,56.8,360a1.45,1.45,0,0,1-.53-.73,10.62,10.62,0,0,1-.3-1.59c0,.41,0,.83,0,1.26,0,.62-.09,2.16.54,2.5a5.28,5.28,0,0,0,2.31.54,62.88,62.88,0,0,0,6.57.36c.68,0,3.67.18,4.14-.21a1.9,1.9,0,0,0,.31-1.08,2.25,2.25,0,0,1-.41.55.84.84,0,0,1-.62.19Z"/><path class="cls-82" d="M55.07,361.35a3.37,3.37,0,0,0,.23-1.2c0-.42.06-.86.08-1.3a3.44,3.44,0,0,1-.69,1.16,5.43,5.43,0,0,1-2.06,1,45.34,45.34,0,0,1-4.6,1,8.13,8.13,0,0,1-1.61.19.42.42,0,0,1-.36-.24,5.28,5.28,0,0,1-.26-1A5.58,5.58,0,0,0,46,362.4c.38.33,8.33-.22,9.09-1Z"/><path class="cls-83" d="M38.54,361.37c-1.81,0-3.61-.21-5.42-.19-.57,0-1.11.24-1.68.26a23.53,23.53,0,0,1-3.66-.1,24.11,24.11,0,0,1-3.84-.83,1.62,1.62,0,0,1-.72-.5,2,2,0,0,1-.36-.71,3.6,3.6,0,0,1-.12-.44c.08,1.16,0,2.22,1.19,2.48,3,.66,5.95.42,9,.66a34.11,34.11,0,0,0,8.56-.17c.77-.1,3-.11,3.4-.73a.91.91,0,0,0,.07-.23,1.28,1.28,0,0,1-.55.31c-2,.17-3.9.19-5.85.19Z"/><path class="cls-84" d="M26.13,353.81c2,0,7.42-.81,9.2-1.8.49-.27,6.88-.12,7.75-.12,1,0,1.31.18,1.64.89,0-.61,0-1.43-.49-1.64l-.31-.05-.67-.06-1.88-.13-1.8-.09c-.36,0-.73,0-1.08,0a51.56,51.56,0,0,0-7.34.36,56.07,56.07,0,0,1-6.73.45c-1.29,0-1,.76-1.18,2.13a16.8,16.8,0,0,0,2.89.1Z"/><path class="cls-85" d="M46.35,351a2,2,0,0,0-.27,1.19c0,.36,0,.73,0,1.09a9.51,9.51,0,0,0,4-1,13.77,13.77,0,0,1,4.71.38c.15.09.15.29.37.93,0-1.08-.15-2-.45-2.05-.9-.28-7.55-.85-8.16-.59l-.14.08Z"/><path class="cls-86" d="M58.05,351.27c-.62.19-.68,1.13-.87,1.83,1.19-1,1.73-1.13,2.41-1.09,1.94.1,4.44.26,6.3.5A5.83,5.83,0,0,1,69.37,355c0-.48-.08-1-.13-1.44a12.54,12.54,0,0,0-.18-1.62,1.12,1.12,0,0,0-.27-.63,1.49,1.49,0,0,0-.75-.22c-.61-.06-1.24-.07-1.85-.11-2.49-.16-5.73-.41-8.14.3Z"/><path class="cls-87" d="M1.71,361.37a1.05,1.05,0,0,1-.94-1.08,26.68,26.68,0,0,1,.4-5.91,20.59,20.59,0,0,0,.3-2.82c.09-1.47,1-1.14,2.22-1.15,5.49-.05,11.15-.13,16.64,0a4.29,4.29,0,0,1,.72,0c.72.37,1.2,3.23,1.24,4.06a37.76,37.76,0,0,1-.19,5.92c-.14,1.13-.5.95-1.35,1.4a2.07,2.07,0,0,1-1.47.33,158,158,0,0,1-17.57-.81Z"/><path class="cls-88" d="M1.14,357.66c0,.88,0,1.78,0,2.66a.64.64,0,0,0,.65.63c1.78.12,3.57.16,5.36.17,2,0,4,0,6-.06s4.12-.13,6.18-.23a2,2,0,0,0,1.32-.27c.21-.1.42-.18.63-.26a1.33,1.33,0,0,0,.32-.15,1,1,0,0,0,.22-.61c.37-3.06.35-5.49-1-8.25-.25-.54-.42-.41-1-.46-4.62-.2-9,.83-13.65.47-.64-.05-3.7-.43-4,.14-.16.36-1,5.35-1,6.22Z"/><path class="cls-89" d="M19,361.29c-1.17.07-2.34.08-3.51.1l-4.57.07h-.26c-1.31,0-2.63,0-3.95,0-.89,0-1.78.09-2.67.14,2.05.19,4.31.32,6.62.41,2.88.11,5.85.15,8.6.15a2.07,2.07,0,0,0,1.47-.33c.85-.45,1.21-.27,1.35-1.4v-.11a.76.76,0,0,1-.12.19,1.43,1.43,0,0,1-.75.53,11.78,11.78,0,0,1-2.22.23Z"/><path class="cls-90" d="M2.19,351.44c-.06.14-.23,1-.42,2.1,1.75.41,4.72-1.22,5.35-1.26.45,0,1.91,0,3.56.16a46.18,46.18,0,0,1,5.91.64,13.29,13.29,0,0,0,5.31,2.05,11.49,11.49,0,0,0-1.11-3.84c-.25-.54-.42-.41-1-.46a86.07,86.07,0,0,0-9.12.47,32.61,32.61,0,0,1-4.53,0c-.64-.05-3.7-.43-4,.14Z"/><path class="cls-91" d="M26.51,162.12c-.08-1-.44-4.26-1-4.91-.85-.92-4-1-5.24-1-2.24,0-4.45,0-6.7,0-2.59-.06-5.25.15-7.87.18a18.76,18.76,0,0,0-3.43.18,3.5,3.5,0,0,0-1,.85,2.18,2.18,0,0,0-.52,1.43c-.06.4-.1.8-.16,1.2-.16.91-.26,1.82-.41,2.73a13.18,13.18,0,0,0,.51,5.65c.3.91.83,1,1.64.93h.53c6.83,0,13.66,0,20.48,0,.55,0,1.13,0,1.69-.05,1-.08,1.14-.63,1.32-1.6a26.32,26.32,0,0,0,.24-4c0-.52,0-1.05,0-1.57Z"/><path class="cls-92" d="M26.15,162.73a12.08,12.08,0,0,1-1.06,5.35c-.32.6-1.26.56-1.89.65-5.71.68-9.66-1.37-15.63-.48-1.11.16-5.29,1.1-5.9.42s-1.35-4.39-1.3-5.44l.1-1c.15-.82.25-1.66.4-2.48.07-.36.11-.73.17-1.09s.07-.78.41-1.08a3,3,0,0,1,.91-.65,8.09,8.09,0,0,1,1.64,0l1.66.09c2.85.12,17.85.29,19.55,1.5.5.5.87,3.46.94,4.26Z"/><path class="cls-93" d="M20.23,156.23c1.22,0,4.39.06,5.24,1a3.53,3.53,0,0,1,.51,1.3,2.86,2.86,0,0,0-.55-.73,2,2,0,0,0-1.08-.5c-1.25-.12-2.51.06-3.76,0-2.95-.13-5.89-.41-8.84-.57-1.8-.09-3.6-.09-5.4-.18-.72,0-1.45-.09-2.17-.15H5.66c2.62,0,5.28-.24,7.87-.18,2.25.05,4.46,0,6.7,0Z"/><path class="cls-94" d="M1.22,167.39a33.15,33.15,0,0,0,5.48-1.24,5.32,5.32,0,0,1,1.83-.73c5.91-.45,10.7,1.68,15.61,1.79a2.07,2.07,0,0,0,1.41-.67,7.38,7.38,0,0,1-.46,1.11c-.32.61-1.26.57-1.89.66-5.71.68-9.66-1.37-15.63-.48-1.11.16-5.29,1.1-5.9.42a2.82,2.82,0,0,1-.45-.86Z"/></g></g></g></svg>