<svg xmlns="http://www.w3.org/2000/svg" xmlns:xlink="http://www.w3.org/1999/xlink" viewBox="0 0 19 33"><defs><style>.cls-1{fill:url(#linear-gradient);}.cls-2{fill:url(#New_Gradient_Swatch_6);}.cls-3{fill:url(#New_Gradient_Swatch_4);}.cls-4{mask:url(#mask);}.cls-5{fill:url(#New_Gradient_Swatch_6-2);}.cls-6{fill:url(#New_Gradient_Swatch_4-2);}.cls-7{fill:#adadad;}.cls-8{fill:#333;}</style><linearGradient id="linear-gradient" x1="9.5" y1="52.69" x2="9.5" y2="26.48" gradientUnits="userSpaceOnUse"><stop offset="0.77"/><stop offset="0.84" stop-color="#030303"/><stop offset="0.91" stop-color="#0e0e0e"/><stop offset="0.97" stop-color="#202020"/><stop offset="1" stop-color="#2e2e2e"/></linearGradient><linearGradient id="New_Gradient_Swatch_6" x1="6.49" y1="27.35" x2="11.27" y2="0.26" gradientUnits="userSpaceOnUse"><stop offset="0"/><stop offset="1" stop-color="#4d4d4d"/></linearGradient><linearGradient id="New_Gradient_Swatch_4" x1="8.11" y1="27.35" x2="12.88" y2="0.26" gradientUnits="userSpaceOnUse"><stop offset="0" stop-color="#333"/><stop offset="1" stop-color="gray"/></linearGradient><mask id="mask" x="0" y="26.48" width="19" height="26.21" maskUnits="userSpaceOnUse"><rect class="cls-1" y="26.48" width="19" height="26.21"/></mask><linearGradient id="New_Gradient_Swatch_6-2" x1="7.88" y1="34.39" x2="9.51" y2="25.09" xlink:href="#New_Gradient_Swatch_6"/><linearGradient id="New_Gradient_Swatch_4-2" x1="9.49" y1="34.39" x2="11.13" y2="25.09" xlink:href="#New_Gradient_Swatch_4"/></defs><g id="Layer_2" data-name="Layer 2"><g id="Layer_1-2" data-name="Layer 1"><path class="cls-2" d="M0,3.53V26.21H17.39V3.53A12.47,12.47,0,0,0,0,3.53Z"/><path class="cls-3" d="M1.61,3.53V26.21H19V3.53A12.47,12.47,0,0,0,1.61,3.53Z"/><g class="cls-4"><rect class="cls-5" y="26.48" width="17.39" height="6.52"/><rect class="cls-6" x="1.61" y="26.48" width="17.39" height="6.52"/></g><path class="cls-7" d="M2.06,9.09H4.74a1.9,1.9,0,0,1,.7.12A1.56,1.56,0,0,1,6,9.52a1.38,1.38,0,0,1,.43,1,1.55,1.55,0,0,1,0,.45,1.19,1.19,0,0,1-.16.34,1.33,1.33,0,0,1-.26.27,1.71,1.71,0,0,1-.35.21.91.91,0,0,1,.3.26,1.36,1.36,0,0,1,.2.47l.17.66h.41v1H5.19L5,13a1.67,1.67,0,0,0-.09-.37.78.78,0,0,0-.17-.26.68.68,0,0,0-.25-.14,1.23,1.23,0,0,0-.35,0H3.69v1.11h.47v.91H2.06v-.91h.52V10H2.06ZM3.69,10v1.23h.67a1.18,1.18,0,0,0,.34,0A.68.68,0,0,0,5,11.09a.48.48,0,0,0,.17-.18.61.61,0,0,0,.06-.28A.54.54,0,0,0,5,10.18,1,1,0,0,0,4.36,10Z"/><path class="cls-7" d="M7.32,13.62a.7.7,0,0,1,0-.25.6.6,0,0,1,.14-.21A.77.77,0,0,1,7.72,13a.65.65,0,0,1,.5,0,.77.77,0,0,1,.21.14.6.6,0,0,1,.14.21.7.7,0,0,1,0,.25.8.8,0,0,1,0,.26.72.72,0,0,1-.14.2.6.6,0,0,1-.21.14.51.51,0,0,1-.25,0,.58.58,0,0,1-.26,0,.66.66,0,0,1-.2-.14.56.56,0,0,1-.14-.2A.75.75,0,0,1,7.32,13.62Z"/><path class="cls-7" d="M9.4,9.09h2.17V10H11v3.24h.54v.91H9.4v-.91h.52V10H9.4Z"/><path class="cls-7" d="M12.35,13.62a.53.53,0,0,1,.05-.25.57.57,0,0,1,.13-.21.77.77,0,0,1,.21-.14A.75.75,0,0,1,13,13a.7.7,0,0,1,.25,0,.64.64,0,0,1,.35.35.7.7,0,0,1,.05.25.62.62,0,0,1-.06.26.69.69,0,0,1-.13.2.6.6,0,0,1-.21.14.53.53,0,0,1-.25,0,.58.58,0,0,1-.26,0,.6.6,0,0,1-.21-.14.53.53,0,0,1-.13-.2A.58.58,0,0,1,12.35,13.62Z"/><path class="cls-7" d="M14.43,9.09h2.34a2.09,2.09,0,0,1,.72.12,2.36,2.36,0,0,1,.56.33,1.55,1.55,0,0,1,.37.48,1.26,1.26,0,0,1,.14.57,2,2,0,0,1-.11.66,1.36,1.36,0,0,1-.33.54,1.55,1.55,0,0,1-.55.36,2.2,2.2,0,0,1-.8.13h-.71v1h.47v.91h-2.1v-.91H15V10h-.52Zm1.63.92v1.36h.46a1,1,0,0,0,.6-.16.57.57,0,0,0,.23-.51.63.63,0,0,0-.21-.5.89.89,0,0,0-.62-.19Z"/><path class="cls-8" d="M2.06,8.66H4.74a1.9,1.9,0,0,1,.7.12A1.56,1.56,0,0,1,6,9.09a1.32,1.32,0,0,1,.32.46,1.24,1.24,0,0,1,.11.54,1.55,1.55,0,0,1,0,.45,1.39,1.39,0,0,1-.16.35,1.28,1.28,0,0,1-.26.26,1.71,1.71,0,0,1-.35.21,1,1,0,0,1,.3.27,1.3,1.3,0,0,1,.2.46l.17.66h.41v1H5.19L5,12.53a1.67,1.67,0,0,0-.09-.37.65.65,0,0,0-.17-.25.58.58,0,0,0-.25-.15,1.23,1.23,0,0,0-.35,0H3.69v1.11h.47v.91H2.06v-.91h.52V9.58H2.06Zm1.63.92v1.23h.67a1.72,1.72,0,0,0,.34,0A.89.89,0,0,0,5,10.67a.51.51,0,0,0,.17-.19.6.6,0,0,0,.06-.27A.55.55,0,0,0,5,9.75a1,1,0,0,0-.62-.17Z"/><path class="cls-8" d="M7.32,13.19a.7.7,0,0,1,0-.25.6.6,0,0,1,.14-.21.77.77,0,0,1,.21-.14.65.65,0,0,1,.5,0,.77.77,0,0,1,.21.14.6.6,0,0,1,.14.21.74.74,0,0,1,0,.25.75.75,0,0,1,0,.26.67.67,0,0,1-.35.34.51.51,0,0,1-.25.06.58.58,0,0,1-.26-.06.66.66,0,0,1-.2-.14.48.48,0,0,1-.14-.2A.75.75,0,0,1,7.32,13.19Z"/><path class="cls-8" d="M9.4,8.66h2.17v.92H11v3.24h.54v.91H9.4v-.91h.52V9.58H9.4Z"/><path class="cls-8" d="M12.35,13.19a.53.53,0,0,1,.05-.25.57.57,0,0,1,.13-.21.77.77,0,0,1,.21-.14.75.75,0,0,1,.26-.05.7.7,0,0,1,.25.05.64.64,0,0,1,.35.35.74.74,0,0,1,.05.25.73.73,0,0,1-.19.46.6.6,0,0,1-.21.14.54.54,0,0,1-.25.06.58.58,0,0,1-.26-.06.6.6,0,0,1-.21-.14.46.46,0,0,1-.13-.2A.58.58,0,0,1,12.35,13.19Z"/><path class="cls-8" d="M14.43,8.66h2.34a1.88,1.88,0,0,1,.72.13,1.84,1.84,0,0,1,.56.33,1.4,1.4,0,0,1,.37.47,1.26,1.26,0,0,1,.14.57,2,2,0,0,1-.11.66,1.36,1.36,0,0,1-.33.54,1.55,1.55,0,0,1-.55.36,2.2,2.2,0,0,1-.8.13h-.71v1h.47v.91h-2.1v-.91H15V9.58h-.52Zm1.63.92V11h.46a1,1,0,0,0,.6-.17.56.56,0,0,0,.23-.5.64.64,0,0,0-.21-.51.94.94,0,0,0-.62-.19Z"/></g></g></svg>