<svg xmlns="http://www.w3.org/2000/svg" xmlns:xlink="http://www.w3.org/1999/xlink" viewBox="0 0 25.94 65.15"><defs><style>.cls-1{fill:url(#linear-gradient);}.cls-2{fill:url(#New_Gradient_Swatch_6);}.cls-3{fill:url(#New_Gradient_Swatch_4);}.cls-4{mask:url(#mask);}.cls-5{fill:url(#New_Gradient_Swatch_6-2);}.cls-6{fill:url(#New_Gradient_Swatch_4-2);}.cls-7{fill:#adadad;}.cls-8{fill:#333;}</style><linearGradient id="linear-gradient" x1="12.97" y1="65.15" x2="12.97" y2="32.74" gradientUnits="userSpaceOnUse"><stop offset="0.77"/><stop offset="0.84" stop-color="#030303"/><stop offset="0.91" stop-color="#0e0e0e"/><stop offset="0.97" stop-color="#202020"/><stop offset="1" stop-color="#2e2e2e"/></linearGradient><linearGradient id="New_Gradient_Swatch_6" x1="8.35" y1="32.86" x2="14.27" y2="-0.68" gradientUnits="userSpaceOnUse"><stop offset="0"/><stop offset="1" stop-color="#4d4d4d"/></linearGradient><linearGradient id="New_Gradient_Swatch_4" x1="10.35" y1="32.86" x2="16.27" y2="-0.68" gradientUnits="userSpaceOnUse"><stop offset="0" stop-color="#333"/><stop offset="1" stop-color="gray"/></linearGradient><mask id="mask" x="0" y="32.74" width="25.94" height="32.41" maskUnits="userSpaceOnUse"><rect class="cls-1" y="32.74" width="25.94" height="32.41"/></mask><linearGradient id="New_Gradient_Swatch_6-2" x1="9.67" y1="65.84" x2="15.58" y2="32.29" xlink:href="#New_Gradient_Swatch_6"/><linearGradient id="New_Gradient_Swatch_4-2" x1="11.67" y1="65.84" x2="17.58" y2="32.29" xlink:href="#New_Gradient_Swatch_4"/></defs><g id="Layer_2" data-name="Layer 2"><g id="Layer_1-2" data-name="Layer 1"><polygon class="cls-2" points="18.15 0 5.79 0 5.79 6.18 0 6.18 0 18.55 5.79 18.55 5.79 32.41 18.15 32.41 18.15 18.55 23.94 18.55 23.94 6.18 18.15 6.18 18.15 0"/><polygon class="cls-3" points="20.15 0 7.79 0 7.79 6.18 2 6.18 2 18.55 7.79 18.55 7.79 32.41 20.15 32.41 20.15 18.55 25.94 18.55 25.94 6.18 20.15 6.18 20.15 0"/><g class="cls-4"><polygon class="cls-5" points="18.15 32.74 5.79 32.74 5.79 46.6 0 46.6 0 58.97 5.79 58.97 5.79 65.15 18.15 65.15 18.15 58.97 23.94 58.97 23.94 46.6 18.15 46.6 18.15 32.74"/><polygon class="cls-6" points="20.15 32.74 7.79 32.74 7.79 46.6 2 46.6 2 58.97 7.79 58.97 7.79 65.15 20.15 65.15 20.15 58.97 25.94 58.97 25.94 46.6 20.15 46.6 20.15 32.74"/></g><path class="cls-7" d="M5.79,9.12H8.48a2.19,2.19,0,0,1,.7.11,1.64,1.64,0,0,1,.51.32A1.31,1.31,0,0,1,10,10a1.49,1.49,0,0,1,.11.54,1.53,1.53,0,0,1-.06.45,1,1,0,0,1-.16.35.92.92,0,0,1-.26.26,1.71,1.71,0,0,1-.35.21.77.77,0,0,1,.3.27,1.15,1.15,0,0,1,.2.46l.17.66h.42v1H8.93L8.72,13a1.82,1.82,0,0,0-.09-.37.72.72,0,0,0-.16-.25.74.74,0,0,0-.26-.15,1.16,1.16,0,0,0-.35,0H7.43v1.1H7.9v.92H5.79v-.92h.53V10H5.79ZM7.43,10v1.22H8.1a1.79,1.79,0,0,0,.34,0,.68.68,0,0,0,.26-.11.52.52,0,0,0,.17-.19.6.6,0,0,0,.06-.27.53.53,0,0,0-.22-.46A1,1,0,0,0,8.1,10Z"/><path class="cls-7" d="M11.06,13.65a.51.51,0,0,1,0-.25.57.57,0,0,1,.13-.21.6.6,0,0,1,.21-.14.58.58,0,0,1,.26-.06.54.54,0,0,1,.25.06.6.6,0,0,1,.21.14.77.77,0,0,1,.14.21.7.7,0,0,1,0,.25.54.54,0,0,1-.06.25.67.67,0,0,1-.34.35.7.7,0,0,1-.25.05.75.75,0,0,1-.26-.05.77.77,0,0,1-.21-.14.57.57,0,0,1-.13-.21A.53.53,0,0,1,11.06,13.65Z"/><path class="cls-7" d="M13.13,9.12h2.18V10h-.54v3.24h.54v.92H13.13v-.92h.53V10h-.53Z"/><path class="cls-7" d="M16.08,13.65a.66.66,0,0,1,.05-.25.64.64,0,0,1,.35-.35.55.55,0,0,1,.26-.06.57.57,0,0,1,.25.06.66.66,0,0,1,.2.14.6.6,0,0,1,.14.21.65.65,0,0,1,0,.5.77.77,0,0,1-.14.21.9.9,0,0,1-.2.14.74.74,0,0,1-.25.05.71.71,0,0,1-.26-.05.77.77,0,0,1-.21-.14.6.6,0,0,1-.14-.21A.7.7,0,0,1,16.08,13.65Z"/><path class="cls-7" d="M18.16,9.12H20.5a2.09,2.09,0,0,1,.72.12,1.78,1.78,0,0,1,.57.33,1.72,1.72,0,0,1,.37.48,1.24,1.24,0,0,1,.13.56,2.09,2.09,0,0,1-.1.67,1.39,1.39,0,0,1-.33.53,1.36,1.36,0,0,1-.56.36,2.12,2.12,0,0,1-.8.14h-.7v1h.46v.92h-2.1v-.92h.53V10h-.53ZM19.8,10V11.4h.45a1,1,0,0,0,.61-.16.59.59,0,0,0,.22-.51.64.64,0,0,0-.21-.51.92.92,0,0,0-.62-.18Z"/><path class="cls-8" d="M5.79,8.69H8.48a1.94,1.94,0,0,1,.7.12,1.45,1.45,0,0,1,.51.31,1.31,1.31,0,0,1,.33.45,1.49,1.49,0,0,1,.11.54,1.56,1.56,0,0,1-.06.46,1,1,0,0,1-.16.34,1.1,1.1,0,0,1-.26.27l-.35.21a.68.68,0,0,1,.3.26,1.21,1.21,0,0,1,.2.46l.17.66h.42v1H8.93l-.21-1.2a1.54,1.54,0,0,0-.09-.37.68.68,0,0,0-.16-.26.72.72,0,0,0-.26-.14,1.13,1.13,0,0,0-.35,0H7.43v1.1H7.9v.92H5.79v-.92h.53V9.61H5.79Zm1.64.92v1.23H8.1a1.22,1.22,0,0,0,.34,0,.68.68,0,0,0,.26-.11.52.52,0,0,0,.17-.19.61.61,0,0,0-.16-.73,1,1,0,0,0-.61-.16Z"/><path class="cls-8" d="M11.06,13.22a.53.53,0,0,1,0-.25.57.57,0,0,1,.13-.21.6.6,0,0,1,.21-.14.58.58,0,0,1,.26,0,.53.53,0,0,1,.25,0,.6.6,0,0,1,.21.14.77.77,0,0,1,.14.21.7.7,0,0,1,0,.25.54.54,0,0,1-.06.25.67.67,0,0,1-.34.35.7.7,0,0,1-.25,0,.75.75,0,0,1-.26,0,.77.77,0,0,1-.21-.14.57.57,0,0,1-.13-.21A.51.51,0,0,1,11.06,13.22Z"/><path class="cls-8" d="M13.13,8.69h2.18v.92h-.54v3.23h.54v.92H13.13v-.92h.53V9.61h-.53Z"/><path class="cls-8" d="M16.08,13.22a.7.7,0,0,1,.05-.25.64.64,0,0,1,.35-.35.55.55,0,0,1,.26,0,.56.56,0,0,1,.25,0,.66.66,0,0,1,.2.14.6.6,0,0,1,.14.21.65.65,0,0,1,0,.5.77.77,0,0,1-.14.21.9.9,0,0,1-.2.14.74.74,0,0,1-.25,0,.71.71,0,0,1-.26,0,.77.77,0,0,1-.21-.14.6.6,0,0,1-.14-.21A.66.66,0,0,1,16.08,13.22Z"/><path class="cls-8" d="M18.16,8.69H20.5a2.09,2.09,0,0,1,.72.12,1.78,1.78,0,0,1,.57.33,1.72,1.72,0,0,1,.37.48,1.24,1.24,0,0,1,.13.56,2.09,2.09,0,0,1-.1.67,1.51,1.51,0,0,1-.33.54,1.45,1.45,0,0,1-.56.35,2.12,2.12,0,0,1-.8.14h-.7v1h.46v.92h-2.1v-.92h.53V9.61h-.53Zm1.64.92V11h.45a1,1,0,0,0,.61-.16.59.59,0,0,0,.22-.51.66.66,0,0,0-.21-.51.92.92,0,0,0-.62-.18Z"/></g></g></svg>