<svg xmlns="http://www.w3.org/2000/svg" xmlns:xlink="http://www.w3.org/1999/xlink" viewBox="0 0 23.42 64.83"><defs><style>.cls-1{fill:url(#linear-gradient);}.cls-2{fill:url(#New_Gradient_Swatch_6);}.cls-3{fill:url(#New_Gradient_Swatch_4);}.cls-4{mask:url(#mask);}.cls-5{fill:url(#New_Gradient_Swatch_6-2);}.cls-6{fill:url(#New_Gradient_Swatch_4-2);}.cls-7{fill:#adadad;}.cls-8{fill:#333;}</style><linearGradient id="linear-gradient" x1="11.71" y1="66.53" x2="11.71" y2="32.58" gradientUnits="userSpaceOnUse"><stop offset="0.77"/><stop offset="0.84" stop-color="#030303"/><stop offset="0.91" stop-color="#0e0e0e"/><stop offset="0.97" stop-color="#202020"/><stop offset="1" stop-color="#2e2e2e"/></linearGradient><linearGradient id="New_Gradient_Swatch_6" x1="8.19" y1="33.69" x2="14.09" y2="0.24" gradientUnits="userSpaceOnUse"><stop offset="0"/><stop offset="1" stop-color="#4d4d4d"/></linearGradient><linearGradient id="New_Gradient_Swatch_4" x1="10.18" y1="33.69" x2="16.03" y2="0.48" gradientUnits="userSpaceOnUse"><stop offset="0" stop-color="#333"/><stop offset="1" stop-color="gray"/></linearGradient><mask id="mask" x="0" y="32.58" width="23.42" height="33.95" maskUnits="userSpaceOnUse"><rect class="cls-1" y="32.58" width="23.42" height="33.95"/></mask><linearGradient id="New_Gradient_Swatch_6-2" x1="7.39" y1="64.34" x2="13.25" y2="31.14" xlink:href="#New_Gradient_Swatch_6"/><linearGradient id="New_Gradient_Swatch_4-2" x1="9.38" y1="64.34" x2="15.23" y2="31.14" xlink:href="#New_Gradient_Swatch_4"/></defs><g id="Layer_2" data-name="Layer 2"><g id="Layer_1-2" data-name="Layer 1"><path class="cls-2" d="M16.86,4.14A6.68,6.68,0,0,0,12.49.24L12.71,0h-2A6.63,6.63,0,0,0,4.58,4.14H2.32L0,6.46v4.27a9.61,9.61,0,0,1,3.06,7,9.57,9.57,0,0,1-3.06,7v7.47H21.44V24.78a9.59,9.59,0,0,1,0-14V6.46L19.12,4.14Z"/><path class="cls-3" d="M18.85,4.14a6.63,6.63,0,0,0-12.29,0H4.31L2,6.46v4.27a9.6,9.6,0,0,1,3.05,7,9.56,9.56,0,0,1-3,7v7.47H23.42V24.78a9.62,9.62,0,0,1,0-14V6.46L21.11,4.14Z"/><g class="cls-4"><path class="cls-5" d="M0,40a9.59,9.59,0,0,1,3.06,7,9.57,9.57,0,0,1-3.06,7v4.27l2.32,2.32H4.58a6.63,6.63,0,0,0,6.14,4.15h2l-.22-.25a6.63,6.63,0,0,0,4.37-3.9h2.26l2.32-2.32V54.09a9.59,9.59,0,0,1,0-14.05V32.58H0Z"/><path class="cls-6" d="M2,40a9.58,9.58,0,0,1,3.05,7,9.56,9.56,0,0,1-3,7v4.27l2.32,2.32H6.56a6.62,6.62,0,0,0,12.29,0h2.26l2.31-2.32V54.09a9.62,9.62,0,0,1,0-14.05V32.58H2Z"/></g><path class="cls-7" d="M4.46,6.85H7.14a1.94,1.94,0,0,1,.7.12,1.67,1.67,0,0,1,.52.31,1.38,1.38,0,0,1,.43,1,2,2,0,0,1,0,.45,1.19,1.19,0,0,1-.16.34,1.33,1.33,0,0,1-.26.27A1.71,1.71,0,0,1,8,9.55a1,1,0,0,1,.3.26,1.58,1.58,0,0,1,.2.47l.17.66h.41v1H7.59l-.2-1.2a1.67,1.67,0,0,0-.09-.37.79.79,0,0,0-.17-.25A.58.58,0,0,0,6.88,10a1.23,1.23,0,0,0-.35,0H6.09V11h.47v.91H4.46V11H5V7.77H4.46Zm1.63.92V9h.67A1.18,1.18,0,0,0,7.1,9a.68.68,0,0,0,.26-.11.48.48,0,0,0,.17-.18.61.61,0,0,0,.06-.28.54.54,0,0,0-.21-.45,1,1,0,0,0-.62-.17Z"/><path class="cls-7" d="M9.72,11.38a.7.7,0,0,1,0-.25.6.6,0,0,1,.14-.21.77.77,0,0,1,.21-.14.65.65,0,0,1,.5,0,.64.64,0,0,1,.35.35.7.7,0,0,1,0,.25.75.75,0,0,1,0,.26.67.67,0,0,1-.35.34.51.51,0,0,1-.25,0,.58.58,0,0,1-.26,0,.56.56,0,0,1-.2-.14.48.48,0,0,1-.14-.2A.75.75,0,0,1,9.72,11.38Z"/><path class="cls-7" d="M11.8,6.85H14v.92h-.54V11H14v.91H11.8V11h.52V7.77H11.8Z"/><path class="cls-7" d="M14.75,11.38a.53.53,0,0,1,.05-.25.57.57,0,0,1,.13-.21.77.77,0,0,1,.21-.14.75.75,0,0,1,.26,0,.7.7,0,0,1,.25,0,.77.77,0,0,1,.21.14.74.74,0,0,1,.13.21.53.53,0,0,1,0,.25.58.58,0,0,1,0,.26.7.7,0,0,1-.34.34.53.53,0,0,1-.25,0,.58.58,0,0,1-.26,0,.6.6,0,0,1-.21-.14.46.46,0,0,1-.13-.2A.58.58,0,0,1,14.75,11.38Z"/><path class="cls-7" d="M16.82,6.85h2.35a2,2,0,0,1,.71.12,2.24,2.24,0,0,1,.57.33,1.55,1.55,0,0,1,.37.48,1.26,1.26,0,0,1,.14.57,2,2,0,0,1-.11.66,1.36,1.36,0,0,1-.33.54,1.55,1.55,0,0,1-.55.36,2.2,2.2,0,0,1-.8.13h-.71v1h.46v.91h-2.1V11h.53V7.77h-.53Zm1.64.92V9.13h.46a1,1,0,0,0,.6-.16.57.57,0,0,0,.23-.51.63.63,0,0,0-.21-.5.89.89,0,0,0-.62-.19Z"/><path class="cls-8" d="M4.46,6.42H7.14a1.94,1.94,0,0,1,.7.12,1.67,1.67,0,0,1,.52.31,1.32,1.32,0,0,1,.32.46,1.24,1.24,0,0,1,.11.54,2,2,0,0,1,0,.45,1.25,1.25,0,0,1-.16.35,1.28,1.28,0,0,1-.26.26A1.71,1.71,0,0,1,8,9.12a1,1,0,0,1,.3.27,1.51,1.51,0,0,1,.2.46l.17.66h.41v1H7.59l-.2-1.21a1.82,1.82,0,0,0-.09-.37.79.79,0,0,0-.17-.25.58.58,0,0,0-.25-.15,1.23,1.23,0,0,0-.35,0H6.09v1.11h.47v.92H4.46v-.92H5V7.34H4.46Zm1.63.92V8.57h.67a1.72,1.72,0,0,0,.34,0,.89.89,0,0,0,.26-.11.51.51,0,0,0,.17-.19A.6.6,0,0,0,7.59,8a.55.55,0,0,0-.21-.46,1,1,0,0,0-.62-.17Z"/><path class="cls-8" d="M9.72,11a.7.7,0,0,1,0-.25.56.56,0,0,1,.14-.2.62.62,0,0,1,.21-.15.65.65,0,0,1,.5,0,.64.64,0,0,1,.35.35A.74.74,0,0,1,11,11a.75.75,0,0,1,0,.26.67.67,0,0,1-.35.34.51.51,0,0,1-.25.06.58.58,0,0,1-.26-.06.56.56,0,0,1-.2-.14.48.48,0,0,1-.14-.2A.75.75,0,0,1,9.72,11Z"/><path class="cls-8" d="M11.8,6.42H14v.92h-.54v3.24H14v.92H11.8v-.92h.52V7.34H11.8Z"/><path class="cls-8" d="M14.75,11a.66.66,0,0,1,.18-.45.62.62,0,0,1,.21-.15.75.75,0,0,1,.26,0,.7.7,0,0,1,.25,0,.77.77,0,0,1,.21.14.74.74,0,0,1,.13.21A.56.56,0,0,1,16,11a.58.58,0,0,1,0,.26.7.7,0,0,1-.34.34.54.54,0,0,1-.25.06.58.58,0,0,1-.26-.06.6.6,0,0,1-.21-.14.46.46,0,0,1-.13-.2A.58.58,0,0,1,14.75,11Z"/><path class="cls-8" d="M16.82,6.42h2.35a2,2,0,0,1,.71.13,1.78,1.78,0,0,1,.57.33,1.4,1.4,0,0,1,.37.47,1.26,1.26,0,0,1,.14.57,2,2,0,0,1-.11.66,1.36,1.36,0,0,1-.33.54,1.55,1.55,0,0,1-.55.36,2.2,2.2,0,0,1-.8.13h-.71v1h.46v.92h-2.1v-.92h.53V7.34h-.53Zm1.64.92V8.71h.46a1.07,1.07,0,0,0,.6-.16A.59.59,0,0,0,19.75,8a.64.64,0,0,0-.21-.51.94.94,0,0,0-.62-.19Z"/></g></g></svg>