<svg xmlns="http://www.w3.org/2000/svg" xmlns:xlink="http://www.w3.org/1999/xlink" viewBox="0 0 20.99 36.43"><defs><style>.cls-1{fill:url(#linear-gradient);}.cls-2{fill:url(#New_Gradient_Swatch_6);}.cls-3{fill:url(#New_Gradient_Swatch_4);}.cls-4{mask:url(#mask);}.cls-5{fill:url(#New_Gradient_Swatch_6-2);}.cls-6{fill:url(#New_Gradient_Swatch_4-2);}.cls-7{fill:#adadad;}.cls-8{fill:#333;}</style><linearGradient id="linear-gradient" x1="10.5" y1="58.1" x2="10.5" y2="29.2" gradientUnits="userSpaceOnUse"><stop offset="0.77"/><stop offset="0.84" stop-color="#030303"/><stop offset="0.91" stop-color="#0e0e0e"/><stop offset="0.97" stop-color="#202020"/><stop offset="1" stop-color="#2e2e2e"/></linearGradient><linearGradient id="New_Gradient_Swatch_6" x1="7.13" y1="30.16" x2="12.39" y2="0.35" gradientUnits="userSpaceOnUse"><stop offset="0"/><stop offset="1" stop-color="#4d4d4d"/></linearGradient><linearGradient id="New_Gradient_Swatch_4" x1="8.91" y1="30.16" x2="14.17" y2="0.35" gradientUnits="userSpaceOnUse"><stop offset="0" stop-color="#333"/><stop offset="1" stop-color="gray"/></linearGradient><mask id="mask" x="0" y="29.2" width="20.99" height="28.9" maskUnits="userSpaceOnUse"><rect class="cls-1" y="29.2" width="20.99" height="28.9"/></mask><linearGradient id="New_Gradient_Swatch_6-2" x1="8.7" y1="37.96" x2="10.51" y2="27.67" xlink:href="#New_Gradient_Swatch_6"/><linearGradient id="New_Gradient_Swatch_4-2" x1="10.48" y1="37.96" x2="12.3" y2="27.67" xlink:href="#New_Gradient_Swatch_4"/></defs><g id="Layer_2" data-name="Layer 2"><g id="Layer_1-2" data-name="Layer 1"><path class="cls-2" d="M0,3.34V28.9H19.21V3.34c-4.8,0-4.8-3.34-9.6-3.34S4.8,3.34,0,3.34Z"/><path class="cls-3" d="M1.78,3.34V28.9H21V3.34c-4.8,0-4.8-3.34-9.6-3.34S6.59,3.34,1.78,3.34Z"/><g class="cls-4"><rect class="cls-5" y="29.2" width="19.21" height="7.23"/><rect class="cls-6" x="1.78" y="29.2" width="19.21" height="7.23"/></g><path class="cls-7" d="M3.28,10.48H6a1.94,1.94,0,0,1,.7.12,1.62,1.62,0,0,1,.51.31,1.39,1.39,0,0,1,.33.46,1.41,1.41,0,0,1,.11.54,1.53,1.53,0,0,1-.06.45,1,1,0,0,1-.16.34,1.1,1.1,0,0,1-.26.27,1.71,1.71,0,0,1-.35.21.75.75,0,0,1,.3.26,1.19,1.19,0,0,1,.2.47l.17.66h.42v1H6.41l-.2-1.2A1.67,1.67,0,0,0,6.12,14,.76.76,0,0,0,6,13.72a.72.72,0,0,0-.26-.14,1.18,1.18,0,0,0-.35-.05H4.92v1.11h.46v.91H3.28v-.91h.53V11.4H3.28Zm1.64.92v1.23h.67a1.22,1.22,0,0,0,.34,0,.68.68,0,0,0,.26-.11.52.52,0,0,0,.17-.19.63.63,0,0,0-.16-.72,1,1,0,0,0-.61-.17Z"/><path class="cls-7" d="M8.55,15a.53.53,0,0,1,0-.25.57.57,0,0,1,.13-.21.77.77,0,0,1,.21-.14.75.75,0,0,1,.26-.05.7.7,0,0,1,.25.05.77.77,0,0,1,.21.14.74.74,0,0,1,.13.21.65.65,0,0,1,0,.5.52.52,0,0,1-.14.21.48.48,0,0,1-.2.14.53.53,0,0,1-.25.05.58.58,0,0,1-.26-.05.6.6,0,0,1-.21-.14.53.53,0,0,1-.13-.2A.58.58,0,0,1,8.55,15Z"/><path class="cls-7" d="M10.62,10.48h2.17v.92h-.53v3.24h.53v.91H10.62v-.91h.53V11.4h-.53Z"/><path class="cls-7" d="M13.57,15a.7.7,0,0,1,0-.25.6.6,0,0,1,.14-.21.77.77,0,0,1,.21-.14.71.71,0,0,1,.26-.05.69.69,0,0,1,.24.05.77.77,0,0,1,.21.14.6.6,0,0,1,.14.21.65.65,0,0,1,0,.5.64.64,0,0,1-.14.21.66.66,0,0,1-.2.14.56.56,0,0,1-.25.05.53.53,0,0,1-.26-.05.6.6,0,0,1-.21-.14.56.56,0,0,1-.14-.2A.75.75,0,0,1,13.57,15Z"/><path class="cls-7" d="M15.65,10.48H18a2.09,2.09,0,0,1,.72.12,2.24,2.24,0,0,1,.57.33,1.72,1.72,0,0,1,.37.48,1.25,1.25,0,0,1,.13.57,2.07,2.07,0,0,1-.1.66,1.36,1.36,0,0,1-.33.54,1.59,1.59,0,0,1-.56.36,2.13,2.13,0,0,1-.8.13h-.7v1h.46v.91h-2.1v-.91h.53V11.4h-.53Zm1.64.92v1.36h.45a1,1,0,0,0,.61-.16.56.56,0,0,0,.22-.51.63.63,0,0,0-.21-.5.87.87,0,0,0-.62-.19Z"/><path class="cls-8" d="M3.28,10.05H6a1.94,1.94,0,0,1,.7.12,1.62,1.62,0,0,1,.51.31,1.5,1.5,0,0,1,.33.46,1.41,1.41,0,0,1,.11.54,1.53,1.53,0,0,1-.06.45,1,1,0,0,1-.16.34,1,1,0,0,1-.26.27,1.71,1.71,0,0,1-.35.21.77.77,0,0,1,.3.27,1.15,1.15,0,0,1,.2.46l.17.66h.42v1H6.41l-.2-1.2a1.67,1.67,0,0,0-.09-.37A.63.63,0,0,0,6,13.3a.61.61,0,0,0-.26-.15,1.18,1.18,0,0,0-.35-.05H4.92v1.11h.46v.91H3.28v-.91h.53V11H3.28ZM4.92,11V12.2h.67a1.79,1.79,0,0,0,.34,0,.89.89,0,0,0,.26-.11.61.61,0,0,0,.17-.19.59.59,0,0,0,0-.27.55.55,0,0,0-.21-.46A1,1,0,0,0,5.59,11Z"/><path class="cls-8" d="M8.55,14.58a.53.53,0,0,1,0-.25.57.57,0,0,1,.13-.21A.77.77,0,0,1,8.94,14a.75.75,0,0,1,.26-.05.7.7,0,0,1,.25.05.77.77,0,0,1,.21.14.74.74,0,0,1,.13.21.56.56,0,0,1,.05.25.58.58,0,0,1-.05.26.7.7,0,0,1-.34.34.53.53,0,0,1-.25.05.58.58,0,0,1-.26-.05A.6.6,0,0,1,8.73,15a.46.46,0,0,1-.13-.2A.58.58,0,0,1,8.55,14.58Z"/><path class="cls-8" d="M10.62,10.05h2.17V11h-.53v3.24h.53v.91H10.62v-.91h.53V11h-.53Z"/><path class="cls-8" d="M13.57,14.58a.7.7,0,0,1,0-.25.6.6,0,0,1,.14-.21A.77.77,0,0,1,14,14a.71.71,0,0,1,.26-.05.69.69,0,0,1,.24.05.77.77,0,0,1,.21.14.6.6,0,0,1,.14.21.74.74,0,0,1,0,.25.75.75,0,0,1,0,.26.6.6,0,0,1-.14.2.66.66,0,0,1-.2.14.56.56,0,0,1-.25.05.53.53,0,0,1-.26-.05.6.6,0,0,1-.21-.14.48.48,0,0,1-.14-.2A.75.75,0,0,1,13.57,14.58Z"/><path class="cls-8" d="M15.65,10.05H18a1.88,1.88,0,0,1,.72.13,1.78,1.78,0,0,1,.57.33,1.54,1.54,0,0,1,.37.47,1.25,1.25,0,0,1,.13.57,2,2,0,0,1-.1.66,1.36,1.36,0,0,1-.33.54,1.59,1.59,0,0,1-.56.36,2.13,2.13,0,0,1-.8.13h-.7v1h.46v.91h-2.1v-.91h.53V11h-.53Zm1.64.92v1.37h.45a1,1,0,0,0,.61-.17.56.56,0,0,0,.22-.5.64.64,0,0,0-.21-.51.92.92,0,0,0-.62-.19Z"/></g></g></svg>