<svg xmlns="http://www.w3.org/2000/svg" xmlns:xlink="http://www.w3.org/1999/xlink" viewBox="0 0 69.12 12.15"><defs><style>.cls-1{isolation:isolate;}.cls-10,.cls-11,.cls-12,.cls-13,.cls-14,.cls-15,.cls-16,.cls-17,.cls-2,.cls-3,.cls-4,.cls-5,.cls-6,.cls-7,.cls-8,.cls-9{fill-rule:evenodd;}.cls-2{fill:url(#radial-gradient);}.cls-3{fill:url(#radial-gradient-2);}.cls-4{fill:url(#radial-gradient-3);}.cls-10,.cls-15,.cls-16,.cls-5,.cls-6,.cls-7,.cls-8,.cls-9{opacity:0.5;mix-blend-mode:screen;}.cls-5{fill:url(#radial-gradient-4);}.cls-6{fill:url(#radial-gradient-5);}.cls-7{fill:url(#radial-gradient-6);}.cls-8{fill:url(#radial-gradient-7);}.cls-9{fill:url(#radial-gradient-8);}.cls-10{fill:url(#radial-gradient-9);}.cls-11,.cls-12,.cls-13,.cls-17{mix-blend-mode:multiply;}.cls-11{fill:url(#radial-gradient-10);}.cls-12{fill:url(#radial-gradient-11);}.cls-13{fill:url(#radial-gradient-12);}.cls-14{fill:url(#radial-gradient-13);}.cls-15{fill:url(#radial-gradient-14);}.cls-16{fill:url(#radial-gradient-15);}.cls-17{fill:url(#radial-gradient-16);}</style><radialGradient id="radial-gradient" cx="9690.92" cy="-819.52" r="34.87" gradientTransform="translate(9014.71 -788.25) rotate(180) scale(0.93 1)" gradientUnits="userSpaceOnUse"><stop offset="0" stop-color="#828282"/><stop offset="1" stop-color="#474747"/></radialGradient><radialGradient id="radial-gradient-2" cx="9663.42" cy="-818.95" r="35.83" xlink:href="#radial-gradient"/><radialGradient id="radial-gradient-3" cx="9668.59" cy="-808.91" r="33.81" xlink:href="#radial-gradient"/><radialGradient id="radial-gradient-4" cx="9650.59" cy="-811.3" r="29.75" gradientTransform="translate(9014.71 -788.25) rotate(180) scale(0.93 1)" gradientUnits="userSpaceOnUse"><stop offset="0" stop-color="#707070"/><stop offset="1"/></radialGradient><radialGradient id="radial-gradient-5" cx="9667.87" cy="-808.36" r="30.01" xlink:href="#radial-gradient-4"/><radialGradient id="radial-gradient-6" cx="9693.51" cy="-807.67" r="26.9" xlink:href="#radial-gradient-4"/><radialGradient id="radial-gradient-7" cx="9656.69" cy="-797.97" r="5.55" xlink:href="#radial-gradient-4"/><radialGradient id="radial-gradient-8" cx="9669.97" cy="-798.58" r="3.87" xlink:href="#radial-gradient-4"/><radialGradient id="radial-gradient-9" cx="9688.03" cy="-798.43" r="8.55" xlink:href="#radial-gradient-4"/><radialGradient id="radial-gradient-10" cx="9704.44" cy="-772.02" r="41.67" gradientTransform="translate(9014.71 -788.25) rotate(180) scale(0.93 1)" gradientUnits="userSpaceOnUse"><stop offset="0" stop-color="#727272"/><stop offset="1" stop-color="#fff"/></radialGradient><radialGradient id="radial-gradient-11" cx="9662.51" cy="-774.57" r="27.27" xlink:href="#radial-gradient-10"/><radialGradient id="radial-gradient-12" cx="9654.33" cy="-775.37" r="35.25" xlink:href="#radial-gradient-10"/><radialGradient id="radial-gradient-13" cx="9700.39" cy="-813.65" r="37.73" xlink:href="#radial-gradient"/><radialGradient id="radial-gradient-14" cx="9717.12" cy="-808.64" r="30.45" xlink:href="#radial-gradient-4"/><radialGradient id="radial-gradient-15" cx="9710.42" cy="-799.17" r="6.92" xlink:href="#radial-gradient-4"/><radialGradient id="radial-gradient-16" cx="9733.03" cy="-769.93" r="47.9" xlink:href="#radial-gradient-10"/></defs><g class="cls-1"><g id="Layer_2" data-name="Layer 2"><g id="Layer_1-2" data-name="Layer 1"><path class="cls-2" d="M23.16,11c-1.3-.29-1.08-1.53-1.22-2.82-.24-2.58.21-4.47.36-7,.08-1.4,1.23-1.1,2.18-1.1,4.42,0,8.83,0,13.24,0,.68,0,5.54.28,5.87.44.8.39.66,1.7.7,2.58,0,1,.15,7.11-.19,7.67s-2.63.62-3.4.73a34.11,34.11,0,0,1-8.56.17c-3-.25-6,0-9-.66Z"/><path class="cls-3" d="M54.3,11c-.76.82-8.71,1.38-9.08,1S44.88,2.34,45,1.32c.07-.42.27-1,.7-1.1a21.86,21.86,0,0,1,4-.15c.76,0,4-.1,4.47.29s.43,1.4.43,2c0,2.32.11,5.16-.08,7.44A3.43,3.43,0,0,1,54.3,11Z"/><path class="cls-4" d="M55.48,3.77A24.83,24.83,0,0,1,56.05.38c.33-.44,2-.34,2.55-.33,2.27,0,4.58.07,6.85.25,3.12.2,3.09-.19,3.36,3.16.08,1.16.69,7.75-.06,8.36-.47.39-3.45.22-4.14.2A57.86,57.86,0,0,1,58,11.66a5.06,5.06,0,0,1-2.3-.53c-.64-.34-.54-1.89-.54-2.51a31.49,31.49,0,0,1,.28-4.85Z"/><path class="cls-5" d="M58.08,9.31c2.18.47,4.35.7,6.54,1,.68.08,1.35.18,2,.25a7.59,7.59,0,0,0,1.9,0,3.65,3.65,0,0,0,.23-1.2c0-.8,0-1.61,0-2.41-.06-1.25-.17-2.48-.27-3.72,0-.53-.08-1.11-.18-1.63A1.16,1.16,0,0,0,68,1a1.43,1.43,0,0,0-.76-.22C66.67.68,66,.67,65.43.63c-2.5-.16-5.74-.41-8.15.3-.62.18-.68,1.14-.87,1.84-.24.87-1.26,5.3-.48,5.87a5.57,5.57,0,0,0,2.15.67Z"/><path class="cls-6" d="M54.05,8.41a4.87,4.87,0,0,0,.15-1c0-.76.44-6-.32-6.23S46.33.36,45.72.62L45.59.7a2,2,0,0,0-.28,1.18c0,.38,0,.75,0,1.13,0,1,0,2.05,0,3.08s0,2.08.07,3.12a12.63,12.63,0,0,0,.13,1.53,9.92,9.92,0,0,0,1.43,0c1,0,1.93-.09,2.89-.17,1-.41,1.91-.84,2.85-1.32a9.19,9.19,0,0,0,1.41-.86Z"/><path class="cls-7" d="M23.23,9.73c2.94.59,6,.37,8.94.59,1.39.1,2.79.19,4.18.17a36.6,36.6,0,0,0,4.31-.32c.53-.06,1.09-.08,1.63-.13.27,0,1.37-.16,1.52-.38A19.27,19.27,0,0,0,44,6.29c0-1.13,0-2.3,0-3.43,0-.55.09-1.8-.5-2.06a1.54,1.54,0,0,0-.31-.05L42.48.69,40.61.56,38.8.47l-1.08,0a51.36,51.36,0,0,0-7.33.37,58.23,58.23,0,0,1-6.74.45c-1.31,0-1,.79-1.19,2.21a14.87,14.87,0,0,0-.18,4,5.16,5.16,0,0,0,.3,1.9,1,1,0,0,0,.65.38Z"/><path class="cls-8" d="M68,11.48c-2.74-.37-5.45-1-8.2-1.36-.87-.11-1.76.12-2.63,0A2.55,2.55,0,0,1,56,9.69,1.36,1.36,0,0,1,55.51,9a11.93,11.93,0,0,1-.31-1.58c0,.41,0,.82,0,1.25,0,.62-.1,2.17.54,2.51a5.06,5.06,0,0,0,2.3.53,57.86,57.86,0,0,0,6.57.36c.69,0,3.67.19,4.14-.2a1.84,1.84,0,0,0,.31-1.09,1.93,1.93,0,0,1-.41.55.85.85,0,0,1-.62.2Z"/><path class="cls-9" d="M54.3,11a3.43,3.43,0,0,0,.23-1.21c0-.41.06-.85.08-1.3a3.24,3.24,0,0,1-.69,1.17,5.46,5.46,0,0,1-2.05,1,45.53,45.53,0,0,1-4.61,1,8,8,0,0,1-1.61.19.44.44,0,0,1-.36-.24,7.19,7.19,0,0,1-.26-1,5.22,5.22,0,0,0,.19,1.52c.37.34,8.32-.22,9.08-1Z"/><path class="cls-10" d="M37.77,11c-1.8,0-3.61-.21-5.42-.19-.56,0-1.11.25-1.68.26A23.56,23.56,0,0,1,27,11a25.14,25.14,0,0,1-3.83-.83,1.65,1.65,0,0,1-.73-.5A2,2,0,0,1,22.09,9L22,8.51c.08,1.17,0,2.22,1.19,2.49,3,.66,5.95.41,9,.66a34.11,34.11,0,0,0,8.56-.17c.77-.11,3-.11,3.4-.73a.91.91,0,0,0,.07-.23,1.2,1.2,0,0,1-.55.3c-1.94.18-3.9.19-5.85.19Z"/><path class="cls-11" d="M25.36,3.47c2,0,7.42-.82,9.21-1.8.48-.27,6.87-.12,7.74-.12s1.31.18,1.64.88c0-.6,0-1.42-.49-1.63a1.54,1.54,0,0,0-.31-.05L42.48.69,40.61.56,38.8.47l-1.08,0a51.36,51.36,0,0,0-7.33.37,58.23,58.23,0,0,1-6.74.45c-1.28,0-1,.76-1.17,2.13a16.65,16.65,0,0,0,2.88.1Z"/><path class="cls-12" d="M45.59.7a2,2,0,0,0-.28,1.18l0,1.1a9.77,9.77,0,0,0,4-1A13.83,13.83,0,0,1,54,2.33c.14.09.15.28.37.92,0-1.07-.16-1.94-.46-2C53,.93,46.33.36,45.72.62L45.59.7Z"/><path class="cls-13" d="M57.28.93c-.62.18-.68,1.13-.87,1.83,1.19-.95,1.73-1.13,2.41-1.1,1.94.1,4.45.27,6.3.5A5.86,5.86,0,0,1,68.6,4.65l-.12-1.44c0-.53-.08-1.11-.18-1.63A1.16,1.16,0,0,0,68,1a1.43,1.43,0,0,0-.76-.22C66.67.68,66,.67,65.43.63c-2.5-.16-5.74-.41-8.15.3Z"/><path class="cls-14" d="M.94,11A1.08,1.08,0,0,1,0,10,27.3,27.3,0,0,1,.4,4,20.79,20.79,0,0,0,.71,1.22C.79-.26,1.71.08,2.92.07,8.42,0,14.07-.06,19.56.09a4.23,4.23,0,0,1,.72,0c.72.37,1.21,3.23,1.25,4.06a39,39,0,0,1-.2,5.92c-.14,1.13-.5,1-1.35,1.4a2.12,2.12,0,0,1-1.47.33A158.12,158.12,0,0,1,.94,11Z"/><path class="cls-15" d="M.37,7.31c0,.89,0,1.79,0,2.67a.64.64,0,0,0,.65.63c1.78.11,3.57.16,5.36.17,2,0,4,0,6-.06s4.12-.13,6.19-.23a2,2,0,0,0,1.31-.28l.63-.25a1.57,1.57,0,0,0,.32-.15A1,1,0,0,0,21,9.19c.38-3,.35-5.48-1-8.24-.26-.54-.42-.42-1-.46-4.63-.2-8.95.83-13.65.47-.65,0-3.7-.43-4,.14-.16.35-1,5.35-1.06,6.21Z"/><path class="cls-16" d="M18.25,11c-1.17.07-2.34.07-3.51.1l-4.56.07H9.92c-1.32,0-2.64,0-4,0-.89,0-1.78.09-2.67.14,2.05.19,4.31.32,6.63.4,2.88.11,5.84.16,8.59.16A2.12,2.12,0,0,0,20,11.51c.85-.45,1.21-.27,1.35-1.4l0-.11-.12.19a1.39,1.39,0,0,1-.75.52,11.19,11.19,0,0,1-2.23.24Z"/><path class="cls-17" d="M1.43,1.1A19.84,19.84,0,0,0,1,3.2C2.75,3.61,5.72,2,6.35,1.93c.45,0,1.92.05,3.57.16a47.69,47.69,0,0,1,5.91.65,13.41,13.41,0,0,0,5.3,2.05A11.4,11.4,0,0,0,20,1c-.26-.54-.42-.42-1-.46A83.5,83.5,0,0,0,9.92,1,32.61,32.61,0,0,1,5.39,1c-.65,0-3.7-.43-4,.14Z"/></g></g></g></svg>