<svg xmlns="http://www.w3.org/2000/svg" xmlns:xlink="http://www.w3.org/1999/xlink" viewBox="0 0 26.52 13.16"><defs><style>.cls-1{isolation:isolate;}.cls-2,.cls-3,.cls-4,.cls-5{fill-rule:evenodd;}.cls-2{fill:url(#radial-gradient);}.cls-3,.cls-4{opacity:0.5;mix-blend-mode:screen;}.cls-3{fill:url(#radial-gradient-2);}.cls-4{fill:url(#radial-gradient-3);}.cls-5{mix-blend-mode:multiply;fill:url(#radial-gradient-4);}</style><radialGradient id="radial-gradient" cx="7395.24" cy="21.46" r="44.86" gradientTransform="matrix(-1.03, 0, 0, 1.11, 7602.9, -55.69)" gradientUnits="userSpaceOnUse"><stop offset="0" stop-color="#828282"/><stop offset="1" stop-color="#474747"/></radialGradient><radialGradient id="radial-gradient-2" cx="7403.74" cy="41.13" r="34.87" gradientTransform="matrix(-1.03, 0, 0, 1.11, 7602.9, -55.69)" gradientUnits="userSpaceOnUse"><stop offset="0" stop-color="#707070"/><stop offset="1"/></radialGradient><radialGradient id="radial-gradient-3" cx="7397.8" cy="51.21" r="7.55" xlink:href="#radial-gradient-2"/><radialGradient id="radial-gradient-4" cx="7382.94" cy="78.11" r="40.33" gradientTransform="matrix(-1.03, 0, 0, 1.11, 7602.9, -55.69)" gradientUnits="userSpaceOnUse"><stop offset="0" stop-color="#727272"/><stop offset="1" stop-color="#fff"/></radialGradient></defs><g class="cls-1"><g id="Layer_2" data-name="Layer 2"><g id="Layer_1-2" data-name="Layer 1"><path class="cls-2" d="M26.51,5.94c-.08-1-.44-4.25-1-4.91-.85-.92-4-.95-5.24-1-2.24,0-4.45,0-6.7,0C10.94,0,8.28.17,5.66.19A18.76,18.76,0,0,0,2.23.37a3.5,3.5,0,0,0-1,.85A2.19,2.19,0,0,0,.68,2.66c-.06.39-.1.79-.16,1.19C.36,4.76.26,5.67.11,6.58a13.22,13.22,0,0,0,.51,5.66c.3.9.83.94,1.64.92h.09l.44,0c6.83,0,13.66,0,20.48,0,.55,0,1.13,0,1.69-.05,1-.07,1.14-.63,1.32-1.6a26.32,26.32,0,0,0,.24-4c0-.52,0-1,0-1.57Z"/><path class="cls-3" d="M26.15,6.55a12.08,12.08,0,0,1-1.06,5.35c-.32.6-1.26.56-1.89.65-5.71.68-9.66-1.37-15.63-.48-1.11.16-5.29,1.1-5.9.42S.32,8.1.37,7.05l.1-1c.15-.82.25-1.66.4-2.48C.94,3.2,1,2.84,1,2.47s.07-.78.41-1.08A3,3,0,0,1,2.36.74,8.88,8.88,0,0,1,4,.7L5.66.79c2.85.12,17.85.3,19.55,1.5.5.5.87,3.47.94,4.26Z"/><path class="cls-4" d="M20.23.05c1.22,0,4.39.06,5.24,1A3.53,3.53,0,0,1,26,2.33a2.86,2.86,0,0,0-.55-.73,2,2,0,0,0-1.08-.49c-1.25-.13-2.51,0-3.76,0C17.64,1,14.7.69,11.75.53,10,.44,8.15.44,6.35.35,5.63.31,4.9.26,4.18.2H5.66C8.28.17,10.94,0,13.53,0c2.25,0,4.46,0,6.7,0Z"/><path class="cls-5" d="M1.22,11.21A33.15,33.15,0,0,0,6.7,10a5.32,5.32,0,0,1,1.83-.73c5.91-.45,10.7,1.68,15.61,1.8.43,0,.78-.16,1.41-.68a7.38,7.38,0,0,1-.46,1.11c-.32.61-1.26.57-1.89.66-5.71.68-9.66-1.37-15.63-.48-1.11.16-5.29,1.1-5.9.42a2.82,2.82,0,0,1-.45-.86Z"/></g></g></g></svg>