<svg xmlns="http://www.w3.org/2000/svg" xmlns:xlink="http://www.w3.org/1999/xlink" viewBox="0 0 79.84 98.18"><defs><style>.cls-1{isolation:isolate;}.cls-10,.cls-11,.cls-12,.cls-13,.cls-14,.cls-15,.cls-16,.cls-17,.cls-18,.cls-19,.cls-2,.cls-20,.cls-21,.cls-22,.cls-3,.cls-4,.cls-5,.cls-6,.cls-7,.cls-8,.cls-9{fill-rule:evenodd;}.cls-2{fill:url(#radial-gradient);}.cls-3{fill:url(#radial-gradient-2);}.cls-4{fill:url(#radial-gradient-3);}.cls-10,.cls-15,.cls-16,.cls-19,.cls-20,.cls-5,.cls-6,.cls-7,.cls-8,.cls-9{opacity:0.5;mix-blend-mode:screen;}.cls-5{fill:url(#radial-gradient-4);}.cls-6{fill:url(#radial-gradient-5);}.cls-7{fill:url(#radial-gradient-6);}.cls-8{fill:url(#radial-gradient-7);}.cls-9{fill:url(#radial-gradient-8);}.cls-10{fill:url(#radial-gradient-9);}.cls-11,.cls-12,.cls-13,.cls-17,.cls-21{mix-blend-mode:multiply;}.cls-11{fill:url(#radial-gradient-10);}.cls-12{fill:url(#radial-gradient-11);}.cls-13{fill:url(#radial-gradient-12);}.cls-14{fill:url(#radial-gradient-13);}.cls-15{fill:url(#radial-gradient-14);}.cls-16{fill:url(#radial-gradient-15);}.cls-17{fill:url(#radial-gradient-16);}.cls-18{fill:url(#radial-gradient-17);}.cls-19{fill:url(#radial-gradient-18);}.cls-20{fill:url(#radial-gradient-19);}.cls-21{fill:url(#radial-gradient-20);}.cls-22{fill:none;}</style><radialGradient id="radial-gradient" cx="5755.84" cy="4127.23" r="34.87" gradientTransform="translate(4158.5 -5690.45) rotate(90)" gradientUnits="userSpaceOnUse"><stop offset="0" stop-color="#828282"/><stop offset="1" stop-color="#474747"/></radialGradient><radialGradient id="radial-gradient-2" cx="5728.35" cy="4127.8" r="35.83" xlink:href="#radial-gradient"/><radialGradient id="radial-gradient-3" cx="5733.52" cy="4137.83" r="33.81" xlink:href="#radial-gradient"/><radialGradient id="radial-gradient-4" cx="5715.51" cy="4135.44" r="29.75" gradientTransform="translate(4158.5 -5690.45) rotate(90)" gradientUnits="userSpaceOnUse"><stop offset="0" stop-color="#707070"/><stop offset="1"/></radialGradient><radialGradient id="radial-gradient-5" cx="5732.8" cy="4138.38" r="30.01" xlink:href="#radial-gradient-4"/><radialGradient id="radial-gradient-6" cx="5758.43" cy="4139.08" r="26.9" xlink:href="#radial-gradient-4"/><radialGradient id="radial-gradient-7" cx="5721.62" cy="4148.78" r="5.55" xlink:href="#radial-gradient-4"/><radialGradient id="radial-gradient-8" cx="5734.89" cy="4148.17" r="3.87" xlink:href="#radial-gradient-4"/><radialGradient id="radial-gradient-9" cx="5752.96" cy="4148.32" r="8.55" xlink:href="#radial-gradient-4"/><radialGradient id="radial-gradient-10" cx="5769.36" cy="4174.73" r="41.67" gradientTransform="translate(4158.5 -5690.45) rotate(90)" gradientUnits="userSpaceOnUse"><stop offset="0" stop-color="#727272"/><stop offset="1" stop-color="#fff"/></radialGradient><radialGradient id="radial-gradient-11" cx="5727.43" cy="4172.18" r="27.27" xlink:href="#radial-gradient-10"/><radialGradient id="radial-gradient-12" cx="5719.26" cy="4171.37" r="35.25" xlink:href="#radial-gradient-10"/><radialGradient id="radial-gradient-13" cx="5690.39" cy="4133.09" r="37.73" xlink:href="#radial-gradient"/><radialGradient id="radial-gradient-14" cx="5707.12" cy="4138.1" r="30.45" xlink:href="#radial-gradient-4"/><radialGradient id="radial-gradient-15" cx="5700.42" cy="4147.58" r="6.92" xlink:href="#radial-gradient-4"/><radialGradient id="radial-gradient-16" cx="5723.04" cy="4176.82" r="47.9" xlink:href="#radial-gradient-10"/><radialGradient id="radial-gradient-17" cx="5765.31" cy="4133.09" r="37.73" xlink:href="#radial-gradient"/><radialGradient id="radial-gradient-18" cx="5782.04" cy="4138.1" r="30.45" xlink:href="#radial-gradient-4"/><radialGradient id="radial-gradient-19" cx="5775.34" cy="4147.58" r="6.92" xlink:href="#radial-gradient-4"/><radialGradient id="radial-gradient-20" cx="5797.96" cy="4176.82" r="47.9" xlink:href="#radial-gradient-10"/></defs><g class="cls-1"><g id="Layer_2" data-name="Layer 2"><g id="Layer_1-2" data-name="Layer 1"><path class="cls-2" d="M11,73.19c-.29,1.41-1.53,1.18-2.82,1.32-2.58.26-4.47-.23-7-.38C-.23,74,.07,72.79.07,71.77c0-4.76,0-9.52,0-14.28,0-.73.28-6,.44-6.33.39-.86,1.7-.71,2.58-.76,1,0,7.11-.16,7.67.21s.62,2.84.73,3.67a39.64,39.64,0,0,1,.17,9.23c-.25,3.26,0,6.45-.66,9.68Z"/><path class="cls-3" d="M11,39.61c.82.82,1.38,9.39,1,9.8s-9.71.36-10.73.2c-.42-.06-1-.29-1.1-.75a25.36,25.36,0,0,1-.15-4.3c0-.83-.1-4.3.29-4.83s1.4-.46,2-.46c2.32,0,5.16-.11,7.44.09a3,3,0,0,1,1.21.25Z"/><path class="cls-4" d="M3.77,38.33a23,23,0,0,1-3.39-.61C-.06,37.37,0,35.54.05,35,0,32.52.12,30,.3,27.58.5,24.21.11,24.24,3.46,24c1.16-.09,7.75-.75,8.36.06.39.5.22,3.73.2,4.46a67.33,67.33,0,0,1-.36,7.09,5.87,5.87,0,0,1-.53,2.49c-.34.69-1.89.58-2.51.58a29.2,29.2,0,0,1-4.85-.31Z"/><path class="cls-5" d="M9.31,35.53c.47-2.35.7-4.69,1-7.06.08-.73.18-1.45.25-2.18a8.82,8.82,0,0,0,0-2.05A3.66,3.66,0,0,0,9.34,24c-.8,0-1.61,0-2.41,0-1.25.06-2.48.18-3.72.3a12.71,12.71,0,0,0-1.63.19A1.12,1.12,0,0,0,1,24.8a1.62,1.62,0,0,0-.22.82c-.06.65-.07,1.33-.11,2-.16,2.69-.41,6.19.3,8.79.18.68,1.14.73,1.84.94.87.26,5.3,1.36,5.87.52a6.4,6.4,0,0,0,.67-2.32Z"/><path class="cls-6" d="M8.41,39.88a4.3,4.3,0,0,0-1-.17c-.76-.05-6-.47-6.23.35S.36,48.2.62,48.86L.7,49a1.86,1.86,0,0,0,1.18.29l1.13,0c1,0,2.05,0,3.08,0s2.08,0,3.12-.08a11,11,0,0,0,1.53-.14,11.49,11.49,0,0,0,0-1.54c0-1-.09-2.08-.17-3.12-.41-1-.84-2.06-1.32-3.07a9.65,9.65,0,0,0-.86-1.52Z"/><path class="cls-7" d="M9.73,73.12c.59-3.17.37-6.42.59-9.64.1-1.5.19-3,.17-4.52a42.55,42.55,0,0,0-.32-4.64c-.06-.57-.08-1.17-.13-1.76,0-.29-.16-1.48-.38-1.64a18.32,18.32,0,0,0-3.37-.21c-1.13,0-2.3,0-3.43,0-.55,0-1.8-.1-2.06.53a2,2,0,0,0-.05.34l-.06.73c0,.67-.09,1.34-.13,2s-.07,1.3-.09,1.95c0,.38,0,.78,0,1.16A59.85,59.85,0,0,0,.79,65.4a67.72,67.72,0,0,1,.45,7.27c0,1.41.79,1,2.21,1.28a14.1,14.1,0,0,0,4,.2,4.78,4.78,0,0,0,1.9-.33,1.06,1.06,0,0,0,.38-.7Z"/><path class="cls-8" d="M11.48,24.8c-.37,3-1,5.88-1.36,8.84-.11.94.12,1.9,0,2.83a2.9,2.9,0,0,1-.45,1.27,1.45,1.45,0,0,1-.74.57,9.41,9.41,0,0,1-1.58.32H8.62c.62,0,2.17.11,2.51-.58a5.87,5.87,0,0,0,.53-2.49A67.33,67.33,0,0,0,12,28.48c0-.73.19-4-.2-4.46a1.8,1.8,0,0,0-1.09-.34,1.87,1.87,0,0,1,.55.45,1,1,0,0,1,.2.67Z"/><path class="cls-9" d="M11,39.61a3,3,0,0,0-1.21-.25c-.41,0-.85-.07-1.3-.09A3.23,3.23,0,0,1,9.67,40a6,6,0,0,1,1,2.21c.45,1.63.69,3.31,1,5a9.36,9.36,0,0,1,.19,1.74.46.46,0,0,1-.24.38,6.16,6.16,0,0,1-1,.29,5.44,5.44,0,0,0,1.52-.2c.34-.41-.22-9-1-9.8Z"/><path class="cls-10" d="M11,57.43c0,2-.21,3.9-.19,5.85,0,.61.25,1.2.26,1.81A27.4,27.4,0,0,1,11,69a29.18,29.18,0,0,1-.83,4.14,1.75,1.75,0,0,1-.5.78,1.92,1.92,0,0,1-.72.38,3.22,3.22,0,0,1-.44.14c1.17-.09,2.22,0,2.49-1.29.66-3.23.41-6.42.66-9.68a39.64,39.64,0,0,0-.17-9.23c-.11-.83-.11-3.26-.73-3.67a.83.83,0,0,0-.23-.08,1.36,1.36,0,0,1,.3.6c.18,2.09.19,4.2.19,6.3Z"/><path class="cls-11" d="M3.47,70.82c0-2.2-.82-8-1.8-9.93-.27-.52-.12-7.41-.12-8.35,0-1.1.18-1.41.88-1.77-.6,0-1.42,0-1.63.52a2,2,0,0,0-.05.34l-.06.73c0,.67-.09,1.34-.13,2s-.07,1.3-.09,1.95c0,.38,0,.78,0,1.16A59.85,59.85,0,0,0,.79,65.4a67.72,67.72,0,0,1,.45,7.27c0,1.38.76,1.06,2.13,1.26a19.41,19.41,0,0,0,.1-3.11Z"/><path class="cls-12" d="M.7,49a1.86,1.86,0,0,0,1.18.29l1.1,0a11.27,11.27,0,0,0-1-4.29A16,16,0,0,1,2.33,40c.09-.16.28-.16.92-.4-1.07,0-1.94.17-2,.49-.28,1-.85,8.14-.59,8.8L.7,49Z"/><path class="cls-13" d="M.93,36.39c.18.67,1.13.73,1.83.94-.95-1.28-1.13-1.87-1.1-2.6.1-2.09.27-4.79.5-6.79a6.35,6.35,0,0,1,2.49-3.76l-1.44.14a12.71,12.71,0,0,0-1.63.19A1.12,1.12,0,0,0,1,24.8a1.62,1.62,0,0,0-.22.82c-.06.65-.07,1.33-.11,2-.16,2.69-.41,6.19.3,8.79Z"/><path class="cls-14" d="M11,22.25a1.1,1.1,0,0,1-1.08,1A25,25,0,0,1,4,22.83a19.35,19.35,0,0,0-2.82-.33C-.26,22.4.08,21.41.07,20.11,0,14.18-.06,8.08.09,2.16a5,5,0,0,1,0-.78C.5.6,3.36.09,4.19,0a35.49,35.49,0,0,1,5.92.21c1.13.15,1,.54,1.4,1.46a2.41,2.41,0,0,1,.33,1.58,184.06,184.06,0,0,1-.81,19Z"/><path class="cls-15" d="M7.31,22.86c.89.06,1.79,0,2.67,0a.67.67,0,0,0,.63-.7c.11-1.91.16-3.85.17-5.78,0-2.15,0-4.3-.06-6.46s-.13-4.45-.23-6.67a2.26,2.26,0,0,0-.28-1.42c-.09-.23-.17-.45-.25-.68A1.75,1.75,0,0,0,9.81.85,1,1,0,0,0,9.19.6C6.14.2,3.71.23,1,1.66c-.54.28-.42.45-.46,1.07-.2,5,.83,9.65.47,14.72,0,.7-.43,4,.14,4.27.35.18,5.35,1.07,6.21,1.14Z"/><path class="cls-16" d="M11,3.58c.07,1.26.07,2.52.1,3.78,0,1.64,0,3.28.07,4.92v.29c0,1.42,0,2.84,0,4.26,0,1,.09,1.92.14,2.88.19-2.21.32-4.65.4-7.14.11-3.11.16-6.31.16-9.28a2.41,2.41,0,0,0-.33-1.58C11.06.79,11.24.4,10.11.25H10l.19.13a1.44,1.44,0,0,1,.52.8A13,13,0,0,1,11,3.58Z"/><path class="cls-17" d="M1.1,21.72a19.13,19.13,0,0,0,2.1.46C3.61,20.3,2,17.09,1.93,16.41c0-.49.05-2.07.16-3.84a55,55,0,0,1,.65-6.38A15.22,15.22,0,0,0,4.79.46,11,11,0,0,0,1,1.66c-.54.28-.42.45-.46,1.07A97.21,97.21,0,0,0,1,12.57a37.84,37.84,0,0,1,0,4.88c0,.7-.43,4,.14,4.27Z"/><path class="cls-18" d="M11,97.16a1.11,1.11,0,0,1-1.08,1A25.56,25.56,0,0,1,4,97.75a18.06,18.06,0,0,0-2.82-.33C-.26,97.32.08,96.33.07,95c-.06-5.93-.13-12,0-18a5,5,0,0,1,0-.78C.5,75.52,3.36,75,4.19,75a34.45,34.45,0,0,1,5.92.21c1.13.15,1,.54,1.4,1.46a2.41,2.41,0,0,1,.33,1.58,183.73,183.73,0,0,1-.81,19Z"/><path class="cls-19" d="M7.31,97.78c.89,0,1.79,0,2.67,0a.68.68,0,0,0,.63-.7c.11-1.92.16-3.85.17-5.78,0-2.15,0-4.31-.06-6.46s-.13-4.45-.23-6.67a2.27,2.27,0,0,0-.28-1.43c-.09-.22-.17-.44-.25-.67a1.84,1.84,0,0,0-.15-.35,1,1,0,0,0-.62-.24c-3-.4-5.48-.37-8.24,1.06-.54.27-.42.45-.46,1.06-.2,5,.83,9.66.47,14.73,0,.7-.43,4,.14,4.27.35.17,5.35,1.07,6.21,1.14Z"/><path class="cls-20" d="M11,78.49c.07,1.26.07,2.53.1,3.79,0,1.64,0,3.28.07,4.92v.28c0,1.42,0,2.84,0,4.26,0,1,.09,1.93.14,2.89.19-2.21.32-4.65.4-7.15.11-3.11.16-6.31.16-9.27a2.41,2.41,0,0,0-.33-1.58c-.45-.92-.27-1.31-1.4-1.46l-.11,0,.19.13a1.5,1.5,0,0,1,.52.81,12.85,12.85,0,0,1,.24,2.4Z"/><path class="cls-21" d="M1.1,96.64c.14.07,1,.25,2.1.46C3.61,95.21,2,92,1.93,91.33c0-.49.05-2.07.16-3.85a55,55,0,0,1,.65-6.37,15.22,15.22,0,0,0,2.05-5.73A10.8,10.8,0,0,0,1,76.58c-.54.27-.42.45-.46,1.06A97.08,97.08,0,0,0,1,87.48a38,38,0,0,1,0,4.89c0,.7-.43,4,.14,4.27Z"/><polygon class="cls-22" points="79.84 6.74 79.84 81.66 4.93 81.66 4.93 6.74 79.84 6.74 79.84 6.74"/></g></g></g></svg>