<svg xmlns="http://www.w3.org/2000/svg" xmlns:xlink="http://www.w3.org/1999/xlink" viewBox="0 0 98.18 79.84"><defs><style>.cls-1{isolation:isolate;}.cls-10,.cls-11,.cls-12,.cls-13,.cls-14,.cls-15,.cls-16,.cls-17,.cls-18,.cls-19,.cls-2,.cls-20,.cls-21,.cls-22,.cls-3,.cls-4,.cls-5,.cls-6,.cls-7,.cls-8,.cls-9{fill-rule:evenodd;}.cls-2{fill:url(#radial-gradient);}.cls-3{fill:url(#radial-gradient-2);}.cls-4{fill:url(#radial-gradient-3);}.cls-10,.cls-15,.cls-16,.cls-19,.cls-20,.cls-5,.cls-6,.cls-7,.cls-8,.cls-9{opacity:0.5;mix-blend-mode:screen;}.cls-5{fill:url(#radial-gradient-4);}.cls-6{fill:url(#radial-gradient-5);}.cls-7{fill:url(#radial-gradient-6);}.cls-8{fill:url(#radial-gradient-7);}.cls-9{fill:url(#radial-gradient-8);}.cls-10{fill:url(#radial-gradient-9);}.cls-11,.cls-12,.cls-13,.cls-17,.cls-21{mix-blend-mode:multiply;}.cls-11{fill:url(#radial-gradient-10);}.cls-12{fill:url(#radial-gradient-11);}.cls-13{fill:url(#radial-gradient-12);}.cls-14{fill:url(#radial-gradient-13);}.cls-15{fill:url(#radial-gradient-14);}.cls-16{fill:url(#radial-gradient-15);}.cls-17{fill:url(#radial-gradient-16);}.cls-18{fill:url(#radial-gradient-17);}.cls-19{fill:url(#radial-gradient-18);}.cls-20{fill:url(#radial-gradient-19);}.cls-21{fill:url(#radial-gradient-20);}.cls-22{fill:none;}</style><radialGradient id="radial-gradient" cx="9701.16" cy="-1515.72" r="34.87" gradientTransform="translate(9733.95 -1484.45) rotate(180)" gradientUnits="userSpaceOnUse"><stop offset="0" stop-color="#828282"/><stop offset="1" stop-color="#474747"/></radialGradient><radialGradient id="radial-gradient-2" cx="9673.67" cy="-1515.15" r="35.83" xlink:href="#radial-gradient"/><radialGradient id="radial-gradient-3" cx="9678.84" cy="-1505.11" r="33.81" xlink:href="#radial-gradient"/><radialGradient id="radial-gradient-4" cx="9660.83" cy="-1507.51" r="29.75" gradientTransform="translate(9733.95 -1484.45) rotate(180)" gradientUnits="userSpaceOnUse"><stop offset="0" stop-color="#707070"/><stop offset="1"/></radialGradient><radialGradient id="radial-gradient-5" cx="9678.12" cy="-1504.56" r="30.01" xlink:href="#radial-gradient-4"/><radialGradient id="radial-gradient-6" cx="9703.75" cy="-1503.87" r="26.9" xlink:href="#radial-gradient-4"/><radialGradient id="radial-gradient-7" cx="9666.94" cy="-1494.17" r="5.55" xlink:href="#radial-gradient-4"/><radialGradient id="radial-gradient-8" cx="9680.21" cy="-1494.78" r="3.87" xlink:href="#radial-gradient-4"/><radialGradient id="radial-gradient-9" cx="9698.28" cy="-1494.63" r="8.55" xlink:href="#radial-gradient-4"/><radialGradient id="radial-gradient-10" cx="9714.68" cy="-1468.22" r="41.67" gradientTransform="translate(9733.95 -1484.45) rotate(180)" gradientUnits="userSpaceOnUse"><stop offset="0" stop-color="#727272"/><stop offset="1" stop-color="#fff"/></radialGradient><radialGradient id="radial-gradient-11" cx="9672.76" cy="-1470.77" r="27.27" xlink:href="#radial-gradient-10"/><radialGradient id="radial-gradient-12" cx="9664.58" cy="-1471.58" r="35.25" xlink:href="#radial-gradient-10"/><radialGradient id="radial-gradient-13" cx="9635.71" cy="-1509.85" r="37.73" xlink:href="#radial-gradient"/><radialGradient id="radial-gradient-14" cx="9652.45" cy="-1504.85" r="30.45" xlink:href="#radial-gradient-4"/><radialGradient id="radial-gradient-15" cx="9645.75" cy="-1495.37" r="6.92" xlink:href="#radial-gradient-4"/><radialGradient id="radial-gradient-16" cx="9668.36" cy="-1466.13" r="47.9" xlink:href="#radial-gradient-10"/><radialGradient id="radial-gradient-17" cx="9710.63" cy="-1509.85" r="37.73" xlink:href="#radial-gradient"/><radialGradient id="radial-gradient-18" cx="9727.36" cy="-1504.85" r="30.45" xlink:href="#radial-gradient-4"/><radialGradient id="radial-gradient-19" cx="9720.66" cy="-1495.37" r="6.92" xlink:href="#radial-gradient-4"/><radialGradient id="radial-gradient-20" cx="9743.28" cy="-1466.13" r="47.9" xlink:href="#radial-gradient-10"/></defs><g class="cls-1"><g id="Layer_2" data-name="Layer 2"><g id="Layer_1-2" data-name="Layer 1"><path class="cls-2" d="M25,11c-1.4-.29-1.17-1.53-1.31-2.82-.26-2.58.22-4.47.38-7,.09-1.4,1.33-1.1,2.36-1.1,4.76,0,9.52,0,14.28,0,.73,0,6,.28,6.32.44.87.39.72,1.7.77,2.58,0,1,.16,7.11-.21,7.67s-2.84.62-3.67.73a39.64,39.64,0,0,1-9.23.17c-3.27-.25-6.45,0-9.69-.66Z"/><path class="cls-3" d="M58.57,11c-.82.82-9.39,1.38-9.8,1s-.36-9.71-.2-10.73c.06-.42.28-1,.74-1.1A25.52,25.52,0,0,1,53.62.07c.82,0,4.3-.1,4.83.29s.45,1.4.45,2c0,2.32.12,5.16-.08,7.44A3,3,0,0,1,58.57,11Z"/><path class="cls-4" d="M59.84,3.77A23,23,0,0,1,60.46.38c.35-.44,2.18-.34,2.75-.33,2.45,0,4.94.07,7.39.25C74,.5,73.93.11,74.22,3.46c.09,1.16.74,7.75-.06,8.36-.5.39-3.73.22-4.46.2a67.38,67.38,0,0,1-7.1-.36,5.86,5.86,0,0,1-2.48-.53c-.69-.34-.58-1.89-.58-2.51a30.31,30.31,0,0,1,.3-4.85Z"/><path class="cls-5" d="M62.65,9.31c2.35.47,4.69.7,7.05,1,.73.08,1.46.18,2.19.25a8.74,8.74,0,0,0,2,0,3.21,3.21,0,0,0,.24-1.2,21.53,21.53,0,0,0,0-2.41c-.06-1.25-.18-2.48-.3-3.72a14.79,14.79,0,0,0-.19-1.63A1.19,1.19,0,0,0,73.38,1a1.65,1.65,0,0,0-.82-.22c-.65-.06-1.33-.07-2-.11-2.69-.16-6.18-.41-8.79.3-.67.18-.72,1.14-.93,1.84-.26.87-1.36,5.3-.52,5.87a6.29,6.29,0,0,0,2.32.67Z"/><path class="cls-6" d="M58.3,8.41a4.27,4.27,0,0,0,.16-1c.06-.76.48-6-.34-6.23S50,.36,49.32.62L49.17.7a1.93,1.93,0,0,0-.3,1.18l0,1.13c0,1,0,2.05,0,3.08s0,2.08.08,3.12a11,11,0,0,0,.14,1.53,11.36,11.36,0,0,0,1.53,0c1,0,2.09-.09,3.13-.17,1-.41,2.06-.84,3.06-1.32a9.3,9.3,0,0,0,1.53-.86Z"/><path class="cls-7" d="M25.06,9.73c3.17.59,6.42.37,9.64.59,1.5.1,3,.19,4.51.17a42.21,42.21,0,0,0,4.64-.32c.58-.06,1.18-.08,1.76-.13.29,0,1.49-.16,1.65-.38a18.32,18.32,0,0,0,.21-3.37c0-1.13,0-2.3,0-3.43,0-.55.1-1.8-.54-2.06a1.86,1.86,0,0,0-.34-.05L45.82.69l-2-.13c-.65,0-1.3-.07-1.95-.09l-1.16,0a59.77,59.77,0,0,0-7.91.37,67.88,67.88,0,0,1-7.27.45c-1.41,0-1,.79-1.28,2.21a13.75,13.75,0,0,0-.2,4,4.61,4.61,0,0,0,.33,1.9,1.06,1.06,0,0,0,.7.38Z"/><path class="cls-8" d="M73.38,11.48c-3-.37-5.88-1-8.85-1.36-.93-.11-1.89.12-2.83,0a2.9,2.9,0,0,1-1.26-.45A1.4,1.4,0,0,1,59.87,9a10.55,10.55,0,0,1-.33-1.58c0,.41,0,.82,0,1.25,0,.62-.11,2.17.58,2.51a5.86,5.86,0,0,0,2.48.53,67.38,67.38,0,0,0,7.1.36c.73,0,4,.19,4.46-.2a1.81,1.81,0,0,0,.33-1.09,2,2,0,0,1-.44.55,1,1,0,0,1-.67.2Z"/><path class="cls-9" d="M58.57,11a3,3,0,0,0,.25-1.21c0-.41.06-.85.08-1.3a3.08,3.08,0,0,1-.74,1.17,6.09,6.09,0,0,1-2.21,1c-1.63.45-3.31.69-5,1a9.16,9.16,0,0,1-1.73.19.44.44,0,0,1-.38-.24,5.35,5.35,0,0,1-.29-1,5.44,5.44,0,0,0,.2,1.52c.41.34,9-.22,9.8-1Z"/><path class="cls-10" d="M40.75,11c-2,0-3.9-.21-5.86-.19-.61,0-1.2.25-1.8.26a27.4,27.4,0,0,1-4-.09A29.18,29.18,0,0,1,25,10.17a1.84,1.84,0,0,1-.79-.5A2.26,2.26,0,0,1,23.83,9c0-.14-.09-.29-.13-.44.08,1.17,0,2.22,1.28,2.49,3.24.66,6.42.41,9.69.66a39.64,39.64,0,0,0,9.23-.17c.83-.11,3.26-.11,3.67-.73a.91.91,0,0,0,.07-.23,1.28,1.28,0,0,1-.59.3c-2.1.18-4.2.19-6.3.19Z"/><path class="cls-11" d="M27.36,3.47c2.2,0,8-.82,9.92-1.8.53-.27,7.42-.12,8.36-.12,1.1,0,1.41.18,1.77.88,0-.6,0-1.42-.53-1.63a1.86,1.86,0,0,0-.34-.05L45.82.69l-2-.13c-.65,0-1.3-.07-1.95-.09l-1.16,0a59.77,59.77,0,0,0-7.91.37,67.88,67.88,0,0,1-7.27.45c-1.38,0-1.06.76-1.27,2.13a19.57,19.57,0,0,0,3.12.1Z"/><path class="cls-12" d="M49.17.7a1.93,1.93,0,0,0-.3,1.18l0,1.1a11.17,11.17,0,0,0,4.28-1,16,16,0,0,1,5.09.38c.16.09.16.28.4.92,0-1.07-.17-1.94-.49-2-1-.28-8.15-.85-8.8-.59L49.17.7Z"/><path class="cls-13" d="M61.78.93c-.67.18-.72,1.13-.93,1.83,1.28-.95,1.86-1.13,2.6-1.1,2.09.1,4.79.27,6.79.5A6.33,6.33,0,0,1,74,4.65c0-.48-.08-1-.13-1.44a14.79,14.79,0,0,0-.19-1.63A1.19,1.19,0,0,0,73.38,1a1.65,1.65,0,0,0-.82-.22c-.65-.06-1.33-.07-2-.11-2.69-.16-6.18-.41-8.79.3Z"/><path class="cls-14" d="M75.93,11a1.1,1.1,0,0,1-1-1.08A25,25,0,0,1,75.35,4a19.35,19.35,0,0,0,.33-2.82C75.77-.26,76.76.08,78.06.07,84,0,90.1-.06,96,.09a4.84,4.84,0,0,1,.77,0c.78.37,1.3,3.23,1.35,4.06a36.6,36.6,0,0,1-.21,5.92c-.16,1.13-.55,1-1.46,1.4a2.42,2.42,0,0,1-1.58.33,184.06,184.06,0,0,1-19-.81Z"/><path class="cls-15" d="M75.32,7.31c-.06.89,0,1.79,0,2.67a.67.67,0,0,0,.69.63c1.92.11,3.86.16,5.78.17,2.16,0,4.31,0,6.47-.06s4.44-.13,6.67-.23a2.26,2.26,0,0,0,1.42-.28L97,10a1.75,1.75,0,0,0,.34-.15,1,1,0,0,0,.24-.62c.41-3,.37-5.48-1-8.24-.28-.54-.46-.42-1.07-.46-5-.2-9.65.83-14.72.47-.7,0-4-.43-4.27.14-.18.35-1.07,5.35-1.14,6.21Z"/><path class="cls-16" d="M94.6,11c-1.26.07-2.52.07-3.78.1l-4.93.07h-.28c-1.42,0-2.84,0-4.26,0-1,0-1.92.09-2.89.14,2.22.19,4.66.32,7.15.4,3.11.11,6.31.16,9.28.16a2.42,2.42,0,0,0,1.58-.33c.91-.45,1.3-.27,1.46-1.4V10a1.27,1.27,0,0,1-.13.19,1.47,1.47,0,0,1-.81.52,12.85,12.85,0,0,1-2.4.24Z"/><path class="cls-17" d="M76.46,1.1A19.13,19.13,0,0,0,76,3.2c1.88.41,5.09-1.22,5.77-1.27.48,0,2.06.05,3.84.16A55.3,55.3,0,0,1,92,2.74a15.24,15.24,0,0,0,5.72,2.05A11,11,0,0,0,96.52,1c-.28-.54-.46-.42-1.07-.46A97.21,97.21,0,0,0,85.61,1a37.84,37.84,0,0,1-4.88,0c-.7,0-4-.43-4.27.14Z"/><path class="cls-18" d="M1,11A1.1,1.1,0,0,1,0,10,25,25,0,0,1,.43,4,19.35,19.35,0,0,0,.76,1.22C.86-.26,1.85.08,3.15.07c5.93-.06,12-.13,18,0a5,5,0,0,1,.78,0c.78.37,1.29,3.23,1.34,4.06A35.49,35.49,0,0,1,23,10.11c-.15,1.13-.54,1-1.46,1.4a2.41,2.41,0,0,1-1.58.33A184.06,184.06,0,0,1,1,11Z"/><path class="cls-19" d="M.4,7.31C.34,8.2.36,9.1.36,10a.67.67,0,0,0,.7.63c1.91.11,3.85.16,5.78.17,2.15,0,4.3,0,6.46-.06s4.45-.13,6.67-.23a2.26,2.26,0,0,0,1.42-.28l.68-.25a2.17,2.17,0,0,0,.35-.15,1.08,1.08,0,0,0,.24-.62c.4-3,.37-5.48-1.06-8.24-.28-.54-.45-.42-1.07-.46-5-.2-9.65.83-14.72.47-.7,0-4-.43-4.27.14C1.36,1.45.47,6.45.4,7.31Z"/><path class="cls-20" d="M19.68,11c-1.26.07-2.52.07-3.78.1L11,11.12H10.7c-1.43,0-2.85,0-4.27,0-1,0-1.92.09-2.88.14,2.21.19,4.65.32,7.15.4,3.1.11,6.3.16,9.27.16a2.41,2.41,0,0,0,1.58-.33c.92-.45,1.31-.27,1.46-1.4V10a.8.8,0,0,1-.13.19,1.44,1.44,0,0,1-.8.52,13,13,0,0,1-2.41.24Z"/><path class="cls-21" d="M1.54,1.1a19.13,19.13,0,0,0-.46,2.1C3,3.61,6.17,2,6.85,1.93c.49,0,2.07.05,3.85.16a55,55,0,0,1,6.37.65A15.22,15.22,0,0,0,22.8,4.79,11,11,0,0,0,21.6,1c-.28-.54-.45-.42-1.07-.46A96.88,96.88,0,0,0,10.7,1,38,38,0,0,1,5.81,1c-.7,0-4-.43-4.27.14Z"/><polygon class="cls-22" points="91.44 79.84 16.52 79.84 16.52 4.93 91.44 4.93 91.44 79.84 91.44 79.84"/></g></g></g></svg>