<svg xmlns="http://www.w3.org/2000/svg" xmlns:xlink="http://www.w3.org/1999/xlink" viewBox="0 0 74.56 12.2"><defs><style>.cls-1{isolation:isolate;}.cls-10,.cls-11,.cls-12,.cls-13,.cls-14,.cls-15,.cls-16,.cls-17,.cls-2,.cls-3,.cls-4,.cls-5,.cls-6,.cls-7,.cls-8,.cls-9{fill-rule:evenodd;}.cls-2{fill:url(#radial-gradient);}.cls-3{fill:url(#radial-gradient-2);}.cls-4{fill:url(#radial-gradient-3);}.cls-10,.cls-15,.cls-16,.cls-5,.cls-6,.cls-7,.cls-8,.cls-9{opacity:0.5;mix-blend-mode:screen;}.cls-5{fill:url(#radial-gradient-4);}.cls-6{fill:url(#radial-gradient-5);}.cls-7{fill:url(#radial-gradient-6);}.cls-8{fill:url(#radial-gradient-7);}.cls-9{fill:url(#radial-gradient-8);}.cls-10{fill:url(#radial-gradient-9);}.cls-11,.cls-12,.cls-13,.cls-17{mix-blend-mode:multiply;}.cls-11{fill:url(#radial-gradient-10);}.cls-12{fill:url(#radial-gradient-11);}.cls-13{fill:url(#radial-gradient-12);}.cls-14{fill:url(#radial-gradient-13);}.cls-15{fill:url(#radial-gradient-14);}.cls-16{fill:url(#radial-gradient-15);}.cls-17{fill:url(#radial-gradient-16);}</style><radialGradient id="radial-gradient" cx="9438.03" cy="-1372.81" r="34.87" gradientTransform="translate(9470.82 -1346.88) rotate(180)" gradientUnits="userSpaceOnUse"><stop offset="0" stop-color="#828282"/><stop offset="1" stop-color="#474747"/></radialGradient><radialGradient id="radial-gradient-2" cx="9410.53" cy="-1372.24" r="35.83" xlink:href="#radial-gradient"/><radialGradient id="radial-gradient-3" cx="9415.71" cy="-1362.2" r="33.81" xlink:href="#radial-gradient"/><radialGradient id="radial-gradient-4" cx="9397.7" cy="-1364.6" r="29.75" gradientTransform="translate(9470.82 -1346.88) rotate(180)" gradientUnits="userSpaceOnUse"><stop offset="0" stop-color="#707070"/><stop offset="1"/></radialGradient><radialGradient id="radial-gradient-5" cx="9414.98" cy="-1361.65" r="30.01" xlink:href="#radial-gradient-4"/><radialGradient id="radial-gradient-6" cx="9440.62" cy="-1360.96" r="26.9" xlink:href="#radial-gradient-4"/><radialGradient id="radial-gradient-7" cx="9403.8" cy="-1351.26" r="5.55" xlink:href="#radial-gradient-4"/><radialGradient id="radial-gradient-8" cx="9417.08" cy="-1351.87" r="3.87" xlink:href="#radial-gradient-4"/><radialGradient id="radial-gradient-9" cx="9435.14" cy="-1351.72" r="8.55" xlink:href="#radial-gradient-4"/><radialGradient id="radial-gradient-10" cx="9451.55" cy="-1325.31" r="41.67" gradientTransform="translate(9470.82 -1346.88) rotate(180)" gradientUnits="userSpaceOnUse"><stop offset="0" stop-color="#727272"/><stop offset="1" stop-color="#fff"/></radialGradient><radialGradient id="radial-gradient-11" cx="9409.62" cy="-1327.86" r="27.27" xlink:href="#radial-gradient-10"/><radialGradient id="radial-gradient-12" cx="9401.45" cy="-1328.67" r="35.25" xlink:href="#radial-gradient-10"/><radialGradient id="radial-gradient-13" cx="9447.5" cy="-1366.94" r="37.73" xlink:href="#radial-gradient"/><radialGradient id="radial-gradient-14" cx="9464.23" cy="-1361.93" r="30.45" xlink:href="#radial-gradient-4"/><radialGradient id="radial-gradient-15" cx="9457.53" cy="-1352.46" r="6.92" xlink:href="#radial-gradient-4"/><radialGradient id="radial-gradient-16" cx="9480.15" cy="-1323.22" r="47.9" xlink:href="#radial-gradient-10"/></defs><g class="cls-1"><g id="Layer_2" data-name="Layer 2"><g id="Layer_1-2" data-name="Layer 1"><path class="cls-2" d="M25,11c-1.4-.29-1.17-1.54-1.31-2.83-.26-2.58.22-4.48.38-7C24.14-.23,25.38.07,26.41.07c4.76,0,9.52,0,14.28,0,.73,0,6,.28,6.32.44.87.4.72,1.71.77,2.59,0,1,.16,7.14-.21,7.7s-2.84.63-3.67.74a39.09,39.09,0,0,1-9.23.16c-3.27-.24-6.45,0-9.69-.66Z"/><path class="cls-3" d="M58.57,11.06c-.82.82-9.39,1.38-9.8,1s-.36-9.76-.2-10.78c.06-.42.28-1,.74-1.1A25.52,25.52,0,0,1,53.62.07c.82,0,4.3-.1,4.83.29s.45,1.41.45,2c0,2.33.12,5.18-.08,7.47a3.09,3.09,0,0,1-.25,1.22Z"/><path class="cls-4" d="M59.84,3.79a22.87,22.87,0,0,1,.62-3.4c.35-.45,2.18-.35,2.75-.34,2.45,0,4.94.07,7.39.25C74,.5,73.93.11,74.22,3.47c.09,1.16.74,7.78-.06,8.4-.5.38-3.73.22-4.46.2a67.38,67.38,0,0,1-7.1-.36,5.87,5.87,0,0,1-2.48-.54c-.69-.34-.58-1.89-.58-2.51a30.48,30.48,0,0,1,.3-4.87Z"/><path class="cls-5" d="M62.65,9.35c2.35.46,4.69.7,7.05,1l2.19.24a8.74,8.74,0,0,0,2,0,3.21,3.21,0,0,0,.24-1.2,21.71,21.71,0,0,0,0-2.42c-.06-1.25-.18-2.49-.3-3.74a14.79,14.79,0,0,0-.19-1.63A1.22,1.22,0,0,0,73.38,1a1.89,1.89,0,0,0-.82-.22c-.65-.06-1.33-.07-2-.11-2.69-.16-6.18-.41-8.79.3-.67.19-.72,1.15-.93,1.85-.26.87-1.36,5.32-.52,5.89a6.3,6.3,0,0,0,2.32.68Z"/><path class="cls-6" d="M58.3,8.44a4.18,4.18,0,0,0,.16-1c.06-.77.48-6-.34-6.26S50,.36,49.32.62L49.17.7a2,2,0,0,0-.3,1.19l0,1.13c0,1,0,2.06,0,3.09s0,2.1.08,3.14a11.27,11.27,0,0,0,.14,1.54c.37.05,1.27,0,1.53,0,1,0,2.09-.1,3.13-.18,1-.41,2.06-.84,3.06-1.32a10.17,10.17,0,0,0,1.53-.87Z"/><path class="cls-7" d="M25.06,9.77c3.17.59,6.42.37,9.64.59,1.5.1,3,.19,4.51.17a42.21,42.21,0,0,0,4.64-.32c.58-.06,1.18-.08,1.76-.13.29,0,1.49-.16,1.65-.38a18.49,18.49,0,0,0,.21-3.39c0-1.13,0-2.3,0-3.44,0-.55.1-1.8-.54-2.07L46.54.75,45.82.69l-2-.13L41.85.47c-.39,0-.78,0-1.16,0a58.11,58.11,0,0,0-7.91.36,65.38,65.38,0,0,1-7.27.45c-1.41,0-1,.8-1.28,2.23a13.8,13.8,0,0,0-.2,4,4.63,4.63,0,0,0,.33,1.91,1.11,1.11,0,0,0,.7.38Z"/><path class="cls-8" d="M73.38,11.52c-3-.36-5.88-1-8.85-1.36-.93-.11-1.89.12-2.83,0a2.9,2.9,0,0,1-1.26-.45A1.4,1.4,0,0,1,59.87,9a11,11,0,0,1-.33-1.59q0,.61,0,1.26c0,.62-.11,2.17.58,2.51a5.87,5.87,0,0,0,2.48.54,67.38,67.38,0,0,0,7.1.36c.73,0,4,.18,4.46-.2a1.81,1.81,0,0,0,.33-1.09,2.37,2.37,0,0,1-.44.55,1,1,0,0,1-.67.19Z"/><path class="cls-9" d="M58.57,11.06a3.09,3.09,0,0,0,.25-1.22c0-.42.06-.85.08-1.3a3.16,3.16,0,0,1-.74,1.17,6.09,6.09,0,0,1-2.21,1c-1.63.45-3.31.69-5,1a9.18,9.18,0,0,1-1.73.2.44.44,0,0,1-.38-.24,5.45,5.45,0,0,1-.29-1,5.55,5.55,0,0,0,.2,1.53c.41.34,9-.22,9.8-1Z"/><path class="cls-10" d="M40.75,11.07c-2,0-3.9-.21-5.86-.19-.61,0-1.2.24-1.8.26a27.4,27.4,0,0,1-4-.1A27.84,27.84,0,0,1,25,10.21a1.84,1.84,0,0,1-.79-.5A2.37,2.37,0,0,1,23.83,9c0-.14-.09-.29-.13-.44.08,1.16,0,2.23,1.28,2.49,3.24.66,6.42.42,9.69.66a39.09,39.09,0,0,0,9.23-.16c.83-.11,3.26-.12,3.67-.74a.91.91,0,0,0,.07-.23,1.3,1.3,0,0,1-.59.31c-2.1.17-4.2.19-6.3.19Z"/><path class="cls-11" d="M27.36,3.49c2.2,0,8-.83,9.92-1.82.53-.27,7.42-.12,8.36-.12,1.1,0,1.41.19,1.77.89,0-.61,0-1.43-.53-1.64L46.54.75,45.82.69l-2-.13L41.85.47c-.39,0-.78,0-1.16,0a58.11,58.11,0,0,0-7.91.36,65.38,65.38,0,0,1-7.27.45c-1.38,0-1.06.77-1.27,2.14a19.62,19.62,0,0,0,3.12.11Z"/><path class="cls-12" d="M49.17.7a2,2,0,0,0-.3,1.19l0,1.1a11,11,0,0,0,4.28-1,16,16,0,0,1,5.09.38c.16.09.16.28.4.93,0-1.08-.17-2-.49-2.06-1-.28-8.15-.85-8.8-.59L49.17.7Z"/><path class="cls-13" d="M61.78.93c-.67.19-.72,1.14-.93,1.84,1.28-1,1.86-1.14,2.6-1.1,2.09.1,4.79.27,6.79.5A6.3,6.3,0,0,1,74,4.67c0-.48-.08-1-.13-1.45a14.79,14.79,0,0,0-.19-1.63A1.22,1.22,0,0,0,73.38,1a1.89,1.89,0,0,0-.82-.22c-.65-.06-1.33-.07-2-.11-2.69-.16-6.18-.41-8.79.3Z"/><path class="cls-14" d="M1,11.07A1.09,1.09,0,0,1,0,10,25.15,25.15,0,0,1,.43,4.06,19.46,19.46,0,0,0,.76,1.22C.86-.26,1.85.08,3.15.07c5.93-.06,12-.13,18,0a5,5,0,0,1,.78,0c.78.37,1.29,3.24,1.34,4.08A35.73,35.73,0,0,1,23,10.15c-.15,1.13-.54.95-1.46,1.4a2.36,2.36,0,0,1-1.58.34,183.93,183.93,0,0,1-19-.82Z"/><path class="cls-15" d="M.4,7.34c-.06.89,0,1.79,0,2.68a.66.66,0,0,0,.7.63c1.91.12,3.85.16,5.78.17,2.15,0,4.3,0,6.46-.06s4.45-.13,6.67-.23a2.32,2.32,0,0,0,1.42-.27c.23-.1.45-.18.68-.26a1.58,1.58,0,0,0,.35-.16,1,1,0,0,0,.24-.61C23.06,6.16,23,3.72,21.6,1c-.28-.54-.45-.41-1.07-.46-5-.2-9.65.83-14.72.47-.7,0-4-.43-4.27.14C1.36,1.46.47,6.47.4,7.34Z"/><path class="cls-16" d="M19.68,11c-1.26.06-2.52.07-3.78.09-1.64,0-3.28.06-4.92.07H10.7c-1.43,0-2.85,0-4.27,0-1,0-1.92.08-2.88.14,2.21.18,4.65.31,7.15.4,3.1.11,6.3.15,9.27.16a2.36,2.36,0,0,0,1.58-.34c.92-.45,1.31-.27,1.46-1.4V10a.8.8,0,0,1-.13.19,1.51,1.51,0,0,1-.8.53,14.91,14.91,0,0,1-2.41.24Z"/><path class="cls-17" d="M1.54,1.1a20.23,20.23,0,0,0-.46,2.11C3,3.63,6.17,2,6.85,1.94c.49,0,2.07,0,3.85.16a55,55,0,0,1,6.37.65A15.26,15.26,0,0,0,22.8,4.81,11.16,11.16,0,0,0,21.6,1c-.28-.54-.45-.41-1.07-.46C17.18.35,14,.78,10.7,1A38,38,0,0,1,5.81,1c-.7,0-4-.43-4.27.14Z"/></g></g></g></svg>