<svg xmlns="http://www.w3.org/2000/svg" xmlns:xlink="http://www.w3.org/1999/xlink" viewBox="0 0 74.56 12.15"><defs><style>.cls-1{isolation:isolate;}.cls-10,.cls-11,.cls-12,.cls-13,.cls-14,.cls-15,.cls-16,.cls-17,.cls-2,.cls-3,.cls-4,.cls-5,.cls-6,.cls-7,.cls-8,.cls-9{fill-rule:evenodd;}.cls-2{fill:url(#radial-gradient);}.cls-3{fill:url(#radial-gradient-2);}.cls-4{fill:url(#radial-gradient-3);}.cls-10,.cls-15,.cls-16,.cls-5,.cls-6,.cls-7,.cls-8,.cls-9{opacity:0.5;mix-blend-mode:screen;}.cls-5{fill:url(#radial-gradient-4);}.cls-6{fill:url(#radial-gradient-5);}.cls-7{fill:url(#radial-gradient-6);}.cls-8{fill:url(#radial-gradient-7);}.cls-9{fill:url(#radial-gradient-8);}.cls-10{fill:url(#radial-gradient-9);}.cls-11,.cls-12,.cls-13,.cls-17{mix-blend-mode:multiply;}.cls-11{fill:url(#radial-gradient-10);}.cls-12{fill:url(#radial-gradient-11);}.cls-13{fill:url(#radial-gradient-12);}.cls-14{fill:url(#radial-gradient-13);}.cls-15{fill:url(#radial-gradient-14);}.cls-16{fill:url(#radial-gradient-15);}.cls-17{fill:url(#radial-gradient-16);}</style><radialGradient id="radial-gradient" cx="41.77" cy="-19.12" r="34.87" gradientUnits="userSpaceOnUse"><stop offset="0" stop-color="#828282"/><stop offset="1" stop-color="#474747"/></radialGradient><radialGradient id="radial-gradient-2" cx="14.27" cy="-18.55" r="35.83" xlink:href="#radial-gradient"/><radialGradient id="radial-gradient-3" cx="19.44" cy="-8.51" r="33.81" xlink:href="#radial-gradient"/><radialGradient id="radial-gradient-4" cx="1.44" cy="-10.9" r="29.75" gradientUnits="userSpaceOnUse"><stop offset="0" stop-color="#707070"/><stop offset="1"/></radialGradient><radialGradient id="radial-gradient-5" cx="18.72" cy="-7.96" r="30.01" xlink:href="#radial-gradient-4"/><radialGradient id="radial-gradient-6" cx="44.36" cy="-7.27" r="26.9" xlink:href="#radial-gradient-4"/><radialGradient id="radial-gradient-7" cx="7.54" cy="2.43" r="5.55" xlink:href="#radial-gradient-4"/><radialGradient id="radial-gradient-8" cx="20.82" cy="1.82" r="3.87" xlink:href="#radial-gradient-4"/><radialGradient id="radial-gradient-9" cx="38.88" cy="1.97" r="8.55" xlink:href="#radial-gradient-4"/><radialGradient id="radial-gradient-10" cx="55.29" cy="28.38" r="41.67" gradientUnits="userSpaceOnUse"><stop offset="0" stop-color="#727272"/><stop offset="1" stop-color="#fff"/></radialGradient><radialGradient id="radial-gradient-11" cx="13.36" cy="25.83" r="27.27" xlink:href="#radial-gradient-10"/><radialGradient id="radial-gradient-12" cx="5.19" cy="25.03" r="35.25" xlink:href="#radial-gradient-10"/><radialGradient id="radial-gradient-13" cx="51.24" cy="-13.25" r="37.73" xlink:href="#radial-gradient"/><radialGradient id="radial-gradient-14" cx="67.97" cy="-8.24" r="30.45" xlink:href="#radial-gradient-4"/><radialGradient id="radial-gradient-15" cx="61.27" cy="1.23" r="6.92" xlink:href="#radial-gradient-4"/><radialGradient id="radial-gradient-16" cx="83.88" cy="30.47" r="47.9" xlink:href="#radial-gradient-10"/></defs><g class="cls-1"><g id="Layer_2" data-name="Layer 2"><g id="Layer_1-2" data-name="Layer 1"><path class="cls-2" d="M49.57,1.16C51,1.45,50.74,2.69,50.89,4c.25,2.58-.23,4.47-.39,7-.08,1.4-1.33,1.1-2.36,1.1-4.76,0-9.51,0-14.27,0-.74,0-6-.28-6.33-.43-.86-.4-.72-1.71-.76-2.59,0-1-.16-7.1.21-7.67S29.82.77,30.66.66A39.07,39.07,0,0,1,39.89.5c3.26.24,6.45,0,9.68.66Z"/><path class="cls-3" d="M16,1.14c.82-.82,9.39-1.38,9.79-1s.37,9.72.21,10.73c-.07.43-.29,1-.75,1.1a24.4,24.4,0,0,1-4.3.15c-.83,0-4.3.1-4.83-.28s-.46-1.41-.46-2c0-2.32-.11-5.15.08-7.44A3.28,3.28,0,0,1,16,1.14Z"/><path class="cls-4" d="M14.71,8.38a22.8,22.8,0,0,1-.61,3.39c-.36.44-2.18.34-2.75.34C8.9,12.14,6.4,12,4,11.86.59,11.65.62,12,.34,8.69.24,7.54-.41,1,.4.33.9,0,4.12.11,4.86.13,7.3.19,9.51.2,12,.49A5.81,5.81,0,0,1,14.43,1c.69.33.59,1.88.59,2.5a29.2,29.2,0,0,1-.31,4.85Z"/><path class="cls-5" d="M11.91,2.84c-2.35-.46-4.7-.7-7.06-1C4.12,1.8,3.4,1.7,2.67,1.64a9.44,9.44,0,0,0-2,0A3.22,3.22,0,0,0,.38,2.82a21.35,21.35,0,0,0,0,2.4C.46,6.47.58,7.7.69,8.94a14.8,14.8,0,0,0,.2,1.63,1.11,1.11,0,0,0,.29.63,1.71,1.71,0,0,0,.81.21c.66.07,1.34.08,2,.11,2.69.16,6.19.42,8.79-.3.67-.18.73-1.14.94-1.84.25-.86,1.36-5.3.52-5.87a6.61,6.61,0,0,0-2.32-.67Z"/><path class="cls-6" d="M16.26,3.75a4.13,4.13,0,0,0-.17,1c-.05.77-.48,6,.35,6.23s8.14.85,8.8.59l.14-.08a1.87,1.87,0,0,0,.3-1.18c0-.38,0-.75,0-1.12,0-1,0-2.06,0-3.08s0-2.09-.08-3.13a13,13,0,0,0-.14-1.53,13.45,13.45,0,0,0-1.54,0c-1,0-2.09.09-3.12.18-1,.4-2.06.83-3.07,1.31a9.72,9.72,0,0,0-1.52.87Z"/><path class="cls-7" d="M49.5,2.43c-3.18-.6-6.43-.38-9.64-.6-1.5-.1-3-.18-4.52-.17A45,45,0,0,0,30.7,2c-.58.07-1.17.08-1.76.14-.29,0-1.48.15-1.64.37a19.22,19.22,0,0,0-.22,3.37c0,1.14,0,2.3.06,3.43,0,.55-.1,1.8.53,2.07l.34,0,.73.07,2,.12,2,.1c.38,0,.77,0,1.16,0a58.19,58.19,0,0,0,7.91-.37,67.55,67.55,0,0,1,7.27-.44c1.41,0,1-.8,1.27-2.22a14,14,0,0,0,.21-4A4.8,4.8,0,0,0,50.2,2.8a1.05,1.05,0,0,0-.7-.37Z"/><path class="cls-8" d="M1.17.68C4.14,1,7.06,1.7,10,2c.94.11,1.89-.12,2.83,0a2.94,2.94,0,0,1,1.26.45,1.4,1.4,0,0,1,.57.74A9.55,9.55,0,0,1,15,4.79c0-.41,0-.83,0-1.26,0-.62.1-2.17-.59-2.5A5.81,5.81,0,0,0,12,.49C9.51.2,7.3.19,4.86.13,4.12.11.9,0,.4.33A1.8,1.8,0,0,0,.06,1.42,2.17,2.17,0,0,1,.51.87.88.88,0,0,1,1.17.68Z"/><path class="cls-9" d="M16,1.14a3.28,3.28,0,0,0-.26,1.21c0,.42-.06.85-.08,1.3a3.06,3.06,0,0,1,.75-1.16,6,6,0,0,1,2.21-1c1.63-.44,3.31-.69,5-1A8.51,8.51,0,0,1,25.32.35a.45.45,0,0,1,.38.23,5.42,5.42,0,0,1,.28,1A4.81,4.81,0,0,0,25.78.1c-.4-.34-9,.22-9.79,1Z"/><path class="cls-10" d="M33.81,1.13c1.95,0,3.9.21,5.85.19.61,0,1.2-.24,1.81-.26a27.4,27.4,0,0,1,4,.09A27.87,27.87,0,0,1,49.56,2a1.67,1.67,0,0,1,.78.5,1.88,1.88,0,0,1,.38.71,3.22,3.22,0,0,1,.14.44c-.09-1.16,0-2.22-1.29-2.48C46.34.5,43.15.74,39.89.5a39.07,39.07,0,0,0-9.23.16c-.84.11-3.26.12-3.67.73a.76.76,0,0,0-.08.23,1.31,1.31,0,0,1,.6-.3c2.09-.18,4.2-.19,6.3-.19Z"/><path class="cls-11" d="M47.2,8.68c-2.2,0-8,.82-9.93,1.81-.52.27-7.41.12-8.35.12-1.1,0-1.41-.19-1.78-.89,0,.61,0,1.43.53,1.64l.34,0,.73.07,2,.12,2,.1c.38,0,.77,0,1.16,0a58.19,58.19,0,0,0,7.91-.37,67.55,67.55,0,0,1,7.27-.44c1.38,0,1.05-.77,1.26-2.14a20.65,20.65,0,0,0-3.11-.1Z"/><path class="cls-12" d="M25.38,11.45a1.87,1.87,0,0,0,.3-1.18c0-.37,0-.73,0-1.1a11.22,11.22,0,0,0-4.28,1,15.75,15.75,0,0,1-5.09-.38c-.15-.08-.16-.28-.39-.92,0,1.07.16,1.95.49,2,1,.28,8.14.85,8.8.59l.14-.08Z"/><path class="cls-13" d="M12.77,11.22c.67-.18.73-1.13.93-1.82-1.28.95-1.86,1.13-2.59,1.09-2.09-.1-4.8-.27-6.79-.5A6.23,6.23,0,0,1,.56,7.5c0,.48.09,1,.13,1.44a14.8,14.8,0,0,0,.2,1.63,1.11,1.11,0,0,0,.29.63,1.71,1.71,0,0,0,.81.21c.66.07,1.34.08,2,.11,2.69.16,6.19.42,8.79-.3Z"/><path class="cls-14" d="M73.54,1.12a1.1,1.1,0,0,1,1,1.08,24.46,24.46,0,0,1-.43,5.91,19.35,19.35,0,0,0-.33,2.82c-.09,1.48-1.08,1.14-2.38,1.16-5.93.05-12,.12-17.95,0a6.66,6.66,0,0,1-.78-.05c-.78-.36-1.3-3.22-1.34-4.06a35.37,35.37,0,0,1,.2-5.91c.16-1.13.55-1,1.46-1.4A2.38,2.38,0,0,1,54.58.31a186.66,186.66,0,0,1,19,.81Z"/><path class="cls-15" d="M74.16,4.84c0-.89,0-1.78,0-2.67a.66.66,0,0,0-.69-.62c-1.92-.12-3.85-.16-5.78-.18-2.15,0-4.31,0-6.46.07s-4.45.13-6.68.22a2.33,2.33,0,0,0-1.42.28,6.82,6.82,0,0,1-.68.25,1.5,1.5,0,0,0-.34.16c-.17.12-.21.43-.24.61C51.5,6,51.53,8.44,53,11.21c.28.53.46.41,1.07.46,5,.2,9.66-.83,14.72-.48.7.05,4,.43,4.28-.13.17-.36,1.07-5.35,1.14-6.22Z"/><path class="cls-16" d="M54.87,1.2c1.26-.07,2.52-.07,3.78-.09,1.65,0,3.29-.06,4.93-.07h.28c1.42,0,2.84,0,4.26,0,1,0,1.93-.08,2.89-.14C68.8.69,66.36.56,63.86.47,60.75.36,57.55.32,54.58.31A2.38,2.38,0,0,0,53,.65c-.91.44-1.3.27-1.46,1.4v.1A2.14,2.14,0,0,1,51.66,2a1.5,1.5,0,0,1,.81-.52,13.75,13.75,0,0,1,2.4-.24Z"/><path class="cls-17" d="M73,11.06A21,21,0,0,0,73.47,9c-1.88-.42-5.09,1.22-5.76,1.26-.49,0-2.07,0-3.85-.16a59.19,59.19,0,0,1-6.38-.64,15,15,0,0,0-5.72-2A11.1,11.1,0,0,0,53,11.21c.28.53.46.41,1.07.46,3.36.13,6.56-.29,9.84-.47a39.7,39.7,0,0,1,4.88,0c.7.05,4,.43,4.28-.13Z"/></g></g></g></svg>