<svg xmlns="http://www.w3.org/2000/svg" viewBox="0 0 63.12 70.41"><defs><style>.cls-1{isolation:isolate;}.cls-2{mix-blend-mode:overlay;}.cls-3{fill:#212121;}</style></defs><g class="cls-1"><g id="Layer_2" data-name="Layer 2"><g id="Layer_1-2" data-name="Layer 1"><g class="cls-2"><path class="cls-3" d="M29.71,67v-.29l-.6,0a25.26,25.26,0,0,0-.23-3.21c-.15-1.07-.32-2.15-.53-3.23a55.25,55.25,0,0,0-1.63-6.35c-.18-.51-.36-1-.57-1.5-.1-.24-.22-.47-.33-.69a7.48,7.48,0,0,0-.41-.67c-.29-.44-.63-.91-.92-1.43l-.21-.42-.16-.39c-.11-.29-.21-.57-.29-.85a12.09,12.09,0,0,1-.43-3.43,12.35,12.35,0,0,1,.15-1.72c.09-.58.22-1.11.34-1.65a35,35,0,0,0,.86-6.5,7.49,7.49,0,0,0-.43-3.14c-.19-.48-.47-1-.7-1.48s-.48-1-.69-1.53a9.74,9.74,0,0,1-.8-3.28,8.69,8.69,0,0,1,.06-1.69c.08-.55.18-1.1.29-1.64.21-1.09.47-2.17.73-3.25a30,30,0,0,1,1-3.18l.21.08a28.85,28.85,0,0,0-.94,3.17c-.25,1.07-.49,2.15-.68,3.24-.1.54-.2,1.08-.27,1.62a8.88,8.88,0,0,0,0,1.63,9.44,9.44,0,0,0,.87,3.11c.22.5.46,1,.71,1.48s.54.95.77,1.49a8.23,8.23,0,0,1,.57,3.37,35.61,35.61,0,0,1-.67,6.68c-.1.54-.22,1.09-.29,1.6a12.1,12.1,0,0,0-.08,1.59,11.23,11.23,0,0,0,.48,3.12c.08.25.17.49.26.72l.18.37.17.32c.26.43.58.86.91,1.32.16.23.35.51.48.74s.28.53.4.8c.23.53.43,1.06.61,1.6A54.93,54.93,0,0,1,29.6,60c.23,1.1.41,2.2.57,3.31a25.45,25.45,0,0,1,.26,3.41h-.61V67Z"/><path class="cls-3" d="M29.58,63.07V63H29a13,13,0,0,1,.43-3.54,8.91,8.91,0,0,1,1.67-3.2c.72-.92,1.52-1.75,2.22-2.58a10,10,0,0,0,.94-1.32,8.65,8.65,0,0,0,.69-1.44,12.11,12.11,0,0,0,.69-3.18c.12-1.1.13-2.22.14-3.35a28.44,28.44,0,0,1,.19-3.44,11.8,11.8,0,0,1,.93-3.38,10.82,10.82,0,0,1,2-2.88c.79-.85,1.64-1.6,2.47-2.37a22.06,22.06,0,0,0,2.34-2.4A7.42,7.42,0,0,0,45.19,27a12.12,12.12,0,0,0,.28-3.3,25.28,25.28,0,0,0-.39-3.35c-.15-1.14-.2-2.27-.33-3.39A11.74,11.74,0,0,0,44,13.72l.2-.09A12,12,0,0,1,45,17c.15,1.12.23,2.26.4,3.36a27.34,27.34,0,0,1,.45,3.39,12.09,12.09,0,0,1-.22,3.44,8,8,0,0,1-1.57,3.1,24.38,24.38,0,0,1-2.35,2.51c-.82.79-1.65,1.55-2.38,2.38a9.77,9.77,0,0,0-1.79,2.73,10.35,10.35,0,0,0-.8,3.16,28.52,28.52,0,0,0-.13,3.34c0,1.13,0,2.28-.06,3.44a13.46,13.46,0,0,1-.69,3.45,9.85,9.85,0,0,1-.74,1.62,10.53,10.53,0,0,1-1,1.47c-.74.91-1.5,1.73-2.15,2.61a7.81,7.81,0,0,0-1.4,2.81A11.23,11.23,0,0,0,30.3,63h-.61v.09Z"/><path class="cls-3" d="M29.45,65.61v-.1l-.6-.08c.16-1.16.33-2.27.46-3.4s.21-2.26.21-3.39c0-.56,0-1.13,0-1.69s0-1.13-.1-1.7l-.15-1.71-.07-.86c0-.3,0-.6,0-.9,0-.6,0-1.18,0-1.77s.09-1.17.19-1.75a30.65,30.65,0,0,1,.7-3.43c.3-1.13.62-2.22.93-3.33s.6-2.21.87-3.33.53-2.23.76-3.34A19.31,19.31,0,0,0,33,31.46a12.22,12.22,0,0,0-.32-3.35c-.12-.57-.24-1.13-.33-1.71s-.17-1.14-.25-1.71a45.64,45.64,0,0,1-.53-6.91,8.33,8.33,0,0,1,.78-3.4,16.56,16.56,0,0,1,1.87-2.93l.18.14a15,15,0,0,0-1.78,2.91A7.93,7.93,0,0,0,32,17.79a46,46,0,0,0,.66,6.82c.09.57.18,1.15.28,1.7s.24,1.11.37,1.67a12.78,12.78,0,0,1,.41,3.49A21.24,21.24,0,0,1,33.37,35c-.22,1.15-.43,2.28-.7,3.4s-.53,2.25-.81,3.37S31.27,44,31,45.05a29.7,29.7,0,0,0-.62,3.34c-.08.56-.1,1.12-.15,1.68s0,1.13,0,1.68l0,.83.09.86.18,1.71c.07.58.1,1.17.13,1.75s.05,1.17.05,1.75c0,1.17-.06,2.34-.16,3.5s-.26,2.32-.4,3.44l-.6-.07v.11Z"/><path class="cls-3" d="M29.63,70.41v-.12l-.85,0c0-1.42,0-2.83,0-4.25s.06-2.84.17-4.27.21-2.83.37-4.25l.28-2.12.33-2.1c.24-1.39.5-2.77.68-4.14a24.62,24.62,0,0,0,.21-4.11c0-.34,0-.69-.05-1l-.11-1c-.05-.69-.18-1.37-.29-2l-.18-1-.22-1c-.15-.69-.28-1.37-.47-2l-.53-2c-.18-.73-.31-1.39-.46-2.09s-.18-1.44-.28-2.16-.06-1.43-.08-2.14c0-1.42,0-2.84.07-4.24s.07-2.81,0-4.2l-.06-1c0-.31-.1-.69-.14-1l-.16-1c-.07-.34-.16-.67-.24-1l-.25-1-.34-1-.34-1-.41-1c-.14-.32-.27-.65-.42-.95l-.47-1c-.31-.64-.66-1.24-1-1.86S23.65,7,23.28,6.39s-.82-1.13-1.22-1.7l.24-.19c.42.56.87,1.11,1.28,1.69s.8,1.17,1.15,1.79.72,1.22,1,1.85l.49.94c.17.32.3.64.46,1l.44,1,.37,1,.37,1,.28,1c.09.35.2.69.28,1l.18,1c.05.36.13.68.16,1.06L28.89,20c.12,1.42.12,2.84.12,4.25s0,2.81,0,4.21c0,.69.09,1.39.14,2.08s.17,1.34.3,2,.32,1.4.5,2l.57,2c.21.68.36,1.38.53,2.07l.25,1,.2,1.06c.14.7.28,1.4.36,2.11L32,43.93c0,.36,0,.72.07,1.08A26.09,26.09,0,0,1,32,49.34c-.16,1.43-.39,2.82-.59,4.21l-.29,2.08-.22,2.08c-.12,1.38-.23,2.77-.27,4.17s-.05,2.79-.06,4.18.06,2.8.09,4.2l-.84,0v.13Z"/><path class="cls-3" d="M36.16,44.93v0h-.44a5.14,5.14,0,0,1,.4-2.11,5.32,5.32,0,0,1,1.26-1.72,31.88,31.88,0,0,1,3.24-2.32c.52-.37,1-.8,1.57-1.18s1.1-.74,1.65-1.1,1.1-.71,1.62-1.09c.25-.19.52-.38.76-.59l.35-.31.35-.34A7,7,0,0,0,48,32.6a9.46,9.46,0,0,0,.74-1.77,17.43,17.43,0,0,0,.48-1.89c.13-.64.24-1.27.33-1.92a60,60,0,0,0,.34-7.83h.16c0,1.31.06,2.62,0,3.93,0,.66,0,1.31,0,2q0,.5-.06,1c0,.33,0,.66-.09,1-.08.65-.17,1.31-.29,2A16.46,16.46,0,0,1,49.19,31a10.66,10.66,0,0,1-.73,1.87,7.83,7.83,0,0,1-1.15,1.68l-.34.35-.39.35c-.24.23-.51.42-.77.63-.53.41-1.07.78-1.62,1.15s-1.08.74-1.59,1.12-1,.82-1.55,1.22A31.85,31.85,0,0,0,38,41.67a4.49,4.49,0,0,0-1,1.46,4,4,0,0,0-.27,1.73h-.44v.05Z"/><path class="cls-3" d="M39.91,34v0l-.36-.06a7.91,7.91,0,0,1,.52-1.58c.21-.5.45-1,.67-1.45a10.36,10.36,0,0,0,.56-1.39l.17-.77a4.27,4.27,0,0,0,.13-.77,8.41,8.41,0,0,0,0-1.51l0-.76-.15-.75a9.3,9.3,0,0,0-.41-1.5c-.17-.49-.34-1-.54-1.46-.79-1.94-1.77-3.81-2.59-5.76-.22-.48-.4-1-.59-1.47s-.35-1-.49-1.52c-.08-.25-.13-.51-.19-.77a6.57,6.57,0,0,1-.16-.77,13.92,13.92,0,0,1-.2-1.58h.13c.07.52.12,1,.24,1.55a6.63,6.63,0,0,0,.18.77,6.41,6.41,0,0,0,.21.75c.15.51.33,1,.52,1.49s.4,1,.62,1.44c.87,1.91,1.89,3.75,2.74,5.7.22.48.41,1,.6,1.48A10.59,10.59,0,0,1,42,24.78l.18.79.06.81a9,9,0,0,1,0,1.64,4.06,4.06,0,0,1-.12.8l-.15.77a11,11,0,0,1-.56,1.56c-.21.49-.44,1-.63,1.43A8,8,0,0,0,40.34,34L40,34l0,0Z"/><path class="cls-3" d="M33.2,28.71h0l-.08-.35a2.34,2.34,0,0,0,1.25-.77,5,5,0,0,0,.82-1.42,11,11,0,0,0,.5-1.63q.11-.42.18-.84c.06-.29.12-.57.16-.86.11-.58.18-1.14.25-1.72s.11-1.15.14-1.73c.07-1.16.1-2.33.12-3.5h.13c0,1.17.06,2.34,0,3.51,0,.58,0,1.17-.06,1.76s-.09,1.18-.17,1.75c0,.29-.07.59-.12.87s-.09.59-.14.88a11.9,11.9,0,0,1-.45,1.73A5.54,5.54,0,0,1,35,28a3,3,0,0,1-1.63,1.09l-.08-.35h0Z"/><path class="cls-3" d="M24.06,30.27v0L23.79,30l.4-.49.36-.53.31-.56.26-.59a11.12,11.12,0,0,0,.39-1.24c.1-.43.18-.86.24-1.3A52.27,52.27,0,0,0,26,20h.13a53.52,53.52,0,0,1,.08,5.38A12.32,12.32,0,0,1,26,26.72a10.48,10.48,0,0,1-.33,1.34l-.24.65-.3.64-.36.6-.41.58-.28-.24v0Z"/><path class="cls-3" d="M24.91,37.85V37.8h-.33a4.67,4.67,0,0,0-1-2.77c-.6-.84-1.37-1.6-2-2.46a14.63,14.63,0,0,1-.92-1.35c-.29-.44-.57-.91-.84-1.38s-.51-1-.76-1.43-.44-1-.64-1.5l-.25-.77a5.45,5.45,0,0,1-.22-.79,10.73,10.73,0,0,1-.29-1.6c0-.27-.07-.53-.09-.8V21.53l0-.2c0-.27,0-.54.09-.8l.18-.8.25-.78c.17-.51.37-1,.58-1.5s.41-1,.6-1.49.35-1,.5-1.52l.12,0c-.14.52-.29,1-.47,1.54s-.38,1-.57,1.51-.38,1-.54,1.5l-.22.77-.16.77c0,.26-.05.53-.08.79v.39l0,.4,0,.79c0,.27.07.53.11.79a10.15,10.15,0,0,0,.32,1.55,5.11,5.11,0,0,0,.23.76l.26.74c.21.49.42,1,.66,1.44s.49.95.78,1.39.55.9.85,1.34A15.56,15.56,0,0,0,22,32.22c.66.82,1.45,1.55,2.12,2.43A6.41,6.41,0,0,1,25,36.11a5.15,5.15,0,0,1,.35,1.69H25v.05Z"/><path class="cls-3" d="M26.83,52.77l0,0-.32.18-.64-1.05a10.1,10.1,0,0,0-.73-1A10.17,10.17,0,0,0,24.3,50c-.15-.15-.28-.31-.43-.45l-.46-.43c-.6-.57-1.26-1.1-1.9-1.66-.32-.27-.64-.56-1-.86a8.73,8.73,0,0,1-.88-.94,7.71,7.71,0,0,1-.75-1,11.46,11.46,0,0,1-.6-1.15,12.35,12.35,0,0,1-.8-2.43,10.41,10.41,0,0,1-.24-2.55,7.71,7.71,0,0,1,.14-1.27c0-.21.11-.42.16-.62s.15-.4.22-.6l.12,0c-.06.2-.14.39-.19.59s-.1.4-.14.61a8.64,8.64,0,0,0-.1,1.24,10.35,10.35,0,0,0,.32,2.48,11.53,11.53,0,0,0,.86,2.34,10.28,10.28,0,0,0,.6,1.08,7.26,7.26,0,0,0,.75,1,8,8,0,0,0,.88.87c.3.28.62.55.95.81.65.54,1.33,1,2,1.62l.48.42c.16.14.31.3.46.45a7.92,7.92,0,0,1,.89.94,11.19,11.19,0,0,1,.81,1l.72,1.09-.32.18,0,0Z"/><path class="cls-3" d="M36.18,44.91l0,0L36,44.68a6.28,6.28,0,0,1,1.34-1.09,9.2,9.2,0,0,1,1.53-.71,13.2,13.2,0,0,1,1.6-.46c.54-.11,1.08-.21,1.62-.29,1.09-.15,2.18-.23,3.26-.31.54,0,1.09-.08,1.62-.14s1.07-.14,1.6-.23,1.05-.21,1.57-.36c.26-.06.51-.15.77-.23s.51-.17.76-.27a15,15,0,0,0,1.47-.66l.7-.4c.22-.14.44-.3.66-.46A8.05,8.05,0,0,0,55.67,38a5.12,5.12,0,0,0,.5-.63l.23-.32.19-.36.19-.35c.06-.12.09-.25.14-.38a3.42,3.42,0,0,0,.23-.77,5.22,5.22,0,0,0,.14-.79l0-.81h.11l0,.82a5.47,5.47,0,0,1-.13.81,3.8,3.8,0,0,1-.22.8c0,.13-.08.26-.14.38l-.18.37-.19.37-.23.34a5.45,5.45,0,0,1-.5.66,8.55,8.55,0,0,1-1.2,1.13c-.22.16-.44.33-.67.48l-.7.43c-.49.25-1,.5-1.49.7a5.52,5.52,0,0,1-.77.29c-.26.09-.52.19-.78.26-.53.16-1.06.28-1.6.4S47.54,42,47,42.1s-1.09.12-1.63.17c-1.08.1-2.16.21-3.22.38-.53.09-1,.19-1.57.32a13.47,13.47,0,0,0-1.53.46,8,8,0,0,0-1.4.7,5.25,5.25,0,0,0-1.17,1l-.23-.2,0,0Z"/><path class="cls-3" d="M45.62,35.64h0l-.07-.21a15.23,15.23,0,0,0,3.73-1.94,19.17,19.17,0,0,0,3.24-2.71,8.46,8.46,0,0,0,.67-.81,6,6,0,0,0,.56-.89,6.93,6.93,0,0,0,.42-1c.12-.33.22-.67.31-1,.33-1.38.43-2.81.73-4.21h.07c-.26,1.4-.32,2.83-.62,4.24a9.39,9.39,0,0,1-.28,1,7.36,7.36,0,0,1-.41,1A7.81,7.81,0,0,1,52.77,31a19.4,19.4,0,0,1-3.24,2.83,15.56,15.56,0,0,1-3.8,2.08l-.06-.21h0Z"/><path class="cls-3" d="M20.73,30.9l0,0-.19.12a8.49,8.49,0,0,0-.61-.8l-.67-.78c-.46-.51-.93-1-1.41-1.52s-1-1-1.45-1.46-1.06-.91-1.54-1.42a6.75,6.75,0,0,1-.67-.83,6.45,6.45,0,0,1-.51-.93,8.81,8.81,0,0,1-.61-2,21.48,21.48,0,0,1-.24-4.16h.08a21,21,0,0,0,.36,4.12,8.68,8.68,0,0,0,.65,1.94,5.55,5.55,0,0,0,1.17,1.65c.24.24.5.46.76.69l.8.66c.52.48,1,1,1.5,1.46l1.44,1.51c.23.26.47.52.69.78a8.37,8.37,0,0,1,.67.85l-.19.11,0,0Z"/><path class="cls-3" d="M20.76,46.42h0l-.21.08-.37-1-.33-1-.11-.51c0-.18-.08-.34-.1-.52l-.05-1c0-.34,0-.68.05-1a5,5,0,0,1,.19-1A4.09,4.09,0,0,1,20,40c.08-.15.15-.31.24-.45s.19-.29.3-.42l.33-.39.06.05-.31.4-.26.43a4.51,4.51,0,0,0-.22.44c0,.16-.11.32-.15.48a5.37,5.37,0,0,0-.13,1c0,.33,0,.67,0,1l.1,1a4.21,4.21,0,0,0,.12.48l.12.47.37.93.42.93-.21.08h0Z"/><path class="cls-3" d="M32.15,22.86h0l-.2-.1a13.48,13.48,0,0,1,1-1.44c.16-.23.33-.45.48-.69a5.2,5.2,0,0,0,.42-.72,10,10,0,0,0,.64-1.56,8.15,8.15,0,0,0,.2-.82l0-.42,0-.42h.08v.43l0,.44c0,.28-.09.56-.15.85A12.07,12.07,0,0,1,34.1,20a8.1,8.1,0,0,1-.39.78c-.15.25-.31.49-.46.73A11.89,11.89,0,0,0,32.39,23l-.19-.1h0Z"/><path class="cls-3" d="M39.79,20.09l0,0-.19-.24a2.12,2.12,0,0,0,.53-.73,4.68,4.68,0,0,0,.29-.94,8.46,8.46,0,0,0,.14-1c0-.35,0-.69,0-1A16.24,16.24,0,0,0,40.42,14c-.05-.34-.12-.68-.2-1s-.2-.66-.3-1l-.65-2c-.21-.68-.42-1.36-.58-2-.08-.34-.18-.69-.23-1s-.14-.7-.17-1.05-.08-.71-.1-1.06l0-1.07h.11l.06,1.06c0,.35.09.69.13,1s.13.69.2,1,.17.68.26,1c.18.68.41,1.35.64,2l.71,2c.12.33.24.66.35,1s.18.7.24,1.06a15.11,15.11,0,0,1,.26,2.13c0,.36,0,.72,0,1.09A10.32,10.32,0,0,1,41,18.27a5.3,5.3,0,0,1-.31,1.08,2.71,2.71,0,0,1-.68,1l-.19-.23,0,0Z"/><path class="cls-3" d="M45.61,23.41v0l-.2-.1c.13-.29.28-.57.39-.86s.22-.59.3-.9.18-.61.24-.93.14-.62.17-.94.1-.63.13-.95.06-.64.07-1l0-1v-1l-.07-1-.1-.95c0-.32-.1-.64-.15-1s-.12-.63-.19-.94-.16-.63-.23-.94-.2-.61-.29-.92-.24-.6-.35-.9-.28-.58-.42-.87l.07,0c.15.29.31.57.44.87s.27.59.38.89.23.61.31.93.2.62.27.93.16.63.22,1,.12.64.17,1l.13,1,.09,1,0,1v1c0,.33,0,.65,0,1s-.07.65-.1,1-.1.64-.15,1-.15.63-.22.95-.2.63-.3.95-.25.61-.38.92l-.19-.1,0,0Z"/><path class="cls-3" d="M28.55,19.59v0l-.3,0a4.3,4.3,0,0,1,.06-1.14c.06-.36.16-.71.24-1.05s.17-.68.23-1l.06-.49,0-.53c0-.7.1-1.41.08-2.1l0-1c0-.35,0-.71,0-1s-.07-.7-.14-1-.12-.69-.2-1c-.14-.68-.31-1.36-.48-2S27.77,5.69,27.6,5c-.09-.34-.19-.68-.31-1a3.8,3.8,0,0,0-.47-.92L26.9,3a3.88,3.88,0,0,1,.52.93,9.28,9.28,0,0,1,.35,1c.2.68.35,1.36.54,2s.38,1.36.55,2c.09.34.16.7.24,1s.11.7.17,1.05.05.71.08,1.07l0,1.07c.05.71,0,1.41,0,2.11v.53c0,.19,0,.37-.05.56q-.09.54-.21,1.05c-.07.35-.15.69-.19,1a4.46,4.46,0,0,0,0,1l-.3,0v0Z"/><path class="cls-3" d="M15.89,25.68v0l-.1.05a4.07,4.07,0,0,1-.31-1.36,12.54,12.54,0,0,1,0-1.37c0-.91.14-1.82.21-2.72a20.5,20.5,0,0,0,.08-2.71,6.69,6.69,0,0,0-.22-1.34,2.58,2.58,0,0,0-.67-1.15l0,0a2.67,2.67,0,0,1,.7,1.16,5.72,5.72,0,0,1,.24,1.35,19.14,19.14,0,0,1,0,2.73c-.06.9-.13,1.81-.16,2.71a12.11,12.11,0,0,0,0,1.35A4.21,4.21,0,0,0,16,25.61l-.09,0v0Z"/><path class="cls-3" d="M26.32,11.54h0l-.07.17-1.09-.52-.54-.26a3.29,3.29,0,0,1-.52-.29l-1-.62c-.34-.21-.64-.49-1-.73a5.45,5.45,0,0,1-.47-.37l-.43-.43-.42-.43-.37-.47a3.53,3.53,0,0,1-.36-.48l-.32-.5c-.2-.35-.38-.7-.57-1l.06,0,.6,1,.34.49a4.06,4.06,0,0,0,.36.46l.39.45c.13.14.28.27.43.41l.43.4c.15.13.31.23.47.35a10.58,10.58,0,0,0,1,.68l1,.58a3.16,3.16,0,0,0,.52.26l.54.24,1.09.47-.07.17h0Z"/><path class="cls-3" d="M31.7,17.35v0l-.16.08-.33-.71c-.11-.24-.18-.5-.27-.75a6.49,6.49,0,0,1-.19-.76,5.29,5.29,0,0,1-.13-.78,6.83,6.83,0,0,1-.06-.78q0-.39,0-.78a6.83,6.83,0,0,1,.06-.78q0-.39.09-.78c.08-.51.18-1,.3-1.52s.25-1,.38-1.5a26.17,26.17,0,0,0,.72-3h.07a28.63,28.63,0,0,1-.64,3c-.12.5-.24,1-.34,1.5s-.2,1-.26,1.52c0,.25-.05.5-.07.76a6.44,6.44,0,0,0,0,.76,6.37,6.37,0,0,0,0,.76,6.31,6.31,0,0,0,.07.76,5,5,0,0,0,.15.75,4.52,4.52,0,0,0,.2.72c.09.24.16.48.27.71l.34.67-.16.09v0Z"/><path class="cls-3" d="M28.58,57.8l0,0-.4.27a12.9,12.9,0,0,0-2.41-2.75,16.13,16.13,0,0,0-3.1-2c-2.23-1.16-4.68-1.91-7-3.06-.58-.29-1.13-.61-1.68-1s-1.09-.71-1.6-1.11a8.69,8.69,0,0,1-2.47-3,8.9,8.9,0,0,1-.77-3.79,18.15,18.15,0,0,1,.47-3.82l.17,0a17.75,17.75,0,0,0-.34,3.77,8.47,8.47,0,0,0,.84,3.62,8.07,8.07,0,0,0,2.43,2.77,18.35,18.35,0,0,0,1.57,1c.55.31,1.1.62,1.67.88,2.27,1.06,4.75,1.74,7.09,2.88a16.84,16.84,0,0,1,3.32,2.06A13.77,13.77,0,0,1,29,57.44l-.41.27,0,0Z"/><path class="cls-3" d="M39.62,43h0v-.11a7.53,7.53,0,0,1,2.11.25,3.16,3.16,0,0,1,1,.45c.3.19.55.45.84.63a3.73,3.73,0,0,0,.9.49c.32.09.66.18,1,.25s.68.18,1,.29l1,.33c.34.1.67.2,1,.27a9.46,9.46,0,0,0,1,.13c.7,0,1.4,0,2.1-.06l4.21-.17v0l-4.2.22c-.71,0-1.4.09-2.11.08A2.37,2.37,0,0,1,49,46a3.12,3.12,0,0,1-.52-.08,9.13,9.13,0,0,1-1-.26c-.67-.2-1.33-.43-2-.59a10.26,10.26,0,0,1-1-.25,3.56,3.56,0,0,1-1-.49c-.31-.19-.56-.44-.85-.63a3.32,3.32,0,0,0-.92-.41,7.48,7.48,0,0,0-2.05-.21V43h0Z"/><path class="cls-3" d="M48.36,41.64v0l-.08-.07A25.5,25.5,0,0,1,50,39.61c.15-.15.32-.29.48-.43s.34-.28.52-.39l.55-.34a.89.89,0,0,0,.35-.46,6.18,6.18,0,0,0,.12-.62l.1-.64c.06-.42.17-.84.25-1.26s.22-.83.32-1.24c.06-.21.14-.41.2-.61l.21-.61h0l-.2.61c-.06.21-.14.41-.19.62-.09.41-.22.82-.29,1.24s-.17.84-.22,1.26l-.1.64A3.73,3.73,0,0,1,52,38a1,1,0,0,1-.4.54l-.53.36c-.18.11-.34.26-.5.38l-.47.44a24.29,24.29,0,0,0-1.64,2l-.08-.07h0Z"/><path class="cls-3" d="M53.29,40.08h0l.08-.08a4.53,4.53,0,0,0,1,.73,4.12,4.12,0,0,0,1.19.37c.21,0,.42,0,.63,0a4.54,4.54,0,0,0,.63,0c.43,0,.83-.13,1.27-.18a4.63,4.63,0,0,1,.65,0,1.12,1.12,0,0,1,.32,0,1.65,1.65,0,0,1,.32.06l.62.18a2.65,2.65,0,0,0,.62.09l.64-.07.61-.15c.41-.13.81-.28,1.21-.43l0,0c-.4.17-.8.32-1.21.46l-.63.17-.63.08a2.32,2.32,0,0,1-.65-.08l-.62-.17c-.1,0-.21,0-.31-.05a.83.83,0,0,0-.31,0,4.46,4.46,0,0,0-.63,0c-.42.05-.85.16-1.27.21-.21,0-.44,0-.65.05a5.27,5.27,0,0,1-1.3-.18,4.49,4.49,0,0,1-.61-.23,3.53,3.53,0,0,1-.57-.33,5.3,5.3,0,0,1-.52-.42l.08-.07,0,0Z"/><path class="cls-3" d="M52,31.57h0v-.11c.49,0,1,0,1.46,0h.73a2.51,2.51,0,0,0,.67-.15,4.25,4.25,0,0,0,.64-.32c.21-.12.4-.26.63-.37a3.17,3.17,0,0,1,.69-.26l.36-.08.37,0,.72-.07A5.44,5.44,0,0,0,59,30c.23-.09.45-.16.67-.26l.66-.3c.43-.22.89-.39,1.33-.59a3.23,3.23,0,0,0,.62-.36,2.2,2.2,0,0,0,.51-.5l0,0a2.51,2.51,0,0,1-.51.52,3.9,3.9,0,0,1-.62.37c-.44.21-.89.39-1.32.61l-.66.32c-.22.1-.45.18-.68.27s-.47.11-.72.17-.48,0-.72.08l-.35,0-.34.08a3.48,3.48,0,0,0-.67.27c-.2.1-.4.25-.61.37a4.59,4.59,0,0,1-.66.35,2.67,2.67,0,0,1-.73.17l-.73,0c-.49,0-1,0-1.44.06v-.11h0Z"/><path class="cls-3" d="M53.69,29.6h0l-.11,0-.2-.5-.26-.5-.27-.49-.23-.53c-.06-.2-.09-.37-.13-.56s0-.4,0-.59a8.22,8.22,0,0,0,0-1.11c-.06-.75-.13-1.5-.2-2.25L52,20.86h0l.32,2.23c.09.75.17,1.5.25,2.24a10.73,10.73,0,0,1,0,1.13c0,.19,0,.37,0,.55a4.56,4.56,0,0,0,.13.53L53,28l.27.49.28.5.23.53-.11,0v0Z"/><path class="cls-3" d="M46.68,19.77h0l-.08-.09.48-.45c.16-.15.3-.32.45-.48s.25-.35.38-.53a3.86,3.86,0,0,0,.3-.57,3.76,3.76,0,0,0,.21-.62l.14-.64.07-.33.12-.32a3.8,3.8,0,0,1,.32-.6c.25-.37.54-.71.81-1.06a6.58,6.58,0,0,0,.38-.54l.16-.29.12-.3a3.48,3.48,0,0,0,.14-.64l0-.66,0-1.33h0v2a3,3,0,0,1-.14.66l-.11.31-.16.3a5.5,5.5,0,0,1-.38.56c-.27.35-.54.7-.78,1.06a4,4,0,0,0-.3.58l-.1.31-.07.32-.13.66a3,3,0,0,1-.21.64,3.45,3.45,0,0,1-.3.61c-.13.18-.24.38-.39.56s-.29.34-.44.5l-.48.47-.08-.08h0Z"/><path class="cls-3" d="M46.74,15.46v0h-.11a4.36,4.36,0,0,0-1.09-2.34c-.27-.35-.57-.69-.85-1A9.5,9.5,0,0,1,43.88,11c-.13-.19-.25-.38-.36-.58a5.7,5.7,0,0,1-.32-.6,5.76,5.76,0,0,1-.26-.62,3.69,3.69,0,0,1-.21-.64,5.23,5.23,0,0,1-.15-.66,4.92,4.92,0,0,1-.1-.67,12.12,12.12,0,0,1-.06-1.34h0c0,.44,0,.89.08,1.33,0,.23.08.45.11.67s.11.43.16.64S43,9,43,9.16a4.66,4.66,0,0,0,.28.6,5.54,5.54,0,0,0,.32.59,6.65,6.65,0,0,0,.36.56A10.55,10.55,0,0,0,44.81,12c.3.34.59.68.88,1a7.93,7.93,0,0,1,.77,1.12,3.23,3.23,0,0,1,.41,1.33h-.11v0Z"/><path class="cls-3" d="M39.55,10.67v0h-.11l.3-2.37.14-1.19A5.6,5.6,0,0,1,40,6.49c0-.19.07-.39.14-.58.13-.39.25-.76.35-1.15,0-.19.07-.38.08-.58s0-.39,0-.59c0-.4,0-.8-.05-1.19l0-1.2h0l.07,1.19c0,.4.07.8.07,1.2,0,.2,0,.4,0,.6s-.05.4-.07.6c-.09.39-.21.77-.32,1.15a3.51,3.51,0,0,0-.13.58,5.86,5.86,0,0,0-.1.58l-.12,1.19-.25,2.37h-.11v0Z"/><path class="cls-3" d="M40.28,13h0l0,.1-.64-.35-.62-.4-.56-.48-.47-.57c-.12-.23-.24-.43-.34-.65a4.52,4.52,0,0,1-.23-.71l-.16-.7-.08-.35L37,8.55a3.08,3.08,0,0,0-.36-.6c-.14-.19-.3-.37-.46-.55l-.48-.54-.22-.29-.2-.31a3.82,3.82,0,0,1-.4-1.4c-.06-.48-.07-1-.12-1.44h0c.06.48.08,1,.14,1.43a5.59,5.59,0,0,0,.15.71,3.08,3.08,0,0,0,.27.65l.19.3.23.28.48.53a6.09,6.09,0,0,1,.48.55,2.75,2.75,0,0,1,.39.63l.13.35.08.35.18.7a6.57,6.57,0,0,0,.22.67c.1.21.24.43.35.62l.45.54.55.45.6.37.64.34,0,.1h0Z"/><path class="cls-3" d="M30.81,11.68h0l-.05-.09.23-.16.2-.2c.13-.15.25-.32.39-.48s.15-.14.23-.22a1.78,1.78,0,0,1,.27-.17c.19-.1.38-.17.56-.27a1.28,1.28,0,0,0,.25-.15,1.12,1.12,0,0,0,.24-.19,2.13,2.13,0,0,0,.37-.46c.1-.17.19-.36.28-.54l.3-.54,0,0c-.1.18-.19.36-.28.55s-.16.37-.26.55a2.33,2.33,0,0,1-.38.51A1.07,1.07,0,0,1,33,10a2.4,2.4,0,0,1-.26.18c-.18.1-.38.18-.54.28a1.31,1.31,0,0,0-.24.17,1,1,0,0,0-.21.2c-.12.15-.24.33-.36.49s-.14.17-.22.24l-.27.2-.05-.1h0Z"/><path class="cls-3" d="M29,9.94h0l-.09-.06c.1-.18.21-.35.3-.54a5.89,5.89,0,0,0,.24-.58c.06-.2.14-.39.18-.59a4.44,4.44,0,0,0,.1-.62,3.11,3.11,0,0,0,0-.61l-.05-.3-.11-.29a5,5,0,0,0-.27-.57A5.07,5.07,0,0,1,29,5.2a2.34,2.34,0,0,1-.19-.62,1.65,1.65,0,0,1,.06-.66,10.1,10.1,0,0,1,.51-1.17c.09-.18.15-.39.23-.58s.12-.41.18-.61.07-.42.11-.62l0-.64h0l0,.64a6.37,6.37,0,0,1-.1.63,6.25,6.25,0,0,1-.16.62c-.08.2-.14.4-.23.6A7.38,7.38,0,0,0,29,4a1.52,1.52,0,0,0-.05.6,2.34,2.34,0,0,0,.2.58c.08.19.19.37.29.56a4.48,4.48,0,0,1,.29.58l.12.3.06.33a2.81,2.81,0,0,1,0,.65,3.4,3.4,0,0,1-.09.64c0,.21-.12.42-.17.63a6.14,6.14,0,0,1-.25.59,4.56,4.56,0,0,1-.3.58L29,9.94v0Z"/><path class="cls-3" d="M29.07,12.12l0,0,0,.11a2,2,0,0,1-.65-.55,4.19,4.19,0,0,1-.42-.7,7,7,0,0,1-.29-.76,3.59,3.59,0,0,1-.17-.79l-.19-1.58,0-.2-.06-.18a2.35,2.35,0,0,0-.14-.37l-.19-.33a3.71,3.71,0,0,0-.23-.32c-.31-.43-.6-.89-.88-1.34-.14-.22-.29-.44-.42-.68L25,3.71a15.76,15.76,0,0,1-.72-1.42L23.55.85l0,0,.72,1.43c.24.47.46,1,.73,1.41l.4.69c.13.23.28.45.43.67.29.45.57.89.9,1.31l.23.33.22.36a2,2,0,0,1,.14.37l.07.19,0,.2.21,1.59a4,4,0,0,0,.18.76,4.55,4.55,0,0,0,.3.72,3.14,3.14,0,0,0,.4.66,1.54,1.54,0,0,0,.56.46l0,.11h0Z"/><path class="cls-3" d="M22.6,9.47v0h-.11c0-.42,0-.85,0-1.27,0-.2,0-.41,0-.62s-.07-.41-.12-.6a4.39,4.39,0,0,0-.24-.58,5.74,5.74,0,0,0-.32-.53c-.24-.35-.51-.68-.76-1a1.24,1.24,0,0,1-.17-.27,1.32,1.32,0,0,1-.15-.29,2.07,2.07,0,0,1-.12-.64c0-.22,0-.43,0-.64a3.18,3.18,0,0,0-.07-.62,3.72,3.72,0,0,0-.2-.59L20,1.2c-.1-.19-.19-.38-.28-.58L19.6.32,19.53,0h0l.08.31.11.29c.09.19.18.38.28.57s.2.37.3.56a4.44,4.44,0,0,1,.22.61,3.4,3.4,0,0,1,.09.64c0,.21,0,.42,0,.63a1.94,1.94,0,0,0,.13.6,2.43,2.43,0,0,0,.14.28,2,2,0,0,0,.18.25c.25.34.52.66.77,1a6.37,6.37,0,0,1,.35.55,4.16,4.16,0,0,1,.25.59c.07.22.1.43.15.64s.05.43.07.64c0,.43,0,.86,0,1.28h-.11v0Z"/><path class="cls-3" d="M17.75,23.18h0l-.08-.08c.29-.26.55-.53.86-.77L19,22a2.26,2.26,0,0,1,.49-.31.9.9,0,0,0,.4-.34,1.49,1.49,0,0,0,.19-.51c0-.18.06-.37.08-.56a5.86,5.86,0,0,1,.1-.58c.06-.2.14-.36.21-.54s.16-.35.24-.53.15-.35.22-.53a3.35,3.35,0,0,0,.16-.54,3.72,3.72,0,0,0,.08-.57c0-.19,0-.38,0-.57l0-.58c0-.19.06-.38.09-.57h0c0,.19-.06.37-.08.56l0,.58a5.62,5.62,0,0,1,0,.58,3.68,3.68,0,0,1-.06.57,5.29,5.29,0,0,1-.15.57l-.21.54c-.08.17-.16.34-.23.52s-.15.37-.19.54c-.09.36-.09.75-.16,1.13a1.67,1.67,0,0,1-.2.58,1.15,1.15,0,0,1-.45.4,2.25,2.25,0,0,0-.47.31l-.44.37c-.29.24-.55.52-.83.79l-.08-.08h0Z"/><path class="cls-3" d="M22.48,26h0l0-.1c.1-.08.23-.11.32-.22a2.5,2.5,0,0,0,.27-.29,3.64,3.64,0,0,0,.45-.7,5.92,5.92,0,0,0,.32-.77,1.82,1.82,0,0,0,.11-.4A2.52,2.52,0,0,0,24,23.1a7.85,7.85,0,0,0,0-.84c0-.14,0-.28,0-.43a2.84,2.84,0,0,1,.05-.42,2.07,2.07,0,0,1,.08-.42c0-.14.07-.28.11-.41s.18-.54.27-.81h0c-.09.27-.17.54-.25.81s-.06.28-.09.41a2,2,0,0,0-.07.42,3,3,0,0,0,0,.42c0,.14,0,.28,0,.42s0,.57,0,.85a2.1,2.1,0,0,1-.05.43A2.58,2.58,0,0,1,24,24a5.64,5.64,0,0,1-.31.81,4.3,4.3,0,0,1-.45.74,2.28,2.28,0,0,1-.29.33,1.74,1.74,0,0,1-.38.27l0-.1h0Z"/><path class="cls-3" d="M23.15,28.35h0v.11a4.15,4.15,0,0,1-1,0,1.26,1.26,0,0,1-.48-.2,1.54,1.54,0,0,1-.36-.36l-.57-.77c-.1-.13-.19-.26-.28-.4a2.22,2.22,0,0,1-.25-.42,2.57,2.57,0,0,1-.2-.45,2.7,2.7,0,0,1-.09-.48,2.21,2.21,0,0,0-.08-.46,1.25,1.25,0,0,0-.22-.41,8.87,8.87,0,0,1-.64-.72,1.4,1.4,0,0,1-.22-.44,1.92,1.92,0,0,1-.07-.48h0a1.85,1.85,0,0,0,.08.47,1.47,1.47,0,0,0,.22.41c.19.25.44.46.65.7a1.24,1.24,0,0,1,.25.43,2.77,2.77,0,0,1,.11.48,2.34,2.34,0,0,0,.09.46,3.36,3.36,0,0,0,.2.43,4.37,4.37,0,0,0,.25.4c.09.13.19.25.29.38l.59.76a1.3,1.3,0,0,0,.32.3,1.21,1.21,0,0,0,.41.16,4.21,4.21,0,0,0,.94,0v.11h0Z"/><path class="cls-3" d="M15.59,22.36h0l-.05.1a2.06,2.06,0,0,1-.52-.37,1.55,1.55,0,0,1-.33-.55,3.4,3.4,0,0,1-.13-.6c0-.19-.06-.4-.11-.58a5.18,5.18,0,0,0-.17-.56,3.25,3.25,0,0,0-.23-.54c-.1-.18-.18-.35-.29-.52l-.32-.51-.64-1c-.21-.35-.42-.69-.6-1q-.15-.27-.27-.54c-.07-.19-.17-.37-.22-.56a5.54,5.54,0,0,1-.17-.58l-.09-.59h0l.1.59c.05.19.12.38.18.57a5.15,5.15,0,0,0,.23.54c.08.19.18.36.27.53.19.35.41.69.62,1l.67,1,.33.5c.11.16.21.35.31.52a5.45,5.45,0,0,1,.25.55,5.76,5.76,0,0,1,.18.59c.06.19.08.39.13.58a4.35,4.35,0,0,0,.13.57,1.39,1.39,0,0,0,.76.78l-.05.09h0Z"/><path class="cls-3" d="M15.94,49.61v0h-.11a5.36,5.36,0,0,0,0-1,5.54,5.54,0,0,0-.15-1,8.68,8.68,0,0,0-.3-1c-.11-.31-.24-.62-.37-.93s-.26-.62-.38-.93a4.59,4.59,0,0,1-.17-.48,2.92,2.92,0,0,1-.12-.49l-.08-.51,0-.51c0-.34,0-.68,0-1v-1c0-.33,0-.67,0-1-.07-.67-.1-1.34-.21-2l-.55-4h0l.6,4c.12.66.15,1.33.23,2a6.84,6.84,0,0,1,.05,1l0,1c0,.34,0,.67,0,1l0,.5.08.48a2.09,2.09,0,0,0,.13.49,2.51,2.51,0,0,0,.16.46c.13.31.26.62.4.93s.27.61.38.93a8.47,8.47,0,0,1,.32,1,4.94,4.94,0,0,1,.16,1,5.05,5.05,0,0,1,0,1H16v0Z"/><path class="cls-3" d="M10.67,46.14l0,0-.08.07-.27-.27a1.74,1.74,0,0,0-.29-.25,1.86,1.86,0,0,0-.32-.23,3.7,3.7,0,0,0-.33-.21c-.45-.27-.93-.51-1.38-.8l-.34-.22A3.88,3.88,0,0,1,7.33,44l-.08-.07,0,0,0,0L7,43.65a1.29,1.29,0,0,1-.19-.39l0-.21v-.21c0-.14,0-.27.06-.41s0-.26,0-.38,0-.26,0-.39l0,.06c-.17-.1-.33-.22-.51-.32s-.35-.18-.54-.25c-.37-.16-.77-.29-1.12-.48l-.27-.14-.26-.17L4,40.2,3.77,40a3,3,0,0,1-.46-.41c-.14-.14-.29-.29-.42-.44-.27-.31-.54-.6-.8-.91l-.39-.48c-.12-.15-.26-.3-.38-.47L1,36.79a4.46,4.46,0,0,1-.35-.5l-.62-1,0,0,.63,1c.11.17.24.33.36.5l.36.49c.11.16.25.31.38.47l.39.46c.26.31.55.6.82.9a4.37,4.37,0,0,0,.42.44,4.19,4.19,0,0,0,.45.39l.24.19.25.16.25.16.28.13c.36.19.73.31,1.11.47a4.75,4.75,0,0,1,.56.25,5.89,5.89,0,0,1,.54.32l0,0v0a2.81,2.81,0,0,1,0,.41c0,.14,0,.27,0,.4a2.6,2.6,0,0,0,0,.39V43l0,.18c0,.06,0,.1.06.16s0,.11.09.15l.13.15,0,0,0,0,.07.06.31.24.32.21c.45.28.93.51,1.39.78.12.06.23.14.35.21l.33.23a3.82,3.82,0,0,1,.32.27l.28.29-.08.07,0,0Z"/><path class="cls-3" d="M9.77,43.86l0,0-.1-.06c.26-.41.54-.8.81-1.19.13-.2.26-.4.38-.61a4.55,4.55,0,0,0,.3-.63,3.29,3.29,0,0,0,.17-.67v-.52l0-.18a13.37,13.37,0,0,0-.29-1.4c-.07-.23-.11-.47-.16-.7a5.93,5.93,0,0,1-.1-.72l-.08-.71a5.52,5.52,0,0,0-.11-.71l-.08-.35-.12-.33a5.44,5.44,0,0,0-.28-.66c-.1-.22-.23-.42-.34-.63l-.36-.62,0,0,.38.61c.11.21.24.41.35.63s.21.43.29.66l.13.34.09.35c.06.23.08.48.12.71l.09.72c0,.23.06.47.12.7s.1.47.16.7A11.08,11.08,0,0,1,11.49,40a3.54,3.54,0,0,1,0,.73,3.45,3.45,0,0,1-.18.72,3.11,3.11,0,0,1-.3.67,6.34,6.34,0,0,1-.37.62c-.27.41-.54.8-.78,1.2l-.1,0v0Z"/><path class="cls-3" d="M18.1,42.42h0L18,42.34a9.92,9.92,0,0,0,.59-.9,1.87,1.87,0,0,0,.2-.49,1.83,1.83,0,0,0,.09-.52L19,39.34c0-.37.06-.73.09-1.1a9.78,9.78,0,0,0,0-1.09,5.07,5.07,0,0,1,0-.55,3.32,3.32,0,0,1,.15-.54c.13-.34.33-.66.49-1a3.17,3.17,0,0,0,.2-.51c0-.09,0-.17.05-.26V34h0v.28c0,.09,0,.18,0,.28a3.63,3.63,0,0,1-.19.52c-.16.33-.34.64-.47,1a4.94,4.94,0,0,0-.13.52c0,.18,0,.36,0,.54a8.08,8.08,0,0,1,0,1.1c0,.37-.05.73-.06,1.09l0,1.1A2.61,2.61,0,0,1,19,41a2.25,2.25,0,0,1-.21.53,10,10,0,0,1-.58.95l-.09-.06h0Z"/><path class="cls-3" d="M17.38,39.55v0l-.11,0A3.28,3.28,0,0,0,17,39a5.33,5.33,0,0,0-.33-.55A7.9,7.9,0,0,1,16,37.3a2,2,0,0,1-.21-.64,3.88,3.88,0,0,1-.06-.67c0-.22,0-.44,0-.65a2.1,2.1,0,0,0-.15-.61,2.39,2.39,0,0,0-.32-.56,3.84,3.84,0,0,0-.44-.46c-.33-.3-.68-.55-1-.82l-.49-.44c-.15-.16-.29-.34-.43-.51s-.22-.38-.32-.58l-.24-.61,0,0,.24.61.33.56c.14.17.28.34.43.49l.5.43c.34.26.71.51,1,.8a3.55,3.55,0,0,1,.47.48,2.24,2.24,0,0,1,.35.57,2.15,2.15,0,0,1,.17.65c0,.23,0,.45,0,.67a3.29,3.29,0,0,0,.07.63,2.14,2.14,0,0,0,.21.6,8.11,8.11,0,0,0,.72,1.08c.12.18.25.37.36.57a2.85,2.85,0,0,1,.25.63l-.1,0v0Z"/><path class="cls-3" d="M20.26,44.88h-.11l.09-.39.16-.36c.11-.22.24-.44.35-.66,0-.05.06-.11.08-.16l.06-.17.12-.35c.08-.24.15-.48.22-.72v0h.14l-.05.06,0-1.49,0-1.49h0l.08,1.49,0,1.5v0h-.06l-.1,0,.05,0c-.06.24-.12.48-.19.72l-.11.36-.06.18a.89.89,0,0,1-.08.17c-.11.24-.23.45-.33.68l-.13.33-.07.34h-.13Z"/><path class="cls-3" d="M25.48,49.49l0,0-.07-.09c.24-.17.48-.33.69-.51a1.87,1.87,0,0,0,.72-1c0-.14.06-.27.06-.41a6.35,6.35,0,0,0-.07-.85l-.1-.87a6.47,6.47,0,0,1,0-.88,3.68,3.68,0,0,1,.14-.88c.11-.28.26-.54.38-.8a1.57,1.57,0,0,0,.2-.81,2.86,2.86,0,0,0-.22-.82c-.09-.27-.19-.55-.26-.83a3.74,3.74,0,0,1-.13-.88c0-.14,0-.29,0-.44L26.9,39a8.55,8.55,0,0,0,.14-.86l0-.43v-.44a8.09,8.09,0,0,0-.07-.86h0a8.52,8.52,0,0,1,.08.87v.44l0,.44c0,.29-.09.57-.13.86l-.06.43c0,.14,0,.29,0,.43a3.51,3.51,0,0,0,.14.85,7.86,7.86,0,0,0,.27.82,3,3,0,0,1,.24.86,1.85,1.85,0,0,1-.2.87c-.13.27-.26.52-.36.78a3.49,3.49,0,0,0-.13.84,8.12,8.12,0,0,0,0,.86l.12.87a6.12,6.12,0,0,1,.08.88,3.47,3.47,0,0,1-.06.45,2.05,2.05,0,0,1-.18.43,2.46,2.46,0,0,1-.59.69c-.22.19-.46.37-.7.54l-.06-.09h0Z"/><path class="cls-3" d="M30.33,36.37v0l-.1-.05a14.39,14.39,0,0,0,.7-1.49,4.48,4.48,0,0,0,.35-1.57c0-.26,0-.54-.05-.81s-.06-.55-.09-.82a3.38,3.38,0,0,1,0-.84c.05-.28.11-.56.17-.82a2.68,2.68,0,0,0,.05-.8,2.63,2.63,0,0,0-.23-.77c-.23-.49-.55-.95-.75-1.47a1.93,1.93,0,0,1-.12-.41,2.7,2.7,0,0,1-.07-.41,5.75,5.75,0,0,1,0-.83l0-.82a5.75,5.75,0,0,0,0-.83h0a5.71,5.71,0,0,1,0,.83l0,.82a4.47,4.47,0,0,0,0,.82,2,2,0,0,0,.07.41,1.86,1.86,0,0,0,.12.38c.2.51.53,1,.77,1.46a2.84,2.84,0,0,1,.26.81,3.38,3.38,0,0,1,0,.84c-.06.27-.11.54-.15.8a2.77,2.77,0,0,0,0,.41,1.8,1.8,0,0,0,0,.4c0,.27.09.55.11.82s.06.54.06.83a4.63,4.63,0,0,1-.34,1.65,12.92,12.92,0,0,1-.69,1.51l-.1,0v0Z"/><path class="cls-3" d="M32.25,38.94l0,0-.08-.08a10.45,10.45,0,0,0,1.34-1.32,5,5,0,0,0,.53-.77,3.91,3.91,0,0,0,.35-.85,4.71,4.71,0,0,0,.1-.92,3.6,3.6,0,0,1,.13-1,1.59,1.59,0,0,1,.62-.75c.28-.19.55-.34.82-.5a2.09,2.09,0,0,0,.64-.65,1.65,1.65,0,0,0,.16-.42l.07-.47,0-.47,0-.24.07-.23c.09-.3.16-.61.28-.91a5.94,5.94,0,0,0,.3-.9l.26-.91c.09-.31.15-.62.22-.93l.19-.93h0l-.18.93c-.07.31-.12.63-.21.93l-.24.92a7.4,7.4,0,0,1-.29.91,6.83,6.83,0,0,0-.27.91l-.06.22,0,.24,0,.47-.06.47a1.56,1.56,0,0,1-.17.47,2,2,0,0,1-.68.69c-.26.18-.54.33-.79.51a1.39,1.39,0,0,0-.56.69,3.44,3.44,0,0,0-.12.91,4.4,4.4,0,0,1-.08,1,4.54,4.54,0,0,1-.36.91,6.34,6.34,0,0,1-.54.81A10.84,10.84,0,0,1,32.35,39l-.07-.08,0,0Z"/><path class="cls-3" d="M44.35,42.18h0l-.09-.06.29-.38a2.58,2.58,0,0,1,.32-.34c.21-.23.45-.43.65-.65l.3-.33A1.92,1.92,0,0,0,46,40a4.38,4.38,0,0,0,.13-.43l.14-.44c.09-.29.18-.59.28-.88s.19-.59.31-.87l.18-.43c.07-.14.12-.28.19-.42l.48-.79,0,0-.46.8c-.07.14-.12.28-.18.43l-.17.42c-.11.29-.18.58-.28.88s-.17.59-.26.88l-.12.44a3.81,3.81,0,0,1-.13.45,1.74,1.74,0,0,1-.22.43l-.31.36c-.2.23-.44.44-.64.66s-.22.22-.3.34l-.25.37-.1-.06h0Z"/><path class="cls-3" d="M47.22,33.91h0l-.06-.1a1.69,1.69,0,0,0,.4-.4,2,2,0,0,0,.24-.53,3.72,3.72,0,0,0,.13-1.2,4.4,4.4,0,0,0-.23-1.19c-.15-.37-.35-.74-.5-1.13a2.67,2.67,0,0,1-.15-.62,2.22,2.22,0,0,1,0-.63c0-.41.1-.82.13-1.23a2.58,2.58,0,0,0,0-.62l0-.62-.05-1.24h0l.07,1.24,0,.62a2.58,2.58,0,0,1,0,.62c0,.42-.06.83-.1,1.24a2,2,0,0,0,0,.6,2.44,2.44,0,0,0,.15.59c.16.38.36.73.52,1.12a4.44,4.44,0,0,1,.27,1.24A3.91,3.91,0,0,1,48,32.93a2.21,2.21,0,0,1-.26.59,1.75,1.75,0,0,1-.46.48l-.06-.09h0Z"/><path class="cls-3" d="M21.35,8.5h0l.07.09a1.53,1.53,0,0,1-1.17.18,9.18,9.18,0,0,1-1.09-.31l-.54-.13a4,4,0,0,1-.55-.14c-.37-.13-.69-.32-1-.47l-1-.45c-.34-.15-.7-.22-1.06-.34-.18-.05-.35-.11-.53-.15a4.26,4.26,0,0,1-.54-.16,3.11,3.11,0,0,1-.53-.22,4.66,4.66,0,0,1-.47-.3l0,0c.16.09.31.21.48.29a4.65,4.65,0,0,0,.52.2,4.26,4.26,0,0,0,.54.14l.54.15c.36.11.73.18,1.08.32l1,.42c.35.15.68.33,1,.44a3,3,0,0,0,.54.13c.17,0,.37.07.55.12.37.1.72.22,1.08.28a1.22,1.22,0,0,0,1-.17l.07.09h0Z"/><path class="cls-3" d="M17.94,19.36v0l-.11,0c-.08-.36-.17-.71-.24-1.09L17.54,18s0-.08,0-.14v-.14a3.64,3.64,0,0,1,0-.57,2.45,2.45,0,0,0,0-.54,1,1,0,0,0-.17-.49c-.17-.31-.44-.58-.65-.89a2.19,2.19,0,0,1-.25-.51,4.81,4.81,0,0,1-.2-.53l-.19-.52a3.27,3.27,0,0,0-.22-.51,4.53,4.53,0,0,0-.27-.48l-.31-.47c-.1-.15-.19-.32-.29-.47s-.15-.35-.23-.52h0c.08.17.15.34.24.5s.19.31.3.47.21.3.31.46a2.92,2.92,0,0,1,.29.48,3.38,3.38,0,0,1,.24.51l.19.52c.07.18.13.35.21.52a2.77,2.77,0,0,0,.26.48c.2.3.47.56.68.89a1.17,1.17,0,0,1,.19.55,1.89,1.89,0,0,1,0,.58,3.21,3.21,0,0,0,0,.54v.14s0,.09,0,.13l.06.26c.07.36.18.72.27,1.09l-.11,0h0Z"/><path class="cls-3" d="M19.83,51.44h0l0,.1a9.27,9.27,0,0,1-1,.29,6.4,6.4,0,0,1-1.07.14,4.78,4.78,0,0,1-.53,0l-.27,0-.27-.06a7.93,7.93,0,0,1-1-.31,7.18,7.18,0,0,0-1-.33,3.16,3.16,0,0,0-.5-.1l-.53,0a2.24,2.24,0,0,0-.52,0l-.51.06c-.34.08-.69.13-1,.23l-.51.14a1.13,1.13,0,0,1-.55,0,2.26,2.26,0,0,1-.94-.51c-.28-.23-.53-.48-.8-.69s-.58-.4-.88-.59-.6-.36-.91-.53a10.33,10.33,0,0,0-1-.45,8.25,8.25,0,0,0-1-.34,7.23,7.23,0,0,0-1-.21v0a7.34,7.34,0,0,1,1,.2,7,7,0,0,1,1,.33c.33.13.64.29,1,.44s.62.34.92.53a10.44,10.44,0,0,1,.89.58c.28.22.54.46.81.68a2.31,2.31,0,0,0,.9.48,2.6,2.6,0,0,0,1-.17c.33-.11.69-.17,1-.25L13.1,51a2.44,2.44,0,0,1,.54,0l.53,0a3.1,3.1,0,0,1,.53.1,6.61,6.61,0,0,1,1,.32,6.75,6.75,0,0,0,1,.29l.25.06h.26c.17,0,.35,0,.52,0a7.17,7.17,0,0,0,1-.15c.34-.07.67-.19,1-.29l0,.1h0Z"/><path class="cls-3" d="M23,52.87v0l-.11,0a1.2,1.2,0,0,0-.09-.59,2,2,0,0,0-.32-.55,5,5,0,0,0-.44-.49c-.15-.17-.32-.3-.48-.46-.33-.31-.69-.56-1-.83s-.38-.24-.56-.39a1.42,1.42,0,0,1-.25-.24.68.68,0,0,1-.17-.31c-.07-.24-.06-.46-.11-.67a1.2,1.2,0,0,0-.35-.53c-.16-.14-.33-.28-.51-.41s-.37-.25-.54-.4a2.19,2.19,0,0,1-.48-.48,1.4,1.4,0,0,1-.28-.62,8.54,8.54,0,0,1-.09-1.34h0a9.67,9.67,0,0,0,.11,1.33,1.46,1.46,0,0,0,.28.59,2.51,2.51,0,0,0,.47.45c.35.27.75.49,1.09.8a1.23,1.23,0,0,1,.38.58c.06.22.06.46.12.65a.84.84,0,0,0,.06.14c0,.06.06.08.09.13a1.15,1.15,0,0,0,.23.21c.18.13.37.25.56.37.36.28.74.53,1.06.83.17.15.35.29.51.45s.31.33.46.51a2.22,2.22,0,0,1,.36.59,1.35,1.35,0,0,1,.11.72l-.1,0v0Z"/><path class="cls-3" d="M13.55,48.47h0l-.09-.05.13-.33c0-.12,0-.24,0-.36s0-.24-.05-.36a2.06,2.06,0,0,0-.12-.35,7.36,7.36,0,0,0-.33-.7c-.05-.11-.12-.23-.17-.35s-.11-.24-.14-.37l-.12-.37-.07-.39c-.05-.25-.08-.51-.12-.76s-.08-.51-.12-.77a2.55,2.55,0,0,1,0-.39,1.74,1.74,0,0,1,.05-.39h0a1.82,1.82,0,0,0,0,.76c0,.25.1.51.14.76s.09.51.14.76l.09.37.12.37a3.68,3.68,0,0,0,.15.35c.05.11.12.22.18.34s.25.45.36.69.09.25.14.38,0,.27.07.4,0,.28,0,.42l-.14.39-.1-.05h0Z"/><path class="cls-3" d="M32.25,55.61h0v-.11l1.33.16a9.67,9.67,0,0,0,1.31.07,3.66,3.66,0,0,0,.66,0,3.44,3.44,0,0,0,.64-.12,4.37,4.37,0,0,0,1.21-.48c.37-.22.73-.48,1.1-.74a5.63,5.63,0,0,1,1.17-.67,3,3,0,0,1,.67-.17l.67,0a12.09,12.09,0,0,1,1.34,0l1.33.09c.44,0,.87,0,1.32,0,.22,0,.44-.07.65-.1s.44-.07.65-.14A11.7,11.7,0,0,0,47.61,53c.41-.16.83-.32,1.25-.46s.84-.28,1.27-.41l1.26-.41c.42-.16.82-.36,1.22-.54l0,0c-.4.18-.8.38-1.22.55l-1.26.42c-.42.14-.85.26-1.27.42s-.83.31-1.24.48-.84.3-1.26.44a4.83,4.83,0,0,1-.66.14,5,5,0,0,1-.66.11,11.94,11.94,0,0,1-1.34,0c-.45,0-.89,0-1.33-.07s-.88-.06-1.33,0l-.66,0a2.72,2.72,0,0,0-.62.17,5.38,5.38,0,0,0-1.13.66c-.36.25-.72.52-1.11.76a5.05,5.05,0,0,1-1.25.51,5,5,0,0,1-.67.13A5,5,0,0,1,35,56a12.2,12.2,0,0,1-1.35-.06l-1.32-.15v-.11h0Z"/><path class="cls-3" d="M34.08,53.86v0l-.11,0a11.93,11.93,0,0,0,.38-1.54,7,7,0,0,0,.06-.79,5.1,5.1,0,0,0,0-.78,4.71,4.71,0,0,0-.2-.76,2.73,2.73,0,0,0-.34-.71A14.9,14.9,0,0,1,33,47.88a2.5,2.5,0,0,1-.15-.38,2.93,2.93,0,0,1-.07-.41,7.3,7.3,0,0,1,0-.81c0-.27.07-.54.12-.8a7.27,7.27,0,0,0,.14-.79,5.31,5.31,0,0,0,.09-.79c0-.27,0-.54,0-.81a4.34,4.34,0,0,1,.13-.79,2.55,2.55,0,0,1,.13-.39c.05-.12.12-.24.18-.36l0,0a3.84,3.84,0,0,0-.18.35,2.78,2.78,0,0,0-.12.38,4.18,4.18,0,0,0-.11.79c0,.26,0,.53,0,.8a7,7,0,0,1-.08.8c0,.27-.08.53-.12.8a7,7,0,0,0-.11.78,5.34,5.34,0,0,0,0,.8,2.79,2.79,0,0,0,.07.38c0,.12.09.24.14.36.24.47.6.86.9,1.33a3.1,3.1,0,0,1,.36.73,4.18,4.18,0,0,1,.21.79,4.42,4.42,0,0,1,.06.81,7.37,7.37,0,0,1,0,.82,12.05,12.05,0,0,1-.36,1.58l-.1,0v0Z"/><path class="cls-3" d="M35.84,50.26h0l-.06-.09,2.67-1.88.67-.47a4.54,4.54,0,0,1,.69-.45,1.44,1.44,0,0,1,.84-.13c.28.05.54.13.8.19a11,11,0,0,0,3.23.33c.27,0,.54-.06.8-.1a6.39,6.39,0,0,0,.78-.22l.38-.16.35-.19.34-.23.31-.27,0,0-.3.27-.34.24-.36.2-.37.17a7.15,7.15,0,0,1-.79.23c-.27.05-.54.09-.82.12a11.19,11.19,0,0,1-3.26-.28,7.43,7.43,0,0,0-.79-.17,1.17,1.17,0,0,0-.74.12,4.07,4.07,0,0,0-.67.44l-.66.48-2.64,1.93-.07-.09h0Z"/></g></g></g></g></svg>