<svg xmlns="http://www.w3.org/2000/svg" viewBox="0 0 90.05 104.28"><defs><style>.cls-1{isolation:isolate;}.cls-2{mix-blend-mode:overlay;}.cls-3{fill:#2e2e2e;}</style></defs><g class="cls-1"><g id="Layer_2" data-name="Layer 2"><g id="Layer_1-2" data-name="Layer 1"><g class="cls-2"><path class="cls-3" d="M48,104.28v-.16H46.83l0-16.65v-.2l.06-.16,1.67-4.93,0,.26.4-6v.23l-.8-4.54-.05-.27.1-.24,1.66-3.86,0,.59L48.44,64l0-.11V63.8l-.17-3.88.05.22L47.13,57l0-.1v-.1l-.18-2.91,0,.16-.52-1.62-.05-.17,0-.16.46-2.36v.18l-.19-1.83V48l0-.09.68-3v.06L47.58,43v.14l-.39-2.8.07.2a2,2,0,0,1-.31-.89,1.86,1.86,0,0,1,.15-.92,8,8,0,0,1,.8-1.27,3.37,3.37,0,0,0,.31-.54,1.42,1.42,0,0,0,.09-.27l.11-.35c.14-.46.29-.91.45-1.36A25.13,25.13,0,0,1,50,32.29a4.78,4.78,0,0,1,.38-.65,3.42,3.42,0,0,1,.5-.59,5.71,5.71,0,0,0,.67-1.12,4.14,4.14,0,0,1,.42-.64,3.52,3.52,0,0,1,.56-.54,8.87,8.87,0,0,1,1.21-.82,18,18,0,0,1,2.61-1.19,14.41,14.41,0,0,0,2.52-1.13,3.55,3.55,0,0,0,1-.89,3.2,3.2,0,0,0,.53-1.19v-.06l.08-.08.2-.2.23-.23.45-.47.9-.95.9-.94.46-.47.24-.23a1.42,1.42,0,0,1,.3-.26l.18.39-.18.18-.23.22-.46.47-.89.94-.9.95-.45.47-.23.24c-.09.08-.14.15-.27.26l.09-.14A3.76,3.76,0,0,1,60.19,25a4.11,4.11,0,0,1-1.08,1,15.3,15.3,0,0,1-2.58,1.25,16.45,16.45,0,0,0-2.5,1.2,7.86,7.86,0,0,0-1.1.79,2.53,2.53,0,0,0-.78,1,6.41,6.41,0,0,1-.76,1.3,2.8,2.8,0,0,0-.41.49c-.11.18-.21.38-.31.58a22.18,22.18,0,0,0-1,2.58c-.14.44-.28.89-.4,1.33l-.09.33a2.32,2.32,0,0,1-.13.4,4.19,4.19,0,0,1-.37.7A7.62,7.62,0,0,0,48,39.1a.87.87,0,0,0,.11.88l.06.09,0,.11.46,2.8v.14l-.19,1.94v.06l-.61,3V48l.24,1.83v.08l0,.1-.4,2.38,0-.33.55,1.61,0,.08v.09l.25,2.91,0-.2,1.22,3.11,0,.1v.12L50,63.71l0-.2,1.45,4.29.1.29-.12.3-1.57,3.9,0-.51.92,4.51,0,.1v.13l-.25,6v.12l0,.15L49,87.8l0-.35.41,16.65H48.23v.16Z"/><path class="cls-3" d="M49.48,83l0-.08L49,82.73A7.91,7.91,0,0,1,50,80.79a3.71,3.71,0,0,1,.92-.8,2.73,2.73,0,0,1,.54-.27l.16-.06.12,0,.24-.08,1-.31L54,79c.68-.18,1.33-.34,2-.49l-.38.31,1.56-3.43.11-.25.27,0,4.21-.62-.36.26,1.21-2.46.09-.2.2-.05L66,71.25l-.28.28.52-1.81,0-.18.17-.06,1.13-.43a10.16,10.16,0,0,1,1.18-.35l.29-.06a1.19,1.19,0,0,0,.22-.08,3.67,3.67,0,0,0,.48-.25,6.64,6.64,0,0,0,.9-.68l-.08.13.94-2.86.06-.15.14,0,3.52-.92-.16.15a11.94,11.94,0,0,1,1.39-2.43,9.19,9.19,0,0,1,.93-1c.33-.32.67-.62,1-.94.65-.64,1.29-1.29,1.88-2,.15-.17.29-.34.43-.52s.29-.35.42-.54l.39-.56.34-.58.19.1-.34.61-.38.57c-.13.2-.28.37-.41.56l-.43.54c-.59.71-1.21,1.38-1.86,2l-1,1a8.54,8.54,0,0,0-.86,1,11.4,11.4,0,0,0-1.26,2.36l0,.11-.11,0-3.49,1,.2-.19L71.21,68l0,.08-.06,0a6.78,6.78,0,0,1-1,.79,4.27,4.27,0,0,1-.56.31l-.34.12-.29.07c-.35.09-.73.22-1.09.35l-1.09.44.22-.24-.49,1.82,0,.21-.23.06-3.11.85.29-.24-1.16,2.49-.11.22-.25,0-4.2.68.38-.3L56.6,79.22l-.1.25-.27.07c-.65.17-1.31.34-1.94.53l-.95.28-1,.33-.24.08-.12,0-.07,0a1.55,1.55,0,0,0-.36.19,2.16,2.16,0,0,0-.59.54,6.82,6.82,0,0,0-.84,1.64L49.61,83l0,.08Z"/><path class="cls-3" d="M49.9,79.54v-.09l-.59,0a.53.53,0,0,0,0-.13.89.89,0,0,0-.07-.19,1.72,1.72,0,0,0-.26-.38,4.74,4.74,0,0,0-.8-.74,9.42,9.42,0,0,0-1-.64l-.51-.29-.52-.26L46,76.78l-.09-.14c-.48-.73-.94-1.47-1.39-2.22s-.88-1.53-1.26-2.34l.53.31a5.43,5.43,0,0,1-.57,0,2.63,2.63,0,0,1-.55-.09,3.52,3.52,0,0,1-1-.43,4,4,0,0,1-.86-.67,4.48,4.48,0,0,1-.36-.4l-.17-.22c0-.07-.1-.14-.16-.24l.27.22-3.5-1.29-.11,0-.07-.08-2.18-2.36.18.11c-.61-.22-1.2-.44-1.78-.7-.3-.13-.59-.26-.88-.42a4.65,4.65,0,0,1-.87-.55,1.4,1.4,0,0,1-.36-.49l-.21-.42c-.14-.28-.27-.58-.41-.87l-.77-1.73.25.2-4.43-.81-.12,0L25,61l-3.38-5.11.05,0-5-4.13-.07-.06v-.08a10.2,10.2,0,0,0-.2-2.27,5.76,5.76,0,0,0-.84-2.1l.17-.12a5.72,5.72,0,0,1,.94,2.16A10.77,10.77,0,0,1,17,51.65l-.07-.14,5,4,0,0,0,0,3.48,5-.19-.13,4.44.72.18,0,.08.17.8,1.69c.14.28.26.55.41.83l.22.41a.6.6,0,0,0,.19.27,3.62,3.62,0,0,0,.73.44c.27.13.55.26.83.37.57.24,1.16.45,1.74.64l.1,0,.07.08,2.23,2.32-.18-.11,3.52,1.21.15.05.12.17.11.16a1.83,1.83,0,0,0,.13.16c.09.11.19.21.29.31a3.21,3.21,0,0,0,.68.5,2.56,2.56,0,0,0,.75.3,2.76,2.76,0,0,0,.4.06c.13,0,.27,0,.4,0h.38l.15.3c.37.74.8,1.48,1.25,2.21s.92,1.44,1.41,2.14l-.26-.21.59.28.57.3a10.59,10.59,0,0,1,1.09.7,6.17,6.17,0,0,1,1,.91,2.84,2.84,0,0,1,.43.62,1.63,1.63,0,0,1,.17.38,1.51,1.51,0,0,1,.09.47l-.59,0v.09Z"/><path class="cls-3" d="M48.94,59.9l0-.06-.49.32a8.45,8.45,0,0,0-1.61-1.74c-.62-.53-1.3-1-2-1.57a13.32,13.32,0,0,1-2-1.81,6.56,6.56,0,0,1-.79-1.18,4.77,4.77,0,0,1-.4-1.36A4.85,4.85,0,0,0,41,50.27a6,6,0,0,0-1.9-1.36c-.19-.12-.38-.24-.57-.38l-.3-.23L38,48.08a5.29,5.29,0,0,1-.46-.56,4.54,4.54,0,0,1-.36-.6,22.91,22.91,0,0,1-.89-2.44A4,4,0,0,0,35,42.61,14.55,14.55,0,0,1,32.89,41a4.38,4.38,0,0,1-.79-1.14,7.4,7.4,0,0,1-.44-1.25A14.47,14.47,0,0,0,31,36.18c-.62-1.57-1.43-3.08-2.1-4.66a12.91,12.91,0,0,1-1.19-5h.21a13,13,0,0,0,1.3,4.86c.71,1.54,1.56,3,2.23,4.62a16.35,16.35,0,0,1,.77,2.47,6.42,6.42,0,0,0,.43,1.15,3.9,3.9,0,0,0,.7.94,13.75,13.75,0,0,0,2,1.48A4.72,4.72,0,0,1,37,44.2c.34.82.55,1.65.92,2.34a3.94,3.94,0,0,0,.31.48,2.86,2.86,0,0,0,.37.42l.24.22s.13.11.21.15.33.21.5.31a6.54,6.54,0,0,1,2.24,1.58A3.63,3.63,0,0,1,42.43,51c.12.46.17.89.25,1.29A4.15,4.15,0,0,0,43,53.39a5.12,5.12,0,0,0,.67.92,11.91,11.91,0,0,0,1.83,1.61c.67.51,1.38,1,2.06,1.56a9.63,9.63,0,0,1,1.9,2l-.5.33.05.06Z"/><path class="cls-3" d="M48,42.26l0-.1-.43.08c-.5-2.69-1.24-5.34-1.81-8.07a17.69,17.69,0,0,1-.32-2.1,4.56,4.56,0,0,1,0-1.16,4.81,4.81,0,0,1,.14-.54,4.72,4.72,0,0,1,.18-.53c.27-.68.62-1.28.89-1.89a4.4,4.4,0,0,0,.5-1.82,17,17,0,0,0-.11-2c-.07-.68-.17-1.36-.25-2.05s-.16-1.38-.2-2.08-.09-1.38-.16-2.05-.15-1.38-.19-2.07-.07-1.38-.17-2c-.19-1.35-.52-2.71-.61-4.1h.18c.14,1.36.52,2.69.76,4.06.12.69.16,1.39.24,2.07s.17,1.35.26,2,.17,1.38.24,2.07.15,1.35.26,2,.23,1.36.33,2.05A18.58,18.58,0,0,1,48,26.13a5.39,5.39,0,0,1-.5,2.16c-.27.66-.59,1.26-.81,1.88a3.88,3.88,0,0,0-.14.45,4.24,4.24,0,0,0-.1.47,3.89,3.89,0,0,0,0,.91,16,16,0,0,0,.32,2c.57,2.67,1.32,5.34,1.82,8.08l-.43.08v.1Z"/><path class="cls-3" d="M47.12,53.23l0-.07-.4-.21a4.57,4.57,0,0,1,1.05-1.26,4.9,4.9,0,0,1,.67-.45,5.12,5.12,0,0,1,.71-.34,14.88,14.88,0,0,1,1.43-.47A7.1,7.1,0,0,0,51.9,50a1.1,1.1,0,0,0,.25-.17l.1-.08.13-.13a4.51,4.51,0,0,0,.47-.52,10,10,0,0,0,.84-1.13,21,21,0,0,0,1.43-2.48l.09-.2.23,0a6.85,6.85,0,0,0,.78-.07c.27,0,.53-.09.79-.14a15.63,15.63,0,0,0,1.56-.46l-.14.12,2.48-3.6L61,41h.13a13.66,13.66,0,0,0,3.61-.62,5.46,5.46,0,0,0,.81-.38,2.76,2.76,0,0,0,.64-.59,12.81,12.81,0,0,0,1-1.56,7.05,7.05,0,0,1,1.1-1.57c.25-.23.49-.4.74-.6l.74-.58c.5-.38,1-.76,1.47-1.16q.34-.3.69-.63c.23-.2.43-.44.65-.66l.12.1c-.22.23-.41.48-.64.7s-.45.44-.69.65q-.7.61-1.44,1.2l-.72.59a8.5,8.5,0,0,0-.7.61,6.67,6.67,0,0,0-1,1.51,12,12,0,0,1-1,1.64,3.37,3.37,0,0,1-.72.69,4.47,4.47,0,0,1-.88.43,10.13,10.13,0,0,1-1.85.5,14.79,14.79,0,0,1-1.89.24l.2-.11L58.94,45l0,.08-.09,0a16.12,16.12,0,0,1-1.62.53c-.28.07-.56.14-.85.19a8.08,8.08,0,0,1-.86.11l.32-.21a22.72,22.72,0,0,1-1.43,2.61,12.63,12.63,0,0,1-.88,1.23,4.74,4.74,0,0,1-.5.57l-.12.13-.18.16a2.5,2.5,0,0,1-.36.24,6.89,6.89,0,0,1-1.44.58c-.47.15-.92.29-1.34.47-.21.09-.4.19-.6.3a4.21,4.21,0,0,0-.53.38,2.4,2.4,0,0,0-.44.46,3.74,3.74,0,0,0-.35.53l-.39-.21,0,.06Z"/><path class="cls-3" d="M39.8,48.7l0-.05-.21-.2a1.94,1.94,0,0,0,.31-1.51c-.06-.59-.21-1.19-.28-1.83a3.3,3.3,0,0,1,.29-2c.28-.59.74-1.08.73-1.57a11,11,0,0,0-.55-1.7,2.45,2.45,0,0,1-.07-1,3.63,3.63,0,0,1,.29-1l.17-.42a3.06,3.06,0,0,0,.1-.41,2.88,2.88,0,0,0,0-.88,17.59,17.59,0,0,0-.31-1.81,7.46,7.46,0,0,1-.11-1c0-.32,0-.63,0-.93a8.68,8.68,0,0,0-.37-1.78,17.75,17.75,0,0,1-.52-1.8,9.91,9.91,0,0,1-.16-1.87c0-.31,0-.62-.07-.92a9.07,9.07,0,0,0-.14-.91c-.1-.61-.25-1.21-.41-1.81-.32-1.19-.71-2.37-1.05-3.57l.1,0c.36,1.19.77,2.36,1.12,3.55a18.6,18.6,0,0,1,.45,1.82,7.06,7.06,0,0,1,.15.92,6.1,6.1,0,0,1,.09.94,9.94,9.94,0,0,0,.19,1.82c.14.6.35,1.18.54,1.77a7.55,7.55,0,0,1,.42,1.85c0,.32,0,.63,0,.93a5.55,5.55,0,0,0,.12.9c.11.6.29,1.2.35,1.85a3.59,3.59,0,0,1,0,1,4.31,4.31,0,0,1-.11.49l-.17.44a2.3,2.3,0,0,0-.17,1.66,2.67,2.67,0,0,0,.15.42c0,.13.11.28.17.42a2.87,2.87,0,0,1,.28,1,2,2,0,0,1-.31,1c-.16.28-.32.53-.44.8A2.74,2.74,0,0,0,40.24,45c.08.58.24,1.19.31,1.84a2.54,2.54,0,0,1-.45,2l-.22-.21,0,.05Z"/><path class="cls-3" d="M35.43,42.61l0,0,.24.37c-.31.2-.63.4-1,.59a2.89,2.89,0,0,1-1.22.43,1.54,1.54,0,0,1-.76-.12,1.78,1.78,0,0,1-.58-.41,2.63,2.63,0,0,1-.4-.51l-.14-.23-.15-.23a1.48,1.48,0,0,0-.28-.28,1.19,1.19,0,0,0-.36-.17,2.5,2.5,0,0,0-.94,0c-.35.06-.72.14-1.11.19a3.86,3.86,0,0,1-.6,0,3.34,3.34,0,0,1-.62-.06l-.2,0-.07-.17L27,41.45l-.22-.51.28.17-2-.06h-.24l0-.25a2.46,2.46,0,0,0-.37-.93,2.34,2.34,0,0,0-.74-.69c-.61-.38-1.35-.65-2-1.12a7.51,7.51,0,0,1-.88-.78,9.66,9.66,0,0,0-.85-.73c-.59-.45-1.23-.86-1.87-1.29-.32-.2-.63-.43-.94-.65s-.61-.48-.89-.74c-.58-.54-1.07-1.11-1.59-1.67s-1-1.11-1.59-1.62c-.28-.27-.54-.54-.84-.78l-.87-.73.1-.13.9.72c.3.23.58.5.86.75.57.51,1.1,1.06,1.64,1.6l.8.82c.26.28.54.53.82.78a9.9,9.9,0,0,0,.88.69c.31.21.62.43.95.63.64.4,1.29.79,1.92,1.25a11.26,11.26,0,0,1,.91.74,8.8,8.8,0,0,0,.84.71c.6.41,1.31.65,2,1.05a3.11,3.11,0,0,1,.95.83,3.41,3.41,0,0,1,.5,1.16l-.3-.26h2.21l.08.18.28.62.22.55-.26-.21a2.42,2.42,0,0,0,.47,0,2.94,2.94,0,0,0,.51,0c.34-.05.69-.14,1.07-.21a3.1,3.1,0,0,1,1.26,0,1.71,1.71,0,0,1,.65.28,2.38,2.38,0,0,1,.51.49l.16.23.15.23a2.2,2.2,0,0,0,.3.36,1,1,0,0,0,.31.22.72.72,0,0,0,.33,0,2.39,2.39,0,0,0,.84-.35c.29-.17.6-.38.91-.58l.24.37,0,0Z"/><path class="cls-3" d="M32.47,65.74v0l-.29-.06.09-.72,0-.37,0-.36c0-.25,0-.49,0-.74l-.12-.73c-.09-.5-.22-1-.32-1.49s-.2-1-.31-1.5a6.61,6.61,0,0,0-.44-1.41,4.45,4.45,0,0,0-.35-.64l-.4-.66a12.12,12.12,0,0,1-.71-1.39L29,54.24A10.11,10.11,0,0,0,28.2,53l-.91-1.22a10.66,10.66,0,0,1-.8-1.33l-.69-1.36-.6-1.42a14.77,14.77,0,0,1-.53-1.45,14.56,14.56,0,0,1-.46-1.46l-.39-1.49.11,0,.41,1.47c.13.49.32,1,.49,1.45s.34,1,.56,1.41L26,48.93l.72,1.35a11.1,11.1,0,0,0,.81,1.28l.95,1.21a10.38,10.38,0,0,1,.85,1.3L30,55.46c.1.23.22.45.33.67a7.3,7.3,0,0,0,.37.66l.41.63a4.86,4.86,0,0,1,.4.7A6.41,6.41,0,0,1,32,59.61c.12.51.21,1,.34,1.5s.26,1,.35,1.5l.15.77c0,.26,0,.53.06.79l0,.4,0,.4-.08.8-.29-.06v0Z"/><path class="cls-3" d="M27.88,61.29l0,.05.26.15a1.63,1.63,0,0,1-.67.63,1.84,1.84,0,0,1-.87.2A4.82,4.82,0,0,1,25,62c-1-.33-1.88-.81-2.79-1.2a3.74,3.74,0,0,0-.67-.22,1.49,1.49,0,0,0-.63,0c-.23.05-.47.14-.75.18a1.33,1.33,0,0,1-.21,0h-.22a2.49,2.49,0,0,1-.42-.06A4.84,4.84,0,0,1,17.93,60a2.17,2.17,0,0,0-1.3-.4,8.8,8.8,0,0,0-1.45.28,3.37,3.37,0,0,1-1.58,0,3.59,3.59,0,0,1-1.33-.84,10.25,10.25,0,0,0-1.14-1,7.76,7.76,0,0,0-2.79-1,20.07,20.07,0,0,0-3-.2v-.1a19.07,19.07,0,0,1,3,.11,8.38,8.38,0,0,1,2.91.92,11.39,11.39,0,0,1,1.2,1,3.31,3.31,0,0,0,1.22.74l.33.06a2.14,2.14,0,0,0,.36,0,4.48,4.48,0,0,0,.72-.11,10.85,10.85,0,0,1,1.51-.32,2.63,2.63,0,0,1,1.54.42,4.8,4.8,0,0,0,1.27.68,2.5,2.5,0,0,0,1.36-.19,2.07,2.07,0,0,1,.86,0,5.78,5.78,0,0,1,.77.24c.95.39,1.84.84,2.77,1.14a4,4,0,0,0,1.37.25,1.11,1.11,0,0,0,1-.53l.25.14,0-.05Z"/><path class="cls-3" d="M53.37,48.91l0,0,.2-.21a1.66,1.66,0,0,0,1,.43A4.13,4.13,0,0,0,55.88,49a8.79,8.79,0,0,0,2.4-1.09,2.51,2.51,0,0,1,1.4-.5,1.48,1.48,0,0,1,.74.29,2.16,2.16,0,0,1,.52.53.43.43,0,0,0,.41.21l.29,0a1.24,1.24,0,0,0,.29-.1,12.67,12.67,0,0,1,1.23-.63,2,2,0,0,1,1.44.23,2.35,2.35,0,0,0,.6.2,3.55,3.55,0,0,0,.65,0c.88,0,1.75-.36,2.68-.4.48,0,.93.07,1.38.07a6.71,6.71,0,0,0,1.33-.12,11.86,11.86,0,0,0,1.31-.31l1.32-.37,0,.1-1.3.4c-.43.13-.87.27-1.32.36a7,7,0,0,1-1.38.15c-.45,0-.91-.08-1.34,0-.89.06-1.74.42-2.69.47a4.18,4.18,0,0,1-.71,0,2.52,2.52,0,0,1-.69-.21,4.83,4.83,0,0,0-.6-.21,1.18,1.18,0,0,0-.59,0c-.38.13-.73.43-1.17.64a1.37,1.37,0,0,1-.35.13,2.63,2.63,0,0,1-.39.06.84.84,0,0,1-.43-.08,1,1,0,0,1-.33-.27,2,2,0,0,0-.43-.44,1,1,0,0,0-.52-.19,2,2,0,0,0-1.09.45A8.94,8.94,0,0,1,56,49.58a4.29,4.29,0,0,1-1.44.19,2.23,2.23,0,0,1-1.44-.58l.21-.21,0,0Z"/><path class="cls-3" d="M58.23,44.84v0l-.3,0,0-2.6-.11-2.65A4.38,4.38,0,0,1,58,38.16a4,4,0,0,1,.62-1.24,10.85,10.85,0,0,1,.87-1,7.3,7.3,0,0,0,.8-1,4.06,4.06,0,0,0,.5-1.15,6.69,6.69,0,0,0,.13-1.28,5.13,5.13,0,0,1,.17-1.34,2.77,2.77,0,0,1,.67-1.19,9.12,9.12,0,0,1,1-.87l1-.82c.35-.27.65-.59,1-.88s.56-.66.84-1l.09.06c-.28.34-.53.71-.83,1s-.62.64-1,.91l-1,.85a8.09,8.09,0,0,0-1,.88,2.58,2.58,0,0,0-.59,1.09,4.93,4.93,0,0,0-.12,1.28,6.86,6.86,0,0,1-.11,1.34,4.55,4.55,0,0,1-.5,1.28,8.89,8.89,0,0,1-.82,1.07,9.43,9.43,0,0,0-.81,1,3.24,3.24,0,0,0-.53,1.11,3.88,3.88,0,0,0-.13,1.24l.17,2.62.06,2.67-.3,0v0Z"/><path class="cls-3" d="M57.8,75.76v0l-.26-.13c.2-.4.4-.81.58-1.21a7.2,7.2,0,0,0,.41-1.24l.06-.32,0-.32a3.32,3.32,0,0,0,0-.63,4.24,4.24,0,0,0-.31-1.25,13.47,13.47,0,0,1-1-2.58,2.29,2.29,0,0,1,.16-1.47,3.69,3.69,0,0,1,.41-.59l.21-.25a1.27,1.27,0,0,1,.14-.24,4.05,4.05,0,0,0,.13-1.3,5.87,5.87,0,0,1,.16-1.39,23.94,23.94,0,0,0,.6-2.65c0-.44,0-.9,0-1.36a5.68,5.68,0,0,1,.29-1.36A7.1,7.1,0,0,1,60,56.18a12.59,12.59,0,0,1,.78-1.13l.08.06c-.26.37-.51.75-.73,1.14a5.82,5.82,0,0,0-.54,1.23,5.49,5.49,0,0,0-.25,1.32c0,.45,0,.9,0,1.37a23.28,23.28,0,0,1-.54,2.69,5.9,5.9,0,0,0-.12,1.32,4.11,4.11,0,0,1-.11,1.4,2.25,2.25,0,0,1-.4.65,2.9,2.9,0,0,0-.36.53,1.87,1.87,0,0,0-.08,1.2,13.27,13.27,0,0,0,1.05,2.46,5.12,5.12,0,0,1,.38,1.39,2.9,2.9,0,0,1,0,.72l0,.37-.07.35a6.9,6.9,0,0,1-.41,1.36c-.17.44-.36.85-.56,1.27l-.27-.13v0Z"/><path class="cls-3" d="M67,69.71l0,0,.11-.28,1.1.46.54.2a5.44,5.44,0,0,0,.54.15,1.42,1.42,0,0,0,.5,0,1.64,1.64,0,0,0,.47-.16l.49-.29c.19-.11.35-.2.58-.31l.28-.1.35-.07a2.76,2.76,0,0,1,.64,0c.2,0,.39,0,.58,0l.27,0h.12l.14,0a3.17,3.17,0,0,0,.51-.2l.53-.27a3.72,3.72,0,0,1,.58-.24,2.4,2.4,0,0,1,.66-.11h.15l0,.15c.08.24.25.33.53.36s.58,0,.94,0a3,3,0,0,1,.46.1,4.9,4.9,0,0,1,.46.18,5.19,5.19,0,0,0,.83.34,2.9,2.9,0,0,0,.86.13l.45,0,.44-.06a8,8,0,0,0,1.71-.57l.21-.1.23-.08a1.31,1.31,0,0,1,.45-.13,2.41,2.41,0,0,1,1,0c.31.07.61.17.9.23a2.26,2.26,0,0,0,.44.08,1.63,1.63,0,0,0,.44,0,3,3,0,0,0,.88-.2c.28-.1.56-.23.84-.36a9.11,9.11,0,0,1,.86-.35l.46-.11.46-.06v.11l-.45.06-.44.12c-.28.1-.56.23-.84.36a8.19,8.19,0,0,1-.85.39,3.38,3.38,0,0,1-.91.23,1.93,1.93,0,0,1-.48,0,3.81,3.81,0,0,1-.47-.07c-.3-.06-.6-.16-.89-.21a2.29,2.29,0,0,0-.86,0,1.41,1.41,0,0,0-.43.13l-.2.08-.21.1a7.77,7.77,0,0,1-1.77.63l-.47.08-.48,0a3.26,3.26,0,0,1-1-.12,5.49,5.49,0,0,1-.89-.34,4,4,0,0,0-.4-.15,2.66,2.66,0,0,0-.44-.08c-.25,0-.57,0-.91,0a1.22,1.22,0,0,1-.53-.15A2.29,2.29,0,0,1,76,69l-.14-.26.21.14a2.28,2.28,0,0,0-.52.1,3.82,3.82,0,0,0-.51.23l-.53.28a3.16,3.16,0,0,1-.6.25l-.14,0h-.17a1.84,1.84,0,0,1-.33,0c-.21,0-.42,0-.61,0a3.25,3.25,0,0,0-.55,0l-.24,0-.27.11a4,4,0,0,0-.47.27l-.53.32a2.19,2.19,0,0,1-.65.24,1.71,1.71,0,0,1-.68,0,5.62,5.62,0,0,1-.62-.15l-.58-.2-1.12-.44.11-.27,0,0Z"/><path class="cls-3" d="M75.12,64v0h-.29l.09-1.17a9,9,0,0,1,.18-1.16,10.88,10.88,0,0,1,.26-1.13l.29-1.12.3-1.1.1-.55c0-.18,0-.35,0-.53A8.3,8.3,0,0,0,76,56.09c-.06-.37-.12-.75-.17-1.14a5.86,5.86,0,0,1,0-1.19,3.38,3.38,0,0,1,.33-1.14c.33-.72.79-1.34,1.05-2,.13-.34.22-.73.33-1.09s.19-.74.27-1.11A8.45,8.45,0,0,0,78,47.27a7.1,7.1,0,0,0,0-1.13l.1,0a6.43,6.43,0,0,1,0,1.16A11.31,11.31,0,0,1,78,48.43c-.07.37-.16.75-.25,1.12s-.17.74-.3,1.12c-.26.75-.71,1.39-1,2.07a3.18,3.18,0,0,0-.27,1.06,5.85,5.85,0,0,0,.06,1.1c.06.37.13.74.2,1.12a7.75,7.75,0,0,1,.13,1.18c0,.2,0,.41,0,.61l-.1.58-.26,1.12-.26,1.11a10.55,10.55,0,0,0-.22,1.12,8.42,8.42,0,0,0-.14,1.11L75.47,64h-.29v0Z"/><path class="cls-3" d="M40.6,37.84l0,0-.17-.14a9.69,9.69,0,0,0,1.22-1.78,4.27,4.27,0,0,0,.36-1c.08-.33.08-.71.16-1.08A12,12,0,0,1,43,31.73a4.88,4.88,0,0,0,.31-1,2.6,2.6,0,0,0-.12-1c-.1-.34-.25-.68-.37-1a5.14,5.14,0,0,1-.24-1.1c-.07-.75,0-1.49,0-2.22s-.1-1.46-.09-2.2a8.25,8.25,0,0,1,0-1.11,6.79,6.79,0,0,1,.22-1.09l.08,0A6.6,6.6,0,0,0,42.61,22a7.94,7.94,0,0,0,0,1.09c0,.74.12,1.46.15,2.21s0,1.48.05,2.19A4.75,4.75,0,0,0,43,28.57c.13.34.28.67.39,1a2.77,2.77,0,0,1,.16,1.15,4.68,4.68,0,0,1-.3,1.1,11.62,11.62,0,0,0-.71,2c-.07.35-.06.72-.14,1.1a4.78,4.78,0,0,1-.38,1.1A9.52,9.52,0,0,1,40.83,38l-.17-.14,0,0Z"/><path class="cls-3" d="M40.25,31.31h0l0,.22a13,13,0,0,1-1.9-.55,2.33,2.33,0,0,1-.85-.62l-.17-.22a1.17,1.17,0,0,1-.11-.23,2.3,2.3,0,0,1-.12-.54c0-.34,0-.67,0-1A1.65,1.65,0,0,0,36.9,28l-.19-.45a5,5,0,0,0-.46-.82c-.17-.26-.37-.52-.55-.79s-.38-.53-.54-.83-.31-.56-.43-.87-.26-.61-.34-.93-.17-.63-.21-1-.09-.64-.08-1v-1c0-.65,0-1.3,0-1.95h.08c0,.65,0,1.3,0,1.94l0,1c0,.32.08.64.11.95s.16.62.23.93.23.59.34.89.31.57.46.85.36.52.54.79.39.5.58.78a5.4,5.4,0,0,1,.51.86l.2.44a1.73,1.73,0,0,1,.11.52c0,.34,0,.67.07,1a2.26,2.26,0,0,0,.09.41l.1.2.14.16a1.94,1.94,0,0,0,.72.48,11.13,11.13,0,0,0,1.83.47l-.05.22h0Z"/><path class="cls-3" d="M31.75,37l0,0-.14-.17a3.78,3.78,0,0,0,.6-.6,1.43,1.43,0,0,0,.3-.72,2.76,2.76,0,0,0-.1-.84l0-.21-.05-.24-.1-.45c0-.3-.06-.63-.08-.94V31.9c0-.31,0-.6,0-.91l0-.91,0-.91L32,28.26c-.05-.6-.1-1.21-.16-1.82s-.12-1.21-.16-1.81l-.14-1.83h.09l.18,1.81c.06.61.14,1.21.21,1.82s.14,1.21.21,1.82l.1.91,0,.91.05.91c0,.3,0,.62,0,.92l0,.91c0,.29,0,.57.1.87l.1.44,0,.21.06.23a2.81,2.81,0,0,1,.14,1,1.93,1.93,0,0,1-.35,1,4.46,4.46,0,0,1-.67.7L31.8,37l0,0Z"/><path class="cls-3" d="M30.15,33.65h0v.22A18.69,18.69,0,0,1,28,33.72,4,4,0,0,1,27,33.41a1.72,1.72,0,0,1-.85-.77,2.8,2.8,0,0,1-.21-1.06.62.62,0,0,0-.07-.19s-.05-.06,0-.06l-.1-.09a1,1,0,0,0-.4-.17L24.8,31a2.43,2.43,0,0,1-.28-.1l-.23-.13a2,2,0,0,1-.73-.83,7.7,7.7,0,0,0-.49-.9,2.17,2.17,0,0,0-.32-.36c-.14-.1-.27-.22-.41-.31-.54-.39-1.17-.71-1.75-1.11a4.72,4.72,0,0,1-.8-.68,7,7,0,0,1-.63-.83c-.38-.6-.67-1.22-1-1.83l.07,0c.35.6.66,1.22,1,1.79a7.24,7.24,0,0,0,.64.8,4.5,4.5,0,0,0,.8.64c.57.38,1.19.67,1.78,1.07.16.1.28.21.42.31a2.86,2.86,0,0,1,.38.4,7.14,7.14,0,0,1,.53.91,1.66,1.66,0,0,0,.63.7l.23.12.21.07.51.1a1.43,1.43,0,0,1,.54.24l.1.08c.06.07.07.1.11.15a.81.81,0,0,1,.12.29c.08.4,0,.72.2,1a2.1,2.1,0,0,0,1.62.83c.67.09,1.35.07,2.05.1v.22h0Z"/><path class="cls-3" d="M20.22,36.56h0l.15.17a7.83,7.83,0,0,1-1.54,1.15,2.29,2.29,0,0,1-1,.26c-.21,0-.32,0-.49-.07a2.35,2.35,0,0,1-.48-.14c-.32-.1-.59-.24-.88-.36l-.87-.36c-.58-.23-1.15-.47-1.72-.74s-1.14-.52-1.71-.77S10.5,35.25,9.92,35c-.29-.1-.6-.23-.88-.35a4.46,4.46,0,0,1-.82-.47c-.27-.17-.5-.38-.75-.57L6.76,33,6.82,33l.72.6a6.55,6.55,0,0,0,.75.55,4.51,4.51,0,0,0,.81.44c.3.11.57.22.87.32.6.21,1.2.38,1.78.63l1.73.73c.57.25,1.15.47,1.74.69l.87.34c.3.11.59.25.86.32a1.86,1.86,0,0,0,.42.12,4.24,4.24,0,0,0,.44.05,1.93,1.93,0,0,0,.8-.23A7.74,7.74,0,0,0,20,36.38l.15.16h0Z"/><path class="cls-3" d="M25.28,40.33l0,0-.18-.14c.23-.25.13-.63-.13-1-.12-.18-.26-.35-.4-.54l-.21-.29c-.08-.14-.11-.22-.17-.33l-.12-.36L24,37.3l-.09-.68a1.84,1.84,0,0,0-.17-.62l-.06-.12-.1-.14a1.09,1.09,0,0,0-.22-.25,2.91,2.91,0,0,0-.51-.4l-.58-.37a4.29,4.29,0,0,1-.58-.4,2,2,0,0,1-.46-.55,1.17,1.17,0,0,1-.14-.33,1.8,1.8,0,0,1-.08-.35,5.54,5.54,0,0,1,0-.7c0-.23,0-.45,0-.68l-.06-.33-.11-.32.07,0,.13.32.07.35a5.34,5.34,0,0,1,.05.69,4.77,4.77,0,0,0,.06.67,1.32,1.32,0,0,0,.08.33.78.78,0,0,0,.14.29,1.79,1.79,0,0,0,.43.48,4.65,4.65,0,0,0,.57.37l.59.34a3.27,3.27,0,0,1,.59.43,1.18,1.18,0,0,1,.24.26l.11.13c.05.08.06.12.1.18a2.22,2.22,0,0,1,.22.69l.11.68a2.72,2.72,0,0,0,.17.61c.06.09.12.22.16.28l.2.26c.14.17.3.35.44.54a1.91,1.91,0,0,1,.34.7,1,1,0,0,1-.19.84l-.17-.13h0Z"/><path class="cls-3" d="M31.51,59v0l-.2-.09A11.9,11.9,0,0,0,32,57.41a2.85,2.85,0,0,0,.15-.76,1.22,1.22,0,0,0,0-.38.89.89,0,0,0-.07-.36,2.69,2.69,0,0,0-.32-.72c-.12-.23-.28-.45-.41-.72a1.62,1.62,0,0,1-.2-.87,2.84,2.84,0,0,1,.1-.44l.18-.4a11.41,11.41,0,0,0,.81-1.42,1.2,1.2,0,0,0,.1-.37,1.28,1.28,0,0,0,0-.39,3.58,3.58,0,0,0-.18-.77c-.08-.27-.18-.52-.25-.79s-.15-.54-.21-.81-.11-.54-.14-.82l-.06-.83h.09l.08.82c0,.27.11.53.16.8s.16.53.23.79.18.52.27.78a3.53,3.53,0,0,1,.22.82,1.9,1.9,0,0,1-.11.85,11.52,11.52,0,0,1-.78,1.48l-.15.35c0,.12,0,.25-.08.37a1.5,1.5,0,0,0,.19.7c.12.23.29.45.44.7a3.66,3.66,0,0,1,.37.77,1.34,1.34,0,0,1,.1.44,1.63,1.63,0,0,1,0,.44,3.44,3.44,0,0,1-.14.86,10.39,10.39,0,0,1-.64,1.56l-.2-.09v0Z"/><path class="cls-3" d="M28.37,53.29h0l-.05.21-1.43-.39c-.48-.13-.95-.22-1.42-.34l-.73-.17a1.36,1.36,0,0,1-.39-.15,1.37,1.37,0,0,1-.18-.16.75.75,0,0,1-.12-.21,3.7,3.7,0,0,1-.1-.77L23.87,51l-.08-.36a3.53,3.53,0,0,0-.69-1.22,7.14,7.14,0,0,0-1.09-1c-.39-.3-.79-.59-1.16-.93a4.38,4.38,0,0,1-.51-.54,3.7,3.7,0,0,1-.41-.62l.07,0a5,5,0,0,0,.42.6,5,5,0,0,0,.52.51c.37.31.78.58,1.18.87a6.91,6.91,0,0,1,1.15.95,3.57,3.57,0,0,1,.79,1.31l.1.35c0,.14.05.26.07.39a5.56,5.56,0,0,0,.11.69c.06.17.24.22.46.28l.72.14c.48.1,1,.19,1.46.3l1.43.34-.05.22h0Z"/><path class="cls-3" d="M17.36,59.51l0,0-.19.1c-.11-.17-.2-.34-.32-.51a5.32,5.32,0,0,0-.37-.46,3.76,3.76,0,0,0-.93-.71c-.38-.21-.74-.31-1.14-.5l-.3-.13-.28-.18-.14-.1-.09-.06-.05-.06a2.41,2.41,0,0,1-.21-.24,11.45,11.45,0,0,0-.59-1.13,3.28,3.28,0,0,0-.39-.43c-.16-.12-.31-.25-.49-.36l-.27-.18-.24-.2a2.68,2.68,0,0,1-.45-.5c-.25-.37-.4-.77-.6-1.12a2.6,2.6,0,0,0-.77-.91,6.14,6.14,0,0,0-1.06-.62,4.73,4.73,0,0,1-1.09-.66,2.07,2.07,0,0,1-.43-.5,4.35,4.35,0,0,1-.25-.59l-.18-.6-.23-.57c-.19-.37-.39-.73-.61-1.09L5,46.12c-.23-.35-.44-.71-.65-1.07l.07,0c.21.36.43.71.67,1.05l.71,1c.23.35.44.72.64,1.09l.25.59.2.59a3,3,0,0,0,.24.55,1.68,1.68,0,0,0,.4.44A4.37,4.37,0,0,0,8.56,51a6.18,6.18,0,0,1,1.12.63,3,3,0,0,1,.86,1,10.12,10.12,0,0,0,.61,1.08,1.92,1.92,0,0,0,.38.43l.25.19.25.16a6.42,6.42,0,0,1,.53.38,3.43,3.43,0,0,1,.46.48,7.56,7.56,0,0,1,.59,1.09c.05.07.14.15.2.23l.06,0,0,0,.12.08.25.15.27.12c.37.16.81.29,1.17.48a4.39,4.39,0,0,1,1.07.78c.16.16.29.34.43.51s.23.36.35.55l-.19.11,0,0Z"/><path class="cls-3" d="M36.31,68.32l0,0,.16.17A27,27,0,0,1,34,70.78a5.55,5.55,0,0,1-1.52.81,3.19,3.19,0,0,1-1.73.08l-.82-.17-.81-.22-.81-.19a4.34,4.34,0,0,0-.8-.15l-.81-.07c-.27,0-.55,0-.83,0a11.84,11.84,0,0,1-1.68-.1,4.86,4.86,0,0,1-.83-.16l-.81-.22-1.6-.45c-.53-.15-1.07-.28-1.61-.42s-1.07-.24-1.61-.43-1.06-.33-1.56-.56-1-.46-1.51-.74-.95-.57-1.42-.88l-1.33-1,.05-.06,1.34,1c.47.3.95.57,1.42.86s1,.46,1.5.7,1,.35,1.57.54a16.46,16.46,0,0,0,1.61.4c.54.14,1.08.25,1.62.4l1.6.43.81.2a4.18,4.18,0,0,0,.8.14,12.78,12.78,0,0,0,1.64.07h.83l.85.06a5.53,5.53,0,0,1,.83.14c.28.06.56.11.82.18l.8.2.82.16a2.78,2.78,0,0,0,1.54-.09,5.22,5.22,0,0,0,1.38-.77,25.42,25.42,0,0,0,2.4-2.26l.16.16,0,0Z"/><path class="cls-3" d="M41.86,71.44l0,0-.16-.16a1.28,1.28,0,0,0,.43-.77,1.78,1.78,0,0,0-.17-.91c-.12-.31-.28-.62-.44-1a2.59,2.59,0,0,1-.33-1.09,7.54,7.54,0,0,0,.13-1,3.43,3.43,0,0,0-.27-.94,8,8,0,0,0-.48-.92,5.27,5.27,0,0,0-.65-.78c-.5-.48-1.07-.9-1.58-1.4a1.64,1.64,0,0,1-.53-1,5.48,5.48,0,0,1,0-1.07,2.63,2.63,0,0,0-.14-1c-.1-.34-.23-.67-.31-1a4.26,4.26,0,0,1-.09-1.06,5.25,5.25,0,0,0-.07-1l.08,0a5.44,5.44,0,0,1,.1,1.06,4,4,0,0,0,.11,1c.08.33.22.66.34,1A3,3,0,0,1,38,60.41a5.94,5.94,0,0,0,0,1,1.47,1.47,0,0,0,.48.83c.51.48,1.09.88,1.62,1.37a4.7,4.7,0,0,1,.72.82,6.72,6.72,0,0,1,.52,1,3.11,3.11,0,0,1,.33,1.07,7.2,7.2,0,0,1-.1,1.05,2.52,2.52,0,0,0,.31.91c.16.31.33.62.48,1a2.26,2.26,0,0,1,.21,1.14,1.7,1.7,0,0,1-.56,1.06l-.15-.16,0,0Z"/><path class="cls-3" d="M58.67,70.89v0l-.21-.07.19-.45c.06-.15.15-.28.22-.42s.33-.52.49-.78l.46-.79a3.35,3.35,0,0,1,.29-.4,1.34,1.34,0,0,1,.42-.32.3.3,0,0,1,.14-.07l.11,0,.24,0,.22,0a.48.48,0,0,0,.18-.06l.08,0h0l0,0a1.29,1.29,0,0,0,.17-.15,3,3,0,0,0,.27-.32l.52-.74c.17-.26.3-.51.46-.77l0-.07h.06a.9.9,0,0,1,.4,0l.36.11a2.22,2.22,0,0,0,.31.1.71.71,0,0,0,.29,0l-.12.1c.07-.23.15-.46.23-.69a3.71,3.71,0,0,1,.3-.68l.11-.17,0,0,0,0,.07-.06.13-.12.18-.09.31-.17a1.52,1.52,0,0,0,.22-.22l.18-.31a3.14,3.14,0,0,0,.18-.31l.25-.66.24-.68.3-.66v0h0l.23,0-.06.05a1.24,1.24,0,0,1,.49-.5,2.48,2.48,0,0,0,.26-.19.52.52,0,0,0,.1-.11l.1-.13a4,4,0,0,0,.32-.57,5.7,5.7,0,0,1,.32-.59l.06.05a6.27,6.27,0,0,0-.29.58,3.7,3.7,0,0,1-.32.59l-.1.14a.71.71,0,0,1-.12.13,2.65,2.65,0,0,1-.26.21,1,1,0,0,0-.42.44l0,0h0l-.2,0,0,0-.28.65-.22.68-.25.7c-.1.22-.23.42-.34.63s-.19.2-.28.3l-.32.18-.14.07-.14.12-.06.06s0,0,0,0l0,0-.08.15a3.08,3.08,0,0,0-.27.64c-.08.22-.14.45-.2.68l0,.09h-.09a1.34,1.34,0,0,1-.4,0l-.35-.11a1.71,1.71,0,0,0-.3-.09.88.88,0,0,0-.28,0l.1-.08c-.15.27-.29.56-.46.81l-.51.77a3.52,3.52,0,0,1-.31.39c-.06.06-.12.1-.18.15l0,0-.07,0-.13.07a.73.73,0,0,1-.25.08,1.24,1.24,0,0,1-.23,0,1,1,0,0,0-.21,0l-.11,0-.06,0a1,1,0,0,0-.29.25,2.16,2.16,0,0,0-.24.33c-.14.26-.28.54-.45.81s-.32.52-.45.78a3.72,3.72,0,0,0-.21.39l-.15.4-.21-.07,0,0Z"/><path class="cls-3" d="M58.59,65l0,0-.16.15c-.77-.83-1.69-1.57-2.47-2.46-.2-.23-.38-.46-.56-.71a5,5,0,0,1-.45-.78l-.17-.42c0-.15-.07-.3-.1-.45s0-.3,0-.46l0-.45a4.93,4.93,0,0,0,0-.85,2,2,0,0,0-.07-.41,1.36,1.36,0,0,0-.12-.39,5.56,5.56,0,0,0-.37-.78,4.89,4.89,0,0,1-.34-.82,3.48,3.48,0,0,1-.1-.44l0-.45a4.93,4.93,0,0,1,.12-.87c.14-.58.3-1.13.41-1.7h.08c-.09.58-.24,1.15-.36,1.71a4.17,4.17,0,0,0-.09.85l0,.43c0,.13.08.27.11.4a5,5,0,0,0,.36.78,8.33,8.33,0,0,1,.4.79,1.55,1.55,0,0,1,.14.43,1.63,1.63,0,0,1,.08.44,4.48,4.48,0,0,1,0,.9v.42c0,.13,0,.27,0,.41l.11.4.16.38a5.64,5.64,0,0,0,.44.71c.17.23.36.45.55.66.78.84,1.7,1.54,2.54,2.39L58.6,65l0,0Z"/><path class="cls-3" d="M76,58.92l0,0-.2-.11c.51-.89,1-1.84,1.57-2.72a7.26,7.26,0,0,1,.5-.63c.2-.21.4-.36.6-.54A14.83,14.83,0,0,1,79.71,54a9.31,9.31,0,0,1,1.41-.71,2.59,2.59,0,0,0,.63-.4,2.64,2.64,0,0,0,.48-.57c.14-.22.3-.43.42-.66l.4-.67c.25-.45.53-.89.82-1.33l.07,0c-.28.44-.54.88-.78,1.35l-.37.69c-.12.23-.27.44-.4.67a2.72,2.72,0,0,1-.5.63,2.91,2.91,0,0,1-.66.46,9.17,9.17,0,0,0-1.35.74,12.41,12.41,0,0,0-1.2,1,7,7,0,0,0-.55.52,4.81,4.81,0,0,0-.45.61c-.55.86-1,1.8-1.47,2.73l-.2-.11v0Z"/><path class="cls-3" d="M78,69v0l-.19-.12.28-.37c.11-.11.21-.24.33-.34a3,3,0,0,1,.82-.47l.84-.29.21-.06.08,0,.1,0a1.36,1.36,0,0,0,.36-.2,3.43,3.43,0,0,0,.62-.54c.21-.21.41-.43.64-.63a3.35,3.35,0,0,1,.78-.48c.27-.12.56-.22.81-.33a2,2,0,0,0,.67-.47,3,3,0,0,0,.5-.69l.45-.74.51-.73,1-1.42c.17-.24.31-.49.46-.74l.46-.74.07,0-.44.76c-.15.25-.28.51-.44.76l-1,1.45-.48.72-.43.76a4.52,4.52,0,0,1-.51.75,2.31,2.31,0,0,1-.74.54c-.27.14-.54.24-.8.36a3,3,0,0,0-.69.46c-.21.18-.4.4-.6.61a4,4,0,0,1-.67.63,2.39,2.39,0,0,1-.4.23l-.09.05-.12,0-.21.07c-.28.1-.56.19-.81.3a2.23,2.23,0,0,0-.68.42,2.5,2.5,0,0,0-.27.29l-.24.33L78,69v0Z"/><path class="cls-3" d="M75.35,68.94l0,0,.19-.1.44.91a5,5,0,0,0,.48.85,1.82,1.82,0,0,0,.29.38,1.62,1.62,0,0,0,.33.31,1.44,1.44,0,0,0,.83.29,14.35,14.35,0,0,1,2,.1,1.24,1.24,0,0,1,.9.61,2.78,2.78,0,0,1,.23.49,2.53,2.53,0,0,0,.18.44l.11.2.17.17c.11.12.23.25.35.36a6,6,0,0,1,.69.74l.65.77a6.73,6.73,0,0,0,.69.72l.36.33c.15.09.28.19.43.27a2.82,2.82,0,0,1,.81.62,5.56,5.56,0,0,1,.51.89l.22.45.25.43-.06,0-.27-.43L86,78.36l-.23-.44c-.1-.13-.19-.29-.28-.41a2.66,2.66,0,0,0-.79-.57c-.16-.08-.29-.17-.44-.26s-.26-.22-.4-.33a8.15,8.15,0,0,1-.72-.72l-.66-.76a7.82,7.82,0,0,0-.7-.71c-.13-.11-.25-.23-.37-.35a1.11,1.11,0,0,1-.18-.19L81,73.39a3.33,3.33,0,0,1-.21-.48,2,2,0,0,0-.2-.42A1,1,0,0,0,79.9,72a16.19,16.19,0,0,0-2,0l-.28,0a1,1,0,0,1-.26-.07,1.62,1.62,0,0,1-.51-.25,2,2,0,0,1-.41-.36,4.23,4.23,0,0,1-.33-.41,7.45,7.45,0,0,1-.53-.89l-.46-.9.2-.1v0Z"/><path class="cls-3" d="M63.76,47.76h0l-.17-.15c.31-.36.6-.75.95-1.12a3.23,3.23,0,0,1,.59-.51l.36-.18.4-.1a4.7,4.7,0,0,1,.76,0,1.4,1.4,0,0,0,.35,0,1.06,1.06,0,0,0,.31,0,1.47,1.47,0,0,0,.57-.34c.17-.15.33-.33.51-.5a6.86,6.86,0,0,1,1.13-.95,3.81,3.81,0,0,0,1-1c.12-.19.23-.42.35-.63l.35-.64.4-.62.52-.53,0,.06-.48.54-.37.61-.33.66c-.11.21-.21.43-.34.65a4,4,0,0,1-1,1.08,6.92,6.92,0,0,0-1.07,1,6.42,6.42,0,0,1-.51.54,1.6,1.6,0,0,1-.67.42,1.09,1.09,0,0,1-.39.08,1.74,1.74,0,0,1-.39,0,4,4,0,0,0-.69,0l-.3.09-.29.15a4.25,4.25,0,0,0-.5.46c-.3.35-.58.75-.88,1.14l-.18-.14v0Z"/><path class="cls-3" d="M59.66,36.28h0v-.22c.5,0,1,.08,1.46.07a3.27,3.27,0,0,0,.7-.09,2.9,2.9,0,0,0,.64-.24l.3-.18.28-.23a7.41,7.41,0,0,1,.58-.48l.38-.2a2.09,2.09,0,0,1,.36-.08,4,4,0,0,0,.71-.15,5.72,5.72,0,0,0,.64-.34l.6-.42.6-.44c.2-.15.4-.28.59-.44a5.28,5.28,0,0,0,.57-.47l.51-.53a13.13,13.13,0,0,1,1-1.07l0,.06c-.34.35-.68.71-1,1.09l-.5.56a5.27,5.27,0,0,1-.55.51c-.19.16-.4.31-.59.46l-.58.46-.61.45a6,6,0,0,1-.66.38,3.3,3.3,0,0,1-.74.18c-.11,0-.24.07-.35.1l-.28.16a6,6,0,0,0-.54.49l-.29.25-.33.22a3.3,3.3,0,0,1-.73.3,3.51,3.51,0,0,1-.78.12c-.51,0-1,0-1.51,0l0-.22h0Z"/><path class="cls-3" d="M66.86,38.55l0,0,.16-.16a2.43,2.43,0,0,0,.73.5,1.76,1.76,0,0,0,.85.15,2.21,2.21,0,0,0,.85-.26c.28-.13.51-.35.85-.51a1.52,1.52,0,0,1,.54-.13l.49,0a2.7,2.7,0,0,0,.92-.13,4.31,4.31,0,0,0,.85-.44,3.17,3.17,0,0,1,.45-.23,2.93,2.93,0,0,1,.53-.12c.32,0,.69,0,1,.07a3.49,3.49,0,0,0,.46,0l.49-.09A7.83,7.83,0,0,1,77,37l1-.09,1-.09.92-.27c.29-.15.58-.29.86-.45l.78-.59.06.06-.78.62c-.28.17-.58.32-.87.48L79,37l-1,.12-1,.1a8.1,8.1,0,0,0-1,.18l-.48.1a2.29,2.29,0,0,1-.52,0c-.35,0-.63-.06-1,0a3.89,3.89,0,0,0-.43.11,2.73,2.73,0,0,0-.41.22,3.92,3.92,0,0,1-.88.49,3,3,0,0,1-1,.18l-.49,0a1.38,1.38,0,0,0-.41.11c-.25.12-.5.36-.81.52a2.56,2.56,0,0,1-1,.33,2.29,2.29,0,0,1-1.07-.15,2.82,2.82,0,0,1-.89-.59l.16-.16h0Z"/><path class="cls-3" d="M52.93,49v0l-.21.06c-.2-.63-.4-1.27-.56-1.93a8.45,8.45,0,0,1-.21-1,6.22,6.22,0,0,1,0-2.05c0-.33.11-.66.15-1a6.48,6.48,0,0,0,.08-1c0-.31,0-.66,0-1a6.79,6.79,0,0,1,0-1,4,4,0,0,1,.15-1c.05-.18.13-.31.19-.47a2.38,2.38,0,0,1,.23-.45c.17-.3.35-.59.53-.87s.34-.56.49-.86a6.05,6.05,0,0,0,.36-.92,8,8,0,0,0,.26-1c.07-.32.1-.66.16-1h.08c-.05.34-.07.67-.14,1a8.2,8.2,0,0,1-.23,1,8.34,8.34,0,0,1-.35.95,9.5,9.5,0,0,1-.48.89c-.17.28-.34.57-.49.86a4.8,4.8,0,0,0-.39.9,4.43,4.43,0,0,0-.12,1c0,.32,0,.65,0,1s.08.66.08,1a6.82,6.82,0,0,1-.06,1c0,.34-.09.66-.12,1a6.5,6.5,0,0,0-.05,1c0,.32.06.64.12,1a8.36,8.36,0,0,0,.23,1c.17.63.39,1.26.6,1.9L53,49v0Z"/><path class="cls-3" d="M52.48,29.19v0l-.22.05c-.15-.65-.36-1.3-.53-2-.08-.33-.16-.67-.21-1a5.41,5.41,0,0,1-.08-1.06,8.73,8.73,0,0,0-.13-2,9.53,9.53,0,0,0-.28-1c-.1-.33-.2-.66-.28-1a8.62,8.62,0,0,1-.19-4.1,8,8,0,0,1,.31-1c.13-.32.27-.63.42-.94.28-.62.59-1.23.81-1.87l.08,0c-.42,1.31-1.16,2.49-1.45,3.81a8.59,8.59,0,0,0,.3,4c.09.32.19.65.3,1s.23.65.31,1a9.17,9.17,0,0,1,.19,2.07,17.14,17.14,0,0,0,.9,3.93l-.22,0v0Z"/><path class="cls-3" d="M56.11,27.15l0,0,.17-.13a2.27,2.27,0,0,0,.84.75.86.86,0,0,0,.5.07l.26-.06a1.26,1.26,0,0,0,.26-.13,12.5,12.5,0,0,1,1.07-.7A1,1,0,0,1,60,26.9a4.73,4.73,0,0,1,.6.3.69.69,0,0,0,.21.05,1.36,1.36,0,0,0,.3,0,2.86,2.86,0,0,0,.52-.23c.34-.21.67-.48,1-.72a6,6,0,0,1,.6-.27A1.9,1.9,0,0,1,64,26a11.29,11.29,0,0,1,1.23.36,2.39,2.39,0,0,0,.59.08,4,4,0,0,0,.58-.12,7.32,7.32,0,0,0,1.14-.51c.37-.2.74-.42,1.12-.6a5.26,5.26,0,0,1,1.23-.42l.65,0h.63a8.65,8.65,0,0,0,1.25-.06,3.6,3.6,0,0,0,1.2-.35,4.15,4.15,0,0,0,.53-.32l.47-.42.06.06-.47.43a4.51,4.51,0,0,1-.54.35,3.82,3.82,0,0,1-1.23.38,9,9,0,0,1-1.27.09h-.64l-.61.05a5.12,5.12,0,0,0-1.17.42c-.37.19-.73.41-1.1.62a7.23,7.23,0,0,1-1.16.55,2,2,0,0,1-1.32.08,11.89,11.89,0,0,0-1.21-.34,1.67,1.67,0,0,0-.55,0,3.9,3.9,0,0,0-.54.26c-.34.22-.66.5-1,.73a2.23,2.23,0,0,1-.64.3c-.12,0-.21,0-.32.05a1,1,0,0,1-.4-.08c-.23-.09-.41-.23-.54-.27l-.13,0h0s0,0,0,0h-.08a.57.57,0,0,0-.24.08,12.53,12.53,0,0,0-1,.72,2.79,2.79,0,0,1-.3.15,3.15,3.15,0,0,1-.36.09,1.43,1.43,0,0,1-.74-.08,2.63,2.63,0,0,1-1-.89l.17-.13,0,0Z"/><path class="cls-3" d="M59.15,25.46v0l-.21,0a16.11,16.11,0,0,1,.48-1.57,6.57,6.57,0,0,0,.21-.76c0-.12,0-.24,0-.37a1.83,1.83,0,0,0,0-.34c0-.07,0-.14,0-.2L59.53,22a2.92,2.92,0,0,0-.21-.32A3.34,3.34,0,0,1,58.9,21a1.35,1.35,0,0,1-.07-.46,2.08,2.08,0,0,1,.05-.41,4.73,4.73,0,0,1,.3-.8l.37-.72a2.65,2.65,0,0,0,.29-.72,4.29,4.29,0,0,0,.15-.78,8,8,0,0,1,.09-.81,3.09,3.09,0,0,1,.22-.79,4.15,4.15,0,0,1,.42-.71c.31-.45.68-.84,1-1.27l.07,0c-.32.44-.67.85-1,1.29a3.91,3.91,0,0,0-.37.7,3.37,3.37,0,0,0-.13.38c0,.11,0,.25-.06.38s0,.53-.07.8a4.38,4.38,0,0,1-.12.82,3.19,3.19,0,0,1-.29.78l-.34.72a3.72,3.72,0,0,0-.25.73,1.61,1.61,0,0,0,0,.39,1.09,1.09,0,0,0,.07.33,2.25,2.25,0,0,0,.4.64c.08.11.16.22.24.35l.1.22a1.52,1.52,0,0,1,.06.2,2.37,2.37,0,0,1,0,.88,7.51,7.51,0,0,1-.19.82c-.15.52-.34,1-.43,1.53l-.22,0v0Z"/><path class="cls-3" d="M46.72,20.15h0l-.07.21-1-.27-1-.22-1-.23-1-.31-.13,0v-.14a3.39,3.39,0,0,0,0-.64,2.14,2.14,0,0,0-.21-.6,2.35,2.35,0,0,0-.37-.52,4.25,4.25,0,0,0-.5-.44,11.82,11.82,0,0,0-1.15-.72l-.59-.34a4.89,4.89,0,0,1-.58-.39,4.32,4.32,0,0,1-.55-.43,5.81,5.81,0,0,1-.5-.49,5.72,5.72,0,0,1-.45-.53,5.75,5.75,0,0,1-.41-.56,26.87,26.87,0,0,1-1.39-2.38l.07,0a24,24,0,0,0,1.45,2.33c.12.19.27.36.41.54s.3.34.46.51a4.32,4.32,0,0,0,.5.45,3.2,3.2,0,0,0,.54.41c.19.13.37.26.57.37l.6.32a12.19,12.19,0,0,1,1.2.71,4,4,0,0,1,.55.46,2.77,2.77,0,0,1,.44.58,2.73,2.73,0,0,1,.26.69,3.54,3.54,0,0,1,.06.73L42.76,19l1,.27,1,.2,1,.19,1,.26-.07.22h0Z"/><path class="cls-3" d="M46.71,17.53l0,0-.12-.19a10.46,10.46,0,0,0,1-.7,4.81,4.81,0,0,0,.81-.88,2.85,2.85,0,0,0,.3-.51,2.66,2.66,0,0,0,.23-.55,7.16,7.16,0,0,0,.24-1.19,6.36,6.36,0,0,0,.11-1.22c0-.38-.2-.8,0-1.3l.16-.31c.09-.12.15-.17.22-.26a2.84,2.84,0,0,1,.47-.44,6.56,6.56,0,0,0,.9-.83,9.2,9.2,0,0,0,.6-1.08c.18-.39.45-.71.66-1.07.46-.7.94-1.38,1.41-2.07.24-.34.44-.72.66-1.07s.39-.73.58-1.1.33-.76.5-1.15S55.69.8,55.82.4l.08,0c-.12.4-.22.81-.35,1.21s-.3.78-.48,1.17A21.43,21.43,0,0,1,53.86,5c-.45.7-.92,1.4-1.36,2.11a9.75,9.75,0,0,0-.64,1.07,8.73,8.73,0,0,1-.6,1.12,6.26,6.26,0,0,1-.91.88,2.55,2.55,0,0,0-.44.43,2.5,2.5,0,0,0-.18.23l-.12.24c-.14.31.06.73,0,1.18a6.78,6.78,0,0,1-.08,1.28,7,7,0,0,1-.23,1.26,2.75,2.75,0,0,1-.24.62,3.2,3.2,0,0,1-.32.57,5.41,5.41,0,0,1-.87,1,9.53,9.53,0,0,1-1,.76l-.12-.19,0,0Z"/><path class="cls-3" d="M24.84,70.81h0l0,0-.38-.6a4.63,4.63,0,0,0-.39-.59c-.31-.36-.59-.75-.93-1.08s-.65-.69-1-1c-.16-.18-.34-.33-.5-.51a4.8,4.8,0,0,1-.45-.56l-.4-.6a4.81,4.81,0,0,0-.42-.56,2.69,2.69,0,0,0-.55-.46l-.59-.39c-.09-.07-.18-.16-.27-.24a.85.85,0,0,1-.24-.26,4.17,4.17,0,0,1-.38-.61c-.22-.42-.42-.85-.67-1.26h0c.25.4.45.84.68,1.25a3.38,3.38,0,0,0,.38.6.86.86,0,0,0,.24.26,3,3,0,0,0,.27.23l.6.39a2.69,2.69,0,0,1,.55.46,6.17,6.17,0,0,1,.44.57c.13.19.26.4.4.59a3.22,3.22,0,0,0,.45.54c.15.18.33.34.5.51.35.32.68.66,1,1a12.12,12.12,0,0,1,.94,1.08,4.78,4.78,0,0,1,.41.59l.39.61-.05,0v0Z"/><path class="cls-3" d="M27.22,70.92v0l.05,0c-.17.34-.31.7-.5,1a6,6,0,0,1-.63,1,4.09,4.09,0,0,1-.81.8l-.5.29a2.67,2.67,0,0,1-.54.19l-.28.09-.28,0-.57.05c-.38,0-.76,0-1.14-.08a10.74,10.74,0,0,0-1.12-.15,2.74,2.74,0,0,0-1.1.15,3.16,3.16,0,0,1-1.06.41,3.09,3.09,0,0,1-1.12-.18,10.44,10.44,0,0,1-1.05-.42,5.89,5.89,0,0,0-1.07-.37,2.08,2.08,0,0,0-.55-.07,2.72,2.72,0,0,0-.57,0l-1.12.12a4.34,4.34,0,0,1-1.14,0,5.62,5.62,0,0,1-.55-.15L11,73.41v0l.52.23a4.92,4.92,0,0,0,.55.14,4.2,4.2,0,0,0,1.12,0c.38,0,.75-.09,1.13-.12a2.72,2.72,0,0,1,.57,0,1.77,1.77,0,0,1,.56.08,5.71,5.71,0,0,1,1.08.36c.35.15.69.3,1.05.42a3.16,3.16,0,0,0,1.1.17,3.3,3.3,0,0,0,1-.42,2.65,2.65,0,0,1,1.12-.15,10.56,10.56,0,0,1,1.13.13c.38,0,.75.06,1.13.08l.55,0,.28,0,.27-.08a2.92,2.92,0,0,0,.52-.19l.49-.28a3.89,3.89,0,0,0,.78-.79,4.89,4.89,0,0,0,.61-.94c.19-.32.33-.68.49-1l.06,0v0Z"/><path class="cls-3" d="M15.6,68.39l0,0,0,0a19,19,0,0,1-3,1.74,3.43,3.43,0,0,1-.84.2,2.27,2.27,0,0,1-.86-.12c-.55-.16-1.06-.43-1.61-.59a2.92,2.92,0,0,0-.83-.17l-.85-.07a3.73,3.73,0,0,1-.82-.26,5,5,0,0,1-.76-.41A8.38,8.38,0,0,0,4.58,68a2.85,2.85,0,0,0-.83-.17,3,3,0,0,0-.42,0l-.41.11v0l.41-.11.43,0a3,3,0,0,1,.84.17,8.22,8.22,0,0,1,1.52.81,4.88,4.88,0,0,0,.75.4,3.23,3.23,0,0,0,.8.25l.86.07a3.38,3.38,0,0,1,.84.16c.56.16,1.07.42,1.61.58a2.16,2.16,0,0,0,.83.11,3.28,3.28,0,0,0,.82-.2,19.89,19.89,0,0,0,2.93-1.75l0,.05,0,0Z"/><path class="cls-3" d="M20.45,69.68h0l0,0L20,69.27l-.5-.38a11.89,11.89,0,0,0-1.08-.65,5.24,5.24,0,0,1-1.14-.56,1.21,1.21,0,0,1-.35-.54,2.69,2.69,0,0,0-.26-.57l-.35-.52c-.13-.17-.28-.32-.41-.48-.28-.32-.59-.61-.87-.92s-.29-.31-.42-.48l-.4-.49a6.12,6.12,0,0,0-.4-.49,4.67,4.67,0,0,0-.44-.45v0c.15.15.32.29.45.45s.28.32.41.49l.4.49c.13.16.28.31.43.47s.59.59.87.91c.14.16.29.32.42.48l.36.52a2.76,2.76,0,0,1,.27.58,1.32,1.32,0,0,0,.33.51,5.89,5.89,0,0,0,1.13.54,9.27,9.27,0,0,1,1.1.64l.51.38.46.45,0,0,0,0Z"/><path class="cls-3" d="M23.76,58.31v0l-.05,0a1.69,1.69,0,0,0-.2-1,8.53,8.53,0,0,0-.49-1c-.36-.62-.76-1.21-1.17-1.8L20.6,52.78c-.21-.29-.43-.58-.62-.88a2.4,2.4,0,0,1-.33-1c0-.36,0-.72,0-1.08a3.44,3.44,0,0,0-.21-1,13.23,13.23,0,0,0-1-1.92,8.6,8.6,0,0,1-.46-1l-.33-1c-.22-.68-.4-1.37-.6-2.06h0c.2.69.38,1.38.61,2.06l.34,1a8.6,8.6,0,0,0,.46,1,12.34,12.34,0,0,1,1,1.92,3.79,3.79,0,0,1,.23,1.06c0,.36,0,.72,0,1.07a2.4,2.4,0,0,0,.32,1q.3.44.63.87l1.27,1.73c.41.59.82,1.18,1.19,1.8.18.31.35.63.5,1a1.73,1.73,0,0,1,.2,1.08l0,0v0Z"/><path class="cls-3" d="M21.07,55.08h0v.05c-.17,0-.35-.05-.52-.09l-.5-.17c-.17,0-.32-.14-.48-.2l-.48-.22c-.62-.3-1.24-.63-1.84-1l-1.81-1c-.31-.16-.6-.35-.92-.48-.17-.06-.32-.15-.48-.19l-.5-.12h0a3.84,3.84,0,0,1-.42-.77c-.11-.28-.2-.55-.29-.83s-.18-.56-.29-.82a2.69,2.69,0,0,0-.42-.76,5.13,5.13,0,0,0-.54-.69c-.21-.2-.41-.41-.63-.59L9.53,46.09l0,0,1.36,1.1c.22.19.42.4.64.6a7.11,7.11,0,0,1,.55.68,2.89,2.89,0,0,1,.42.77c.12.27.21.55.3.82s.19.56.3.82a3.76,3.76,0,0,0,.42.76h0l.52.11a4,4,0,0,1,.48.19,9,9,0,0,1,.93.48l1.82,1c.61.33,1.22.65,1.85,1l.47.22c.16.06.32.14.48.19l.49.17c.16,0,.33,0,.49.08v.06h0Z"/><path class="cls-3" d="M13,56h0l0,0a4.09,4.09,0,0,1-.88.28,3.09,3.09,0,0,1-.91,0,5.76,5.76,0,0,1-1.74-.53c-.55-.25-1.09-.52-1.65-.73C7.56,55,7.26,55,7,54.85a4.11,4.11,0,0,1-.82-.39A4.81,4.81,0,0,1,5.4,54c-.24-.18-.46-.38-.69-.57L4,52.79l-.72-.54a8.81,8.81,0,0,0-.77-.47l-.39-.22-.42-.17a4.48,4.48,0,0,0-.84-.31L0,50.86v0l.88.21a5.08,5.08,0,0,1,.85.31l.42.16.4.23a5.4,5.4,0,0,1,.77.46l.73.54.69.58c.24.2.46.39.7.57a6.11,6.11,0,0,0,.75.5,3.69,3.69,0,0,0,.81.37c.29.1.58.17.87.27.57.21,1.11.47,1.66.72a5.72,5.72,0,0,0,1.71.51,2.89,2.89,0,0,0,.88,0A3.81,3.81,0,0,0,13,56L13,56h0Z"/><path class="cls-3" d="M41.22,65.31h0v-.06c.17,0,.25-.21.25-.41a2.35,2.35,0,0,0-.05-.59,6.61,6.61,0,0,0-.36-1.17l-.24-.57c0-.1-.08-.19-.11-.29l0-.31a1.9,1.9,0,0,1,0-.63c0-.2.07-.4.11-.6s.06-.41.09-.61,0-.41,0-.61a10.18,10.18,0,0,0-.09-1.23L40.66,57q-.07-.61-.09-1.23h0c0,.41,0,.82.1,1.22l.18,1.23a12.24,12.24,0,0,1,.1,1.23c0,.2,0,.41,0,.62s0,.4-.08.61-.09.4-.11.6a2.08,2.08,0,0,0,0,.61l.05.29c0,.1.08.19.11.28l.25.57a6.21,6.21,0,0,1,.37,1.18,2.26,2.26,0,0,1,.07.63.72.72,0,0,1-.08.32.33.33,0,0,1-.28.2v-.05h0Z"/><path class="cls-3" d="M42,69h0l0,0-1.23-.54c-.41-.18-.82-.35-1.22-.56l-.6-.31-.57-.36a2.41,2.41,0,0,1-.54-.41,2.72,2.72,0,0,1-.42-.53c-.13-.19-.26-.36-.4-.53s-.33-.31-.49-.46c-.35-.28-.7-.55-1-.84-.15-.17-.31-.34-.45-.51a4.25,4.25,0,0,1-.31-.6c-.19-.41-.3-.84-.46-1.26h0c.16.42.28.85.47,1.26a4.75,4.75,0,0,0,.31.59l.45.49c.34.29.69.56,1,.84.17.15.34.29.5.45s.28.36.4.54a3,3,0,0,0,.42.51,2.36,2.36,0,0,0,.54.4l.56.36.6.29c.4.2.81.37,1.22.55l1.24.53,0,0h0Z"/><path class="cls-3" d="M58.68,63.05h0l0,0c.47-.28,1-.54,1.4-.85a8,8,0,0,0,.67-.47c.22-.17.41-.36.61-.54a5.11,5.11,0,0,0,.51-.64l.22-.34c.07-.12.11-.25.17-.37s.21-.51.3-.77A2.9,2.9,0,0,1,63,58.3a4.52,4.52,0,0,1,.61-.55c.22-.17.46-.32.68-.47a9.16,9.16,0,0,0,1.32-1,2.61,2.61,0,0,0,.52-.63,3.35,3.35,0,0,0,.33-.75c.09-.26.15-.53.22-.79s.16-.53.24-.79h0c-.08.26-.17.52-.23.78s-.13.54-.22.8a3.64,3.64,0,0,1-.33.76,2.66,2.66,0,0,1-.52.64,9,9,0,0,1-1.31,1c-.23.15-.46.3-.68.47a3.92,3.92,0,0,0-.6.55,2.68,2.68,0,0,0-.41.69c-.1.26-.19.52-.3.77s-.11.26-.17.38l-.22.35a5.49,5.49,0,0,1-.52.65,8.24,8.24,0,0,1-.62.56,6.29,6.29,0,0,1-.67.48c-.45.31-.93.58-1.4.86l0,0h0Z"/><path class="cls-3" d="M64.1,65.64h0l0,0a1.49,1.49,0,0,0,.42.41.78.78,0,0,0,.56.12,2.38,2.38,0,0,0,1.06-.54l.48-.39a3.17,3.17,0,0,1,.51-.37,1.53,1.53,0,0,1,.59-.2c.21,0,.42,0,.63,0a1.69,1.69,0,0,0,.59-.09,3.18,3.18,0,0,0,.53-.31,6,6,0,0,0,.87-.87c.26-.31.51-.64.81-.94a6,6,0,0,1,.45-.42,5.8,5.8,0,0,1,.52-.34v0a4.52,4.52,0,0,0-.51.34,4.57,4.57,0,0,0-.45.43c-.29.29-.53.62-.8.94a5.17,5.17,0,0,1-.87.88,2.11,2.11,0,0,1-.54.33,1.6,1.6,0,0,1-.61.1c-.21,0-.42,0-.62,0a1.29,1.29,0,0,0-.56.19,3.5,3.5,0,0,0-.49.37l-.48.39a2.42,2.42,0,0,1-1.11.58.94.94,0,0,1-.63-.13,1.75,1.75,0,0,1-.46-.44l0,0v0Z"/><path class="cls-3" d="M82.44,65.72v0l0,0c.09-.25.2-.5.28-.75s.16-.51.2-.78a6.82,6.82,0,0,0,.09-.79,5.43,5.43,0,0,1,.09-.81,1.92,1.92,0,0,1,.17-.39,2,2,0,0,1,.27-.31c.21-.19.44-.33.65-.49a2.52,2.52,0,0,0,.57-.56,1.89,1.89,0,0,0,.17-.35,1.67,1.67,0,0,0,.06-.39,12.33,12.33,0,0,1,0-1.61,4.17,4.17,0,0,1,.25-.78c.11-.24.19-.5.32-.74.23-.49.47-1,.71-1.46s.46-1,.69-1.46h0c-.22.5-.42,1-.67,1.48s-.47,1-.7,1.45a7,7,0,0,0-.31.75,4.5,4.5,0,0,0-.25.76,3.57,3.57,0,0,0,0,.8,4.46,4.46,0,0,1,0,.82,2,2,0,0,1-.06.41,2.1,2.1,0,0,1-.18.37,2.61,2.61,0,0,1-.58.57c-.21.17-.44.31-.64.5a2.43,2.43,0,0,0-.26.29c0,.12-.11.23-.15.35a7.22,7.22,0,0,0-.08.8,5.58,5.58,0,0,1-.09.81,7.73,7.73,0,0,1-.19.8c-.08.25-.18.51-.28.76l-.05,0v0Z"/><path class="cls-3" d="M65.24,48.42h0l.05,0,.62.88a4.59,4.59,0,0,0,.36.41l.36.39a2.72,2.72,0,0,0,.42.34l.43.33a4.17,4.17,0,0,0,.46.26l.48.25a3.11,3.11,0,0,0,.5.21,3.28,3.28,0,0,0,.51.15,5.47,5.47,0,0,0,1.07.11c.72,0,1.44-.08,2.17-.08v0c-.72,0-1.44.1-2.17.11a5,5,0,0,1-1.08-.11,2.21,2.21,0,0,1-.52-.14,3.22,3.22,0,0,1-.51-.21l-.48-.24a3.67,3.67,0,0,1-.48-.26L67,50.49a2.72,2.72,0,0,1-.42-.34l-.38-.39a4.59,4.59,0,0,1-.36-.41l-.64-.88,0,0h0Z"/><path class="cls-3" d="M70.56,47.7v0h0a1.31,1.31,0,0,1,.29-.75,4.28,4.28,0,0,1,.53-.59,7,7,0,0,1,1.27-.91c.24-.13.49-.21.72-.32a6.37,6.37,0,0,0,.72-.29,2.94,2.94,0,0,0,.66-.39,5.68,5.68,0,0,0,.57-.53c.36-.37.74-.72,1.07-1.12s.67-.81,1-1.16.77-.71,1.15-1.06c.19-.18.39-.35.56-.54l.52-.58,0,0-.52.58c-.17.19-.37.36-.56.54-.38.36-.78.69-1.13,1.07s-.69.78-1,1.17-.7.76-1.06,1.13a7.27,7.27,0,0,1-.57.54,3.54,3.54,0,0,1-.67.41c-.24.12-.48.2-.72.3a5.64,5.64,0,0,0-.71.31,6.6,6.6,0,0,0-1.24.91,4.62,4.62,0,0,0-.52.57,1.27,1.27,0,0,0-.26.68h-.06v0Z"/><path class="cls-3" d="M73.63,37.34h0l0,0a6.44,6.44,0,0,0,.65-.52l.63-.58a5.9,5.9,0,0,1,.7-.5c.24-.14.52-.24.75-.4a3,3,0,0,0,.63-.55c.19-.21.36-.43.53-.65a5.11,5.11,0,0,1,1.2-1.21,7.94,7.94,0,0,1,.75-.42l.75-.4c.5-.27,1-.55,1.46-.86A8,8,0,0,0,83,30.12a4.14,4.14,0,0,0,.53-.66,3.34,3.34,0,0,0,.37-.76h0a3.6,3.6,0,0,1-.36.77,4.34,4.34,0,0,1-.53.67,8.07,8.07,0,0,1-1.31,1.09c-.47.32-1,.6-1.46.87l-.75.41c-.25.14-.51.26-.74.42a4.77,4.77,0,0,0-1.17,1.2c-.17.22-.35.45-.54.66a2.67,2.67,0,0,1-.64.57c-.24.17-.51.27-.75.41a5.4,5.4,0,0,0-.68.5l-.62.58a7.18,7.18,0,0,1-.67.54l0,0h0Z"/><path class="cls-3" d="M64.42,34.84h0l0,0c.22-.65.4-1.31.66-2a6.52,6.52,0,0,1,.45-.92,3.23,3.23,0,0,1,.29-.43,2.6,2.6,0,0,1,.38-.36,3.18,3.18,0,0,1,.43-.28L67,30.6c.29-.17.58-.35.86-.55s.26-.22.39-.33.22-.26.31-.4a3.81,3.81,0,0,0,.23-.45l.13-.5h0l-.13.5c-.06.16-.15.31-.22.46s-.21.27-.32.41l-.38.34c-.28.2-.57.39-.86.56l-.44.27c-.14.1-.29.18-.42.29a2.39,2.39,0,0,0-.36.35,3.07,3.07,0,0,0-.28.42,5.94,5.94,0,0,0-.43.92c-.25.63-.42,1.29-.64,2l0,0h0Z"/><path class="cls-3" d="M66,34.11h0v0h.64l.64,0,.62-.1.62-.17.59-.23.56-.31.52-.37.49-.42c.31-.29.61-.59.94-.87a9.9,9.9,0,0,1,1-.79,5.07,5.07,0,0,1,.55-.34,6.19,6.19,0,0,1,.6-.23A3.18,3.18,0,0,0,75,29.66l0,0a3.33,3.33,0,0,1-1.16.54,4.29,4.29,0,0,0-.59.24,5.07,5.07,0,0,0-.55.34,9.37,9.37,0,0,0-1,.79l-.94.88-.48.43-.53.38-.56.32-.6.24c-.21.06-.41.13-.62.18l-.64.11-.65,0h-.64v-.06h0Z"/><path class="cls-3" d="M64.58,26.27h0l0,0a10.49,10.49,0,0,1,1.33-2.41,1.48,1.48,0,0,1,.25-.25,1.13,1.13,0,0,1,.27-.22A4.36,4.36,0,0,1,67,23c.42-.21.85-.36,1.26-.57a2,2,0,0,0,.55-.39,3.07,3.07,0,0,0,.41-.54c.24-.39.43-.81.66-1.21s.51-.76.78-1.14l.37-.58.27-.62h0l-.27.64-.36.58c-.27.38-.53.76-.77,1.14s-.41.82-.65,1.22a2.51,2.51,0,0,1-.42.55,1.62,1.62,0,0,1-.56.41c-.41.22-.85.37-1.25.58a4.25,4.25,0,0,0-.58.35,1.38,1.38,0,0,0-.26.22,1.36,1.36,0,0,0-.24.24,10.45,10.45,0,0,0-1.29,2.4l-.05,0v0Z"/><path class="cls-3" d="M68.71,25.22h0l0,0a8.49,8.49,0,0,0,1,.85,3,3,0,0,0,.6.29,2.88,2.88,0,0,0,.65.13,3.71,3.71,0,0,0,.67,0c.22,0,.46-.06.68-.08a4,4,0,0,1,.69.06c.22,0,.45.08.67.1.45.06.9,0,1.36.06l1.36,0a2.39,2.39,0,0,0,.66-.09,2.62,2.62,0,0,0,.62-.26,9.73,9.73,0,0,0,1.12-.78h0a9.77,9.77,0,0,1-1.11.8,3.52,3.52,0,0,1-.63.27,2.59,2.59,0,0,1-.67.1l-1.37,0c-.45,0-.9,0-1.36-.05-.23,0-.45-.07-.67-.1a3.77,3.77,0,0,0-.67,0c-.23,0-.45,0-.67.07a3.21,3.21,0,0,1-.69.05,2.62,2.62,0,0,1-.68-.12,2.73,2.73,0,0,1-.62-.3,7.49,7.49,0,0,1-1.08-.85l0,0h0Z"/><path class="cls-3" d="M59.09,20.29h0v-.06a4.51,4.51,0,0,0,.53-.08,5.1,5.1,0,0,0,.5-.19,5.87,5.87,0,0,0,.9-.6,9.7,9.7,0,0,1,.91-.62l1-.44a7.92,7.92,0,0,0,.92-.58c.15-.1.28-.23.43-.34l.4-.37c.13-.13.26-.25.38-.39s.25-.26.37-.4.46-.57.67-.86h0c-.22.29-.43.59-.67.87s-.24.27-.36.41-.25.26-.38.39-.26.26-.4.38-.27.24-.42.35a8.12,8.12,0,0,1-.93.59c-.33.15-.67.3-1,.46a7.49,7.49,0,0,0-.89.62,5.87,5.87,0,0,1-.92.61,2.87,2.87,0,0,1-.51.21,5.25,5.25,0,0,1-.55.09V20.3h0Z"/><path class="cls-3" d="M59.65,18.52h0l0,0c-.29-.22-.59-.43-.87-.67A2.57,2.57,0,0,1,58,17a1.66,1.66,0,0,1-.18-.53L57.76,16l-.06-.55,0-.55c0-.74,0-1.48,0-2.21l0-2.21h0l0,2.21c0,.73,0,1.47.06,2.2l0,.55.07.55.06.54a1.94,1.94,0,0,0,.18.51,2.88,2.88,0,0,0,.71.81c.28.23.58.44.88.66l0,0h0Z"/><path class="cls-3" d="M51.73,25.79h0l0-.05a6.87,6.87,0,0,0,.94-.75,2.38,2.38,0,0,0,.39-.45,2.65,2.65,0,0,0,.29-.52,3.75,3.75,0,0,0,.13-.58c0-.2.06-.4.08-.6a7.63,7.63,0,0,1,.27-1.19c0-.2.12-.39.14-.59s.07-.4.09-.6c0-.4.06-.81.1-1.21A9.61,9.61,0,0,1,54.3,18c.06-.2.1-.4.17-.59l.24-.56h0l-.24.56c-.06.19-.11.39-.16.58a9.84,9.84,0,0,0-.15,1.2c0,.41,0,.81-.09,1.22,0,.2-.05.4-.08.6a5.11,5.11,0,0,1-.13.59,8.15,8.15,0,0,0-.26,1.19,6.27,6.27,0,0,1-.2,1.2,2.89,2.89,0,0,1-.29.55,3,3,0,0,1-.4.47,7.8,7.8,0,0,1-.95.77l0,0Z"/><path class="cls-3" d="M42.78,28.56h0l0,0a8.5,8.5,0,0,1,.57-.77,1.57,1.57,0,0,1,.35-.33,1,1,0,0,1,.2-.15l.22-.08.44-.17a1.22,1.22,0,0,0,.32-.32,1.71,1.71,0,0,0,.22-.89c0-.32-.06-.63,0-.95a1.55,1.55,0,0,1,.07-.48,2.38,2.38,0,0,1,.15-.45c.26-.58.54-1.15.81-1.73h0c-.25.58-.53,1.15-.77,1.74a1.43,1.43,0,0,0-.15.44,1.52,1.52,0,0,0-.06.47c0,.31,0,.63,0,.95a1.69,1.69,0,0,1-.22.93,1.14,1.14,0,0,1-.34.35l-.45.18-.22.09a1.1,1.1,0,0,0-.18.14,2,2,0,0,0-.33.32c-.2.24-.37.51-.55.77l-.05,0h0Z"/><path class="cls-3" d="M42.51,26.41v0h-.06a1.77,1.77,0,0,0-.22-.56,4.59,4.59,0,0,0-.35-.51,5,5,0,0,1-.7-1.06c-.19-.37-.37-.75-.58-1.11s-.5-.67-.69-1.06a6.23,6.23,0,0,1-.39-1.2,6.14,6.14,0,0,0-.42-1.18,3.66,3.66,0,0,0-.28-.56c-.1-.19-.2-.37-.31-.55-.22-.36-.43-.72-.64-1.09h0c.22.37.43.73.65,1.08l.32.55a4.18,4.18,0,0,1,.28.56,4.23,4.23,0,0,1,.25.58c.07.2.12.4.18.61A6.11,6.11,0,0,0,40,22.07c.17.37.48.68.69,1s.4.75.59,1.12a5.5,5.5,0,0,0,.7,1,6.15,6.15,0,0,1,.37.52,2.09,2.09,0,0,1,.24.6h0v0Z"/><path class="cls-3" d="M32.28,30.89l0,0,0,.05a2.8,2.8,0,0,1-.6-.49,2,2,0,0,1-.38-.68,2.87,2.87,0,0,1-.11-.77,6.34,6.34,0,0,0-.07-.75,2.52,2.52,0,0,0-.24-.7l-.36-.67c-.25-.44-.44-.92-.65-1.38l-2.29-5.64h0l2.34,5.62a14.27,14.27,0,0,0,.65,1.37l.37.67a2.65,2.65,0,0,1,.26.73,6.51,6.51,0,0,1,.07.76,2.93,2.93,0,0,0,.12.73,2,2,0,0,0,.93,1.11l0,.05h0Z"/><path class="cls-3" d="M32.82,34.49h0l0,0a5.59,5.59,0,0,0,.52-.45,2.14,2.14,0,0,0,.41-.54,1.46,1.46,0,0,0,.17-.64,5.25,5.25,0,0,0-.08-.68,4.25,4.25,0,0,1-.06-.71c0-.11,0-.23,0-.35l.09-.34c0-.23.16-.44.22-.66a2.25,2.25,0,0,0,.12-.67,3.11,3.11,0,0,0-.11-.68L34,28c-.06-.22-.1-.46-.15-.68s-.09-.46-.12-.69c0-.46-.1-.92-.13-1.39V23.88h0v1.39c0,.46.09.92.14,1.39,0,.22.09.45.14.68s.08.45.14.68l.17.67a3.2,3.2,0,0,1,.12.7,2.33,2.33,0,0,1-.12.69c-.06.23-.16.44-.21.66l-.09.33c0,.12,0,.23,0,.35a4,4,0,0,0,.06.68,5.36,5.36,0,0,1,.09.7,1.63,1.63,0,0,1-.17.69,2.44,2.44,0,0,1-.43.57c-.17.17-.35.32-.53.47l0-.05,0,0Z"/><path class="cls-3" d="M39.93,44.14h0l0,0c-.33-.31-.68-.6-1-.93a5.66,5.66,0,0,1-.43-.54l-.17-.3-.13-.32A5.18,5.18,0,0,1,38,40.72a2.45,2.45,0,0,0-.1-.66.92.92,0,0,0-.36-.52A9.91,9.91,0,0,0,36.34,39a1.45,1.45,0,0,1-.52-.43,1.3,1.3,0,0,1-.22-.65,4.74,4.74,0,0,0-.07-.67,4.88,4.88,0,0,0-.23-.64c-.1-.2-.21-.4-.32-.6s-.19-.41-.29-.61h0c.1.2.18.42.3.61s.22.4.32.6a3.51,3.51,0,0,1,.24.64,5.1,5.1,0,0,1,.08.67,1.18,1.18,0,0,0,.21.62,1.39,1.39,0,0,0,.51.42,10.59,10.59,0,0,1,1.24.57A1,1,0,0,1,38,40a2.6,2.6,0,0,1,.1.68,5.83,5.83,0,0,0,.13,1.33l.13.31.17.29a5.17,5.17,0,0,0,.42.51c.31.33.66.61,1,.92l0,0h0Z"/><path class="cls-3" d="M40.2,46.29h0l0-.05c.43-.23.88-.4,1.31-.6a4.14,4.14,0,0,0,.62-.35,1.51,1.51,0,0,0,.28-.22.94.94,0,0,0,.23-.26,1.32,1.32,0,0,0,.19-.29l.13-.33a5.54,5.54,0,0,0,.12-.71l.06-.72a4.2,4.2,0,0,1,.17-.7,2.11,2.11,0,0,1,.41-.61,2.93,2.93,0,0,0,.45-.55,3.14,3.14,0,0,0,.18-.31l.1-.34a4.17,4.17,0,0,0,.08-.71l0-2.88h0v2.88a3.45,3.45,0,0,1-.08.72l-.1.35c0,.11-.12.21-.18.32a3.07,3.07,0,0,1-.45.56,2,2,0,0,0-.39.59,3.29,3.29,0,0,0-.16.69l-.06.72a3.49,3.49,0,0,1-.12.72l-.12.35a2.7,2.7,0,0,1-.2.31,1,1,0,0,1-.24.27,1.28,1.28,0,0,1-.29.23,4,4,0,0,1-.63.37c-.44.2-.88.38-1.3.61l0-.05h0Z"/><path class="cls-3" d="M40.14,16.17v0h0l0-1a6.54,6.54,0,0,0,0-1c0-.66-.06-1.32-.12-2s-.11-1.32-.14-2c0-.33,0-.66-.06-1a6.41,6.41,0,0,0-.13-1c-.27-1.3-.8-2.53-1.17-3.81-.1-.32-.15-.65-.23-1s-.08-.66-.13-1c-.05-.66-.05-1.33,0-2h0a19,19,0,0,0,.06,2c0,.32.07.66.13,1s.14.65.23,1c.38,1.27.92,2.5,1.2,3.8a8.42,8.42,0,0,1,.14,1c0,.34,0,.67.06,1,0,.66.09,1.33.15,2s.1,1.32.14,2a8.32,8.32,0,0,1,0,1l0,1h-.06v0Z"/><path class="cls-3" d="M49.41,11v0h-.06c-.06-.23-.12-.46-.19-.69s-.16-.46-.22-.69a3.66,3.66,0,0,1-.17-.71,3,3,0,0,1-.05-.73c0-.48.07-1,.06-1.44A3.44,3.44,0,0,0,48.73,6l-.06-.35-.13-.34c-.38-.87-1.17-1.54-1.44-2.49A3.4,3.4,0,0,1,47,2.12a5.93,5.93,0,0,1,0-.73A3.21,3.21,0,0,1,47.36,0h0A3.16,3.16,0,0,0,47,1.39c0,.24,0,.48,0,.72a3.4,3.4,0,0,0,.12.71c.27.93,1.06,1.59,1.47,2.48,0,.11.09.22.13.34L48.8,6a2.51,2.51,0,0,1,.06.72c0,.49,0,1,0,1.45a3.35,3.35,0,0,0,0,.71,4.2,4.2,0,0,0,.17.7c.06.23.15.46.23.68s.13.47.2.7l-.06,0v0Z"/><path class="cls-3" d="M51.57,8.62h0V8.56c.56-.14,1.11-.29,1.67-.45.27-.09.56-.14.84-.21A5,5,0,0,1,55,7.77c.29,0,.57-.06.86-.08l.43,0,.42-.08a3.8,3.8,0,0,0,.81-.25,4.24,4.24,0,0,0,.77-.38A6.89,6.89,0,0,0,59,6.45l.68-.53c.22-.19.44-.37.68-.54A5,5,0,0,1,61,4.89a7,7,0,0,1,.76-.42c.26-.11.54-.19.82-.28a5.44,5.44,0,0,0,.79-.32,2.35,2.35,0,0,0,.68-.53h0a2.19,2.19,0,0,1-.67.54,6.13,6.13,0,0,1-.8.33,8,8,0,0,0-.82.29,7.94,7.94,0,0,0-.75.42,5.51,5.51,0,0,0-.7.49c-.23.17-.46.36-.68.54s-.44.37-.67.54a5.69,5.69,0,0,1-.71.5,4.73,4.73,0,0,1-.78.39,4,4,0,0,1-.83.26l-.42.09-.43,0L55,7.86a6,6,0,0,0-.85.14c-.28.07-.56.13-.83.21-.55.17-1.11.32-1.67.47v0h0Z"/><path class="cls-3" d="M39,15.1h0l0,.05a8.69,8.69,0,0,1-1.25.65A2.3,2.3,0,0,1,37,16a1.09,1.09,0,0,1-.36,0,1.3,1.3,0,0,1-.34-.08,3.15,3.15,0,0,1-.65-.29c-.19-.13-.39-.25-.58-.39a6.84,6.84,0,0,0-1.17-.75,4.14,4.14,0,0,0-.65-.23L32.62,14c-.46-.11-.9-.27-1.34-.4s-.87-.33-1.31-.5c-.22-.08-.42-.2-.63-.3l-.62-.31v0l.62.31c.21.09.42.22.63.29.44.16.87.35,1.31.48s.89.29,1.34.39l.68.17a3.93,3.93,0,0,1,.66.22,7.25,7.25,0,0,1,1.19.75c.19.14.38.26.58.38a2.75,2.75,0,0,0,.63.28,1.62,1.62,0,0,0,.66.09,2.11,2.11,0,0,0,.66-.15,8,8,0,0,0,1.22-.66l0,0h0Z"/></g></g></g></g></svg>