<svg xmlns="http://www.w3.org/2000/svg" viewBox="0 0 59.1 65.93"><defs><style>.cls-1{isolation:isolate;}.cls-2{mix-blend-mode:overlay;}.cls-3{fill:#2b2b2b;}</style></defs><g class="cls-1"><g id="Layer_2" data-name="Layer 2"><g id="Layer_1-2" data-name="Layer 1"><g class="cls-2"><path class="cls-3" d="M27.82,62.76v-.27h-.57a22.08,22.08,0,0,0-.21-3c-.13-1-.3-2-.5-3a51.85,51.85,0,0,0-1.52-6c-.17-.48-.34-1-.53-1.41-.1-.22-.21-.44-.31-.64s-.24-.41-.39-.63c-.27-.42-.59-.85-.86-1.34l-.2-.4-.15-.35c-.1-.27-.19-.54-.27-.8a11.75,11.75,0,0,1-.4-3.22,11.06,11.06,0,0,1,.14-1.61c.08-.54.21-1,.32-1.54a32.16,32.16,0,0,0,.8-6.09,7.21,7.21,0,0,0-.39-2.94c-.19-.45-.44-.91-.67-1.38s-.44-.95-.64-1.44a9.22,9.22,0,0,1-.75-3.06,7.7,7.7,0,0,1,.06-1.59c.07-.51.17-1,.27-1.54.2-1,.44-2,.69-3a26.92,26.92,0,0,1,.92-3l.19.08a27.18,27.18,0,0,0-.87,3c-.24,1-.46,2-.64,3-.1.5-.18,1-.25,1.52a7.72,7.72,0,0,0,0,1.52,8.84,8.84,0,0,0,.81,2.92c.21.46.43.93.67,1.38s.5.9.72,1.4a7.55,7.55,0,0,1,.53,3.16,32.61,32.61,0,0,1-.63,6.24c-.09.51-.2,1-.26,1.51a9.24,9.24,0,0,0-.08,1.49,9.94,9.94,0,0,0,.45,2.92c.07.23.16.45.24.67l.17.35.16.29c.24.41.54.81.85,1.25.15.21.33.47.45.68s.26.5.37.75c.22.5.41,1,.58,1.5a51.82,51.82,0,0,1,1.6,6.08c.22,1,.39,2.06.54,3.1a23.82,23.82,0,0,1,.24,3.19h-.57v.27Z"/><path class="cls-3" d="M27.7,59.05V59h-.57a12.17,12.17,0,0,1,.4-3.32,8.39,8.39,0,0,1,1.56-3c.67-.86,1.42-1.64,2.08-2.42A9.66,9.66,0,0,0,32.05,49a9.32,9.32,0,0,0,.65-1.35,11.82,11.82,0,0,0,.65-3c.1-1,.11-2.07.12-3.13a29.27,29.27,0,0,1,.18-3.23,11.1,11.1,0,0,1,.87-3.16,10.52,10.52,0,0,1,1.85-2.7c.74-.79,1.54-1.5,2.31-2.22A19.27,19.27,0,0,0,40.87,28a6.9,6.9,0,0,0,1.44-2.69,11,11,0,0,0,.26-3.09,25.78,25.78,0,0,0-.35-3.14C42.07,18,42,17,41.9,15.91a10.87,10.87,0,0,0-.67-3.06l.18-.08a11.23,11.23,0,0,1,.76,3.11c.14,1,.22,2.11.38,3.15A25.44,25.44,0,0,1,43,22.2a11.65,11.65,0,0,1-.21,3.22,7.49,7.49,0,0,1-1.47,2.91,21.31,21.31,0,0,1-2.2,2.35c-.76.73-1.54,1.45-2.23,2.22a9.53,9.53,0,0,0-1.68,2.56,10.29,10.29,0,0,0-.74,3,27,27,0,0,0-.12,3.13c0,1.05,0,2.13-.06,3.21A12.5,12.5,0,0,1,33.62,48a8.79,8.79,0,0,1-.7,1.53A10.6,10.6,0,0,1,32,50.89c-.7.86-1.41,1.62-2,2.44A7.47,7.47,0,0,0,28.66,56a10.59,10.59,0,0,0-.29,3H27.8v.09Z"/><path class="cls-3" d="M27.57,61.44l0-.1L27,61.27c.15-1.09.32-2.13.43-3.19a30.48,30.48,0,0,0,.2-3.17c0-.53,0-1.06,0-1.59s0-1.06-.09-1.58l-.14-1.61-.07-.81c0-.27,0-.55,0-.83,0-.56,0-1.11,0-1.66s.08-1.1.18-1.64A28.5,28.5,0,0,1,28.19,42c.28-1.06.58-2.08.87-3.12s.57-2.07.82-3.12.49-2.09.71-3.12a18.87,18.87,0,0,0,.35-3.17,11.06,11.06,0,0,0-.3-3.13c-.11-.53-.23-1.06-.32-1.6s-.15-1.07-.23-1.6a42.42,42.42,0,0,1-.49-6.47,7.75,7.75,0,0,1,.73-3.18,14.18,14.18,0,0,1,1.75-2.74l.17.12a14.48,14.48,0,0,0-1.67,2.73,7.57,7.57,0,0,0-.65,3.08,43.08,43.08,0,0,0,.63,6.39c.08.53.16,1.07.26,1.59s.22,1,.34,1.56a12,12,0,0,1,.38,3.27,18.73,18.73,0,0,1-.29,3.26c-.21,1.07-.41,2.13-.66,3.18s-.5,2.1-.76,3.15-.55,2.09-.8,3.12a30.69,30.69,0,0,0-.57,3.13c-.08.52-.1,1-.14,1.57s0,1.06,0,1.57l0,.78.08.8.17,1.61c.07.55.1,1.09.13,1.64s0,1.09,0,1.64a32.71,32.71,0,0,1-.14,3.28c-.11,1.08-.25,2.17-.38,3.22l-.56-.07v.1Z"/><path class="cls-3" d="M27.75,65.93v-.12l-.8,0c0-1.33,0-2.66,0-4s.05-2.66.16-4,.2-2.66.34-4l.26-2,.32-2c.22-1.31.46-2.6.63-3.88a21.6,21.6,0,0,0,.19-3.85c0-.32,0-.64,0-1l-.1-1c-.05-.64-.17-1.28-.27-1.92l-.17-1-.21-1c-.14-.64-.26-1.28-.44-1.91l-.49-1.91c-.17-.68-.29-1.3-.44-1.95s-.17-1.35-.25-2-.07-1.33-.08-2c0-1.33,0-2.66.06-4s.07-2.63,0-3.93l-.06-1c0-.29-.09-.64-.13-1l-.15-1c-.06-.32-.15-.62-.23-.94l-.23-.94L25.29,13,25,12.08l-.39-.9c-.14-.3-.26-.6-.4-.89l-.44-.89c-.28-.6-.61-1.16-.92-1.74s-.69-1.11-1-1.67S21,4.92,20.65,4.39l.23-.18c.4.53.81,1,1.2,1.59s.75,1.1,1.07,1.67.68,1.15,1,1.74l.46.87c.15.3.28.61.42.91l.42.91.35.93.34.94.27,1c.08.32.18.65.25,1l.17,1c.05.33.13.63.16,1l.08,1c.12,1.33.12,2.66.11,4s0,2.63,0,3.94c0,.65.08,1.3.12,1.95s.16,1.26.28,1.89.3,1.31.47,1.9l.54,1.91c.19.64.33,1.29.49,1.94l.24,1,.19,1c.13.66.26,1.31.33,2l.13,1c0,.33,0,.67.06,1a22.83,22.83,0,0,1-.11,4.05c-.14,1.34-.36,2.64-.55,3.94l-.26,2L28.9,54c-.1,1.3-.21,2.6-.24,3.91s-.06,2.61-.07,3.92.06,2.62.09,3.93l-.79,0v.11Z"/><path class="cls-3" d="M33.86,42.07v0h-.41a4.87,4.87,0,0,1,.37-2A5.12,5.12,0,0,1,35,38.45a31.8,31.8,0,0,1,3-2.18c.49-.34,1-.74,1.47-1.1s1-.69,1.55-1,1-.66,1.51-1c.24-.18.49-.36.71-.56l.34-.28.33-.32a7.51,7.51,0,0,0,1-1.44,9.58,9.58,0,0,0,.69-1.65,17.64,17.64,0,0,0,.45-1.77c.12-.6.22-1.19.3-1.8A56,56,0,0,0,46.73,18h.15c0,1.23.06,2.46,0,3.69,0,.61,0,1.23,0,1.85,0,.3,0,.61-.06.92s0,.62-.09.92c-.07.61-.16,1.23-.27,1.83s-.24,1.22-.41,1.82a10.1,10.1,0,0,1-.69,1.75,7.15,7.15,0,0,1-1.07,1.57l-.32.33-.36.32c-.23.22-.48.41-.72.6-.5.38-1,.73-1.52,1.08s-1,.69-1.49,1-1,.77-1.45,1.15A30.36,30.36,0,0,0,35.55,39a4.08,4.08,0,0,0-.95,1.37A4,4,0,0,0,34.34,42h-.41v0Z"/><path class="cls-3" d="M37.37,31.82v0L37,31.72a7.14,7.14,0,0,1,.49-1.48c.2-.46.42-.91.63-1.35a9.89,9.89,0,0,0,.52-1.31l.16-.72a4.58,4.58,0,0,0,.12-.71,8.4,8.4,0,0,0,0-1.42L39,24l-.14-.7a9.1,9.1,0,0,0-.38-1.4c-.16-.46-.33-.92-.51-1.37-.74-1.82-1.65-3.57-2.43-5.39-.2-.45-.37-.92-.55-1.38s-.32-.94-.45-1.42c-.08-.23-.13-.48-.19-.72s-.11-.48-.15-.73c-.09-.48-.13-1-.18-1.47h.12a13.68,13.68,0,0,0,.22,1.45,5.8,5.8,0,0,0,.17.72c.06.24.12.48.2.71.14.47.31.93.49,1.39s.37.9.58,1.35c.81,1.79,1.77,3.51,2.57,5.33.2.46.38.92.56,1.39a9.6,9.6,0,0,1,.43,1.44l.16.74.06.76a7.94,7.94,0,0,1,0,1.54,3.57,3.57,0,0,1-.11.74l-.14.73a9.49,9.49,0,0,1-.53,1.45c-.2.46-.4.91-.58,1.35a6,6,0,0,0-.4,1.34l-.34-.06v0Z"/><path class="cls-3" d="M31.09,26.88h0L31,26.55a2.16,2.16,0,0,0,1.17-.73A4.54,4.54,0,0,0,33,24.5,10.87,10.87,0,0,0,33.45,23c.06-.26.12-.52.17-.79l.15-.8c.1-.54.17-1.07.23-1.61s.1-1.08.13-1.63c.07-1.08.09-2.18.12-3.27h.12c0,1.09.05,2.19,0,3.28,0,.55,0,1.1-.06,1.65s-.08,1.11-.15,1.64c0,.27-.07.55-.11.82s-.09.55-.14.82a10.85,10.85,0,0,1-.42,1.63,5.34,5.34,0,0,1-.8,1.53,2.78,2.78,0,0,1-1.53,1l-.07-.33h0Z"/><path class="cls-3" d="M22.53,28.34h0l-.26-.22.37-.46.34-.5.29-.52.24-.56a8.72,8.72,0,0,0,.37-1.16,11.75,11.75,0,0,0,.22-1.21c.22-1.64.18-3.32.24-5h.12a47,47,0,0,1,.07,5c0,.42-.08.85-.15,1.27a10.91,10.91,0,0,1-.32,1.25l-.22.62-.28.59-.34.57-.38.53-.26-.21h0Z"/><path class="cls-3" d="M23.33,35.44v0H23a4.46,4.46,0,0,0-.94-2.59c-.56-.79-1.29-1.5-1.92-2.3a14.06,14.06,0,0,1-.86-1.26c-.28-.42-.53-.86-.79-1.3s-.47-.89-.71-1.34-.41-.93-.6-1.4L17,24.48a4.64,4.64,0,0,1-.2-.73,9.63,9.63,0,0,1-.27-1.5c0-.25-.07-.5-.09-.75V20.16l0-.19c0-.25.05-.5.09-.75l.17-.75.23-.72c.16-.48.35-.95.54-1.41s.39-.93.57-1.4.32-.94.46-1.42l.11,0A15.09,15.09,0,0,1,18.14,15c-.16.47-.35.94-.53,1.4s-.35.94-.51,1.41l-.2.72-.15.72c0,.24,0,.5-.07.74l0,.19v.55l0,.74c0,.25.06.49.1.74a9.08,9.08,0,0,0,.29,1.45,4.48,4.48,0,0,0,.22.71l.25.7c.2.45.39.91.61,1.35s.46.88.73,1.3.52.84.8,1.25a13.66,13.66,0,0,0,.87,1.2c.62.76,1.35,1.45,2,2.28a6,6,0,0,1,.79,1.37,4.69,4.69,0,0,1,.33,1.57h-.31v0Z"/><path class="cls-3" d="M25.12,49.41l0,0-.29.17-.6-1a10.16,10.16,0,0,0-.69-.93,8.93,8.93,0,0,0-.77-.86c-.13-.14-.26-.29-.4-.42l-.43-.4c-.56-.54-1.18-1-1.78-1.56-.3-.25-.6-.52-.89-.8a9.91,9.91,0,0,1-.83-.88,8.44,8.44,0,0,1-.7-1,9.85,9.85,0,0,1-.55-1.07,11.71,11.71,0,0,1-.75-2.28A9.6,9.6,0,0,1,16.19,36a8,8,0,0,1,.13-1.19c0-.19.1-.39.15-.58s.14-.37.21-.56l.11.05c-.06.18-.13.36-.18.55s-.1.38-.13.57A7.68,7.68,0,0,0,16.39,36a9.44,9.44,0,0,0,.3,2.31,11.34,11.34,0,0,0,.8,2.2,10,10,0,0,0,.57,1,5.72,5.72,0,0,0,.7.92,7,7,0,0,0,.82.81c.28.26.58.52.89.76.61.5,1.25,1,1.84,1.51l.46.39.43.43a8.7,8.7,0,0,1,.83.88,10.2,10.2,0,0,1,.76,1l.67,1-.3.16,0,0Z"/><path class="cls-3" d="M33.88,42.05l0,0-.22-.19a5.54,5.54,0,0,1,1.26-1,8.46,8.46,0,0,1,1.43-.67c.49-.17,1-.31,1.49-.43s1-.2,1.53-.27c1-.14,2-.22,3.05-.29.5,0,1-.07,1.51-.13s1-.13,1.5-.21,1-.21,1.47-.34c.24-.06.48-.14.72-.22l.71-.25c.48-.18.93-.4,1.38-.62l.65-.38c.21-.13.42-.28.62-.42a7.13,7.13,0,0,0,1.11-1,3.8,3.8,0,0,0,.47-.59l.22-.3.18-.33.17-.34a3.65,3.65,0,0,0,.14-.35,4.29,4.29,0,0,0,.22-.72,4.57,4.57,0,0,0,.12-.74l0-.76h.1l0,.77a6.32,6.32,0,0,1-.11.76,3.69,3.69,0,0,1-.21.74c0,.12-.08.25-.13.37l-.17.34-.18.35-.22.32a3.42,3.42,0,0,1-.47.61,7.48,7.48,0,0,1-1.12,1.06c-.21.15-.41.31-.62.45l-.66.4a14.87,14.87,0,0,1-1.4.66,6.24,6.24,0,0,1-.72.27,6.23,6.23,0,0,1-.73.24c-.49.15-1,.27-1.49.38s-1,.19-1.52.25-1,.11-1.53.16c-1,.09-2,.2-3,.36-.5.08-1,.18-1.48.29a13.73,13.73,0,0,0-1.42.44,7,7,0,0,0-1.32.65,4.59,4.59,0,0,0-1.09.92L34,42.05l0,0Z"/><path class="cls-3" d="M42.72,33.37h0l-.07-.19a14,14,0,0,0,3.49-1.82,18.05,18.05,0,0,0,3-2.54,9.06,9.06,0,0,0,.63-.76,7.19,7.19,0,0,0,.52-.83,7.33,7.33,0,0,0,.39-.91,9.53,9.53,0,0,0,.29-.95c.31-1.29.4-2.63.68-3.94l.07,0c-.24,1.31-.3,2.65-.58,4a8.32,8.32,0,0,1-.26,1,6.42,6.42,0,0,1-.39.94A7.11,7.11,0,0,1,49.42,29a18.7,18.7,0,0,1-3,2.65,15,15,0,0,1-3.56,2l-.06-.2h0Z"/><path class="cls-3" d="M19.41,28.93l0,0-.18.11a6.2,6.2,0,0,0-.57-.75c-.2-.25-.41-.49-.63-.73-.43-.48-.87-1-1.31-1.43s-.9-.93-1.37-1.37-1-.84-1.43-1.32a5.73,5.73,0,0,1-.63-.77,6.27,6.27,0,0,1-.48-.88,8.32,8.32,0,0,1-.57-1.88A20.38,20.38,0,0,1,12,16h.08a19.12,19.12,0,0,0,.34,3.86,8.1,8.1,0,0,0,.6,1.82,6.07,6.07,0,0,0,.48.82,4.71,4.71,0,0,0,.62.72c.22.23.47.44.71.65l.75.62c.49.44.95.9,1.4,1.37s.91.93,1.35,1.41c.22.24.44.48.65.73a7.28,7.28,0,0,1,.63.79l-.18.11,0,0Z"/><path class="cls-3" d="M19.44,43.46h0l-.19.08-.34-.89-.31-.91-.11-.48c0-.16-.07-.32-.09-.48l0-1c0-.32,0-.63,0-.95a6.22,6.22,0,0,1,.17-1l.17-.45c.08-.14.15-.29.24-.43s.17-.27.27-.39l.31-.36.06,0-.29.38c-.09.13-.17.26-.25.4s-.13.28-.2.42-.1.29-.14.44a5.66,5.66,0,0,0-.13.92c0,.31,0,.63,0,.94l.09.93a3.69,3.69,0,0,0,.11.45l.11.44.35.87.39.87-.19.08h0Z"/><path class="cls-3" d="M30.11,21.41h0l-.18-.09A11.1,11.1,0,0,1,30.84,20c.16-.21.31-.42.46-.64a7.51,7.51,0,0,0,.39-.68,9.33,9.33,0,0,0,.6-1.46c.07-.25.13-.51.18-.77l.05-.39,0-.4h.07V16l0,.4a7.45,7.45,0,0,1-.14.8,10.09,10.09,0,0,1-.52,1.52,6.24,6.24,0,0,1-.37.73c-.13.24-.28.46-.43.69a11,11,0,0,0-.8,1.34l-.18-.09h0Z"/><path class="cls-3" d="M37.26,18.81l0,0-.18-.22a2.05,2.05,0,0,0,.49-.68,4.39,4.39,0,0,0,.28-.89,9.45,9.45,0,0,0,.13-.95c0-.32,0-.64,0-1a14.12,14.12,0,0,0-.17-1.94c-.05-.32-.11-.64-.19-1s-.18-.62-.28-.93l-.61-1.9c-.2-.63-.39-1.27-.54-1.91-.08-.33-.17-.65-.22-1s-.13-.65-.16-1-.07-.67-.09-1l0-1h.1l.06,1c0,.33.08.66.12,1s.13.65.19,1,.16.64.24,1c.17.63.38,1.26.6,1.88l.67,1.87c.11.31.22.62.32.95s.17.66.23,1a13.48,13.48,0,0,1,.24,2c0,.34,0,.67,0,1a9.25,9.25,0,0,1-.11,1,4.61,4.61,0,0,1-.28,1,2.51,2.51,0,0,1-.64.93l-.18-.22,0,0Z"/><path class="cls-3" d="M42.71,21.92v0l-.19-.09c.12-.27.26-.53.36-.81s.21-.55.29-.84.17-.57.22-.87.13-.58.16-.88.1-.59.12-.89,0-.6.06-.9l0-.9,0-.9-.06-.9L43.6,13c0-.3-.09-.59-.14-.89s-.12-.59-.18-.89-.15-.58-.22-.87-.18-.58-.27-.87-.22-.56-.33-.84-.26-.54-.39-.81l.07,0c.13.27.29.53.41.81s.25.55.35.84.22.57.3.86.18.59.25.88.15.59.2.89.12.6.16.9l.12.91.08.91,0,.91v.91c0,.31,0,.61,0,.92s-.07.61-.09.91-.1.61-.15.91-.14.6-.2.9-.19.59-.28.88-.24.57-.36.86l-.18-.09v0Z"/><path class="cls-3" d="M26.73,18.34v0l-.28,0a4.12,4.12,0,0,1,.06-1.06c.06-.34.14-.67.22-1s.16-.63.22-.94c0-.15,0-.31.05-.46l0-.49c0-.66.09-1.33.07-2v-1c0-.32,0-.66,0-1s-.07-.66-.13-1-.11-.64-.18-1c-.14-.64-.3-1.28-.46-1.92S26,5.33,25.84,4.7c-.09-.32-.18-.63-.29-.94a3.33,3.33,0,0,0-.44-.86l.08-.07a3.8,3.8,0,0,1,.49.88c.12.31.23.62.32.94.19.64.33,1.28.51,1.92s.35,1.26.52,1.91c.08.32.14.65.22,1s.1.65.15,1a8.59,8.59,0,0,1,.08,1l.05,1c0,.67,0,1.32,0,2v.5c0,.18,0,.35-.05.52-.05.34-.12.67-.19,1s-.14.64-.18.95a3.91,3.91,0,0,0,0,.9l-.28,0v0Z"/><path class="cls-3" d="M14.87,24.05v0l-.09,0a3.66,3.66,0,0,1-.29-1.28,9.26,9.26,0,0,1,0-1.29c0-.85.12-1.69.19-2.54a18,18,0,0,0,.07-2.54,5.92,5.92,0,0,0-.2-1.25,2.49,2.49,0,0,0-.62-1.08l0,0a2.51,2.51,0,0,1,.66,1.09,6.07,6.07,0,0,1,.23,1.26,19.86,19.86,0,0,1,0,2.56c-.05.85-.12,1.69-.14,2.54a10.55,10.55,0,0,0,0,1.26A3.46,3.46,0,0,0,15,24l-.1,0v0Z"/><path class="cls-3" d="M24.65,10.8h0l-.06.16-1-.48-.5-.24a4,4,0,0,1-.5-.27l-1-.59a9.65,9.65,0,0,1-.9-.68c-.14-.12-.3-.22-.44-.35l-.4-.4-.39-.4-.35-.44a3.45,3.45,0,0,1-.33-.45l-.31-.47c-.18-.33-.35-.66-.52-1l.05,0c.18.33.37.65.56,1l.31.46a3.65,3.65,0,0,0,.35.43l.36.42c.13.14.27.26.4.38l.4.38c.14.12.3.22.44.33a10.59,10.59,0,0,0,.91.63l1,.55a3.89,3.89,0,0,0,.5.25l.5.22,1,.44-.06.16h0Z"/><path class="cls-3" d="M29.68,16.24v0l-.14.09-.32-.68c-.1-.22-.16-.46-.24-.69a4.49,4.49,0,0,1-.19-.72,4.43,4.43,0,0,1-.11-.73,4.4,4.4,0,0,1-.06-.73,5.93,5.93,0,0,1,0-.73c0-.25,0-.49.05-.73a5.67,5.67,0,0,1,.09-.72c.07-.49.17-1,.28-1.43s.23-.94.36-1.41a24.43,24.43,0,0,0,.67-2.81h.06a23.13,23.13,0,0,1-.6,2.84c-.11.47-.22.93-.32,1.41s-.18.94-.24,1.42c0,.23-.05.47-.07.71s0,.48,0,.71a5.77,5.77,0,0,0,0,.72,4.29,4.29,0,0,0,.08.71,4,4,0,0,0,.13.69,4.85,4.85,0,0,0,.19.68c.09.22.15.45.26.66l.31.64-.15.08v0Z"/><path class="cls-3" d="M26.76,54.12l0,0-.38.25a11.79,11.79,0,0,0-2.25-2.58,15.38,15.38,0,0,0-2.91-1.91c-2.08-1.08-4.37-1.78-6.54-2.86a17.44,17.44,0,0,1-1.58-.9,16.59,16.59,0,0,1-1.49-1,7.81,7.81,0,0,1-2.32-2.81,8.42,8.42,0,0,1-.72-3.55A16.45,16.45,0,0,1,9,35.11l.16,0a16.17,16.17,0,0,0-.32,3.53,7.88,7.88,0,0,0,.79,3.39,7.44,7.44,0,0,0,2.27,2.59c.47.35,1,.66,1.47,1s1,.58,1.56.82c2.13,1,4.45,1.64,6.64,2.7a16.52,16.52,0,0,1,3.12,1.93,13,13,0,0,1,2.51,2.72L26.8,54l0,0Z"/><path class="cls-3" d="M37.1,40.22h0v-.1a6.69,6.69,0,0,1,2,.23,3.28,3.28,0,0,1,.92.41c.28.19.51.43.78.6a4,4,0,0,0,.84.46c.31.08.62.17,1,.23s.64.17.95.28l.94.3a8.16,8.16,0,0,0,.94.25,2.64,2.64,0,0,0,.49.08,2,2,0,0,0,.48,0c.65,0,1.31,0,2,0l3.93-.16v0l-3.93.2c-.66,0-1.31.09-2,.08a2.8,2.8,0,0,1-.5,0c-.16,0-.33,0-.49-.08-.32-.06-.64-.15-1-.24-.63-.2-1.25-.41-1.88-.56-.32-.06-.64-.14-1-.23a4.17,4.17,0,0,1-.89-.46c-.29-.18-.52-.42-.79-.59a3.24,3.24,0,0,0-.87-.38,6.85,6.85,0,0,0-1.92-.2v-.1h0Z"/><path class="cls-3" d="M45.28,39h0l-.08-.07a22.76,22.76,0,0,1,1.59-1.82c.14-.14.3-.27.45-.41s.31-.25.49-.36l.51-.32a.84.84,0,0,0,.33-.43c.05-.18.07-.38.11-.58l.1-.59c.05-.4.15-.79.23-1.19s.2-.77.3-1.16c0-.2.13-.38.19-.57l.2-.57h0l-.18.57c-.06.19-.13.38-.18.58-.09.39-.21.77-.28,1.16s-.16.78-.21,1.18l-.08.6a4.48,4.48,0,0,1-.11.6,1,1,0,0,1-.37.51l-.5.33a4.17,4.17,0,0,0-.47.36l-.44.41c-.55.57-1,1.2-1.53,1.83L45.31,39h0Z"/><path class="cls-3" d="M49.9,37.53h0l.07-.07a4,4,0,0,0,.45.37,3.15,3.15,0,0,0,.5.3,3.21,3.21,0,0,0,.54.22,4.22,4.22,0,0,0,1.16.18,5.83,5.83,0,0,0,.59,0c.4,0,.78-.13,1.19-.18a6,6,0,0,1,.61,0,1.45,1.45,0,0,1,.3,0l.3.06.58.17a2.33,2.33,0,0,0,.58.09l.6-.07.57-.14c.38-.13.76-.26,1.13-.41l0,0c-.37.15-.75.29-1.13.42l-.59.16c-.19,0-.39,0-.59.08a2,2,0,0,1-.61-.08l-.58-.15a1.35,1.35,0,0,0-.29-.05,1,1,0,0,0-.29,0,5.63,5.63,0,0,0-.59.05c-.39,0-.79.15-1.19.2-.2,0-.41,0-.61.05s-.41,0-.61,0a4,4,0,0,1-.6-.13,3.14,3.14,0,0,1-.58-.22,2.82,2.82,0,0,1-.53-.31,3.57,3.57,0,0,1-.49-.38l.08-.08h0Z"/><path class="cls-3" d="M48.71,29.56h0v-.1c.46,0,.92,0,1.37,0h.68a2.22,2.22,0,0,0,.63-.14A3.64,3.64,0,0,0,52,29c.2-.11.38-.24.6-.35a3.25,3.25,0,0,1,.64-.24l.34-.08.34,0,.68-.06c.21,0,.45-.09.66-.15a6.62,6.62,0,0,0,.62-.24l.62-.29c.41-.2.83-.36,1.24-.54a3.12,3.12,0,0,0,.59-.34,2.37,2.37,0,0,0,.48-.47l0,0a2.48,2.48,0,0,1-.48.49,3,3,0,0,1-.59.35c-.41.2-.83.36-1.24.57l-.61.3c-.2.1-.42.17-.64.26s-.43.1-.67.15l-.67.08-.34,0-.32.07a4,4,0,0,0-.62.25c-.19.1-.38.23-.57.35a4.06,4.06,0,0,1-.62.33,2.24,2.24,0,0,1-.68.15l-.69,0c-.46,0-.9,0-1.35.06v-.1h0Z"/><path class="cls-3" d="M50.27,27.72h0l-.1,0L50,27.26l-.24-.46-.26-.46-.21-.5c-.05-.19-.09-.35-.12-.52s0-.37,0-.55a7.36,7.36,0,0,0,0-1.05c-.06-.7-.12-1.4-.19-2.1l-.25-2.09h0l.3,2.09c.08.7.15,1.4.23,2.1a9.45,9.45,0,0,1,0,1.06c0,.18,0,.34,0,.51a4.05,4.05,0,0,0,.12.5l.21.47.26.45.26.47.21.5-.09,0h0Z"/><path class="cls-3" d="M43.71,18.51h0l-.07-.08.45-.42.41-.45a5.74,5.74,0,0,0,.36-.5,3.84,3.84,0,0,0,.28-.53,2.81,2.81,0,0,0,.19-.58l.14-.61.07-.3.11-.3a3.29,3.29,0,0,1,.29-.56c.24-.35.51-.67.77-1a4.46,4.46,0,0,0,.35-.5l.15-.27.11-.28a3.08,3.08,0,0,0,.14-.6V10.9l0-1.25h0v1.87a2.53,2.53,0,0,1-.13.62l-.11.3-.15.28a5.91,5.91,0,0,1-.35.52c-.25.33-.51.65-.73,1a4.75,4.75,0,0,0-.28.55l-.1.29-.06.3-.13.61a2.61,2.61,0,0,1-.19.6,3,3,0,0,1-.28.57c-.12.18-.23.36-.36.52l-.42.48-.45.44-.07-.08h0Z"/><path class="cls-3" d="M43.77,14.48v0h-.1a4.17,4.17,0,0,0-1-2.19c-.26-.33-.53-.64-.8-1a10.66,10.66,0,0,1-.76-1,4.86,4.86,0,0,1-.33-.54c-.1-.18-.21-.37-.3-.56s-.18-.38-.25-.58A6.17,6.17,0,0,1,40,8a4.15,4.15,0,0,1-.14-.61c0-.21-.09-.42-.1-.63,0-.42-.05-.84-.05-1.26h0c0,.42,0,.84.09,1.26a4.31,4.31,0,0,0,.1.61,6,6,0,0,0,.15.61,5.1,5.1,0,0,0,.2.59,5.86,5.86,0,0,0,.26.57c.09.19.2.37.3.55a5.8,5.8,0,0,0,.34.52,8.43,8.43,0,0,0,.77,1l.82,1a7.06,7.06,0,0,1,.72,1.06,3.06,3.06,0,0,1,.39,1.24h-.11v0Z"/><path class="cls-3" d="M37,10v0h-.11l.28-2.23.14-1.11a4.48,4.48,0,0,1,.1-.55,4.92,4.92,0,0,1,.14-.55c.12-.36.23-.71.32-1.07,0-.18.07-.36.08-.55s0-.36,0-.55c0-.37,0-.74,0-1.12l0-1.11h0L38,2.24c0,.37.06.74.06,1.12a5.23,5.23,0,0,1,0,.56,5.51,5.51,0,0,1-.06.57c-.09.36-.2.72-.3,1.07a3.27,3.27,0,0,0-.13.54,5.25,5.25,0,0,0-.09.55l-.11,1.11L37.16,10h-.11v0Z"/><path class="cls-3" d="M37.71,12.19h0l-.05.09-.6-.33-.58-.37L36,11.12l-.44-.54c-.12-.21-.23-.4-.33-.61A5.6,5.6,0,0,1,35,9.31l-.15-.66-.07-.33L34.64,8a3.3,3.3,0,0,0-.34-.57c-.13-.18-.28-.34-.43-.51s-.31-.33-.45-.51l-.21-.27L33,5.86a3.53,3.53,0,0,1-.38-1.31c-.06-.45-.07-.9-.11-1.35h0c.06.45.08.9.14,1.35a4.67,4.67,0,0,0,.13.65,3.38,3.38,0,0,0,.26.62l.18.28.21.26.46.5a5.37,5.37,0,0,1,.44.51,2.78,2.78,0,0,1,.37.59l.12.33.08.33.16.65c.05.22.14.42.21.63s.22.4.33.58l.42.5.51.42.57.36.59.31,0,.09h0Z"/><path class="cls-3" d="M28.85,10.93h0l-.05-.09.22-.15.19-.19.36-.45a1.37,1.37,0,0,1,.22-.2,1.53,1.53,0,0,1,.25-.16l.52-.25a1.88,1.88,0,0,0,.24-.14A1.24,1.24,0,0,0,31,9.12a1.83,1.83,0,0,0,.35-.43c.09-.16.18-.33.26-.51s.18-.34.28-.5l0,0c-.09.17-.17.34-.25.51s-.16.35-.25.52a2,2,0,0,1-.35.47,1.3,1.3,0,0,1-.22.19,2.2,2.2,0,0,1-.25.17c-.17.09-.35.17-.5.27a.66.66,0,0,0-.22.15,1.23,1.23,0,0,0-.2.19l-.34.46c-.07.08-.13.16-.2.23l-.26.18L28.86,11h0Z"/><path class="cls-3" d="M27.11,9.31h0L27,9.24a4.16,4.16,0,0,0,.28-.51,5,5,0,0,0,.23-.53c.06-.19.13-.37.17-.56a2.8,2.8,0,0,0,.09-.58,2.71,2.71,0,0,0,0-.57l-.05-.28-.1-.28a4.2,4.2,0,0,0-.26-.52c-.08-.18-.19-.36-.27-.54A2.41,2.41,0,0,1,27,4.29,1.63,1.63,0,0,1,27,3.67a8.18,8.18,0,0,1,.48-1.09A5.25,5.25,0,0,0,27.7,2c.07-.19.11-.38.16-.57A5.86,5.86,0,0,0,28,.88l0-.6h0l0,.6a5.58,5.58,0,0,1-.09.59,4.91,4.91,0,0,1-.15.58c-.07.19-.13.38-.21.56A10.14,10.14,0,0,0,27.1,3.7a1.59,1.59,0,0,0,0,.57,2.72,2.72,0,0,0,.18.55c.09.17.19.34.28.52a3.89,3.89,0,0,1,.27.54l.11.28.06.31a2.49,2.49,0,0,1,0,.61,3.11,3.11,0,0,1-.09.6,3.83,3.83,0,0,1-.16.58,3.88,3.88,0,0,1-.23.56,4.58,4.58,0,0,1-.28.54l-.09,0h0Z"/><path class="cls-3" d="M27.22,11.34h0l0,.1a1.76,1.76,0,0,1-.6-.51,3.75,3.75,0,0,1-.4-.66,6.09,6.09,0,0,1-.27-.71,3.27,3.27,0,0,1-.16-.74l-.18-1.48,0-.19L25.47,7a1.81,1.81,0,0,0-.13-.35l-.18-.31L25,6c-.3-.4-.57-.83-.83-1.25-.13-.21-.27-.42-.39-.64l-.36-.65c-.26-.43-.45-.89-.67-1.34L22.05.8l0,0,.67,1.34c.23.44.43.89.69,1.32l.37.64c.12.22.27.42.4.63.27.42.54.84.84,1.23l.23.3.19.34a2.13,2.13,0,0,1,.14.35l.07.18,0,.19.2,1.48a4.32,4.32,0,0,0,.17.71c.08.23.17.46.27.68a3.13,3.13,0,0,0,.38.61,1.47,1.47,0,0,0,.53.44l0,.1h0Z"/><path class="cls-3" d="M21.16,8.87v0h-.1c0-.4,0-.79,0-1.19a5.67,5.67,0,0,0,0-.58c0-.19-.06-.39-.11-.57A4.35,4.35,0,0,0,20.68,6c-.1-.17-.2-.33-.31-.49-.22-.33-.47-.64-.7-1a1.45,1.45,0,0,1-.17-.26A1.13,1.13,0,0,1,19.37,4a1.83,1.83,0,0,1-.12-.6c0-.2,0-.4,0-.6a3.68,3.68,0,0,0-.07-.58A3.69,3.69,0,0,0,19,1.65c-.09-.17-.17-.35-.27-.53s-.17-.35-.25-.54L18.36.3,18.29,0h0l.08.29.1.27a5.28,5.28,0,0,0,.27.53c.09.18.19.35.27.53a3.28,3.28,0,0,1,.21.57,3.09,3.09,0,0,1,.08.6c0,.2,0,.4,0,.59a1.52,1.52,0,0,0,.12.56,1.05,1.05,0,0,0,.13.26,2,2,0,0,0,.16.24c.24.32.49.62.73.95a4.39,4.39,0,0,1,.32.51,3,3,0,0,1,.24.56c.06.2.09.39.14.59s0,.4.06.6c0,.41,0,.81,0,1.2h-.1v0Z"/><path class="cls-3" d="M16.62,21.71h0l-.07-.08c.27-.24.51-.5.8-.72l.43-.35a2.39,2.39,0,0,1,.46-.29,1,1,0,0,0,.38-.31,1.38,1.38,0,0,0,.17-.48c0-.17.06-.35.08-.53A3.38,3.38,0,0,1,19,18.4c.06-.18.13-.34.2-.51s.15-.33.22-.49.14-.33.21-.5a3,3,0,0,0,.14-.51,2.34,2.34,0,0,0,.08-.53c0-.18,0-.36,0-.54l0-.53c0-.18.05-.36.08-.54h0a4.81,4.81,0,0,0-.07.53l0,.54c0,.18,0,.36,0,.54a3.31,3.31,0,0,1-.06.54,3.07,3.07,0,0,1-.14.52c-.07.17-.13.35-.2.51s-.15.32-.21.49a5.17,5.17,0,0,0-.18.51c-.08.33-.08.7-.15,1.06a1.39,1.39,0,0,1-.18.53,1.11,1.11,0,0,1-.43.38,2.63,2.63,0,0,0-.44.3l-.41.34c-.27.22-.52.49-.78.73l-.07-.07h0Z"/><path class="cls-3" d="M21.05,24.34h0l0-.1a1.43,1.43,0,0,0,.3-.2,2.33,2.33,0,0,0,.26-.28,3.58,3.58,0,0,0,.41-.65,5.78,5.78,0,0,0,.31-.72,2.54,2.54,0,0,0,.1-.37,1.67,1.67,0,0,0,.05-.39c0-.26,0-.52,0-.79s0-.26,0-.4a2.73,2.73,0,0,1,.05-.4,1.8,1.8,0,0,1,.08-.39c0-.13.06-.26.1-.38s.16-.51.25-.76h0c-.08.26-.16.51-.23.76a2.74,2.74,0,0,0-.09.39,2.26,2.26,0,0,0-.07.39,3.82,3.82,0,0,0,0,.78c0,.26,0,.54,0,.8a2.71,2.71,0,0,1,0,.4,2.6,2.6,0,0,1-.1.4,4,4,0,0,1-.29.75,4.19,4.19,0,0,1-.42.7,1.93,1.93,0,0,1-.27.31,1.48,1.48,0,0,1-.35.25l0-.1h0Z"/><path class="cls-3" d="M21.67,26.55h0v.1a3.59,3.59,0,0,1-.92,0,1.25,1.25,0,0,1-.45-.18,1.57,1.57,0,0,1-.34-.34l-.53-.73a2.45,2.45,0,0,1-.26-.37,2,2,0,0,1-.24-.39,3.12,3.12,0,0,1-.18-.42,2.39,2.39,0,0,1-.09-.45,2.14,2.14,0,0,0-.08-.44.89.89,0,0,0-.2-.37c-.19-.23-.42-.43-.6-.68a1.3,1.3,0,0,1-.2-.41,1.76,1.76,0,0,1-.07-.45h0a2,2,0,0,0,.07.43,1.33,1.33,0,0,0,.21.39c.18.24.41.43.61.66a1.07,1.07,0,0,1,.23.4,1.82,1.82,0,0,1,.1.45,2.05,2.05,0,0,0,.09.43,2.93,2.93,0,0,0,.19.4,2.06,2.06,0,0,0,.23.37c.09.12.17.24.27.36l.55.71a1.22,1.22,0,0,0,.31.29,1,1,0,0,0,.38.14,4.19,4.19,0,0,0,.87,0v.1h0Z"/><path class="cls-3" d="M14.6,20.94h0l0,.09a2,2,0,0,1-.48-.35,1.42,1.42,0,0,1-.32-.51,4,4,0,0,1-.12-.56,5.3,5.3,0,0,0-.1-.55,5.16,5.16,0,0,0-.16-.52,4.55,4.55,0,0,0-.21-.51c-.09-.16-.17-.33-.27-.48l-.3-.48L12,16.12c-.19-.32-.39-.64-.56-1a4.81,4.81,0,0,1-.25-.51c-.06-.17-.16-.34-.21-.52s-.11-.36-.15-.54L10.71,13h0l.09.55c.05.18.12.35.17.53a4.61,4.61,0,0,0,.22.51c.07.17.16.33.25.5.18.33.38.64.58.95l.63.93.31.47c.1.15.19.33.28.49a4.12,4.12,0,0,1,.24.52,4.84,4.84,0,0,1,.17.54c.06.19.08.37.12.55a3.47,3.47,0,0,0,.12.53,1.34,1.34,0,0,0,.71.73l-.05.09h0Z"/><path class="cls-3" d="M14.93,46.45v0l-.1,0a5.62,5.62,0,0,0,0-.92,4.78,4.78,0,0,0-.14-.91,7.61,7.61,0,0,0-.28-.89c-.1-.29-.23-.58-.35-.87L13.74,42c-.06-.15-.11-.31-.15-.45a3.9,3.9,0,0,1-.12-.46l-.07-.48,0-.48c0-.31,0-.63,0-.94V38.2c0-.32,0-.63,0-.94-.06-.63-.09-1.25-.19-1.88l-.52-3.73h0l.56,3.73c.11.62.15,1.25.22,1.88,0,.31,0,.63.05.94l0,1c0,.32,0,.63,0,.94l0,.46.07.46a2.5,2.5,0,0,0,.12.45,3.29,3.29,0,0,0,.16.44c.12.29.24.57.37.86s.25.58.36.88.21.6.3.9a6.25,6.25,0,0,1,.15.95,5.27,5.27,0,0,1,0,1l-.1,0v0Z"/><path class="cls-3" d="M10,43.21l0,0-.08.06L9.65,43a3.11,3.11,0,0,0-.28-.23,1.94,1.94,0,0,0-.29-.21l-.31-.2c-.43-.25-.87-.48-1.3-.75l-.31-.21a3.5,3.5,0,0,1-.3-.24l-.07-.06,0,0,0,0-.12-.15a1.09,1.09,0,0,1-.17-.36l0-.2v-.2c0-.13,0-.25.05-.38s0-.24,0-.36,0-.24,0-.36l0,.05c-.16-.09-.31-.21-.48-.29s-.33-.17-.51-.24c-.34-.14-.71-.27-1-.45L4.24,38,4,37.8l-.24-.16-.22-.18a3.22,3.22,0,0,1-.43-.39,5,5,0,0,1-.39-.41c-.25-.29-.51-.56-.75-.86l-.37-.44c-.11-.15-.24-.29-.35-.45l-.33-.46C.8,34.29.68,34.15.58,34L0,33l0,0,.59,1c.1.16.22.31.33.47l.34.45a5.28,5.28,0,0,0,.36.44l.36.44c.25.29.51.56.77.85s.26.27.39.4a2.54,2.54,0,0,0,.43.37l.22.18.23.15.24.15.26.12c.34.18.69.29,1,.44.18.06.35.15.53.23s.33.2.5.3l0,0v0c0,.12,0,.26,0,.38s0,.26,0,.38,0,.24,0,.36v.18l0,.17c0,.06,0,.1.06.15a.31.31,0,0,0,.09.14l.12.14,0,0,0,0L7,41l.28.23.31.2c.42.25.87.47,1.3.72l.32.2a2.18,2.18,0,0,1,.31.22,3.5,3.5,0,0,1,.3.24l.27.28-.08.07,0,0Z"/><path class="cls-3" d="M9.15,41.06h0l-.09,0c.24-.39.51-.76.76-1.13a6.53,6.53,0,0,0,.35-.56,2.88,2.88,0,0,0,.28-.59,2.8,2.8,0,0,0,.17-.63V37.6l0-.16a9.53,9.53,0,0,0-.28-1.31c-.05-.22-.1-.44-.14-.66a5.43,5.43,0,0,1-.1-.67L10,34.13c0-.22,0-.45-.1-.66l-.08-.33-.11-.31a4.3,4.3,0,0,0-.27-.62c-.09-.2-.21-.39-.31-.59L8.81,31l0,0,.35.57c.11.2.23.39.33.59s.2.41.28.62l.12.32.08.33c.06.22.08.44.12.66l.08.67c0,.22.05.45.1.66s.1.44.16.65a12,12,0,0,1,.3,1.32,2.66,2.66,0,0,1,0,.69,3.06,3.06,0,0,1-.16.68,3.46,3.46,0,0,1-.28.62c-.11.2-.23.4-.35.59-.25.37-.51.74-.73,1.12l-.09,0h0Z"/><path class="cls-3" d="M17,39.72h0l-.09-.06c.2-.29.4-.56.56-.85a2,2,0,0,0,.19-.46,1.93,1.93,0,0,0,.08-.48l.06-1c0-.35,0-.69.08-1a8.68,8.68,0,0,0,0-1l0-.52a4.25,4.25,0,0,1,.14-.51c.13-.32.31-.61.46-.92a2.72,2.72,0,0,0,.19-.47c0-.08,0-.16.05-.25v-.25h0v.26c0,.08,0,.17,0,.25a4.09,4.09,0,0,1-.18.49c-.15.31-.32.6-.44.92a2.92,2.92,0,0,0-.12.49c0,.17,0,.34,0,.51a8.85,8.85,0,0,1,0,1c0,.34,0,.68-.06,1l0,1a2.34,2.34,0,0,1-.08.52,2.15,2.15,0,0,1-.19.5,7.7,7.7,0,0,1-.55.88L17,39.72h0Z"/><path class="cls-3" d="M16.28,37h0l-.1,0a2.83,2.83,0,0,0-.21-.55c-.09-.17-.2-.34-.31-.51a8.13,8.13,0,0,1-.67-1,2.23,2.23,0,0,1-.2-.6,3.41,3.41,0,0,1,0-.63c0-.21,0-.41,0-.61a2.07,2.07,0,0,0-.14-.57,2.21,2.21,0,0,0-.3-.52,3.48,3.48,0,0,0-.42-.44c-.3-.27-.63-.51-1-.77l-.46-.4-.4-.48c-.1-.18-.21-.36-.3-.54l-.22-.58h0l.23.57c.1.18.21.35.31.52s.26.31.4.46l.47.4c.32.24.66.48,1,.75a3.68,3.68,0,0,1,.43.45,2.12,2.12,0,0,1,.33.53,2.27,2.27,0,0,1,.16.62c0,.2,0,.41,0,.61a3.81,3.81,0,0,0,.06.6,2.07,2.07,0,0,0,.2.56,7.37,7.37,0,0,0,.67,1,6,6,0,0,1,.34.53,3.13,3.13,0,0,1,.24.6l-.1,0v0Z"/><path class="cls-3" d="M19,42h-.1l.08-.37.15-.33c.1-.22.23-.42.33-.62,0,0,.06-.11.07-.15l.06-.17.12-.33c.07-.22.13-.44.2-.66v0H20l-.05,0L20,38l0-1.4h0l.07,1.4,0,1.41v0h-.05l-.1,0,.05,0c-.06.22-.11.45-.18.68l-.1.33,0,.17-.08.16c-.1.22-.22.42-.31.63s-.09.21-.13.32l-.06.31H19Z"/><path class="cls-3" d="M23.85,46.34l0,0-.06-.08c.23-.16.45-.31.65-.48a2.43,2.43,0,0,0,.52-.59,1.84,1.84,0,0,0,.15-.35,2.32,2.32,0,0,0,.05-.38,4.38,4.38,0,0,0-.06-.8L25,42.83A7.68,7.68,0,0,1,25,42a3.28,3.28,0,0,1,.14-.82c.1-.26.23-.51.35-.75a1.43,1.43,0,0,0,.18-.75,2.74,2.74,0,0,0-.2-.77c-.09-.26-.18-.52-.25-.79a3.67,3.67,0,0,1-.11-.81c0-.14,0-.28,0-.42l.06-.4c0-.27.11-.54.13-.81l0-.4v-.41a5.52,5.52,0,0,0-.06-.81h0a7.78,7.78,0,0,1,.07.82v.41l0,.41a7.18,7.18,0,0,1-.12.81l-.06.4c0,.14,0,.27,0,.4a3.61,3.61,0,0,0,.13.8c.07.26.16.52.25.77a2.63,2.63,0,0,1,.22.8,1.64,1.64,0,0,1-.18.82c-.12.25-.25.49-.34.73a3.51,3.51,0,0,0-.12.79,7.26,7.26,0,0,0,0,.8l.11.81a4.5,4.5,0,0,1,.07.83,3,3,0,0,1-.05.42,2.4,2.4,0,0,1-.17.4,2.29,2.29,0,0,1-.55.65,8.16,8.16,0,0,1-.66.5l-.06-.08h0Z"/><path class="cls-3" d="M28.4,34.05v0l-.1,0A13.5,13.5,0,0,0,29,32.6a4.19,4.19,0,0,0,.33-1.47,6.78,6.78,0,0,0-.05-.77c0-.26-.06-.51-.08-.77a2.9,2.9,0,0,1,0-.78c.05-.26.1-.52.16-.77a2.68,2.68,0,0,0,0-.75,2.37,2.37,0,0,0-.21-.72c-.21-.46-.52-.89-.7-1.38a1.77,1.77,0,0,1-.12-.37,2.63,2.63,0,0,1-.06-.39,5.08,5.08,0,0,1,0-.78l0-.77a6.6,6.6,0,0,0,0-.77h0a6.54,6.54,0,0,1,0,.77l0,.78a6.44,6.44,0,0,0,0,.76,2.53,2.53,0,0,0,.07.38,1.52,1.52,0,0,0,.12.36c.18.48.49.9.72,1.37a2.72,2.72,0,0,1,.23.75,2.62,2.62,0,0,1,0,.79c-.06.26-.1.51-.14.75s0,.25,0,.38a2.58,2.58,0,0,0,0,.38c0,.26.08.51.1.77a6.66,6.66,0,0,1,0,.78,4.5,4.5,0,0,1-.31,1.54,14,14,0,0,1-.65,1.42L28.42,34v0Z"/><path class="cls-3" d="M30.19,36.46h0l-.07-.08a10.55,10.55,0,0,0,1.26-1.24,5,5,0,0,0,.49-.71,4.22,4.22,0,0,0,.33-.8,4.21,4.21,0,0,0,.09-.87,3.11,3.11,0,0,1,.13-.9,1.41,1.41,0,0,1,.58-.71c.25-.17.51-.31.76-.47a1.51,1.51,0,0,0,.76-1l.05-.44,0-.45,0-.22.06-.22A7,7,0,0,1,35,27.5a8.27,8.27,0,0,0,.28-.84l.24-.86c.08-.28.13-.57.2-.86l.18-.87h0l-.17.88c-.07.29-.11.58-.2.87l-.22.86a8.39,8.39,0,0,1-.27.85,7.63,7.63,0,0,0-.26.85l-.06.21,0,.22,0,.44-.05.44a1.65,1.65,0,0,1-.16.44,2,2,0,0,1-.64.65c-.25.16-.51.31-.74.48a1.27,1.27,0,0,0-.53.64,3,3,0,0,0-.1.86,4.66,4.66,0,0,1-.09.9,4.4,4.4,0,0,1-.33.85,6.19,6.19,0,0,1-.51.75,10.15,10.15,0,0,1-1.26,1.28l-.07-.08v0Z"/><path class="cls-3" d="M41.52,39.49h0l-.09,0,.27-.36c.09-.12.2-.21.3-.32s.42-.4.61-.6l.29-.31a1.48,1.48,0,0,0,.2-.37,3.79,3.79,0,0,0,.12-.4l.13-.41c.09-.28.17-.55.26-.82s.18-.55.29-.82l.18-.4c.06-.13.1-.27.17-.39l.45-.74,0,0-.42.74c-.07.13-.11.27-.17.4l-.16.4c-.1.27-.17.55-.26.82s-.16.55-.24.83l-.12.41c0,.14-.07.28-.12.42a1.87,1.87,0,0,1-.2.4l-.3.34c-.19.22-.41.41-.59.62a2.07,2.07,0,0,0-.28.32l-.24.34-.09-.06h0Z"/><path class="cls-3" d="M44.22,31.75h0l0-.09a1.34,1.34,0,0,0,.37-.38,2.07,2.07,0,0,0,.23-.5,3.75,3.75,0,0,0,.12-1.11,3.91,3.91,0,0,0-.22-1.12c-.13-.35-.32-.7-.47-1.06a2.73,2.73,0,0,1-.14-.58,2.33,2.33,0,0,1,0-.59c0-.38.09-.77.12-1.15a2.84,2.84,0,0,0,0-.58l0-.58,0-1.16h0L44.25,24l0,.58a2.25,2.25,0,0,1,0,.58c0,.39-.06.78-.1,1.16a2.17,2.17,0,0,0,0,.57,2.52,2.52,0,0,0,.14.54c.15.36.34.69.5,1.06a4.53,4.53,0,0,1,.24,1.15,3.41,3.41,0,0,1-.1,1.19,2,2,0,0,1-.24.56,1.54,1.54,0,0,1-.43.45l-.06-.09h0Z"/><path class="cls-3" d="M20,8h0l.06.08A1.41,1.41,0,0,1,19,8.22c-.35-.07-.69-.19-1-.29a4.05,4.05,0,0,0-.5-.12,2.51,2.51,0,0,1-.52-.14,7.62,7.62,0,0,1-1-.44l-1-.41c-.33-.14-.67-.21-1-.32l-.5-.14L13,6.21A2.58,2.58,0,0,1,12.5,6a4.21,4.21,0,0,1-.45-.28l0,0a4.12,4.12,0,0,0,.45.27,2.82,2.82,0,0,0,.48.19,3.18,3.18,0,0,0,.51.13l.51.14c.33.1.68.17,1,.3l1,.39c.33.15.64.31,1,.42a3.66,3.66,0,0,0,.5.12,3.21,3.21,0,0,1,.52.11A9.37,9.37,0,0,0,19,8a1.16,1.16,0,0,0,.92-.15L20,8h0Z"/><path class="cls-3" d="M16.8,18.13v0l-.1,0c-.08-.34-.16-.67-.23-1l0-.26a.59.59,0,0,1,0-.14v-.13a3.23,3.23,0,0,1,0-.53,2.09,2.09,0,0,0,0-.5,1,1,0,0,0-.15-.46c-.17-.29-.42-.55-.62-.84a2.35,2.35,0,0,1-.23-.48,4.14,4.14,0,0,1-.19-.49l-.17-.49a2.91,2.91,0,0,0-.21-.48,2.91,2.91,0,0,0-.26-.45c-.09-.15-.19-.29-.28-.43s-.18-.3-.27-.45-.15-.32-.22-.48h0c.08.15.15.31.23.46s.18.3.28.44l.3.43a4.12,4.12,0,0,1,.27.45,5.11,5.11,0,0,1,.22.48l.18.49c.06.16.12.33.19.48a2.38,2.38,0,0,0,.24.45c.2.28.45.53.64.84a1.17,1.17,0,0,1,.19.51,2.53,2.53,0,0,1,0,.55,4.1,4.1,0,0,0,0,.5v.14s0,.07,0,.11l.06.25c.07.33.16.68.25,1l-.1,0h0Z"/><path class="cls-3" d="M18.57,48.17h0l0,.1a8.21,8.21,0,0,1-1,.27,5.47,5.47,0,0,1-1,.13,4.26,4.26,0,0,1-.5,0h-.25l-.25-.06a5.9,5.9,0,0,1-1-.3,7.74,7.74,0,0,0-.93-.3,1.86,1.86,0,0,0-.47-.09l-.49,0a1.91,1.91,0,0,0-.48,0l-.49,0c-.31.07-.64.13-.95.22l-.48.12a1,1,0,0,1-.52,0A2.36,2.36,0,0,1,9,47.82c-.26-.21-.5-.45-.75-.65s-.54-.37-.82-.55-.56-.33-.85-.49-.59-.3-.89-.42a7.32,7.32,0,0,0-.93-.33c-.32-.09-.64-.14-1-.2v0a6.4,6.4,0,0,1,1,.19,7.39,7.39,0,0,1,.94.31c.31.12.61.27.9.41s.59.32.87.49.55.35.83.55.5.43.76.63a2,2,0,0,0,.84.45A2.23,2.23,0,0,0,10.8,48c.32-.09.65-.15,1-.23l.5-.06a2.13,2.13,0,0,1,.5,0l.49,0a2,2,0,0,1,.5.09,7,7,0,0,1,1,.3,6,6,0,0,0,.94.27l.23.06h.25c.16,0,.32,0,.48,0a5.3,5.3,0,0,0,1-.14,7.59,7.59,0,0,0,.93-.27l0,.1h0Z"/><path class="cls-3" d="M21.55,49.5v0h-.1a1.2,1.2,0,0,0-.08-.56,1.9,1.9,0,0,0-.3-.51,5.87,5.87,0,0,0-.41-.46,6.2,6.2,0,0,0-.46-.42,11.83,11.83,0,0,0-1-.79c-.17-.12-.35-.23-.52-.36a1,1,0,0,1-.24-.23.64.64,0,0,1-.16-.29c-.06-.22-.05-.43-.1-.62a1.13,1.13,0,0,0-.32-.5,3.75,3.75,0,0,0-.49-.38c-.16-.13-.34-.24-.5-.38a1.92,1.92,0,0,1-.45-.45,1.23,1.23,0,0,1-.26-.58,7.5,7.5,0,0,1-.08-1.25h0a8.53,8.53,0,0,0,.11,1.24,1.27,1.27,0,0,0,.26.55,2.25,2.25,0,0,0,.44.43,10.14,10.14,0,0,1,1,.75,1,1,0,0,1,.36.53c.06.22.06.44.11.61a.59.59,0,0,0,.06.14.47.47,0,0,0,.09.12,1.07,1.07,0,0,0,.22.2c.16.12.34.23.51.34.34.26.69.5,1,.78a4.79,4.79,0,0,1,.47.43c.15.14.3.3.44.46a2.46,2.46,0,0,1,.34.56,1.27,1.27,0,0,1,.1.67h-.1v0Z"/><path class="cls-3" d="M12.69,45.39h0l-.09-.05.13-.31c0-.11,0-.23,0-.34a1.86,1.86,0,0,0,0-.33c0-.11-.06-.23-.11-.34s-.2-.43-.31-.64-.11-.22-.16-.33a2.13,2.13,0,0,1-.14-.35l-.1-.35L11.82,42c0-.24-.07-.48-.1-.72s-.09-.47-.11-.72a1.69,1.69,0,0,1,0-.73h0a2.2,2.2,0,0,0,0,.36,2,2,0,0,0,0,.35c0,.24.09.48.13.72s.08.47.13.71l.08.35.12.34a2.33,2.33,0,0,0,.14.33l.16.31c.12.22.24.43.34.66a2.09,2.09,0,0,1,.13.35c0,.12,0,.25.07.38s0,.26,0,.39l-.13.36-.09,0h0Z"/><path class="cls-3" d="M30.2,52.08h0V52l1.24.15a8.45,8.45,0,0,0,1.23.06,3.08,3.08,0,0,0,.61,0,3,3,0,0,0,.6-.11,4,4,0,0,0,1.14-.45c.34-.2.68-.45,1-.69a5.18,5.18,0,0,1,1.1-.62,2.24,2.24,0,0,1,.63-.16l.62,0c.42,0,.84,0,1.26,0l1.24.08a10.23,10.23,0,0,0,1.24,0,4.41,4.41,0,0,0,.62-.09,4.29,4.29,0,0,0,.6-.13,10.24,10.24,0,0,0,1.18-.4c.38-.15.78-.3,1.17-.43s.79-.26,1.19-.39.79-.25,1.18-.38.76-.34,1.14-.5l0,0c-.38.17-.75.36-1.14.51s-.79.28-1.18.4-.8.24-1.19.39-.78.29-1.16.45a9.83,9.83,0,0,1-1.19.41,3,3,0,0,1-.61.14c-.21,0-.41.09-.62.1a10.44,10.44,0,0,1-1.25,0c-.42,0-.84,0-1.25-.07s-.82-.05-1.24,0l-.62,0a2.94,2.94,0,0,0-.58.16,4.74,4.74,0,0,0-1.06.62c-.34.24-.67.49-1,.71a4.8,4.8,0,0,1-1.17.48,4.52,4.52,0,0,1-.62.12,4.6,4.6,0,0,1-.64,0,10.63,10.63,0,0,1-1.26-.06l-1.24-.14v-.1h0Z"/><path class="cls-3" d="M31.91,50.44v0l-.1,0a10.55,10.55,0,0,0,.35-1.45,6,6,0,0,0,.06-.73,4.59,4.59,0,0,0,0-.74,4.38,4.38,0,0,0-.19-.71,2.83,2.83,0,0,0-.31-.66,13.62,13.62,0,0,1-.82-1.26c-.05-.12-.1-.24-.14-.37a2.5,2.5,0,0,1-.06-.38,4.7,4.7,0,0,1,0-.75c0-.26.06-.51.11-.76s.1-.49.13-.73A6.36,6.36,0,0,0,31,41.1c0-.25,0-.5,0-.75a4.88,4.88,0,0,1,.12-.75c0-.12.08-.23.12-.35s.12-.23.17-.34l0,0c-.06.11-.12.22-.17.33a2.15,2.15,0,0,0-.11.36,3.67,3.67,0,0,0-.11.74c0,.24,0,.49,0,.75a6.36,6.36,0,0,1-.08.75c0,.25-.07.49-.11.74s-.07.49-.1.74a6.23,6.23,0,0,0,0,.75c0,.11,0,.23.07.35l.13.34c.23.44.57.81.84,1.24a2.88,2.88,0,0,1,.34.68,4.79,4.79,0,0,1,.21.74,6.64,6.64,0,0,1,.05.77,6.47,6.47,0,0,1-.05.76A12.22,12.22,0,0,1,32,50.45l-.1,0v0Z"/><path class="cls-3" d="M33.56,47.07l0,0L33.52,47,36,45.21l.62-.44a4.1,4.1,0,0,1,.66-.42,1.18,1.18,0,0,1,.78-.12c.26,0,.51.11.75.17a10.28,10.28,0,0,0,3,.31,6.31,6.31,0,0,0,.76-.1,6.61,6.61,0,0,0,.73-.2l.35-.15.33-.18.31-.21.29-.25,0,0-.29.25-.31.22-.34.19-.35.16a4.79,4.79,0,0,1-.74.21,6.63,6.63,0,0,1-.76.11,10.06,10.06,0,0,1-3-.26,6.69,6.69,0,0,0-.75-.16,1,1,0,0,0-.69.12,3.58,3.58,0,0,0-.63.41l-.62.45-2.47,1.8-.06-.08h0Z"/></g></g></g></g></svg>