<svg xmlns="http://www.w3.org/2000/svg" viewBox="0 0 86.65 100.57"><defs><style>.cls-1{isolation:isolate;}.cls-2{mix-blend-mode:overlay;}.cls-3{fill:#282828;}</style></defs><g class="cls-1"><g id="Layer_2" data-name="Layer 2"><g id="Layer_1-2" data-name="Layer 1"><g class="cls-2"><path class="cls-3" d="M48,100.56v-.13l-1.19,0L47,95.67l.08-2.39.1-2.37v.18l-.49-4.6,0-.23.06-.21.77-2.6,0,.3,0-3.34,0,.2c-.11-.66-.22-1.31-.32-2-.05-.34-.1-.67-.14-1,0-.08,0-.19,0-.3V77l0-.49.13-2,.17-2,.05.41L46.06,69,46,68.82l0-.2.18-1.54.09-.78,0-.38,0-.19v-.1l0-.15.56-3.06v.22l-.36-3.87,0,.13L45.8,56l0-.18,0-.17.54-2.24c0-.18.09-.38.15-.59l.08-.3v-.06h0a.73.73,0,0,0,0,.08h0v-.07s0,0,0,0c0-.32,0-.71-.06-1.08l-.11-1.13-.06-.58a2.5,2.5,0,0,1,0-.67c.08-.82.18-1.55.29-2.32s.24-1.53.38-2.29q.11-.57.24-1.14c.07-.39.18-.77.27-1.13s.21-.75.32-1.13.23-.74.35-1.1c.25-.74.52-1.46.83-2.19l.06-.13.12-.07,5.66-2.78-.11.09,5-5.92,0-.05,0,0,3.8-2.11.22.37-3.71,2.28.08-.07-5,6,0,.05-.07,0-5.63,2.85.19-.2c-.26.69-.5,1.42-.71,2.14-.1.36-.21.73-.3,1.09s-.18.72-.26,1.1-.16.74-.22,1.11-.13.74-.18,1.12c-.12.74-.21,1.5-.28,2.25s-.15,1.54-.2,2.24a1.91,1.91,0,0,0,0,.48l.07.56.14,1.15c0,.39.09.76.11,1.2a2.83,2.83,0,0,1,0,.29v.07l0,.14-.06.26-.12.53-.48,2.23v-.35l.87,2.91,0,.05v.08l.47,3.86v.1l0,.12-.47,3.07-.28,3,0-.41,1.5,3.84.08.18,0,.23-.12,1.93-.09,2,0,.49v.06s0,0,0,0v.08a.72.72,0,0,0,0,.19c0,.29.09.61.15.92.11.64.23,1.28.36,1.91l0,.09v.11l0,3.34v.14l0,.16L49,86.67l0-.44.56,4.59V91l-.08,2.37c0,.19,0,.42,0,.57v6.51l-1.19,0v.14Z"/><path class="cls-3" d="M47.91,72.35l.06-.08-.4-.3a20.66,20.66,0,0,0,1.36-2.29,22.31,22.31,0,0,1,1.45-2.41,6.48,6.48,0,0,1,1-1.11,4.22,4.22,0,0,1,.63-.44l.6-.34c.81-.46,1.6-.89,2.35-1.38.37-.24.73-.51,1.08-.78l1.07-.86a11.12,11.12,0,0,1,2.38-1.56c.88-.4,1.8-.59,2.57-1a11.06,11.06,0,0,0,2.1-1.62,10.43,10.43,0,0,1,1.13-.85l1.14-.75a9.37,9.37,0,0,0,2-1.78,12.13,12.13,0,0,1,1.75-2.18,3.72,3.72,0,0,1,1.3-.66c.45-.14.9-.23,1.32-.36a4,4,0,0,0,2.06-1.55,6.73,6.73,0,0,0,1-2.46c.41-1.77.38-3.63.71-5.45l.18,0c-.29,1.8-.22,3.65-.6,5.47a6.89,6.89,0,0,1-1,2.6A4.43,4.43,0,0,1,72.91,52a6.83,6.83,0,0,0-2.45,1,12.45,12.45,0,0,0-1.63,2.13,9.19,9.19,0,0,1-2,1.94l-1.14.79a9.25,9.25,0,0,0-1,.82,10.9,10.9,0,0,1-2.22,1.76c-.88.45-1.77.64-2.55,1A10.52,10.52,0,0,0,57.63,63l-1,.89c-.37.3-.75.58-1.14.85-.77.53-1.58,1-2.36,1.45l-.59.36a2.54,2.54,0,0,0-.49.35,5.45,5.45,0,0,0-.82.95,21,21,0,0,0-1.34,2.32,23,23,0,0,1-1.41,2.46l-.4-.3-.06.08Z"/><path class="cls-3" d="M47.71,64l-.05,0-.32.38a5.16,5.16,0,0,0-1.84-1A9.55,9.55,0,0,0,43.33,63c-.76-.06-1.53-.08-2.32-.17l-.31,0-.29,0a3.54,3.54,0,0,1-.6-.12,5.5,5.5,0,0,1-1.18-.41,5,5,0,0,1-1.91-1.6,9.92,9.92,0,0,1-1.13-2.13c-.14-.37-.28-.73-.41-1.1s-.27-.73-.43-1a4.52,4.52,0,0,0-1.36-1.65,9.75,9.75,0,0,0-2-1.08l-.26-.12-.07,0-.08,0-.13-.07-.51-.26c-.35-.17-.68-.43-1-.64a13.86,13.86,0,0,1-1.74-1.59,23.27,23.27,0,0,1-1.51-1.78c-.47-.61-.94-1.22-1.4-1.85a21.12,21.12,0,0,1-1.28-1.95,10.11,10.11,0,0,1-.56-1c-.18-.35-.32-.71-.47-1.07A11.11,11.11,0,0,1,22,42.08c-.11-.37-.18-.76-.27-1.13l.18,0c.1.37.18.75.29,1.11s.23.73.39,1.08.3.7.49,1a9.75,9.75,0,0,0,.57,1,36.16,36.16,0,0,0,2.75,3.7c.49.58,1,1.18,1.52,1.71A14.24,14.24,0,0,0,29.67,52c.32.18.6.4.95.57l.53.25.13.06,0,0,.06,0,.27.12a10.11,10.11,0,0,1,2.11,1.1A5.14,5.14,0,0,1,35.37,56a10.5,10.5,0,0,1,.49,1.08c.14.36.27.72.42,1.06a8.89,8.89,0,0,0,1.08,1.94A4.21,4.21,0,0,0,39,61.42a6.26,6.26,0,0,0,2.1.47c.75.06,1.52.07,2.3.1a10.68,10.68,0,0,1,2.4.34A6.3,6.3,0,0,1,48,63.45l-.31.39.05,0Z"/><polygon class="cls-3" points="46.46 55.74 46.49 55.69 46.11 55.38 49.68 51.09 49.75 51 49.85 50.96 52.79 49.64 52.57 49.88 53.76 46.76 53.82 46.61 53.96 46.55 59.74 43.91 59.66 43.97 61.43 42.25 61.87 41.81 62.34 41.4 63.27 40.57 66.96 37.28 67 37.24 67.05 37.24 73.73 36.56 73.75 36.74 67.09 37.55 67.18 37.51 63.57 40.9 62.67 41.75 62.23 42.17 61.8 42.61 60.07 44.39 60.04 44.42 59.99 44.44 54.28 47.23 54.47 47.02 53.37 50.17 53.31 50.33 53.15 50.41 50.24 51.81 50.41 51.68 46.95 56.06 46.56 55.75 46.53 55.8 46.46 55.74"/><polygon class="cls-3" points="46.93 49.49 46.93 49.41 46.55 49.44 45.65 38.46 45.73 38.65 43.05 35.48 43.03 35.46 43.01 35.44 40.97 31.65 41.09 31.76 36.2 29.93 36.15 29.91 36.12 29.88 33.34 26.4 33.41 26.44 27.16 24.29 27.2 24.16 33.49 26.18 33.53 26.2 33.55 26.23 36.41 29.64 36.33 29.59 41.26 31.31 41.34 31.34 41.38 31.42 43.51 35.16 43.48 35.11 46.22 38.22 46.29 38.29 46.3 38.4 47.37 49.37 46.99 49.4 47 49.49 46.93 49.49"/><polygon class="cls-3" points="46.97 46.22 46.98 46.15 46.61 46.09 48.27 36.5 48.27 36.63 47.18 31.7 47.17 31.66 47.17 31.61 47.97 25.77 47.98 25.87 45.95 20.52 45.94 20.5 45.94 20.49 45.08 12.96 45.22 12.94 46.23 20.45 46.22 20.42 48.36 25.72 48.38 25.77 48.38 25.82 47.7 31.68 47.7 31.58 48.9 36.48 48.91 36.54 48.9 36.6 47.42 46.22 47.05 46.16 47.04 46.23 46.97 46.22"/><path class="cls-3" d="M39.52,61.77v-.05l-.25,0-.42-2.95v0l-.61-2.73V56l.39-3.36h0l.66-2.89,0,.15L36.89,47l0,0v0L36,44.19c0-.12-.08-.22-.13-.34l-.13-.33-.26-.68-.51-1.35,0,0-2.61-2.47,0,0L29,38.13l0-.08,3.36.88h0v0l2.65,2.42,0,0v0l.54,1.35.27.67.14.34.13.34,1,2.73,0,0,2.47,2.88,0,.06,0,.09L39,52.74v0l-.33,3.36V56l.66,2.72h0v0l.47,2.93-.25,0v0Z"/><path class="cls-3" d="M54.21,65v0H54l0-4.14v-.09l.06-.06,2.48-2.7,0,.08,1.12-3.49a3.31,3.31,0,0,1,.38-.86l.46-.79c.31-.53.63-1,1-1.57.16-.26.33-.51.51-.76a1.51,1.51,0,0,1,.35-.38l.39-.23c.53-.31,1-.65,1.54-1l3.07-2,0,.08-3,2.06c-.51.34-1,.69-1.53,1l-.39.24a1.76,1.76,0,0,0-.26.31c-.17.25-.33.51-.49.77-.31.52-.62,1-.92,1.57l-.44.8a3.32,3.32,0,0,0-.35.82l-1,3.5,0,0,0,0L54.4,60.93l.06-.16,0,4.14h-.25v0Z"/><polygon class="cls-3" points="57.5 62.75 57.56 62.76 57.62 62.52 62.99 63.81 63.02 63.82 63.05 63.84 67.57 66.41 67.42 66.39 72.32 65.06 72.35 65.05 72.38 65.06 77.28 65.54 77.23 65.55 79.95 64.75 79.88 64.81 81.26 62.1 81.28 62.07 81.31 62.06 85.04 60.18 85 60.21 86.57 56.87 86.65 56.9 85.13 60.27 85.12 60.29 85.1 60.3 81.39 62.23 81.44 62.19 80.09 64.92 80.07 64.96 80.02 64.98 77.31 65.81 77.28 65.82 77.25 65.81 72.35 65.39 72.41 65.39 67.53 66.78 67.45 66.8 67.37 66.76 62.82 64.25 62.88 64.27 57.49 63.05 57.55 62.81 57.49 62.79 57.5 62.75"/><polygon class="cls-3" points="68.39 55.25 68.39 55.23 68.15 55.19 68.82 50.87 68.83 50.8 68.87 50.76 72 47.36 71.97 47.48 71.29 44.38 71.29 44.37 71.29 44.35 71.7 41.37 71.79 41.38 71.47 44.37 71.47 44.34 72.23 47.42 72.25 47.48 72.2 47.54 69.17 51.03 69.22 50.92 68.69 55.27 68.44 55.23 68.44 55.26 68.39 55.25"/><path class="cls-3" d="M65,58l0,0,.14-.21a3.26,3.26,0,0,0,2.36.55,10.45,10.45,0,0,0,2.49-.75,5.91,5.91,0,0,1,1.31-.42,2.73,2.73,0,0,1,1.4.22,4.25,4.25,0,0,0,1.22.37,2.65,2.65,0,0,0,1.22-.25c.4-.17.79-.39,1.23-.54a3,3,0,0,1,.68-.17l.66-.06a7.12,7.12,0,0,0,1.28-.27A9.16,9.16,0,0,0,80.29,56l1.2-.59c.39-.2.81-.38,1.21-.55s.82-.36,1.21-.56A7.27,7.27,0,0,0,85,53.58l.06.07a7.51,7.51,0,0,1-1.13.73c-.39.21-.8.4-1.2.58s-.81.37-1.2.58-.79.42-1.19.61a11.29,11.29,0,0,1-1.25.51,6.5,6.5,0,0,1-1.32.31,4.69,4.69,0,0,0-1.27.24c-.41.15-.79.37-1.2.56a3,3,0,0,1-1.37.31,5,5,0,0,1-1.33-.37,2.34,2.34,0,0,0-1.21-.17,5.45,5.45,0,0,0-1.21.42,10.19,10.19,0,0,1-2.59.83,3.74,3.74,0,0,1-2.73-.58L65,58l0,0Z"/><path class="cls-3" d="M53.26,49.2v0L53,49.12c.15-.66.3-1.33.43-2,.06-.33.14-.66.17-1a8.81,8.81,0,0,0,.11-1,13.42,13.42,0,0,1-.11-2.06,3.18,3.18,0,0,1,.14-.53c.06-.16.12-.32.19-.48.14-.32.28-.63.43-.94s.3-.61.44-.92.25-.63.39-.94a4.31,4.31,0,0,1,.56-.89,6.39,6.39,0,0,1,.71-.76c.49-.48,1.05-.88,1.49-1.38a10.09,10.09,0,0,0,1.19-1.64v0a1.76,1.76,0,0,1,.24-.71,3.06,3.06,0,0,1,.44-.58l.07.07a2.08,2.08,0,0,0-.62,1.22v0h0a10.86,10.86,0,0,1-1.16,1.7c-.45.53-1,1-1.47,1.42a6.67,6.67,0,0,0-.67.75,4.86,4.86,0,0,0-.5.85c-.13.31-.23.63-.37,1s-.27.63-.42.94-.27.62-.39.93a5.05,5.05,0,0,0-.29.94,14.86,14.86,0,0,0,.17,2,8.91,8.91,0,0,1-.09,1.05c0,.34-.1.68-.15,1-.11.68-.24,1.35-.37,2l-.25,0v0Z"/><path class="cls-3" d="M58.6,44.88h0l.09-.23a4.67,4.67,0,0,0,1.21.37,2.08,2.08,0,0,0,.61,0,1.45,1.45,0,0,0,.3-.06l.08,0,.06,0,.16-.06a4.21,4.21,0,0,0,.55-.3l.56-.37a4.65,4.65,0,0,1,.62-.34,1.93,1.93,0,0,1,.34-.11,1.55,1.55,0,0,1,.35-.07c.44-.08.91-.08,1.34-.14a3.6,3.6,0,0,0,.63-.15,5.15,5.15,0,0,0,.59-.27c.39-.22.81-.41,1.2-.62a6.42,6.42,0,0,0,.56-.34l.26-.21.22-.24.07,0a2.75,2.75,0,0,1-.22.26l-.25.23a5.13,5.13,0,0,1-.57.38c-.39.24-.79.43-1.17.66a3.91,3.91,0,0,1-.61.32,3.37,3.37,0,0,1-.67.19c-.46.08-.9.1-1.33.19a1.41,1.41,0,0,0-.31.08,1,1,0,0,0-.29.11,2.86,2.86,0,0,0-.55.33l-.54.39a4.23,4.23,0,0,1-.62.37l-.15.07-.09,0-.09,0a2.09,2.09,0,0,1-.36.08,2.24,2.24,0,0,1-.73,0,5,5,0,0,1-1.36-.35l.09-.23h0Z"/><path class="cls-3" d="M52.22,36.37v0H52a8.1,8.1,0,0,1,.16-1.1,7.53,7.53,0,0,1,.29-1.06c.11-.36.27-.69.41-1s.32-.65.5-1c.36-.64.75-1.24,1.13-1.85.1-.15.18-.29.27-.45l.09-.22.05-.22a1.71,1.71,0,0,0-.25-.94,9.75,9.75,0,0,1-.45-1A3.63,3.63,0,0,1,54,27a2.53,2.53,0,0,1-.09-.55,4.07,4.07,0,0,1,0-1.1c0-.18.07-.36.11-.53l.16-.53.84-2,1-1.9.08.05-1,1.9-.78,2-.14.51c0,.17-.07.34-.09.52a4.52,4.52,0,0,0,0,1,4.59,4.59,0,0,0,.1.51,4,4,0,0,0,.16.49,3.41,3.41,0,0,0,.22.48l.25.47a2.15,2.15,0,0,1,.31,1.11l-.06.3-.11.28a4.53,4.53,0,0,1-.27.48c-.37.61-.74,1.22-1.07,1.85-.17.31-.31.63-.46.95a7.35,7.35,0,0,0-.36,1,7.13,7.13,0,0,0-.26,1,9,9,0,0,0-.12,1h-.25v0Z"/><path class="cls-3" d="M57.05,32.54h0V32.3c.38,0,.76,0,1.14,0l1.12.06a10,10,0,0,0,1.1,0H61l.55,0c.37,0,.74-.09,1.11-.13a7.21,7.21,0,0,1,1.14,0l.56,0a2.34,2.34,0,0,0,.53,0,4.53,4.53,0,0,0,1-.26A5.22,5.22,0,0,1,67,31.69a8.49,8.49,0,0,1,1.13,0l1.11,0a6.5,6.5,0,0,0,1.09-.09c.18-.05.36-.08.53-.14l.5-.22,1-.49c.67-.32,1.31-.69,2-1l.05.08c-.65.36-1.29.76-2,1.09l-1,.51-.52.25-.55.16a6.1,6.1,0,0,1-1.13.12H68.15a8.11,8.11,0,0,0-1.1.06,4.31,4.31,0,0,0-1,.27,5,5,0,0,1-1.12.31,3.8,3.8,0,0,1-.58,0l-.55,0a6.7,6.7,0,0,0-1.09.06l-1.1.16-.56.07-.57,0a10.65,10.65,0,0,1-1.13,0l-1.12,0c-.37,0-.73,0-1.09,0v-.25h0Z"/><path class="cls-3" d="M43.24,35.29l0,0L43,35.13a6.07,6.07,0,0,0,.74-2.55,4.8,4.8,0,0,0,0-.66l0-.33-.09-.32,0-.15a1.14,1.14,0,0,0-.06-.15l-.15-.31a3.91,3.91,0,0,0-.32-.61c-.23-.37-.48-.79-.71-1.21l-.27-.68a4.32,4.32,0,0,1-.19-.68c-.12-.45-.21-.91-.32-1.36a7,7,0,0,0-.45-1.29L41,24.52l-.07-.14-.1-.15-.39-.58c-.25-.4-.55-.75-.83-1.12l-.86-1.1c-.3-.36-.53-.78-.8-1.16-.13-.19-.24-.41-.35-.61a4.68,4.68,0,0,1-.3-.64,6.38,6.38,0,0,1-.41-1.35,6.58,6.58,0,0,1-.13-1.4l0-.71.1-.69H37l-.09.69,0,.7A7,7,0,0,0,37,17.64,6.7,6.7,0,0,0,37.44,19a5.12,5.12,0,0,0,.31.62,3.87,3.87,0,0,0,.36.59,12.9,12.9,0,0,0,.81,1.13l.88,1.09c.29.36.6.72.86,1.11a6.58,6.58,0,0,1,.75,1.2,8.34,8.34,0,0,1,.5,1.34c.11.45.21.91.34,1.36.07.21.11.46.19.65l.27.62c.23.39.46.77.73,1.19a4.19,4.19,0,0,1,.34.62l.16.31A.78.78,0,0,1,44,31l0,.18.11.36,0,.36a6.11,6.11,0,0,1,0,.74,6.84,6.84,0,0,1-.74,2.79l-.22-.12,0,0Z"/><path class="cls-3" d="M41.17,31.56h-.05v.25c-.53,0-1.06-.08-1.58-.15L38,31.43c-1-.17-2.06-.37-3.09-.57l-3.07-.63A9.82,9.82,0,0,0,30.31,30a9.92,9.92,0,0,0-1.54.06l-1.55.19a6,6,0,0,1-1.59,0,11.82,11.82,0,0,0-1.55-.12,9,9,0,0,0-1.52.22,6.36,6.36,0,0,1-1.57.18,2,2,0,0,1-1.45-.64,9.28,9.28,0,0,0-.94-1.25,4.83,4.83,0,0,0-1.29-.83l0-.08a4.82,4.82,0,0,1,1.34.83,8.74,8.74,0,0,1,1,1.23,1.77,1.77,0,0,0,1.33.56,6.69,6.69,0,0,0,1.53-.2,8,8,0,0,1,1.56-.27,11.61,11.61,0,0,1,1.57.1,5.6,5.6,0,0,0,1.53,0l1.55-.22a12.11,12.11,0,0,1,1.59-.09,11.56,11.56,0,0,1,1.58.2l3.07.58c1,.19,2.05.37,3.08.52.52.08,1,.15,1.54.2s1,.09,1.54.12v.25h.06Z"/><path class="cls-3" d="M34.28,55.35h0v.25c-.87,0-1.73,0-2.6-.08-.43,0-.87,0-1.3-.08L29,55.31a11.55,11.55,0,0,1-1.29-.21L27.1,55a1.51,1.51,0,0,1-.33-.07l-.31-.1-.61-.21c-.2-.08-.4-.19-.6-.29-.41-.2-.77-.42-1.15-.63L23,53.11a9.58,9.58,0,0,0-1.22-.39l-1.26-.3c-.42-.1-.84-.21-1.26-.35l-.61-.23-.59-.3-.53-.38L17.22,51,17,50.74l-.47-.47-.39-.52a4.62,4.62,0,0,1-.35-.55l-.31-.57.08,0,.32.55a3.9,3.9,0,0,0,.36.54l.39.51.46.44c.08.07.15.15.23.21l.27.19.53.35.58.28.6.22c.41.12.82.22,1.24.31l1.27.27a12.3,12.3,0,0,1,1.26.38c.41.18.8.36,1.19.56s.76.42,1.14.59c.19.09.37.19.57.27l.62.19.31.1a2.11,2.11,0,0,0,.29.06l.64.1a10.76,10.76,0,0,0,1.27.17l1.28.11c.43,0,.86,0,1.29,0,.86,0,1.72,0,2.58,0v.25h0Z"/><path class="cls-3" d="M28.91,51.87v0l-.22-.11a4.82,4.82,0,0,0,.41-1.07,4,4,0,0,0,.1-1.14A5.73,5.73,0,0,0,29,48.37a11.68,11.68,0,0,0-.4-1.13,19.83,19.83,0,0,1-.84-2.31l-.08-.32,0-.3-.09-.6-.06-1.24a6.76,6.76,0,0,0-.12-1.19,5.4,5.4,0,0,0-.11-.58l-.17-.58a11.15,11.15,0,0,0-.4-1.15c-.14-.38-.29-.75-.46-1.12-.31-.75-.65-1.49-1-2.22a9.31,9.31,0,0,1-.45-1.14,5,5,0,0,1-.24-1.21h.09a4.62,4.62,0,0,0,.26,1.17,7.75,7.75,0,0,0,.48,1.11c.35.74.71,1.46,1,2.21.17.37.34.74.49,1.12A12.27,12.27,0,0,1,27.33,40l.19.58c.06.2.08.41.13.61a8.58,8.58,0,0,1,.14,1.23l.09,1.19.1.6.05.3.08.28A20.91,20.91,0,0,0,29,47.08c.16.37.31.76.44,1.15a6.51,6.51,0,0,1,.26,1.24,4.65,4.65,0,0,1-.08,1.29A5.26,5.26,0,0,1,29.19,52L29,51.85v0Z"/><path class="cls-3" d="M29,51.65l-.09,0-.07.24a4,4,0,0,1-.77-.41c-.23-.15-.45-.31-.67-.48-.43-.32-.85-.66-1.26-1-.82-.69-1.61-1.41-2.39-2.15-.39-.37-.77-.74-1.15-1.13a9.67,9.67,0,0,1-1.09-1.25A7.34,7.34,0,0,1,21,43.88a1.66,1.66,0,0,0-1.1-.85c-1-.37-2.05-.52-3.06-.93a10.83,10.83,0,0,1-1.43-.77c-.46-.27-.93-.5-1.41-.74A21.43,21.43,0,0,1,11.25,39,7.88,7.88,0,0,1,9,36.66l.08,0a7.41,7.41,0,0,0,2.24,2.22,19.29,19.29,0,0,0,2.78,1.54c.49.23,1,.46,1.45.72a9.28,9.28,0,0,0,1.4.72c1,.37,2.05.49,3.08.86a4.07,4.07,0,0,1,.77.35,1.61,1.61,0,0,1,.59.7,8.55,8.55,0,0,0,.49,1.48,9.8,9.8,0,0,0,1,1.15l1.14,1.11c.78.72,1.58,1.43,2.39,2.11.41.34.82.67,1.25,1,.21.16.42.31.64.45a4,4,0,0,0,.63.34l-.06.24.09,0Z"/><path class="cls-3" d="M58,31.51l0,0-.23.08a2.42,2.42,0,0,1,0-1.25,9.52,9.52,0,0,1,.32-1.11c.06-.18.12-.35.16-.52s0-.17,0-.25l0-.28a1.19,1.19,0,0,1,.28-.63,2.93,2.93,0,0,1,.48-.38,2.28,2.28,0,0,0,.73-.72,3,3,0,0,0,.37-1c.08-.36.13-.73.21-1.1,0-.19.09-.38.14-.56s.06-.18.1-.29l.11-.25a6.2,6.2,0,0,1,.56-1c.21-.32.43-.62.65-.92s.41-.62.59-.94.3-.67.43-1,.27-.7.39-1.05.26-.71.36-1.07.22-.71.31-1.07l.26-1.09h.09l-.23,1.11c-.08.36-.19.72-.29,1.09s-.22.72-.33,1.08-.24.71-.36,1.06a9.33,9.33,0,0,1-.42,1.06c-.18.34-.37.66-.58,1s-.42.62-.62.93a6.36,6.36,0,0,0-.5,1,4.7,4.7,0,0,0-.31,1c-.06.36-.11.73-.18,1.11a3.4,3.4,0,0,1-.39,1.12,2.88,2.88,0,0,1-.83.87,2.94,2.94,0,0,0-.4.32.78.78,0,0,0-.14.39l0,.27a2.84,2.84,0,0,1-.06.31c0,.19-.11.37-.16.55a8.76,8.76,0,0,0-.28,1.06,1.82,1.82,0,0,0,0,1l-.23.09v0Z"/><path class="cls-3" d="M47.93,27.43h0v-.25c.18,0,.41-.21.56-.51a4.84,4.84,0,0,0,.35-1,16.6,16.6,0,0,0,.35-2.13c0-.36.06-.72.08-1.08a3.39,3.39,0,0,1,.22-1.13,9,9,0,0,1,1.16-1.9,7.37,7.37,0,0,0,.57-.92,4.91,4.91,0,0,0,.37-1c.18-.7.28-1.44.53-2.13l.7-2.08c.23-.69.43-1.39.62-2.1l.09,0c-.17.72-.36,1.42-.57,2.12l-.64,2.1c-.23.69-.31,1.41-.48,2.13a5.82,5.82,0,0,1-.35,1.07,9.32,9.32,0,0,1-.57,1,8.45,8.45,0,0,0-1.07,1.85,3.39,3.39,0,0,0-.17,1q0,.55-.06,1.11a15.1,15.1,0,0,1-.3,2.2A4.84,4.84,0,0,1,49,26.9a2,2,0,0,1-.36.52,1,1,0,0,1-.68.3v-.25h0Z"/><path class="cls-3" d="M47.05,23h0l.07.23a2,2,0,0,1-1.35-.21,4.71,4.71,0,0,1-1.06-.69,5.7,5.7,0,0,1-.84-.93,3.11,3.11,0,0,1-.53-1.17c-.06-.42-.12-.8-.15-1.21l-.1-1.2a9.16,9.16,0,0,0-.17-1.17,6.22,6.22,0,0,0-.38-1.1A34.63,34.63,0,0,0,40,11.52q-.31-.51-.6-1c-.18-.35-.36-.72-.56-1.05a9.6,9.6,0,0,0-.66-1,11.28,11.28,0,0,0-.72-1l.06-.06c.25.31.53.61.76.94a10.86,10.86,0,0,1,.68,1c.23.34.4.7.6,1.05s.39.69.61,1a33.4,33.4,0,0,1,2.64,4,6.18,6.18,0,0,1,.44,1.16,9.39,9.39,0,0,1,.2,1.2L43.56,19c0,.38.11.8.17,1.17A3.51,3.51,0,0,0,45,22a4.34,4.34,0,0,0,1,.6,1.56,1.56,0,0,0,1,.16L47,23h0Z"/><path class="cls-3" d="M64.34,32.39v0h-.12a3.89,3.89,0,0,1,0-.76l.09-.38c0-.11.09-.24.14-.35a4.06,4.06,0,0,1,.91-1.21c.36-.34.75-.65,1.12-1,.19-.16.37-.32.54-.49a4.2,4.2,0,0,0,.48-.55,4.11,4.11,0,0,0,.44-.59,4.9,4.9,0,0,0,.38-.62c.12-.22.24-.43.34-.65s.2-.45.29-.68c.36-.91.64-1.86.91-2.8h0c-.26,1-.52,1.9-.87,2.83-.08.23-.18.45-.28.68s-.21.45-.32.67a6,6,0,0,1-.38.64,4.45,4.45,0,0,1-.43.61c-.15.19-.31.39-.48.57s-.36.35-.54.51c-.37.33-.75.64-1.1,1A3.79,3.79,0,0,0,64.72,31l-.12.33-.08.34a4.22,4.22,0,0,0,0,.71h-.13v0Z"/><path class="cls-3" d="M61.08,22.6l0,0-.09.08-1.31-1.48a19,19,0,0,1-1.25-1.56,8,8,0,0,1-.54-.84,7.49,7.49,0,0,1-.44-.9l-.14-.49a2,2,0,0,1-.11-.49,6.65,6.65,0,0,1,0-1c0-.67.11-1.32.16-2,0-.33,0-.66,0-1v-.49c0-.17-.05-.33-.08-.49a2.77,2.77,0,0,0-.11-.48A3.57,3.57,0,0,0,57,11c-.11-.31-.24-.62-.36-.92s-.23-.62-.32-.94c0-.17-.07-.33-.1-.49l0-.5h0l0,.49c0,.16.06.32.11.48a7.92,7.92,0,0,0,.33.93c.12.3.26.61.38.92a3.71,3.71,0,0,1,.16.47,2,2,0,0,1,.12.48c0,.17.07.33.09.49l0,.5c0,.34,0,.67,0,1,0,.66-.1,1.32-.13,2a6.43,6.43,0,0,0,0,1,6.09,6.09,0,0,0,.25.93,8.86,8.86,0,0,0,.44.87,9,9,0,0,0,.55.82A16.41,16.41,0,0,0,59.84,21l1.34,1.47-.1.08,0,0Z"/><path class="cls-3" d="M52,16.61l0,0-.09.08-.67-.82c-.22-.28-.4-.59-.6-.88a8.4,8.4,0,0,1-.51-.93,7,7,0,0,1-.43-1,7.31,7.31,0,0,1-.33-1,7.36,7.36,0,0,1-.25-1c-.07-.35-.14-.69-.18-1s-.1-.7-.12-1.05l-.08-1c0-.35,0-.7-.11-1a9.26,9.26,0,0,0-.18-1,7.13,7.13,0,0,0-.26-1,8.25,8.25,0,0,0-.34-1,8.12,8.12,0,0,0-.43-1c-.15-.32-.35-.61-.52-.92s-.4-.57-.6-.85l0,0c.2.28.42.56.61.85s.38.59.54.91a10.45,10.45,0,0,1,.44,1,6.88,6.88,0,0,1,.36,1,8.89,8.89,0,0,1,.28,1c.09.34.13.7.19,1s.08.7.12,1l.1,1c0,.35.09.7.13,1s.12.69.19,1a8.8,8.8,0,0,0,.26,1,8.74,8.74,0,0,0,.34,1,8.12,8.12,0,0,0,.43.95,8.08,8.08,0,0,0,.52.9c.2.28.37.58.59.85l.67.8-.09.08,0,0Z"/><path class="cls-3" d="M42.31,15l0,0-.11-.07.52-.83c.15-.28.27-.58.41-.87s.16-.62.25-.93a7.72,7.72,0,0,0,.05-1l-.05-.48a2.44,2.44,0,0,0-.09-.47,7.07,7.07,0,0,0-.3-.92,7.23,7.23,0,0,0-.42-.89l-.47-.86c-.15-.29-.32-.57-.45-.88s-.26-.61-.37-.92-.19-.63-.27-1-.14-.65-.19-1c-.09-.65-.15-1.3-.2-2l-.11-2h0l.14,2c.05.65.12,1.3.22,2,.06.32.13.64.2,1s.19.62.28.94.25.6.38.9.31.57.46.86l.49.86a9.3,9.3,0,0,1,.43.9,5.78,5.78,0,0,1,.32.94,1.64,1.64,0,0,1,.1.49l.07.5c0,.33,0,.67,0,1s-.15.65-.26,1-.25.62-.4.92l-.52.85L42.34,15v0Z"/><path class="cls-3" d="M38.13,20.49h0l0,.11a6.36,6.36,0,0,1-2.16.32,12,12,0,0,1-2.15-.21A9,9,0,0,1,29.88,19a4.25,4.25,0,0,1-1.28-1.74c-.26-.68-.37-1.39-.65-2a3.33,3.33,0,0,0-1.36-1.58,10,10,0,0,0-2-.84v-.05a9.62,9.62,0,0,1,2,.83,3.38,3.38,0,0,1,1.42,1.59c.29.67.41,1.39.67,2A4,4,0,0,0,30,18.88a8.68,8.68,0,0,0,3.88,1.62,10.62,10.62,0,0,0,2.11.19A6.44,6.44,0,0,0,38,20.36l.05.12,0,0Z"/><path class="cls-3" d="M35.37,28.57v0l-.12,0,.17-.59.1-.61,0-.61,0-.62-.1-.61-.15-.61c-.11-.39-.25-.79-.4-1.18-.31-.77-.67-1.53-1-2.29-.18-.38-.35-.77-.51-1.15s-.3-.79-.43-1.19h0c.14.39.29.78.46,1.17s.35.76.53,1.14c.37.75.75,1.5,1.08,2.27.16.39.31.79.43,1.19l.17.62.11.62.05.64,0,.64-.09.64-.16.62-.12,0h0Z"/><path class="cls-3" d="M32.26,30.33v0l.13,0a1.73,1.73,0,0,1-.21,1.31,2.21,2.21,0,0,1-1,.8,7.63,7.63,0,0,1-2.49.47c-.84,0-1.69,0-2.52,0s-1.68,0-2.51-.06l-2.52-.1c-.83,0-1.67-.07-2.51-.05-.41,0-.83,0-1.25,0s-.84,0-1.25.08-.83.08-1.25.15l-1.23.24v0l1.24-.26c.41-.07.83-.11,1.24-.16s.84-.06,1.26-.1.83,0,1.25,0c.84,0,1.68,0,2.52,0l2.51.07,2.51,0c.84,0,1.67,0,2.5,0a7.56,7.56,0,0,0,2.42-.49,1.92,1.92,0,0,0,.92-.71,1.47,1.47,0,0,0,.15-1.11l.12,0v0Z"/><path class="cls-3" d="M24.48,29.93v0l-.12,0c-.11-.33-.2-.67-.32-1s-.24-.67-.39-1-.29-.65-.47-1l-.25-.46c-.08-.14-.2-.29-.3-.43a3.88,3.88,0,0,0-.72-.74,5.72,5.72,0,0,0-.87-.58c-.31-.18-.63-.33-1-.48s-.65-.29-1-.47-.63-.34-.92-.54-.58-.43-.85-.67-.5-.51-.73-.79-.43-.58-.6-.89-.35-.63-.48-1-.26-.67-.35-1-.17-.69-.24-1l-.13-1.07h0L15,17.91c.07.35.17.69.25,1s.24.66.36,1,.32.62.48.94.41.58.61.86.49.51.73.77.55.43.83.65.62.35.92.53.64.3,1,.45.65.29,1,.46a5.45,5.45,0,0,1,.91.59,4.67,4.67,0,0,1,.77.77c.1.15.21.28.31.45l.27.47c.18.3.32.63.48,1s.27.66.41,1,.23.68.34,1l-.12,0v0Z"/><path class="cls-3" d="M38.67,48.79l0,0-.08-.09A1.49,1.49,0,0,0,38.9,48a5.1,5.1,0,0,0,.14-.78,12.32,12.32,0,0,0,.07-1.61,7,7,0,0,0,0-.8,4.1,4.1,0,0,0-.18-.77c-.18-.5-.43-1-.57-1.52A11.47,11.47,0,0,1,38,39.29a20.48,20.48,0,0,0-.1-3.23h0a20.63,20.63,0,0,1,.16,3.24c0,.55,0,1.09,0,1.62,0,.27.05.54.09.8a7,7,0,0,0,.18.79c.15.51.4,1,.59,1.5a3.26,3.26,0,0,1,.21.8c0,.28.05.55.07.82a12.78,12.78,0,0,1,0,1.64,5.6,5.6,0,0,1-.13.82,1.6,1.6,0,0,1-.36.8l-.09-.09h0Z"/><path class="cls-3" d="M38.76,53.75h0l0,.11-.6-.31a3.77,3.77,0,0,1-1.05-.89,4.42,4.42,0,0,1-.34-.6c-.08-.21-.17-.42-.23-.64l-.19-.64c-.06-.21-.11-.42-.18-.63s-.13-.43-.21-.63a4.27,4.27,0,0,0-.67-1.12c-.27-.35-.57-.67-.85-1a4.09,4.09,0,0,1-.69-1.15,2.49,2.49,0,0,1-.13-.66,3.75,3.75,0,0,1,0-.67h.05a2.91,2.91,0,0,0,0,.66,2.73,2.73,0,0,0,.14.63,4,4,0,0,0,.7,1.11c.28.34.59.66.88,1a4.32,4.32,0,0,1,.7,1.14c.1.21.15.42.23.63s.14.43.2.64l.2.63a5.53,5.53,0,0,0,.24.61,3.81,3.81,0,0,0,.33.55,3.19,3.19,0,0,0,.45.45,5,5,0,0,0,.54.35l.58.3-.05.11h0Z"/><path class="cls-3" d="M29.24,48.56v0l-.11,0c.08-.18.18-.35.25-.54a4.58,4.58,0,0,0,.17-.56l.05-.28,0-.29a3.84,3.84,0,0,0,0-.59,11.68,11.68,0,0,0-.22-1.18,4,4,0,0,1-.12-.6,4.09,4.09,0,0,1-.07-.6l0-.63c0-.2.09-.4.14-.6a5.54,5.54,0,0,1,.21-.57c.07-.19.18-.37.26-.55.18-.37.39-.71.56-1.08.08-.18.18-.36.25-.55l.21-.56h.05l-.21.57a4.72,4.72,0,0,1-.24.56c-.16.38-.36.73-.53,1.09-.08.19-.18.36-.24.55a3.85,3.85,0,0,0-.2.57c0,.19-.09.39-.12.58l0,.59a4.22,4.22,0,0,0,.09.59,4,4,0,0,0,.13.58,12.16,12.16,0,0,1,.25,1.2,3.23,3.23,0,0,1,0,.62v.31l-.06.31a4.57,4.57,0,0,1-.16.61c-.07.19-.17.38-.25.57l-.11-.06h0Z"/><path class="cls-3" d="M8.72,33.05v0l.12,0,.36.83c.13.28.31.52.46.78s.39.47.59.7.45.4.7.57.5.35.77.5l.81.45c.54.29,1.09.58,1.63.89s1.06.63,1.58,1,1,.72,1.49,1.11l.7.62c.21.22.44.43.65.66l.6.71.56.74,0,0-.56-.74-.62-.69-.65-.65-.7-.6q-.73-.57-1.5-1.08c-.52-.33-1-.64-1.59-.94S13,37.3,12.45,37c-.28-.14-.55-.29-.82-.44s-.53-.33-.8-.49a8.19,8.19,0,0,1-.73-.59c-.21-.23-.43-.46-.62-.71S9.12,34.26,9,34l-.39-.86.12,0v0Z"/><path class="cls-3" d="M17,41.91h0L17,42a10.49,10.49,0,0,1-1.11.13c-.38,0-.75,0-1.12,0s-.75,0-1.11-.09S12.92,42,12.55,42l-1.09-.17-.55-.09-.54-.13a10,10,0,0,1-1.07-.29l-1.05-.38c-.35-.13-.68-.29-1-.44s-.67-.3-1-.46l-2-.94-1-.41a9.84,9.84,0,0,0-1-.36A5.79,5.79,0,0,0,1.09,38L0,37.83v0L1.1,38a6.79,6.79,0,0,1,1.08.26,9.88,9.88,0,0,1,1,.34l1,.41,2,.91c.33.16.67.31,1,.45s.67.3,1,.43l1,.36c.34.12.72.17,1.07.26l.54.12.54.09,1.1.16c.36,0,.72.09,1.09.12s.73,0,1.1.07a9.92,9.92,0,0,0,1.09,0A9.94,9.94,0,0,0,17,41.77l0,.12h0Z"/><path class="cls-3" d="M23.54,53.2l0,0,.07.09-.82.59-.9.49c-.32.11-.63.26-1,.35a6.71,6.71,0,0,1-1,.21,11.3,11.3,0,0,1-2,.12c-.68,0-1.35-.08-2-.08l-4-.11-4-.18v0l4,.11,4,.06c.68,0,1.34.07,2,.05a10.93,10.93,0,0,0,2-.14,7.85,7.85,0,0,0,1-.22c.31-.09.61-.24.92-.35l.86-.48.79-.59.08.1,0,0Z"/><path class="cls-3" d="M28.42,55v0h-.13l0-.4a2.72,2.72,0,0,0-.11-.38,2.42,2.42,0,0,0-.18-.36c-.08-.12-.17-.22-.25-.33s-.39-.39-.6-.58-.44-.38-.65-.58-.39-.41-.58-.63-.37-.45-.56-.65a4.26,4.26,0,0,0-.59-.61l-.31-.27-.36-.23a17.16,17.16,0,0,0-3.21-1.12l-.81-.27a7,7,0,0,1-.78-.37,3.48,3.48,0,0,1-.7-.51c-.1-.1-.19-.22-.28-.33l-.22-.37,0,0,.22.36c.1.11.18.22.28.32a4.12,4.12,0,0,0,.69.49,6.81,6.81,0,0,0,.78.34l.81.27a16.27,16.27,0,0,1,3.27,1.08c.12.06.24.15.36.22l.34.28a7,7,0,0,1,.61.61c.2.21.38.43.57.64s.39.43.58.62l.65.56a7,7,0,0,1,.63.59l.28.35a3,3,0,0,1,.21.4c0,.14.1.29.13.44l0,.45h-.12v0Z"/><path class="cls-3" d="M39.44,59.72v0l-.12,0,.14-.35a3.47,3.47,0,0,1,.18-.33,2.9,2.9,0,0,1,.48-.57l.54-.47a4.41,4.41,0,0,0,.48-.49,4.29,4.29,0,0,0,.39-.59,4.51,4.51,0,0,0,.26-.64c.15-.44.31-.91.44-1.35l.19-.69a5.84,5.84,0,0,0,.18-.69l.12-.7c0-.23.09-.46.11-.7,0-.48.08-1,.11-1.42l0-1.43h0v1.43c0,.48-.06,1-.09,1.43,0,.24-.07.47-.1.71l-.11.71a4.41,4.41,0,0,1-.16.7l-.18.69c-.12.47-.26.91-.41,1.37a6.55,6.55,0,0,1-.27.69,4.07,4.07,0,0,1-.38.6,4.38,4.38,0,0,1-.51.54l-.52.48a2.7,2.7,0,0,0-.44.52c-.05.1-.11.2-.15.3l-.11.32-.12,0v0Z"/><path class="cls-3" d="M60.36,43.75v0l-.12,0,.22-1.3c.06-.43.11-.87.17-1.3s.1-.87.14-1.31.08-.88.09-1.31,0-.88,0-1.32a2.65,2.65,0,0,1,.31-1.3,5.24,5.24,0,0,1,.81-1,1.61,1.61,0,0,0,.42-1.2h0a1.64,1.64,0,0,1-.07.66,1.94,1.94,0,0,1-.33.58,5.67,5.67,0,0,0-.78,1.06A2.54,2.54,0,0,0,61,37.16c0,.44,0,.88,0,1.32s0,.88-.06,1.32-.05.89-.11,1.32-.09.88-.15,1.32l-.19,1.31-.13,0v0Z"/><path class="cls-3" d="M64.59,39.73v0l.13,0c0,.09,0,.19.09.28s.09.17.17.22a.93.93,0,0,0,.5.26,3,3,0,0,0,1.24,0c.42-.06.84-.16,1.27-.25l.63-.14c.22,0,.44,0,.66-.07.43,0,.86,0,1.29-.1s.85-.1,1.27-.17.85-.15,1.27-.24l1.26-.33v0l-1.25.35c-.42.1-.84.18-1.27.27S71,40,70.58,40s-.86.09-1.29.13c-.85.06-1.67.37-2.53.52a3.49,3.49,0,0,1-1.33,0,1.25,1.25,0,0,1-.63-.31,1.17,1.17,0,0,1-.22-.29,2.37,2.37,0,0,1-.13-.34l.12,0v0Z"/><path class="cls-3" d="M68.47,37.19h0l-.06-.11c.66-.37,1.32-.8,2-1.13.19-.08.36-.17.55-.23a4.74,4.74,0,0,1,.57-.16,2.89,2.89,0,0,1,.58-.08h.59a4.38,4.38,0,0,0,1.14-.07,2.38,2.38,0,0,0,.54-.14,2.45,2.45,0,0,0,.51-.26,2.16,2.16,0,0,0,.41-.39,3.23,3.23,0,0,0,.32-.47c.19-.33.35-.68.51-1l0,0a11.06,11.06,0,0,1-.49,1,2.58,2.58,0,0,1-.32.49,2.71,2.71,0,0,1-.41.42,3.25,3.25,0,0,1-.52.28,3,3,0,0,1-.57.16,4.52,4.52,0,0,1-1.16.1,4.21,4.21,0,0,0-1.13.1,3.09,3.09,0,0,0-.54.17c-.18.06-.35.16-.52.23-.68.35-1.32.78-2,1.18l-.06-.11h0Z"/><path class="cls-3" d="M67.65,31.66h-.12a1.38,1.38,0,0,1,.42-.81,3.9,3.9,0,0,1,.68-.55A13.13,13.13,0,0,0,70,29.37a2.07,2.07,0,0,0,.27-.31l.27-.32c.15-.24.29-.48.43-.72.25-.51.48-1,.72-1.53l0,0c-.22.52-.44,1-.67,1.55l-.41.76-.26.33a3,3,0,0,1-.28.34,14,14,0,0,1-1.4,1c-.44.31-.91.71-1,1.2h-.15Z"/><path class="cls-3" d="M61.68,21.86h0l0-.12.54.13.55.06a3.26,3.26,0,0,0,.54,0,2.62,2.62,0,0,0,.54-.12,7.55,7.55,0,0,0,1-.42c.33-.17.68-.33,1-.48.7-.29,1.42-.53,2.11-.84a4.66,4.66,0,0,0,.5-.25,4.76,4.76,0,0,0,.49-.28c.15-.12.31-.22.45-.34l.4-.4,0,0-.39.41c-.14.13-.3.24-.45.36a4.8,4.8,0,0,1-.48.3,5,5,0,0,1-.51.27c-.68.33-1.4.58-2.09.89-.34.16-.67.32-1,.5-.17.08-.34.17-.52.24A5.09,5.09,0,0,1,64,22a3.53,3.53,0,0,1-.56.14,2.88,2.88,0,0,1-.59,0,5.67,5.67,0,0,1-.58-.05L61.66,22l0-.12h0Z"/><path class="cls-3" d="M41.28,13.14h0l0,.12a9.59,9.59,0,0,1-3.66,0,5.66,5.66,0,0,1-1.71-.7,5,5,0,0,1-.74-.56,5.59,5.59,0,0,1-.62-.67,34.77,34.77,0,0,0-2.43-2.71,29.84,29.84,0,0,0-2.73-2.4l0,0a29.63,29.63,0,0,1,2.78,2.36,34.7,34.7,0,0,1,2.47,2.67,5.46,5.46,0,0,0,.62.65,4.18,4.18,0,0,0,.72.53,5.52,5.52,0,0,0,1.66.65,9.32,9.32,0,0,0,3.57,0l0,.12h0Z"/><path class="cls-3" d="M55.58,59.42v0l-.13,0c-.05-.17-.08-.35-.14-.52s-.14-.33-.25-.49a11,11,0,0,0-.66-.91,5.68,5.68,0,0,1-.63-1,2.63,2.63,0,0,1-.22-.55c-.06-.19-.1-.36-.15-.55l-.29-1.1c-.11-.36-.19-.73-.31-1.09l-.67-2.17,0,0,.73,2.16c.13.36.22.73.33,1.09l.32,1.09c.06.18.1.38.17.54a2.28,2.28,0,0,0,.21.51,6.32,6.32,0,0,0,.64.92,9.27,9.27,0,0,1,.7.92c.11.15.18.34.28.51s.11.38.17.58l-.12,0h0Z"/><path class="cls-3" d="M57.13,56.59h0v-.12l.58,0H58l.25-.06a2.35,2.35,0,0,0,.48-.23l.49-.28c.33-.18.65-.38,1-.54l1-.5q2-1.07,4-2.17l0,0Q63.27,53.88,61.3,55l-1,.52c-.33.17-.65.38-1,.57l-.48.29a2.61,2.61,0,0,1-.53.26l-.3.08h-.29l-.56,0v-.13h0Z"/><path class="cls-3" d="M72.81,57.51v0l-.11,0A4.68,4.68,0,0,1,73,56.9a3.07,3.07,0,0,1,.35-.51,4.58,4.58,0,0,1,.42-.46,5.71,5.71,0,0,1,.48-.38,6.85,6.85,0,0,1,1-.63,4.51,4.51,0,0,0,1-.58,2,2,0,0,0,.38-1.08l.19-1.18.4-2.37h0L77,52.1l-.17,1.19c0,.2-.05.39-.11.6a1.29,1.29,0,0,1-.28.56,4.07,4.07,0,0,1-1.05.63,9.43,9.43,0,0,0-1,.64,4,4,0,0,0-.44.38,3.31,3.31,0,0,0-.39.44,3,3,0,0,0-.31.48,3.65,3.65,0,0,0-.25.53l-.12,0v0Z"/><path class="cls-3" d="M72.37,65.21l0,0,.07-.1a10.51,10.51,0,0,1,1.62,1.21,4.2,4.2,0,0,1,.65.81,4.57,4.57,0,0,1,.42.93,2.63,2.63,0,0,0,.46.84c.06,0,.11.13.17.16l.2.14a1.67,1.67,0,0,0,.43.24c.28.15.61.26.91.41a4.5,4.5,0,0,1,.86.55l.77.65a5.33,5.33,0,0,0,.8.57,6.74,6.74,0,0,0,.92.4,8,8,0,0,0,.95.29,27.92,27.92,0,0,0,4,.49v.05a29.84,29.84,0,0,1-4-.44,7.73,7.73,0,0,1-1-.28,5.88,5.88,0,0,1-.93-.39,5.63,5.63,0,0,1-.84-.57l-.77-.64a4.16,4.16,0,0,0-.84-.52c-.3-.15-.61-.25-.93-.4a2.46,2.46,0,0,1-.45-.25l-.21-.14a1.16,1.16,0,0,1-.2-.18,3.11,3.11,0,0,1-.51-.9,4.28,4.28,0,0,0-.42-.89,3.69,3.69,0,0,0-.62-.75,10.44,10.44,0,0,0-1.6-1.17l.07-.1,0,0Z"/><path class="cls-3" d="M58.76,52.35h0l-.1.07-.39-.59c-.12-.2-.23-.41-.34-.62s-.19-.43-.28-.65l-.2-.68c0-.23-.09-.47-.11-.7s0-.47,0-.7,0-.47.05-.71l.13-.69h0l-.09.69c0,.23,0,.47,0,.7s0,.46.05.69.1.45.14.67l.22.65c.1.21.19.42.3.62s.23.4.35.59l.41.56-.1.07h0Z"/><path class="cls-3" d="M61,39.63h0v-.12a4,4,0,0,0,.6,0,1.79,1.79,0,0,0,.57-.16,2.43,2.43,0,0,0,.89-.8c.25-.34.47-.7.75-1a4,4,0,0,1,.45-.47l.49-.4a8.49,8.49,0,0,1,1-.78l1-.72.53-.36c.17-.12.35-.23.52-.36l1-.78,0,0-1,.8a6,6,0,0,1-.51.37l-.52.37-1,.74a10.82,10.82,0,0,0-1,.8l-.48.41a4.62,4.62,0,0,0-.41.46c-.26.32-.48.68-.73,1a2.57,2.57,0,0,1-1,.9,2.38,2.38,0,0,1-.64.2,4.85,4.85,0,0,1-.66,0v-.13h0Z"/><path class="cls-3" d="M66.29,28.94h0l-.12,0c-.07-.29-.13-.58-.18-.89a3.87,3.87,0,0,1,0-.48l.15-.44c.06-.15.14-.27.2-.41l.2-.4c.07-.13.11-.26.17-.4s.07-.28.11-.42,0-.29,0-.43,0-.29-.06-.43a6.83,6.83,0,0,0-.25-.85c-.09-.28-.17-.57-.24-.86l-.06-.45,0-.45h0v.44l.07.44c.08.29.17.57.27.85s.2.56.28.85.06.31.07.46a2.27,2.27,0,0,1,0,.45c0,.15,0,.31-.09.46s-.11.29-.17.42l-.19.41c-.06.13-.13.27-.18.4l-.12.41a2.75,2.75,0,0,0,0,.41c0,.27.12.56.2.85l-.12,0h0Z"/></g></g></g></g></svg>