<svg xmlns="http://www.w3.org/2000/svg" xmlns:xlink="http://www.w3.org/1999/xlink" viewBox="0 0 185.1 104.9"><defs><style>.cls-1{isolation:isolate;}.cls-2{fill:none;}.cls-10,.cls-11,.cls-12,.cls-13,.cls-14,.cls-15,.cls-16,.cls-17,.cls-18,.cls-19,.cls-2,.cls-20,.cls-21,.cls-22,.cls-23,.cls-24,.cls-25,.cls-26,.cls-27,.cls-28,.cls-29,.cls-3,.cls-30,.cls-31,.cls-32,.cls-33,.cls-34,.cls-35,.cls-36,.cls-37,.cls-38,.cls-39,.cls-4,.cls-40,.cls-41,.cls-42,.cls-43,.cls-44,.cls-45,.cls-46,.cls-47,.cls-48,.cls-49,.cls-5,.cls-50,.cls-51,.cls-52,.cls-53,.cls-54,.cls-55,.cls-56,.cls-57,.cls-58,.cls-59,.cls-6,.cls-60,.cls-61,.cls-7,.cls-8,.cls-9{fill-rule:evenodd;}.cls-3{fill:#1c1c1c;}.cls-4{fill:url(#radial-gradient);}.cls-5{fill:url(#radial-gradient-2);}.cls-6{fill:url(#radial-gradient-3);}.cls-10,.cls-15,.cls-16,.cls-19,.cls-20,.cls-28,.cls-29,.cls-30,.cls-31,.cls-32,.cls-33,.cls-34,.cls-35,.cls-42,.cls-43,.cls-44,.cls-45,.cls-48,.cls-49,.cls-50,.cls-51,.cls-55,.cls-56,.cls-59,.cls-60,.cls-7,.cls-8,.cls-9{opacity:0.5;mix-blend-mode:screen;}.cls-7{fill:url(#radial-gradient-4);}.cls-8{fill:url(#radial-gradient-5);}.cls-9{fill:url(#radial-gradient-6);}.cls-10{fill:url(#radial-gradient-7);}.cls-11,.cls-12,.cls-13,.cls-17,.cls-21,.cls-22,.cls-23,.cls-36,.cls-37,.cls-52,.cls-53,.cls-57,.cls-61{mix-blend-mode:multiply;}.cls-11{fill:url(#radial-gradient-8);}.cls-12{fill:url(#radial-gradient-9);}.cls-13{fill:url(#radial-gradient-10);}.cls-14{fill:url(#radial-gradient-11);}.cls-15{fill:url(#radial-gradient-12);}.cls-16{fill:url(#radial-gradient-13);}.cls-17{fill:url(#radial-gradient-14);}.cls-18{fill:url(#radial-gradient-15);}.cls-19{fill:url(#radial-gradient-16);}.cls-20{fill:url(#radial-gradient-17);}.cls-21{fill:url(#radial-gradient-18);}.cls-22{fill:url(#radial-gradient-19);}.cls-23{fill:url(#radial-gradient-20);}.cls-24{fill:url(#radial-gradient-21);}.cls-25{fill:url(#radial-gradient-22);}.cls-26{fill:url(#radial-gradient-23);}.cls-27{fill:url(#radial-gradient-24);}.cls-28{fill:url(#radial-gradient-25);}.cls-29{fill:url(#radial-gradient-26);}.cls-30{fill:url(#radial-gradient-27);}.cls-31{fill:url(#radial-gradient-28);}.cls-32{fill:url(#radial-gradient-29);}.cls-33{fill:url(#radial-gradient-30);}.cls-34{fill:url(#radial-gradient-31);}.cls-35{fill:url(#radial-gradient-32);}.cls-36{fill:url(#radial-gradient-33);}.cls-37{fill:url(#radial-gradient-34);}.cls-38{fill:url(#radial-gradient-35);}.cls-39{fill:url(#radial-gradient-36);}.cls-40{fill:url(#radial-gradient-37);}.cls-41{fill:url(#radial-gradient-38);}.cls-42{fill:url(#radial-gradient-39);}.cls-43{fill:url(#radial-gradient-40);}.cls-44{fill:url(#radial-gradient-41);}.cls-45{fill:url(#radial-gradient-42);}.cls-46{fill:url(#radial-gradient-43);}.cls-47{fill:url(#radial-gradient-44);}.cls-48{fill:url(#radial-gradient-45);}.cls-49{fill:url(#radial-gradient-46);}.cls-50{fill:url(#radial-gradient-47);}.cls-51{fill:url(#radial-gradient-48);}.cls-52{fill:url(#radial-gradient-49);}.cls-53{fill:url(#radial-gradient-50);}.cls-54{fill:url(#radial-gradient-51);}.cls-55{fill:url(#radial-gradient-52);}.cls-56{fill:url(#radial-gradient-53);}.cls-57{fill:url(#radial-gradient-54);}.cls-58{fill:url(#radial-gradient-55);}.cls-59{fill:url(#radial-gradient-56);}.cls-60{fill:url(#radial-gradient-57);}.cls-61{fill:url(#radial-gradient-58);}</style><radialGradient id="radial-gradient" cx="111.47" cy="-596.04" r="38.35" gradientTransform="matrix(1, 0, 0, -1, 0, -574.91)" gradientUnits="userSpaceOnUse"><stop offset="0" stop-color="#828282"/><stop offset="1" stop-color="#1c1c1c"/></radialGradient><radialGradient id="radial-gradient-2" cx="79.91" cy="-613.11" r="36.49" gradientTransform="matrix(1, 0, 0, -1, 0, -574.91)" gradientUnits="userSpaceOnUse"><stop offset="0" stop-color="#828282"/><stop offset="1" stop-color="#474747"/></radialGradient><radialGradient id="radial-gradient-3" cx="122.63" cy="-595.92" r="26.32" xlink:href="#radial-gradient"/><radialGradient id="radial-gradient-4" cx="133.13" cy="-599.4" r="24.57" gradientTransform="matrix(1, 0, 0, -1, 0, -574.91)" gradientUnits="userSpaceOnUse"><stop offset="0" stop-color="#707070"/><stop offset="1"/></radialGradient><radialGradient id="radial-gradient-5" cx="93.98" cy="-605.02" r="31.36" gradientTransform="matrix(1, 0, 0, -1, 0, -574.91)" gradientUnits="userSpaceOnUse"><stop offset="0" stop-color="#a3a3a3"/><stop offset="1" stop-color="#494949"/></radialGradient><radialGradient id="radial-gradient-6" cx="103.41" cy="-599.69" r="25.54" xlink:href="#radial-gradient-4"/><radialGradient id="radial-gradient-7" cx="88.68" cy="-589.56" r="7.83" xlink:href="#radial-gradient-4"/><radialGradient id="radial-gradient-8" cx="137.56" cy="-564.14" r="35.31" gradientTransform="matrix(1, 0, 0, -1, 0, -574.91)" gradientUnits="userSpaceOnUse"><stop offset="0" stop-color="#727272"/><stop offset="1" stop-color="#fff"/></radialGradient><radialGradient id="radial-gradient-9" cx="97.06" cy="-562.61" r="39.97" xlink:href="#radial-gradient-8"/><radialGradient id="radial-gradient-10" cx="82.67" cy="-567.27" r="35.2" xlink:href="#radial-gradient-8"/><radialGradient id="radial-gradient-11" cx="72.34" cy="-597.7" r="35.7" xlink:href="#radial-gradient"/><radialGradient id="radial-gradient-12" cx="64.85" cy="-607.78" r="34.85" xlink:href="#radial-gradient-4"/><radialGradient id="radial-gradient-13" cx="64.68" cy="-592.17" r="6.57" xlink:href="#radial-gradient-4"/><radialGradient id="radial-gradient-14" cx="79.8" cy="-570.25" r="31.11" gradientTransform="matrix(1, 0, 0, -1, 0, -574.91)" gradientUnits="userSpaceOnUse"><stop offset="0" stop-color="#565656"/><stop offset="1" stop-color="#fff"/></radialGradient><radialGradient id="radial-gradient-15" cx="148.16" cy="-597.7" r="35.7" xlink:href="#radial-gradient"/><radialGradient id="radial-gradient-16" cx="140.67" cy="-607.78" r="34.85" xlink:href="#radial-gradient-4"/><radialGradient id="radial-gradient-17" cx="140.5" cy="-592.17" r="6.57" xlink:href="#radial-gradient-4"/><radialGradient id="radial-gradient-18" cx="155.62" cy="-570.25" r="31.11" xlink:href="#radial-gradient-8"/><radialGradient id="radial-gradient-19" cx="73.05" cy="-642.27" r="39.24" gradientTransform="matrix(1, 0, 0, -1, 0, -574.91)" gradientUnits="userSpaceOnUse"><stop offset="0" stop-color="#a1918f"/><stop offset="1" stop-color="#fff"/></radialGradient><radialGradient id="radial-gradient-20" cx="106.4" cy="-632.87" r="52.43" xlink:href="#radial-gradient-19"/><radialGradient id="radial-gradient-21" cx="121.39" cy="-691.8" r="42.62" xlink:href="#radial-gradient"/><radialGradient id="radial-gradient-22" cx="108.37" cy="-719.44" r="66.65" xlink:href="#radial-gradient"/><radialGradient id="radial-gradient-23" cx="74.33" cy="-693.68" r="46.66" xlink:href="#radial-gradient"/><radialGradient id="radial-gradient-24" cx="85.09" cy="-683.66" r="19.35" xlink:href="#radial-gradient"/><radialGradient id="radial-gradient-25" cx="94.94" cy="-689.63" r="32.81" xlink:href="#radial-gradient-4"/><radialGradient id="radial-gradient-26" cx="64.47" cy="-696.56" r="43.52" xlink:href="#radial-gradient-4"/><radialGradient id="radial-gradient-27" cx="96.2" cy="-691.44" r="39.26" xlink:href="#radial-gradient-4"/><radialGradient id="radial-gradient-28" cx="153.58" cy="-703.09" r="51.04" xlink:href="#radial-gradient-4"/><radialGradient id="radial-gradient-29" cx="134.92" cy="-677.64" r="11.4" xlink:href="#radial-gradient-4"/><radialGradient id="radial-gradient-30" cx="105.49" cy="-677.81" r="9.32" xlink:href="#radial-gradient-4"/><radialGradient id="radial-gradient-31" cx="86.38" cy="-678.03" r="4.05" xlink:href="#radial-gradient-4"/><radialGradient id="radial-gradient-32" cx="67.34" cy="-677.03" r="8.91" xlink:href="#radial-gradient-4"/><radialGradient id="radial-gradient-33" cx="89.93" cy="-639.46" r="37.61" xlink:href="#radial-gradient-8"/><radialGradient id="radial-gradient-34" cx="107.83" cy="-626.97" r="67.24" xlink:href="#radial-gradient-8"/><radialGradient id="radial-gradient-35" cx="4287.05" cy="2599.73" r="29.47" gradientTransform="matrix(0, -1, -1, 0, 2753.95, 4310.13)" xlink:href="#radial-gradient"/><radialGradient id="radial-gradient-36" cx="4270.84" cy="2588.17" r="29.72" gradientTransform="matrix(0, -1, -1, 0, 2753.95, 4310.13)" xlink:href="#radial-gradient"/><radialGradient id="radial-gradient-37" cx="4223.73" cy="2587.49" r="34.83" gradientTransform="matrix(0, -1, -1, 0, 2753.95, 4310.13)" xlink:href="#radial-gradient"/><radialGradient id="radial-gradient-38" cx="4247.92" cy="2590.57" r="26.08" gradientTransform="matrix(0, -1, -1, 0, 2753.95, 4310.13)" xlink:href="#radial-gradient"/><radialGradient id="radial-gradient-39" cx="4241.99" cy="2595.89" r="25.13" gradientTransform="matrix(0, -1, -1, 0, 2753.95, 4310.13)" xlink:href="#radial-gradient-4"/><radialGradient id="radial-gradient-40" cx="4235.13" cy="2600.96" r="26.04" gradientTransform="matrix(0, -1, -1, 0, 2753.95, 4310.13)" xlink:href="#radial-gradient-4"/><radialGradient id="radial-gradient-41" cx="4270.84" cy="2598.39" r="22.32" gradientTransform="matrix(0, -1, -1, 0, 2753.95, 4310.13)" xlink:href="#radial-gradient-4"/><radialGradient id="radial-gradient-42" cx="4271.87" cy="2595.76" r="26.78" gradientTransform="matrix(0, -1, -1, 0, 2753.95, 4310.13)" xlink:href="#radial-gradient-4"/><radialGradient id="radial-gradient-43" cx="3382.85" cy="-4958.73" r="26.69" gradientTransform="matrix(0, 1, 1, 0, 4991.4, -3335.83)" xlink:href="#radial-gradient"/><radialGradient id="radial-gradient-44" cx="3407.38" cy="-4953.17" r="38.16" gradientTransform="matrix(0, 1, 1, 0, 4991.4, -3335.83)" xlink:href="#radial-gradient"/><radialGradient id="radial-gradient-45" cx="3406.75" cy="-4955.22" r="29.32" gradientTransform="matrix(0, 1, 1, 0, 4991.4, -3335.83)" xlink:href="#radial-gradient-4"/><radialGradient id="radial-gradient-46" cx="3376.64" cy="-4954.4" r="26.42" gradientTransform="matrix(0, 1, 1, 0, 4991.4, -3335.83)" xlink:href="#radial-gradient-4"/><radialGradient id="radial-gradient-47" cx="3372.52" cy="-4947.63" r="4" gradientTransform="matrix(0, 1, 1, 0, 4991.4, -3335.83)" xlink:href="#radial-gradient-4"/><radialGradient id="radial-gradient-48" cx="3411.57" cy="-4946.85" r="3.39" gradientTransform="matrix(0, 1, 1, 0, 4991.4, -3335.83)" xlink:href="#radial-gradient-4"/><radialGradient id="radial-gradient-49" cx="3427.71" cy="-4922.93" r="29.96" gradientTransform="matrix(0, 1, 1, 0, 4991.4, -3335.83)" xlink:href="#radial-gradient-19"/><radialGradient id="radial-gradient-50" cx="3381.18" cy="-4928.64" r="21.01" gradientTransform="matrix(0, 1, 1, 0, 4991.4, -3335.83)" xlink:href="#radial-gradient-8"/><radialGradient id="radial-gradient-51" cx="3357.16" cy="-4958.74" r="27.74" gradientTransform="matrix(0, 1, 1, 0, 4991.4, -3335.83)" xlink:href="#radial-gradient-2"/><radialGradient id="radial-gradient-52" cx="3349.31" cy="-4954.11" r="33.54" gradientTransform="matrix(0, 1, 1, 0, 4991.4, -3335.83)" xlink:href="#radial-gradient-4"/><radialGradient id="radial-gradient-53" cx="3357.48" cy="-4947.79" r="6.53" gradientTransform="matrix(0, 1, 1, 0, 4991.4, -3335.83)" xlink:href="#radial-gradient-4"/><radialGradient id="radial-gradient-54" cx="3358.96" cy="-4920.35" r="34.76" gradientTransform="matrix(0, 1, 1, 0, 4991.4, -3335.83)" xlink:href="#radial-gradient-8"/><radialGradient id="radial-gradient-55" cx="3431.13" cy="-4958.74" r="27.74" gradientTransform="matrix(0, 1, 1, 0, 4991.4, -3335.83)" xlink:href="#radial-gradient"/><radialGradient id="radial-gradient-56" cx="3423.28" cy="-4954.11" r="33.54" gradientTransform="matrix(0, 1, 1, 0, 4991.4, -3335.83)" xlink:href="#radial-gradient-4"/><radialGradient id="radial-gradient-57" cx="3431.45" cy="-4947.79" r="6.53" gradientTransform="matrix(0, 1, 1, 0, 4991.4, -3335.83)" xlink:href="#radial-gradient-4"/><radialGradient id="radial-gradient-58" cx="3432.93" cy="-4920.35" r="34.76" gradientTransform="matrix(0, 1, 1, 0, 4991.4, -3335.83)" xlink:href="#radial-gradient-8"/></defs><g class="cls-1"><g id="Layer_2" data-name="Layer 2"><g id="Layer_1-2" data-name="Layer 1"><polygon class="cls-2" points="53.5 84.97 138.46 84.97 138.46 0 53.5 0 53.5 84.97 53.5 84.97"/><polygon class="cls-3" points="43.23 101.41 146.26 101.41 146.26 9.3 43.23 9.3 43.23 101.41 43.23 101.41"/><path class="cls-4" d="M100.21,6.8c-.93,1-.85,2.56-1,3.82s-.62,7.26.79,7.78a35.55,35.55,0,0,0,3.9.22c3.51.11,7.12.24,10.63.18,1.59-.12,1.79-.58,2.79-1.68.57-.62.5-.95.51-1.74a37.24,37.24,0,0,0-.07-7c-.07-.45-.28-1.23-.75-1.42a5.66,5.66,0,0,0-2.38-.26h-.07c-4.38,0-8.93,0-13.3.06a9.36,9.36,0,0,0-1.07,0Z"/><path class="cls-5" d="M74.51,18c.41,1,2.24.78,3.25.83,4.56.17,9.34.24,13.9.18,1,0,6.32,0,6.92-.59s.06-2.95,0-3.79a45.62,45.62,0,0,1,.07-6.19c.1-1.95-1.54-1.47-3.07-1.55C93.12,6.75,76,6.41,75,7.1c-.72.47-.6,2.66-.63,3.56A53.74,53.74,0,0,0,74.51,18Z"/><path class="cls-6" d="M118.28,9.26c-.14,2.64-.12,5.31,0,8,0,.69.15.75.69,1.15s.68.27,1.26.26c2.87,0,5.75,0,8.62,0,.61,0,.73-.19,1.21-.51a2.14,2.14,0,0,0,.59-.53,6.13,6.13,0,0,0,.22-1.8,34,34,0,0,0,0-7c-.06-.8,0-1.14-.57-1.79a1.4,1.4,0,0,0-.8-.38,20.44,20.44,0,0,0-2.72,0c-2.13.06-4.19.07-6.31.09a8.76,8.76,0,0,0-1.45.1c-.21.05-.25.14-.38.33a2.45,2.45,0,0,0-.35,1.63c0,.16,0,.33,0,.49Z"/><path class="cls-7" d="M119.11,7.14a8.79,8.79,0,0,1,1.36-.07,50.18,50.18,0,0,1,8.4.36c1.4.23,1.31,1.26,1.51,2.45a16.38,16.38,0,0,1,.09,5,5.86,5.86,0,0,1-.18,1.47,2,2,0,0,1-.47.38c-1.09.5-10.16,2.07-10.75.6a35.35,35.35,0,0,1-.52-5.07c0-1.07.06-2.14.1-3.21,0-.15,0-.3,0-.45a1.75,1.75,0,0,1,.28-1.28c0-.07.08-.15.17-.17Z"/><path class="cls-8" d="M74.86,17.91a10.42,10.42,0,0,1-.13-1.37c0-.62,0-1.25,0-1.88a22.26,22.26,0,0,1,.68-6.53c.19-.53.23-.41,1-.51A47.86,47.86,0,0,1,83.72,7h1.69q3.16,0,6.33.07c.47,0,5.25.12,5.78.5s.23,2,.2,2.65c0,1.19-.07,2.39-.12,3.59,0,.52,0,1.06,0,1.59,0,.27,0,1.35-.26,1.54-1.24.87-19.41,1.32-19.6,1.29-.68,0-2.57.29-2.92-.36Z"/><path class="cls-9" d="M111.85,7c.76,0,4.24.24,4.72,1,.8,1.19,1.06,4.46,1,5.88l0,.61c0,.63.08.89-.41,1.36-.54.83-13.7,2.26-16.91,2-.29-.12-.46-.77-.52-1a11.55,11.55,0,0,1-.2-2.27c0-.94.3-7.14,1.23-7.24,1.4-.15,3.3-.26,4.69-.3,2.11-.08,4.37,0,6.48,0Z"/><path class="cls-10" d="M78.51,18.83c5.49-.26,10.72-.61,16.24-1.06.78-.07,1.57-.05,2.35-.12a2.34,2.34,0,0,0,1.16-.22,1,1,0,0,0,.27-.84c-.06-.65-.47-1.23-.51-1.88a24.32,24.32,0,0,1,.53-4.43,35,35,0,0,0,0,4.33c.06.84.57,3.26,0,3.79s-5.93.58-6.92.59c-4.32.06-8.82,0-13.15-.16Z"/><path class="cls-11" d="M126.76,10.05c-1-.82-4.48-1.4-6.29-1.32-.67,0-1.5.89-1.87,1.57,0-.42,0-.84.05-1.26,0-.15,0-.3,0-.45a1.75,1.75,0,0,1,.28-1.28c0-.07.08-.15.17-.17a8.79,8.79,0,0,1,1.36-.07,50.18,50.18,0,0,1,8.4.36c1.4.23,1.31,1.26,1.51,2.45.08.48.14.9.17,1.3a6.26,6.26,0,0,1-3.79-1.13Z"/><path class="cls-12" d="M116.57,8a7.48,7.48,0,0,1,.83,3,15.9,15.9,0,0,1-2.28.13,14.7,14.7,0,0,1-5.78-2c-.21-.15-5.89,0-6.68-.05a3.06,3.06,0,0,0-2.94,1.59c.19-1.67.5-3.23,1-3.28,1.4-.15,3.3-.26,4.69-.3,2.11-.08,4.37,0,6.48,0,.76,0,4.24.24,4.72,1Z"/><path class="cls-13" d="M97.52,7.61c.53.37.23,2,.2,2.65l0,.94A72.15,72.15,0,0,1,88.24,9c-1.61-.59-11-1.23-13.17.23a9,9,0,0,1,.29-1.11c.19-.53.23-.41,1-.51A47.86,47.86,0,0,1,83.72,7h1.69q3.16,0,6.33.07c.47,0,5.25.12,5.78.5Z"/><path class="cls-14" d="M58.57,6.74a11.33,11.33,0,0,0-2.4.3c-.82.47-.68,1.68-.68,2.49V16a5.28,5.28,0,0,0,.69,2c.3.76.4.59,1.21.62s1.36,0,2.09,0c3.42,0,6.87,0,10.28,0a17.72,17.72,0,0,0,3.57-.47c.61-.45.5-2,.54-2.76.06-1.3,0-2.74,0-4.06,0-.94.25-3.79-.7-4.27s-4-.36-5.32-.35H58.57Z"/><path class="cls-15" d="M55.85,15.08c0-2.07,0-4.11,0-6.18,0-1.46.83-1.1,2.08-1.11,2.36,0,3.88-.47,6.07-.66a14.43,14.43,0,0,1,1.61,0h2.28c1.19,0,4.17-.17,5.16.29A7.91,7.91,0,0,1,73.53,10c0,1.26,0,2.69,0,4,0,.46.08,2.67-.38,2.85,0,0-2.1,0-2.46.08-2.33.25-3.86.82-6.34.73a62.62,62.62,0,0,1-7.65-.52,1.41,1.41,0,0,1-.19-.34,4.66,4.66,0,0,1-.67-1.64Z"/><path class="cls-16" d="M73.86,15.84c0,.8,0,2-.53,2.34a17.72,17.72,0,0,1-3.57.47c-2.76,0-5.55,0-8.33,0h-2c-.73,0-1.37,0-2.09,0s-.91.14-1.21-.62a5.28,5.28,0,0,1-.69-2,4.11,4.11,0,0,0,.25.52,3.4,3.4,0,0,0,.87,1.08,1.86,1.86,0,0,0,1,.27c1.26,0,2.52,0,3.78,0,1.73,0,3.45,0,5.17,0,.79,0,1.57.25,2.36.26A8.1,8.1,0,0,0,70.79,18a21.37,21.37,0,0,0,2.34-.65c.18-.06.42-.09.5-.26a4.19,4.19,0,0,0,.23-1.23Z"/><path class="cls-17" d="M73,7.37A7.91,7.91,0,0,1,73.53,10c0,.51,0,1.05,0,1.6a5,5,0,0,1-1.12-.06c-2.05-.43-5.13-2-6.15-2-1.27,0-3.06-.15-4.85-.07-2.18.11-4.37.5-5.59,1.68,0-.73,0-1.45,0-2.18,0-1.46.83-1.1,2.08-1.11a25.42,25.42,0,0,0,3.53-.33c.81-.12,1.61-.25,2.54-.33a14.43,14.43,0,0,1,1.61,0h2.28c1.19,0,4.17-.17,5.16.29Z"/><path class="cls-18" d="M134.39,6.74A11.24,11.24,0,0,0,132,7c-.82.47-.69,1.68-.69,2.49,0,2.16,0,4.32,0,6.49a5.47,5.47,0,0,0,.69,2c.31.76.4.59,1.21.62s1.37,0,2.09,0c3.42,0,6.87,0,10.28,0a17.53,17.53,0,0,0,3.57-.47c.62-.45.51-2,.54-2.76.07-1.3,0-2.74,0-4.06,0-.94.26-3.79-.69-4.27s-4-.36-5.33-.35h-9.29Z"/><path class="cls-19" d="M131.68,15.08c0-2.07,0-4.11,0-6.18,0-1.46.83-1.1,2.08-1.11,2.36,0,3.88-.47,6.07-.66a14.48,14.48,0,0,1,1.61,0h2.28c1.19,0,4.17-.17,5.16.29a8.29,8.29,0,0,1,.52,2.58c0,1.26,0,2.69,0,4,0,.46.07,2.67-.39,2.85,0,0-2.1,0-2.45.08-2.34.25-3.87.82-6.35.73a62.76,62.76,0,0,1-7.65-.52,1.41,1.41,0,0,1-.19-.34,4.64,4.64,0,0,1-.66-1.64Z"/><path class="cls-20" d="M149.68,15.84c0,.8,0,2-.53,2.34a17.53,17.53,0,0,1-3.57.47c-2.76,0-5.55,0-8.32,0h-2c-.72,0-1.37,0-2.09,0s-.9.14-1.21-.62a5.47,5.47,0,0,1-.69-2c.08.17.16.35.26.52a3.37,3.37,0,0,0,.86,1.08,1.86,1.86,0,0,0,1,.27c1.26,0,2.52,0,3.79,0,1.72,0,3.44,0,5.16,0,.8,0,1.57.25,2.36.26a8,8,0,0,0,1.83-.22,20.77,20.77,0,0,0,2.34-.65c.18-.06.43-.09.5-.26a4.19,4.19,0,0,0,.23-1.23Z"/><path class="cls-21" d="M148.84,7.37a8.29,8.29,0,0,1,.52,2.58c0,.51,0,1.05,0,1.6a5.06,5.06,0,0,1-1.12-.06c-2.05-.43-5.13-2-6.15-2-1.26,0-3-.15-4.84-.07-2.19.11-4.38.5-5.59,1.68l0-2.18c0-1.46.83-1.1,2.08-1.11a25.58,25.58,0,0,0,3.54-.33c.8-.12,1.61-.25,2.53-.33a14.48,14.48,0,0,1,1.61,0h2.28c1.19,0,4.17-.17,5.16.29Z"/><path class="cls-22" d="M65.08,90c1.41,0,13.21-.2,13.61.22a5.17,5.17,0,0,1,.41,1.65l0,.08c-.34,1-7.57,4.19-8.54,4.36-1.77.31-11.36-3-14.43-3.53a8,8,0,0,1,.59-2.59c.42-.3,7.48-.19,8.39-.19Z"/><path class="cls-23" d="M92.77,94.19a16.41,16.41,0,0,1,.14-2c.17-1.07,1.22-.63,2.23-.58,3.42.17,6.29-1.54,10-1.68,3.4-.09,6.75,0,10.14.19h.28a4.89,4.89,0,0,1,1.89.23.88.88,0,0,1,.36.74l0,.36c0,.55,0,1.08.08,1.57-1.43.23-6.49,1-6.67,1.07-4.86,1.11-6.64.33-11.17-.34-2.89-.43-4.67-1.29-7.34.38Z"/><path class="cls-24" d="M120.74,89.62a2.48,2.48,0,0,0-.27,0c-1.37.66-1.13,2.79-1.23,4.27s-.64,9.16,0,10.12,3.78.67,5,.71c4.74.12,9.6.21,14.33.09,1.66,0,10.27-.34,11.26-.7,1.48-.54.94-3.29.88-4.66-.09-2.13-.2-4.49-.43-6.62a5.61,5.61,0,0,0-.77-2.66c-.91-.84-3.86-.66-5.13-.67-4.13,0-8.26-.25-12.4-.26-3.78,0-7.5.2-11.28.35Z"/><path class="cls-25" d="M105.16,89.55c-3.64.13-6.8,1.1-10.51.92-2.23-.1-2.3.33-2.34,2.68q0,3.24,0,6.49c0,1,0,3.75.4,4.55s1.68.57,2.64.57c2.55,0,4.6,0,7.17-.21,4.16-.28,7.76,0,11.84,0,4.66,0,4.07-.72,4.21-4.92.08-2.64,0-5.37-.23-8l0-.4c-.13-1.75-1.6-1.43-3-1.53-3.52-.25-6.65-.28-10.18-.2Z"/><path class="cls-26" d="M70,104.78c2.21,0,3.83-.77,6.08-.83,2.62-.06,3.69.31,4-2.58l0-.25c.14-1.31,0-3.48,0-4.87S80.34,91,79.59,90c-.44-.58-1.09-.43-1.78-.45-4.21-.07-8.51,0-12.73,0q-3.66,0-7.3,0c-1.75,0-2.29-.12-2.54,1.87a22.57,22.57,0,0,0-.22,3c0,2,0,3.93,0,5.9a2.79,2.79,0,0,0,1.08,2.31,8.44,8.44,0,0,0,3.16,2.06,48.26,48.26,0,0,0,5,.1Z"/><path class="cls-27" d="M91.17,104.42c1.08-.8.75-9.4.76-11.14,0-.86,0-3.07-.7-3.52-.18-.05-3,.25-3.45.27a33.83,33.83,0,0,1-4.5-.35c-2.76-.3-2.37.85-2.51,3.21-.08,1.6-.14,8.7.35,9.84.57,1.36,3.24,2,4.49,2s4.49.26,5.56-.31Z"/><path class="cls-28" d="M90.9,102.59c-1,.58-4.13.87-5.27,1s-3.61,0-4.09-.94a6.28,6.28,0,0,1-.24-1.53C81.22,100,81,91.57,81.6,91c.43-.37,3.84-.25,4.55-.3,1.55-.11,2.92-.44,4.43-.54.14,0,.32,0,.48,0a2.86,2.86,0,0,1,.36,1.29,14.31,14.31,0,0,1,0,1.46c0,.65,0,1.31,0,2,0,1,0,2,0,2.94a31,31,0,0,1-.19,3.2,4.5,4.5,0,0,1-.41,1.57Z"/><path class="cls-29" d="M59.37,102.77A8.32,8.32,0,0,1,56.45,101c-1.25-1.17-1-1.86-.87-3.55.05-.65.63-6.95,1.11-7.31S64.17,90,65.08,90c1.41,0,13.21-.2,13.61.22s1.07,7.67,1.08,9.26a17,17,0,0,1-.09,2l0,.22c-.07.49-.2,1.37-.72,1.63a2.21,2.21,0,0,1-1,.12c-.61,0-1.24-.11-1.85-.16a20.93,20.93,0,0,0-3.27.07c-1.28.11-11.75-.27-13.45-.59Z"/><path class="cls-30" d="M93.11,102.53c-.46-1.3-.47-8.68-.2-10.29.17-1.07,1.22-.63,2.23-.58,3.42.17,6.29-1.54,10-1.68,3.4-.09,6.75,0,10.14.19h.28a4.89,4.89,0,0,1,1.89.23.88.88,0,0,1,.36.74l0,.36c.18,3.64.31,6,.22,8.42,0,.79,0,1.6-.06,2.38a1.92,1.92,0,0,1-.33,1.1c-.86.89-20-.45-22.36-.58l-.72,0c-.47,0-1.21.09-1.51-.32Z"/><path class="cls-31" d="M132,89.73c3.39,0,13.73,0,16.4,1.37,1.35.71,1.67,6.45,1.6,7.8l0,.47c-.07,1.11.33,3.81-1.17,4a77.15,77.15,0,0,1-13.93.09c-4-.3-5.66-1.6-10.3-1.3-.53,0-4.69.51-5,.09-.61-1.7.06-8,.39-10.18.28-1.86.84-1.59,2.26-1.75a75.83,75.83,0,0,1,8.43-.61Z"/><path class="cls-32" d="M119.7,103.36c2.11,0,4.21-.41,6.32-.46a10.37,10.37,0,0,1,2.21.28c1.86.35,3.68,1,5.56,1.19a41.92,41.92,0,0,0,6.24.07c3.16-.13,6.34-.28,9.49-.71a1.44,1.44,0,0,0,.92-.71,3,3,0,0,0,.27-1.23c.06-.41.09-.82.12-1.23.12,1.41.19,3.16-1,3.58-1,.36-9.6.65-11.26.7-4.73.12-9.59,0-14.33-.09-1.26,0-4.36.31-5-.71a6.62,6.62,0,0,1-.3-2.41,6.07,6.07,0,0,0,.26,1.12c.09.24.23.61.5.61Z"/><path class="cls-33" d="M100.5,103.73c1.62,0,3.23.28,4.85.34,3.64.12,7.27.29,10.91.18a2.52,2.52,0,0,0,1.59-.55,2.19,2.19,0,0,0,.52-1.32,10.91,10.91,0,0,0,.16-1.4c0,3.06,0,3.64-4.18,3.62s-7.68-.33-11.84,0c-2.57.2-4.62.21-7.17.21-1,0-2.11.28-2.64-.57a3.85,3.85,0,0,1-.24-1,2.33,2.33,0,0,0,1.07.59c2.32.19,4.65-.11,7-.06Z"/><path class="cls-34" d="M91.86,101.41c-.11,1.53-.32,2.74-.69,3-1.07.57-4.17.36-5.56.31s-3.92-.64-4.49-2a4.15,4.15,0,0,1-.21-1.11,4.63,4.63,0,0,0,.46,1.13,2.24,2.24,0,0,0,.92.83,5.42,5.42,0,0,0,2.21.61,27.38,27.38,0,0,0,4.85-.61,3.66,3.66,0,0,0,1.94-.65,3,3,0,0,0,.57-1.52Z"/><path class="cls-35" d="M65.91,104c2.32.07,4.63.2,6.94.09.69,0,1.31-.48,2-.52,1.26-.09,2.53.16,3.79.13a1.45,1.45,0,0,0,.67-.23,1.26,1.26,0,0,0,.35-.34c-.58,1-1.66.81-3.56.85-2.25.06-3.87.78-6.08.83H64.31a48.26,48.26,0,0,1-5-.1,8.44,8.44,0,0,1-3.16-2.06A2.79,2.79,0,0,1,55,100.32c0-.3,0-.59,0-.89a6.72,6.72,0,0,0,.56,1.71A3.44,3.44,0,0,0,57,102.37a9.22,9.22,0,0,0,2.94,1.26,43.14,43.14,0,0,0,6,.34Z"/><path class="cls-36" d="M81.22,93.74A6.78,6.78,0,0,1,81.6,91c.43-.37,3.84-.25,4.55-.3,1.55-.11,2.92-.44,4.43-.54.14,0,.32,0,.48,0a2.86,2.86,0,0,1,.36,1.29,14.31,14.31,0,0,1,0,1.46c0,.65,0,1.31,0,2,0,.49,0,1,0,1.48a24.58,24.58,0,0,1-4.73.8c-1.57-.72-4.19-2.68-5.56-3.42Z"/><path class="cls-37" d="M119.82,93.7c.07-.64.15-1.2.21-1.61.28-1.86.84-1.59,2.26-1.75a75.83,75.83,0,0,1,8.43-.61H132c3.39,0,13.73,0,16.4,1.37a1.79,1.79,0,0,1,.67.91c-1.58.07-3,.29-4.54.47-1.93.21-8,3.23-11.47,4.31a5,5,0,0,1-1.83.16,37.63,37.63,0,0,1-11.43-3.25Z"/><path class="cls-38" d="M142.27,19.19c-.72,0-2.26.11-2.79.63s-.44,1.44-.46,2.06c-.08,1.63,0,3.51,0,5.17,0,3.73,0,7.46,0,11.2,0,.68,0,2.57.38,3.06,1,1.1,5.93.67,7.4.66a24.25,24.25,0,0,0,2.58-.07c.84-.28.75-1.3.81-2,.18-2.43,0-4.87,0-7.31,0-2.73,0-5.43-.09-8.16,0-.69,0-1.37,0-2.05a15,15,0,0,0-.13-2.25c-.32-.79-1.41-.71-2.16-.79a43.72,43.72,0,0,0-5.49-.14Z"/><path class="cls-39" d="M139,49a4.06,4.06,0,0,0,.41,1.88,1.19,1.19,0,0,0,.74.7,35.48,35.48,0,0,0,5.19.24,14.91,14.91,0,0,0,3.78-.27c.91-.52,1-2.31,1-3.21l0-1v-.13c0-.75.18-4-.48-4.43-1-.59-5.16-.36-6.6-.39a13.58,13.58,0,0,0-2.84.16c-.6.13-1.09,1.09-1.13,1.66-.06.78,0,2.12,0,3,0,.61,0,1.22,0,1.84Z"/><path class="cls-40" d="M149.21,70.08c0-1.16-1.05-1-1.91-1a28.05,28.05,0,0,0-6,.24c-2.39.35-2.15.23-2.25,2.62-.16,3.64-.09,7.63-.07,11.3,0,1.41,0,2.81.06,4.22,0,1.26,1.28,1.07,2.32,1.18a55,55,0,0,0,7.81.18l.31,0c.89-.27.77-1.3.82-2,.13-2.82,0-6-.06-8.85a28.59,28.59,0,0,0-.78-5.66,14.44,14.44,0,0,1-.25-2.16Z"/><path class="cls-41" d="M143.14,68.62a26.32,26.32,0,0,0,5.53-.34c.89-.21.63-1.32.66-2a28.3,28.3,0,0,1,.78-5.18,17,17,0,0,0,.21-3.72c0-1,0-4.14-.76-4.6-1.19-.56-5.65-.7-7.18-.6-.87,0-2.37,0-2.93.76a3.43,3.43,0,0,0-.46,2.32c0,2.23-.06,4.45,0,6.67a7.23,7.23,0,0,0,.27,2.22,3.54,3.54,0,0,1-.11,1.44,7,7,0,0,0-.06,2.1s0,.17.52.42a9.18,9.18,0,0,0,3.57.55Z"/><path class="cls-42" d="M149.47,53c.28.24.27,1.73.26,2.11,0,.73-.08,1.46-.14,2.19s-.11,1.21-.18,1.82a10.33,10.33,0,0,1-.35,1.81,26.69,26.69,0,0,0-.71,2.62c-.19.87-.37,1.76-.49,2.64,0,.25,0,.5,0,.75s0,.86-.35,1c-1.69.27-6.28.78-7.58-.41-.21-.2.11-2.78-.07-3.4a10.3,10.3,0,0,1-.58-3.58c0-1.76,0-3.57,0-5.33a3.63,3.63,0,0,1,.36-2.14c.4-.63,1.73-.57,2.35-.62,2.55-.08,6.44,0,7.44.57Z"/><path class="cls-43" d="M148.22,88.46H148a40.28,40.28,0,0,1-6.86-.17l-.44,0a2.13,2.13,0,0,1-1.17-.27.81.81,0,0,1-.18-.55c0-1.4,0-2.81,0-4.21a49.93,49.93,0,0,1,.2-6c.2-2.16.53-4.09.53-6.29,0-1.19.28-1,1.55-1.26,1-.17,3.75-.59,4.59-.08a10.21,10.21,0,0,1,1,.8,15.56,15.56,0,0,1,1.62,1.63,4.18,4.18,0,0,1,.32,1.62c0,.46.09.91.12,1.37a25,25,0,0,1,0,2.87c-.14,2.93-.23,5.89-.56,8.82,0,.22,0,.44,0,.66,0,.43-.06.91-.47,1.07Z"/><path class="cls-44" d="M140.13,51.22a.8.8,0,0,1-.45-.5c-.53-1.41-.37-3.56-.32-5.07.09-2.12.83-2.11,2.73-2.46,1.68-.31,4.54-.93,6.13-.17.08.07,1.56,7.7.88,8.2a12.1,12.1,0,0,1-3.15.23c-.74,0-1.48,0-2.22,0s-1.59,0-3.6-.21Z"/><path class="cls-45" d="M149.59,22.37l-.09,2.06c-.2,4.78-.29,10.79-.89,15.44,0,.53,0,1.48-.5,1.71l-.4,0h-1.8l-1.33,0c-.61,0-1.22,0-1.82,0s-2.7,0-3.15-.63c-.7-2,.29-8.9.18-11.73,0-1.09-.72-8.11,0-8.54a35.24,35.24,0,0,1,7-1.28,8.13,8.13,0,0,1,1.57.21c1.36.33,1.34,1.49,1.28,2.62Z"/><polygon class="cls-2" points="185.1 95.62 185.1 21.54 111.02 21.54 111.02 95.62 185.1 95.62 185.1 95.62"/><path class="cls-46" d="M53.71,32.56a.69.69,0,0,0-.62-.65c-.8-.22-9.24-1-9.84-.63-.4.24-.42.91-.52,1.37a11.31,11.31,0,0,0-.24,3,42.25,42.25,0,0,0,.31,5.84c.08.51.19.58.79.65s2.16,0,2.89,0a46.33,46.33,0,0,0,6.76-.71c.37-.15.88-3.5.87-4.08a24.8,24.8,0,0,0-.4-4.81Z"/><path class="cls-47" d="M54,69.79c-.84-1.07-5.18-1-6.5-1a9.29,9.29,0,0,0-4.26.6c-.53.32-.5,1-.6,1.62a23.23,23.23,0,0,0,.25,5c0,1,0,3.48,1,3.9a26,26,0,0,0,4.7,0c1.12,0,2.27-.19,3.39-.28l.21,0c1.74-.14,1.68-.15,1.87-1.84a43.72,43.72,0,0,0,.08-5.37A19.44,19.44,0,0,0,54,69.79Z"/><path class="cls-48" d="M44.83,79.63C44.05,79.27,43,72.4,43,71.08c0-.39-.06-1.14.25-1.36,1-.64,2.49-.54,3.68-.55,1.81,0,4.55.21,6.16,1.09.51.29.25,1.78.23,2.25,0,.87,0,6-.11,6.23-.29.67-7.17,1.22-8.38.89Z"/><path class="cls-49" d="M43.88,41.45A17.38,17.38,0,0,1,43.32,38c0-1.51.32-5.21,1-6.4a8.31,8.31,0,0,1,1.5,0c2.48.1,4.53.81,7,1,.69.06.57.18.7,1A13.79,13.79,0,0,1,53.26,40c-.13.35-.43.26-.85.32a24.18,24.18,0,0,0-4.06,1.19,9.51,9.51,0,0,1-4.47-.09Z"/><path class="cls-50" d="M42.73,32.65c.1-.46.12-1.13.52-1.37a3,3,0,0,1,1-.1,2,2,0,0,0-.54.27,1.17,1.17,0,0,0-.4.64,23.46,23.46,0,0,0-.47,3.82,28.66,28.66,0,0,0,.23,4.14,4.11,4.11,0,0,0,.45,1.59c.13.23.45.28.7.36a7,7,0,0,0,.79.19,12.65,12.65,0,0,1-1.47,0c-.6-.07-.71-.14-.79-.65a42.25,42.25,0,0,1-.31-5.84,11.31,11.31,0,0,1,.24-3Z"/><path class="cls-51" d="M43.45,77.6a4,4,0,0,0,.47,1.2,3.29,3.29,0,0,0,.75,1,1.39,1.39,0,0,0,.76.16c.38,0,.76.07,1.15.1A11.46,11.46,0,0,1,43.85,80c-1-.42-1-3-1-3.9a28.06,28.06,0,0,1-.29-4.65c0,.35,0,.71.09,1.06.08.59.26,1.17.38,1.76.15.75.35,1.5.45,2.26,0,.37-.1.75,0,1.12Z"/><path class="cls-52" d="M51.43,77.28a6.49,6.49,0,0,1,.33-4.66,2.49,2.49,0,0,0-1.24-3.17,8.72,8.72,0,0,1,2.57.81c.51.29.25,1.78.23,2.25,0,.87,0,6-.11,6.23s-1,.46-2.2.63a3,3,0,0,0,.42-2.09Z"/><path class="cls-53" d="M52.41,40.35a13.31,13.31,0,0,0-3.09.88c.52-1.71,1.31-3.93,3.3-4.6.3-.1.09-3.37,0-3.71-.07-.17-.22-.24-.58-.43l.82.1c.69.06.57.18.7,1A13.79,13.79,0,0,1,53.26,40c-.13.35-.43.26-.85.32Z"/><path class="cls-54" d="M42.48,24.38c0,.9.38,5.46.75,6s1.78.41,2.33.45c1.38.11,2.94.05,4.34,0a16.28,16.28,0,0,0,2.56-.08,3,3,0,0,0,1.35-1.24,4.06,4.06,0,0,0,.13-.86,59.09,59.09,0,0,0,.15-7.18c0-3.77,0-7.55,0-11.33.08-2.4.14-2.3-2.37-2.8a35.85,35.85,0,0,0-7.32-.47c-.79,0-.93.23-1.51.7s-.42.56-.42,1.12c0,5.2-.07,10.41,0,15.62Z"/><path class="cls-55" d="M46.29,30.51c-.34,0-.68,0-1-.06-.16,0-.78-.09-.87-.24-.89-2.48-1.08-18.75-1.17-21.45,0-.43-.07-.57.24-.85s.53-.6,1.15-.61c4.46-.08,4.27.57,8.07,1.39,1.61.35,1,.84.8,2.67a49.24,49.24,0,0,0-.27,13.93c.51,4.63.4,4.71-4.17,5.22a14.24,14.24,0,0,1-2.77,0Z"/><path class="cls-56" d="M43.15,21.28c.07,1.53,0,3.06.11,4.58.06,1.16.13,2.33.29,3.48a1.64,1.64,0,0,0,.28.7,1.85,1.85,0,0,0,.51.57,2.44,2.44,0,0,0,.43.21c-.62,0-1.34-.11-1.54-.41-.37-.57-.73-5.13-.75-6,0-2.92,0-5.83,0-8.75,0-1.05,0-2.09,0-3.14.1,1,.19,2.09.27,3.14v.09c.14,1.85.3,3.7.4,5.56Z"/><path class="cls-57" d="M52.28,27.44c-.64-1.48-1.35-2.21-1.8-3.24-.22-.49-.32-1.42-.32-4a27.06,27.06,0,0,1,.58-4.61A45.9,45.9,0,0,1,52,10.54a2,2,0,0,0-.58-2.15c.37.1.79.2,1.27.3,1.61.35,1,.84.8,2.67-.2,1.63-.36,3-.47,4.27a44.31,44.31,0,0,0,.2,9.66c.32,2.91.4,4-.72,4.57a10.93,10.93,0,0,0-.23-2.42Z"/><path class="cls-58" d="M42.48,98.34c0,.91.38,5.46.75,6s1.78.41,2.33.45c1.38.11,2.94,0,4.34,0a17.59,17.59,0,0,0,2.56-.08,3.06,3.06,0,0,0,1.35-1.24,4.16,4.16,0,0,0,.13-.86,59.13,59.13,0,0,0,.15-7.18c0-3.78,0-7.55,0-11.33.08-2.4.14-2.3-2.37-2.8a35.16,35.16,0,0,0-7.32-.47c-.79,0-.93.23-1.51.7s-.42.56-.42,1.12c0,5.2-.07,10.41,0,15.61Z"/><path class="cls-59" d="M46.29,104.48c-.34,0-.68,0-1-.06-.16,0-.78-.1-.87-.24-.89-2.48-1.08-18.75-1.17-21.45,0-.43-.07-.57.24-.85s.53-.6,1.15-.61c4.46-.09,4.27.57,8.07,1.39,1.61.35,1,.83.8,2.67a49.24,49.24,0,0,0-.27,13.93c.51,4.63.4,4.7-4.17,5.21a15.08,15.08,0,0,1-2.77,0Z"/><path class="cls-60" d="M43.15,95.25c.07,1.53,0,3.06.11,4.58.06,1.16.13,2.32.29,3.48a1.64,1.64,0,0,0,.28.7,1.71,1.71,0,0,0,.51.56,2.49,2.49,0,0,0,.43.22c-.62,0-1.34-.12-1.54-.41-.37-.58-.73-5.13-.75-6,0-2.91,0-5.83,0-8.74,0-1,0-2.1,0-3.14.1,1,.19,2.09.27,3.14v.08c.14,1.86.3,3.71.4,5.57Z"/><path class="cls-61" d="M52.28,101.41c-.64-1.49-1.35-2.21-1.8-3.24-.22-.5-.32-1.42-.32-4a27.06,27.06,0,0,1,.58-4.61A45.9,45.9,0,0,1,52,84.51a2,2,0,0,0-.58-2.15c.37.1.79.2,1.27.3,1.61.35,1,.83.8,2.67-.2,1.63-.36,3-.47,4.27a44.31,44.31,0,0,0,.2,9.66c.32,2.91.4,4-.72,4.57a10.86,10.86,0,0,0-.23-2.42Z"/><polygon class="cls-2" points="0 9.88 0 83.85 73.97 83.85 73.97 9.88 0 9.88 0 9.88"/></g></g></g></svg>