<svg xmlns="http://www.w3.org/2000/svg" viewBox="0 0 69.8 91.8"><defs><style>.cls-1{fill:#d30000;stroke-width:1.01px;}.cls-1,.cls-3{stroke:#000;stroke-miterlimit:10;}.cls-2{fill:#8c0000;opacity:0.46;}.cls-3{stroke-width:0.8px;}</style></defs><g id="Layer_2" data-name="Layer 2"><g id="Layer_1-2" data-name="Layer 1"><path d="M28,62s.37-.4.46.06v6.1s.06,1-.29.78-3-5-6.06-5.63-6.48.12-7.42,2.14c0,0-2.06-12.32-9.41-12.38,0,0,.55-8-1.58-12.9,0,0-2.19-.58-2.34-1.57,0,0,12.79.87,17.08,4.31,0,0,1.26-1.92,1.31-1.3a5.75,5.75,0,0,1-.52,1.93S20.9,62.71,28,62Z"/><path class="cls-1" d="M27.44,74.09A5.33,5.33,0,0,1,22.23,76,5.59,5.59,0,0,1,19,72.78c-.79-1.67-.19-2.21-1-4-.33-.76-1.26-2.9-3.05-3.41-2-.55-3,1.4-5.21.9a5.34,5.34,0,0,1-3-2.43,8.16,8.16,0,0,1-.94-6.46,15.18,15.18,0,0,0-1,4.91,7.09,7.09,0,0,0,.43,3.61,6.27,6.27,0,0,0,4.65,3.35c1.9.26,2.77-.67,3.7,0s.69,1.77.94,3.45a13.72,13.72,0,0,0,2.82,6.43c2.72,3,7,2.86,7.75,2.84a11.51,11.51,0,0,0,5.59-1.63"/><path d="M47.7,85.69c-.46-2.19.91-3,.46-4.7-.66-2.51-3.14-2.63-5.53-2.75-1.82-.09-3.6-.19-4.78.8a3.55,3.55,0,0,0-.92,1.33c-.26.54-.84,2-.19,5.24.59,3,.89,4.52,2,5.18,1.47.88,4.81,1,5.13,1H44s5.74,0,6.24-1.91C50.52,88.64,48.22,88.16,47.7,85.69Z"/><path class="cls-1" d="M55.67,63.26c.53,2.4,2.7,12.39-2.45,16.57-2.07,1.68-5.16,1.75-11.33,1.88s-9.33.2-11.25-1.37c-4.4-3.6-3.88-12.14-2.54-17.08.09-.36.17-.61.24-.84,1.19-4,5.74-17.61,13.55-17.61C48.56,44.81,54.06,55.84,55.67,63.26Z"/><path class="cls-2" d="M30.17,57.25A17.77,17.77,0,0,0,41.93,62a17.84,17.84,0,0,0,11.8-4.81"/><path class="cls-2" d="M37.55,64.06A12.8,12.8,0,0,0,39,72c.75,1.31,2.27,4,4.9,4.21a4.79,4.79,0,0,0,2.63-.55"/><path d="M47.11,66.29c.4,5.64.64,8.89-.81,9.54-2,.9-7-3.57-8.31-8.88-.64-2.6-1.09-7.85,1.86-9.18a5.79,5.79,0,0,1,4.78.31C45.24,58.41,46.64,59.63,47.11,66.29Z"/><path d="M55,45.9l1.2,3c.4-1,.8-2,1.19-3"/><path class="cls-1" d="M69.18,29.43C68.07,17.49,58.61,1.86,42.48,1.86c-15.65,0-25.33,15.42-26.69,27.57-.21,1.84-1.31,14.59,7.9,23.39,7.3,7,16.29,6.89,18.77,6.83,2,0,12.92-.54,20.53-9.92A29.26,29.26,0,0,0,69.18,29.43Z"/><path d="M42,12.42a21.3,21.3,0,0,1-5.73-7.68A21.07,21.07,0,0,1,34.83,0c-.64,2.7-1.06,5-1.34,6.63a29,29,0,0,0-.64,6.4,3.5,3.5,0,0,0,0,.39,14.58,14.58,0,0,0,1.47,5.21A5.29,5.29,0,0,0,42,12.42Z"/><path d="M53,45.9A37.52,37.52,0,0,1,59.14,45a38.32,38.32,0,0,1,6.63.11l-.5.91L53,45.9"/><path class="cls-2" d="M49.4,27.92a14.79,14.79,0,0,0,.93,5.22c.71,1.9,1.27,3.39,2.74,4.13,2,1,4.39,0,5.71-.93A7.16,7.16,0,0,0,61.51,31"/><path d="M61.55,30.1A5.93,5.93,0,0,1,55.62,36c-4.33,0-5.8-5.42-5.92-5.92-.23-.87-.86-3.36.59-5,1.64-1.81,4.66-1.11,5.33-1C55.87,24.23,61.55,25.63,61.55,30.1Z"/><path d="M55,45.9l1.19,3c.4-1,.8-2,1.19-3"/><path class="cls-3" d="M10.66,61.32a23,23,0,0,1-3.23-3.16,22.58,22.58,0,0,1-3.21-5.1,26.62,26.62,0,0,1-1.16,4.46,25.83,25.83,0,0,1-2.3,4.81Z"/></g></g></svg>