<svg xmlns="http://www.w3.org/2000/svg" viewBox="0 0 89.6 94.89"><defs><style>.cls-1{fill:#d30000;stroke:#000;stroke-miterlimit:10;stroke-width:1.05px;}.cls-2{fill:#8c0000;opacity:0.46;}</style></defs><g id="Layer_2" data-name="Layer 2"><g id="Layer_1-2" data-name="Layer 1"><path d="M43,65.17s.59-.41.75.06v6.1s.09,1-.47.78-4.82-5-9.8-5.64-10.46.13-12,2.15c0,0-3.33-12.32-15.19-12.39,0,0,.88-8-2.56-12.89,0,0-3.53-.58-3.78-1.58,0,0,20.67.87,27.6,4.32,0,0,2-1.92,2.11-1.3s-.84,1.93-.84,1.93S31.52,65.85,43,65.17Z"/><path d="M46.57,65.17s-.59-.41-.75.06v6.1s-.09,1,.47.78,4.82-5,9.8-5.64,10.46.13,12,2.15c0,0,3.33-12.32,15.18-12.39,0,0-.88-8,2.57-12.89,0,0,3.52-.58,3.77-1.58,0,0-20.66.87-27.59,4.32,0,0-2-1.92-2.12-1.3s.84,1.93.84,1.93S58.08,65.85,46.57,65.17Z"/><path d="M42.37,87.5c.44-1.23,1.17-3.23.25-4.91C41.23,80,37,80.07,33,80.11s-8,0-9.38,2.6c-.95,1.77-.33,3.76,0,4.79,1.06,3.38,4.48,7.39,9.38,7.39C39.55,94.89,42.19,88,42.37,87.5Z"/><path d="M68.66,87.5c.45-1.23,1.17-3.23.26-4.91-1.4-2.57-5.6-2.52-9.64-2.48s-8,0-9.38,2.6c-.95,1.77-.33,3.76,0,4.79,1.06,3.38,4.49,7.39,9.38,7.39C65.84,94.89,68.48,88,68.66,87.5Z"/><path class="cls-1" d="M76.57,65.08C74.13,51.61,58.13,45.24,46.92,45.24c-11,0-26.76,6.09-29.65,19.84-.12.58-1.75,8.78,2,15,2.74,4.62,7,5.14,27.69,4.8,20.16-.33,24.45-1,27.37-5.77C77.94,73.21,76.64,65.51,76.57,65.08Z"/><path class="cls-2" d="M24.67,53.05A23.24,23.24,0,0,0,32,60.78a24.53,24.53,0,0,0,25.72.29,24,24,0,0,0,8.64-9.53"/><path class="cls-1" d="M74.22,29.23C73,16.8,62.86.53,45.52.53c-16.84,0-27.24,16.06-28.71,28.7-.22,1.92-1.41,15.19,8.5,24.35,7.85,7.25,17.51,7.17,20.18,7.11,2.12,0,13.9-.56,22.08-10.33C68.11,49.71,75.37,41.2,74.22,29.23Z"/><path d="M24.67,14.36a22.11,22.11,0,0,0-2.62-9.63,21.63,21.63,0,0,0-3-4.2c2.62,1.2,4.76,2.31,6.3,3.15C29.59,6,30.7,6.93,31.32,7.53a16.52,16.52,0,0,1,3.33,4.55,6.18,6.18,0,0,1-3.37,3.79A6.12,6.12,0,0,1,24.67,14.36Z"/><path d="M66.34,14.36A22.11,22.11,0,0,1,69,4.73a21.21,21.21,0,0,1,3-4.2c-2.63,1.2-4.76,2.31-6.31,3.15A30.52,30.52,0,0,0,60,7.25l-.3.28a15.06,15.06,0,0,0-3.32,4.55,5.51,5.51,0,0,0,10,2.28Z"/><path d="M33.08,47.52c1.09-.21,2.18-.3,3.27-.46l3.27-.27c2.18-.17,4.36-.19,6.54-.21s4.36,0,6.53.22l3.27.26c1.09.16,2.18.25,3.27.46v.11l-13.07.06-13.08-.06Z"/><path d="M54,47.58l1.24,3.11,1.25-3.11"/><path d="M35.05,47.58l1.24,3.11c.41-1,.83-2.07,1.24-3.11"/><path class="cls-2" d="M73.93,58.48a5.05,5.05,0,0,0-2.59,1.05c-1.4,1.14-1.78,2.89-2,7-.28,6.59-.38,9.92,1.38,11.29a5.57,5.57,0,0,0,4.23.92"/><path d="M80.07,69.46c-.57,5.44-3.18,9.62-5.84,9.34s-3.55-8.18-3.77-10.35c-.31-3.08-.83-8.13,1.77-9.58,1.67-.93,3.78.09,4.07.24C79.84,60.88,80.41,66.23,80.07,69.46Z"/><path class="cls-2" d="M18.4,58.48A5.05,5.05,0,0,1,21,59.53c1.4,1.14,1.78,2.89,2,7,.29,6.59.39,9.92-1.38,11.29a5.56,5.56,0,0,1-4.22.92"/><path d="M12.25,69.46c.58,5.44,3.19,9.62,5.84,9.34s3.55-8.18,3.78-10.35c.31-3.08.83-8.13-1.77-9.58-1.67-.93-3.78.09-4.08.24C12.49,60.88,11.91,66.23,12.25,69.46Z"/><path class="cls-2" d="M28.69,28.86a15.48,15.48,0,0,0,1,5.44c.74,2,1.32,3.52,2.85,4.3,2.07,1,4.57,0,6-1A7.49,7.49,0,0,0,41.3,32"/><path class="cls-2" d="M62.27,28.86a15.48,15.48,0,0,1-1,5.44c-.74,2-1.32,3.52-2.85,4.3-2.06,1-4.57,0-6-1A7.49,7.49,0,0,1,49.66,32"/><path d="M41.37,31.11a6.17,6.17,0,0,1-6.17,6.17c-4.5,0-6-5.64-6.17-6.17-.23-.9-.89-3.5.63-5.17,1.7-1.89,4.85-1.16,5.54-1C35.46,25,41.37,26.46,41.37,31.11Z"/><path d="M49.63,31.11a6.17,6.17,0,0,0,6.17,6.17c4.5,0,6-5.64,6.16-6.17.24-.9.9-3.5-.62-5.17-1.7-1.89-4.85-1.16-5.54-1C55.54,25,49.63,26.46,49.63,31.11Z"/></g></g></svg>