<svg xmlns="http://www.w3.org/2000/svg" viewBox="0 0 89.6 94.89"><defs><style>.cls-1{fill:#d30000;stroke:#000;stroke-miterlimit:10;stroke-width:1.05px;}.cls-2{fill:#8c0000;opacity:0.46;}</style></defs><g id="Layer_2" data-name="Layer 2"><g id="Layer_1-2" data-name="Layer 1"><path d="M43,65.17s.59-.41.75.06v6.1s.09,1-.47.78-4.82-5-9.8-5.64-10.46.13-12,2.15c0,0-3.33-12.32-15.19-12.39,0,0,.88-8-2.56-12.89,0,0-3.53-.58-3.78-1.58,0,0,20.67.87,27.6,4.32,0,0,2-1.92,2.11-1.3s-.84,1.93-.84,1.93S31.52,65.85,43,65.17Z"/><path d="M46.57,65.17s-.59-.41-.75.06v6.1s-.09,1,.47.78,4.82-5,9.8-5.64,10.46.13,12,2.15c0,0,3.33-12.32,15.18-12.39,0,0-.88-8,2.57-12.89,0,0,3.52-.58,3.77-1.58,0,0-20.66.87-27.59,4.32,0,0-2-1.92-2.12-1.3s.84,1.93.84,1.93S58.08,65.85,46.57,65.17Z"/><path d="M68,87.5c.45-1.23,1.18-3.23.26-4.91-1.4-2.57-5.6-2.52-9.64-2.48s-8,0-9.38,2.6c-.94,1.77-.32,3.76,0,4.79,1.06,3.38,4.49,7.39,9.38,7.39C65.14,94.89,67.78,88,68,87.5Z"/><path d="M11.55,69.46c.57,5.44,3.18,9.62,5.84,9.34s3.55-8.18,3.77-10.35c.31-3.08.83-8.13-1.77-9.58-1.67-.93-3.78.09-4.07.24C11.79,60.88,11.21,66.23,11.55,69.46Z"/><path class="cls-1" d="M75.86,65.08C73.43,51.61,57.43,45.24,46.21,45.24c-11,0-26.75,6.09-29.65,19.84-.12.58-1.75,8.78,2,15,2.75,4.62,7,5.14,27.69,4.8,20.16-.33,24.45-1,27.37-5.77C77.23,73.21,75.94,65.51,75.86,65.08Z"/><path class="cls-2" d="M24,53.05a23.3,23.3,0,0,0,7.33,7.73A24.53,24.53,0,0,0,57,61.07a24,24,0,0,0,8.63-9.53"/><path class="cls-1" d="M73.52,29.23C72.32,16.8,62.15.53,44.81.53,28,.53,17.57,16.59,16.1,29.23c-.22,1.92-1.4,15.19,8.51,24.35,7.84,7.25,17.5,7.17,20.18,7.11,2.12,0,13.89-.56,22.07-10.33C67.4,49.71,74.67,41.2,73.52,29.23Z"/><path d="M24,14.36a22.29,22.29,0,0,0-2.63-9.63,21.21,21.21,0,0,0-3-4.2c2.63,1.2,4.76,2.31,6.31,3.15C28.89,6,30,6.93,30.62,7.53a16.24,16.24,0,0,1,3.32,4.55,6.14,6.14,0,0,1-3.37,3.79A6.1,6.1,0,0,1,24,14.36Z"/><path d="M65.63,14.36a22.11,22.11,0,0,1,2.62-9.63,21.63,21.63,0,0,1,3-4.2c-2.62,1.2-4.76,2.31-6.3,3.15a29.74,29.74,0,0,0-5.65,3.57l-.3.28a15,15,0,0,0-3.33,4.55,5.51,5.51,0,0,0,10,2.28Z"/><path d="M32.37,47.52c1.09-.21,2.18-.3,3.27-.46l3.27-.27c2.18-.17,4.36-.19,6.54-.21s4.36,0,6.54.22l3.27.26c1.09.16,2.18.25,3.27.46v.11l-13.08.06-13.08-.06Z"/><path d="M53.31,47.58l1.25,3.11c.41-1,.83-2.07,1.24-3.11"/><path d="M34.34,47.58l1.24,3.11,1.25-3.11"/><path class="cls-2" d="M73.22,58.48a5.05,5.05,0,0,0-2.59,1.05c-1.4,1.14-1.77,2.89-1.95,7-.28,6.59-.39,9.92,1.38,11.29a5.56,5.56,0,0,0,4.22.92"/><path d="M79.37,69.46c-.57,5.44-3.19,9.62-5.84,9.34S70,70.62,69.76,68.45c-.32-3.08-.83-8.13,1.77-9.58,1.66-.93,3.78.09,4.07.24C79.13,60.88,79.71,66.23,79.37,69.46Z"/><path class="cls-2" d="M28,28.86a15.48,15.48,0,0,0,1,5.44c.74,2,1.32,3.52,2.86,4.3,2.06,1,4.56,0,5.94-1A7.42,7.42,0,0,0,40.59,32"/><path class="cls-2" d="M61.57,28.86a15.48,15.48,0,0,1-1,5.44c-.74,2-1.32,3.52-2.86,4.3-2.06,1-4.56,0-5.94-1A7.42,7.42,0,0,1,49,32"/><path d="M40.66,31.11a6.16,6.16,0,0,1-6.16,6.17c-4.51,0-6-5.64-6.17-6.17-.24-.9-.9-3.5.62-5.17,1.7-1.89,4.85-1.16,5.55-1C34.75,25,40.66,26.46,40.66,31.11Z"/><path d="M48.92,31.11a6.17,6.17,0,0,0,6.17,6.17c4.5,0,6-5.64,6.17-6.17.23-.9.89-3.5-.63-5.17-1.7-1.89-4.85-1.16-5.54-1C54.83,25,48.92,26.46,48.92,31.11Z"/><path d="M41.66,87.5c.45-1.23,1.18-3.23.26-4.91-1.4-2.57-5.6-2.52-9.64-2.48s-8,0-9.38,2.6c-.95,1.77-.32,3.76,0,4.79,1.06,3.38,4.49,7.39,9.38,7.39C38.85,94.89,41.49,88,41.66,87.5Z"/></g></g></svg>