<svg xmlns="http://www.w3.org/2000/svg" viewBox="0 0 69.09 91.59"><defs><style>.cls-1{fill:#d30000;stroke-width:1.01px;}.cls-1,.cls-2{stroke:#000;stroke-miterlimit:10;}.cls-2{stroke-width:0.8px;}.cls-3{fill:#8c0000;opacity:0.46;}</style></defs><g id="Layer_2" data-name="Layer 2"><g id="Layer_1-2" data-name="Layer 1"><path d="M26.64,62.41s.37-.4.46.06v6.1s.06,1-.29.78-3-5-6.07-5.63-6.47.12-7.41,2.15c0,0-2.07-12.33-9.41-12.39,0,0,.55-8-1.58-12.9C2.34,40.58.15,40,0,39c0,0,12.79.87,17.08,4.31,0,0,1.26-1.92,1.31-1.29A5.83,5.83,0,0,1,17.87,44S19.51,63.1,26.64,62.41Z"/><path class="cls-1" d="M27.06,73.48a5,5,0,0,1-4-.11,4.79,4.79,0,0,1-1.95-2.11c-.7-1.4-.2-2-.94-3.48a4.63,4.63,0,0,0-1.67-2,5.14,5.14,0,0,0-3.69-.41c-2.53.44-2.74,1.77-4.75,2A4.64,4.64,0,0,1,5.9,65.75c-1.38-2,0-5,1.53-6.54a7.44,7.44,0,0,1,5.63-2.08A8,8,0,0,0,3.58,60a7.92,7.92,0,0,0-1.34,3.79,7.57,7.57,0,0,0,1.09,4.5,7.53,7.53,0,0,0,3.19,2.8,6.25,6.25,0,0,0,3.44.83,7.43,7.43,0,0,0,2.67-.72,2.78,2.78,0,0,1,1.83-.57.8.8,0,0,1,.2,0,1.27,1.27,0,0,1,.68.75,21.23,21.23,0,0,1,.67,3,7.65,7.65,0,0,0,2.25,3.49A11.42,11.42,0,0,0,19.71,79l.11.07c.26.13.64.32,1.12.51a10.71,10.71,0,0,0,4.08.85,9.93,9.93,0,0,0,2.28-.25,8.36,8.36,0,0,0,2-.78"/><path class="cls-2" d="M8.53,62.74a22.83,22.83,0,0,1,9.1-5.19,25.41,25.41,0,0,1-4.24-1.78A25.87,25.87,0,0,1,9,52.8Q8.75,57.78,8.53,62.74Z"/><path d="M53.85,83.92c-1.16-2.28.08-3.64-1.13-5.09s-3.53-1.37-5.22-1.3c-1.26,0-3.33.17-4.55,1.66a3.64,3.64,0,0,0-.67,1.48c-.15.58-.46,2.09.77,5.18,1.15,2.86,1.72,4.29,2.93,4.73,1.6.59,4.9.06,5.23,0h.08s5.64-1,5.78-3C57.16,86.34,55.06,86.3,53.85,83.92Z"/><path d="M39.27,86.31c.69-2.13,2.28-2.16,2.73-3.85.68-2.5-1.42-3.84-3.43-5.13-1.53-1-3-2-4.55-1.68a3.61,3.61,0,0,0-1.46.69c-.49.34-1.71,1.29-2.77,4.45-1,2.92-1.47,4.37-.83,5.5.84,1.48,3.7,3.22,4,3.41l0,0,0,0s5,2.86,6.36,1.44C40.25,90.27,38.49,88.71,39.27,86.31Z"/><path class="cls-1" d="M55,63.26c.52,2.4,2.7,12.39-2.45,16.57-2.07,1.68-5.16,1.75-11.34,1.88s-9.32.2-11.24-1.37c-4.41-3.6-3.88-12.14-2.55-17.08.1-.36.18-.61.25-.84,1.18-4,5.74-17.61,13.54-17.61C47.85,44.81,53.34,55.84,55,63.26Z"/><path class="cls-3" d="M29.45,57.25A17.77,17.77,0,0,0,41.22,62,17.86,17.86,0,0,0,53,57.14"/><path class="cls-3" d="M36.83,64.06a12.87,12.87,0,0,0,1.46,8c.76,1.31,2.28,4,4.91,4.21a4.75,4.75,0,0,0,2.62-.55"/><path d="M46.4,66.29c.4,5.64.63,8.89-.81,9.54-2.05.9-7-3.57-8.31-8.88-.65-2.6-1.1-7.85,1.86-9.18a5.77,5.77,0,0,1,4.77.31C44.52,58.41,45.92,59.63,46.4,66.29Z"/><path d="M54.29,45.9l1.19,3,1.2-3"/><path class="cls-1" d="M68.47,29.43C67.35,17.49,57.89,1.86,41.77,1.86c-15.66,0-25.33,15.42-26.7,27.57C14.87,31.27,13.76,44,23,52.82c7.29,7,16.28,6.89,18.77,6.83,2,0,12.92-.54,20.53-9.92A29.26,29.26,0,0,0,68.47,29.43Z"/><path d="M41.27,12.42a21.19,21.19,0,0,1-5.73-7.68A20.56,20.56,0,0,1,34.12,0c-.64,2.7-1.07,5-1.35,6.63a29,29,0,0,0-.64,6.4c0,.2,0,.36,0,.39a14.35,14.35,0,0,0,1.48,5.21,5.29,5.29,0,0,0,7.63-6.21Z"/><path d="M52.29,45.9A37.35,37.35,0,0,1,58.43,45a38.36,38.36,0,0,1,6.63.11l-.5.91L52.29,45.9"/><path class="cls-3" d="M48.69,27.92a14.57,14.57,0,0,0,.93,5.22c.71,1.9,1.26,3.39,2.74,4.13,2,1,4.38,0,5.71-.93A7.2,7.2,0,0,0,60.8,31"/><path d="M60.83,30.1A5.92,5.92,0,0,1,54.91,36c-4.33,0-5.8-5.42-5.93-5.92-.22-.87-.86-3.36.6-5,1.64-1.81,4.66-1.11,5.33-1C55.15,24.23,60.83,25.63,60.83,30.1Z"/><path d="M54.25,45.9l1.2,3c.39-1,.79-2,1.19-3"/></g></g></svg>