<svg xmlns="http://www.w3.org/2000/svg" viewBox="0 0 89.6 122.5"><defs><style>.cls-1{fill:#d30000;stroke-width:1.01px;}.cls-1,.cls-3{stroke:#000;stroke-miterlimit:10;}.cls-2{fill:#8c0000;opacity:0.46;}.cls-3{stroke-width:0.8px;}</style></defs><g id="Layer_2" data-name="Layer 2"><g id="Layer_1-2" data-name="Layer 1"><path d="M11.58,66.74c.55,5.22,3.06,9.24,5.61,9s3.41-7.85,3.62-9.94c.31-3,.8-7.81-1.7-9.21-1.6-.89-3.63.09-3.91.23C11.81,58.49,11.25,63.63,11.58,66.74Z"/><path d="M65.78,84.07c.42-1.17,1.12-3.1.24-4.72-1.34-2.46-5.37-2.42-9.26-2.38s-7.69,0-9,2.51c-.91,1.69-.31,3.6,0,4.59,1,3.26,4.31,7.1,9,7.1C63.07,91.17,65.61,84.54,65.78,84.07Z"/><path class="cls-1" d="M73.37,62.53C71,49.59,55.66,43.47,44.88,43.47c-10.6,0-25.7,5.85-28.48,19.06-.12.56-1.68,8.44,1.88,14.45,2.64,4.45,6.75,4.94,26.6,4.61,19.38-.31,23.5-1,26.3-5.54C74.69,70.35,73.45,63,73.37,62.53Z"/><path d="M23.51,13.79A21.35,21.35,0,0,0,21,4.54a20.8,20.8,0,0,0-2.86-4c2.52,1.16,4.57,2.22,6.05,3,4.06,2.2,5.12,3.13,5.72,3.7a16,16,0,0,1,3.2,4.38,5.92,5.92,0,0,1-3.24,3.64A5.87,5.87,0,0,1,23.51,13.79Z"/><path d="M63.54,13.79a21.35,21.35,0,0,1,2.52-9.25,20.8,20.8,0,0,1,2.86-4c-2.51,1.16-4.57,2.22-6.05,3A28.72,28.72,0,0,0,57.44,7l-.29.26A14.58,14.58,0,0,0,54,11.61a5.29,5.29,0,0,0,9.59,2.18Z"/><path class="cls-2" d="M23.5,51a22.52,22.52,0,0,0,7,7.43,23.58,23.58,0,0,0,24.72.28,23,23,0,0,0,8.29-9.16"/><path class="cls-1" d="M71.12,28.09C70,16.14,60.2.51,43.54.51,27.36.51,17.36,15.94,16,28.09c-.22,1.84-1.36,14.59,8.17,23.39,7.53,7,16.82,6.89,19.39,6.83,2-.05,13.35-.54,21.21-9.92C65.25,47.77,72.23,39.59,71.12,28.09Z"/><path d="M76.74,66.74c-.55,5.22-3.06,9.24-5.61,9s-3.41-7.85-3.62-9.94c-.3-3-.8-7.81,1.7-9.21,1.6-.89,3.63.09,3.91.23C76.51,58.49,77.07,63.63,76.74,66.74Z"/><path d="M40.51,84.07c.43-1.17,1.13-3.1.25-4.72-1.34-2.46-5.38-2.42-9.26-2.38s-7.69,0-9,2.51c-.91,1.69-.31,3.6,0,4.59,1,3.26,4.31,7.1,9,7.1C37.81,91.17,40.35,84.54,40.51,84.07Z"/><path class="cls-1" d="M48.49,74.42C45.05,81,49.55,86.55,45.9,91.71c-2.31,3.28-5.27,2.63-5.68,5.09-.53,3.2,4.37,4.84,5.17,8.85.5,2.55-.58,6.4-7.49,12.13,4-6.24,3.83-9.38,2.84-11.1-1.44-2.5-4.89-2.45-6.65-6.14A8.67,8.67,0,0,1,33.32,96c.54-4.75,5.21-4.89,6.59-9.44,1.23-4-1.81-5.61-.46-11.9.47-2.21,1.18-3.55,2.37-4.44a5.41,5.41,0,0,1,4.75-.82A4,4,0,0,1,49,71.86,3.67,3.67,0,0,1,48.49,74.42Z"/><path class="cls-3" d="M36.46,111.07a22.44,22.44,0,0,1-.06,4.53,23.08,23.08,0,0,1-1.47,5.84,26.86,26.86,0,0,1,4-2.24A26.08,26.08,0,0,1,44,117.55Z"/><path d="M43,61.45s.59-.4.75.06v6.1s.09,1-.47.78-4.82-5-9.8-5.63-10.46.12-12,2.15c0,0-3.33-12.33-15.19-12.39,0,0,.88-8-2.56-12.9,0,0-3.53-.58-3.78-1.57,0,0,20.67.87,27.6,4.31,0,0,2-1.92,2.11-1.3S28.87,43,28.87,43,31.52,62.14,43,61.45Z"/><path d="M46.57,61.45s-.59-.4-.75.06v6.1s-.09,1,.47.78,4.82-5,9.8-5.63,10.46.12,12,2.15c0,0,3.33-12.33,15.18-12.39,0,0-.88-8,2.57-12.9,0,0,3.52-.58,3.77-1.57,0,0-20.66.87-27.59,4.31,0,0-2-1.92-2.12-1.3s.84,1.93.84,1.93S58.08,62.14,46.57,61.45Z"/></g></g></svg>