<svg xmlns="http://www.w3.org/2000/svg" viewBox="0 0 89.6 122.24"><defs><style>.cls-1,.cls-3{fill:#d30000;}.cls-1,.cls-3,.cls-4{stroke:#000;stroke-miterlimit:10;}.cls-1{stroke-width:1.01px;}.cls-2{fill:#8c0000;opacity:0.46;}.cls-3{stroke-width:1.06px;}.cls-4{stroke-width:0.75px;}</style></defs><g id="Layer_2" data-name="Layer 2"><g id="Layer_1-2" data-name="Layer 1"><path d="M40.74,84.07c.42-1.17,1.12-3.1.24-4.72-1.34-2.46-5.38-2.42-9.26-2.38s-7.69,0-9,2.51c-.91,1.69-.31,3.6,0,4.59,1,3.26,4.31,7.1,9,7.1C38,91.17,40.57,84.54,40.74,84.07Z"/><path d="M66,84.07c.42-1.17,1.12-3.1.24-4.72C64.9,76.89,60.87,76.93,57,77s-7.69,0-9,2.51c-.91,1.69-.31,3.6,0,4.59,1,3.26,4.31,7.1,9,7.1C63.29,91.17,65.83,84.54,66,84.07Z"/><path class="cls-1" d="M73.59,62.53C71.26,49.59,55.88,43.47,45.11,43.47c-10.61,0-25.71,5.85-28.49,19.06C16.5,63.09,14.94,71,18.5,77c2.64,4.45,6.75,4.94,26.61,4.61,19.37-.31,23.49-1,26.29-5.54C74.91,70.35,73.67,63,73.59,62.53Z"/><path d="M23.73,13.79a21.35,21.35,0,0,0-2.52-9.25,20.8,20.8,0,0,0-2.86-4c2.52,1.16,4.57,2.22,6,3,4.06,2.2,5.13,3.13,5.72,3.7a16,16,0,0,1,3.2,4.38,5.92,5.92,0,0,1-3.24,3.64A5.87,5.87,0,0,1,23.73,13.79Z"/><path d="M63.76,13.79a21.25,21.25,0,0,1,2.53-9.25,20.38,20.38,0,0,1,2.86-4c-2.52,1.16-4.58,2.22-6.06,3A28.72,28.72,0,0,0,57.66,7l-.29.26a14.34,14.34,0,0,0-3.19,4.38,5.28,5.28,0,0,0,9.58,2.18Z"/><path d="M11.8,66.74c.55,5.22,3.06,9.24,5.61,9s3.41-7.85,3.62-9.94c.31-3,.8-7.81-1.7-9.21-1.6-.89-3.63.09-3.91.23C12,58.49,11.47,63.63,11.8,66.74Z"/><path class="cls-2" d="M23.73,51a22.37,22.37,0,0,0,7,7.43,23.58,23.58,0,0,0,24.72.28,23.1,23.1,0,0,0,8.3-9.16"/><path class="cls-1" d="M71.34,28.09C70.19,16.14,60.42.51,43.76.51,27.58.51,17.59,15.94,16.18,28.09c-.22,1.84-1.36,14.59,8.17,23.39,7.53,7,16.82,6.89,19.39,6.83,2-.05,13.35-.54,21.21-9.92C65.47,47.77,72.45,39.59,71.34,28.09Z"/><path d="M77,66.74c-.55,5.22-3.06,9.24-5.61,9s-3.41-7.85-3.62-9.94c-.3-3-.8-7.81,1.7-9.21,1.6-.89,3.63.09,3.91.23C76.74,58.49,77.29,63.63,77,66.74Z"/><path class="cls-3" d="M40,73.51a22.81,22.81,0,0,0-.65,3c-.36,2.41-1.24,8.23,1.48,12.27C42.32,91,44,91.2,44.31,93.34a4.7,4.7,0,0,1-.78,3.38c-1.64,2-4.29,0-7.44,1.84a6.62,6.62,0,0,0-3.1,4.08,6.33,6.33,0,0,0,1.55,5.76,5.68,5.68,0,0,0,3.05,1.41c1.84.29,2.8-.45,3.42.24s.17,2.37.08,2.64v0a13.82,13.82,0,0,1-2.43,3.84c.49-.11,3.84-1,5-4a4.89,4.89,0,0,0,.26-3.1,4.38,4.38,0,0,0-3.1-3c-.66-.13-1.15,0-1.76-.42a2,2,0,0,1-.86-1.36,2.11,2.11,0,0,1,.56-1.55c.93-1,2.28-.06,4.38-.26a7.56,7.56,0,0,0,4.26-1.94,9.39,9.39,0,0,0,2.46-5.63,13.3,13.3,0,0,0-.43-5.43c-1-3.75-2.3-3.53-2.76-6-.87-4.62,3.6-7.51,2.1-11.29a5.2,5.2,0,0,0-1.83-2.29,4.42,4.42,0,0,0-4.28-.48A5.19,5.19,0,0,0,40,73.51Z"/><path class="cls-4" d="M37.67,111.91a18.21,18.21,0,0,1-.3,4,20.09,20.09,0,0,1-1.77,5.27,31.21,31.21,0,0,1,4.1-2.15,30.77,30.77,0,0,1,5.1-1.69Z"/><path d="M43,61.45s.59-.4.75.06v6.1s.09,1-.47.78-4.82-5-9.8-5.63-10.46.12-12,2.15c0,0-3.33-12.33-15.19-12.39,0,0,.88-8-2.56-12.9,0,0-3.53-.58-3.78-1.57,0,0,20.67.87,27.6,4.31,0,0,2-1.92,2.11-1.3S28.87,43,28.87,43,31.52,62.14,43,61.45Z"/><path d="M46.57,61.45s-.59-.4-.75.06v6.1s-.09,1,.47.78,4.82-5,9.8-5.63,10.46.12,12,2.15c0,0,3.33-12.33,15.18-12.39,0,0-.88-8,2.57-12.9,0,0,3.52-.58,3.77-1.57,0,0-20.66.87-27.59,4.31,0,0-2-1.92-2.12-1.3s.84,1.93.84,1.93S58.08,62.14,46.57,61.45Z"/></g></g></svg>