<svg xmlns="http://www.w3.org/2000/svg" viewBox="0 0 89.6 121.27"><defs><style>.cls-1{fill:#d30000;stroke-width:1.01px;}.cls-1,.cls-3{stroke:#000;stroke-miterlimit:10;}.cls-2{fill:#8c0000;opacity:0.46;}.cls-3{stroke-width:0.8px;}</style></defs><g id="Layer_2" data-name="Layer 2"><g id="Layer_1-2" data-name="Layer 1"><path d="M41.24,84.07c.43-1.17,1.12-3.1.24-4.72-1.34-2.46-5.37-2.42-9.26-2.38s-7.69,0-9,2.51c-.91,1.69-.31,3.6,0,4.59,1,3.26,4.31,7.1,9,7.1C38.53,91.17,41.07,84.54,41.24,84.07Z"/><path d="M77.47,66.74c-.55,5.22-3.07,9.24-5.62,9s-3.4-7.85-3.62-9.94c-.3-3-.8-7.81,1.7-9.21,1.6-.89,3.63.09,3.91.23C77.24,58.49,77.79,63.63,77.47,66.74Z"/><path class="cls-1" d="M74.1,62.53C71.76,49.59,56.38,43.47,45.61,43.47,35,43.47,19.9,49.32,17.12,62.53,17,63.09,15.44,71,19,77c2.64,4.45,6.75,4.94,26.61,4.61,19.37-.31,23.49-1,26.3-5.54C75.42,70.35,74.17,63,74.1,62.53Z"/><path d="M24.23,13.79a21.35,21.35,0,0,0-2.52-9.25,20.38,20.38,0,0,0-2.86-4c2.52,1.16,4.57,2.22,6.06,3C29,5.73,30,6.66,30.63,7.23a15.71,15.71,0,0,1,3.19,4.38,5.89,5.89,0,0,1-3.24,3.64A5.88,5.88,0,0,1,24.23,13.79Z"/><path d="M64.27,13.79a21.35,21.35,0,0,1,2.52-9.25,20.38,20.38,0,0,1,2.86-4c-2.52,1.16-4.57,2.22-6.06,3A29.11,29.11,0,0,0,58.16,7l-.29.26a14.34,14.34,0,0,0-3.19,4.38,5.28,5.28,0,0,0,9.59,2.18Z"/><path d="M12.3,66.74c.55,5.22,3.06,9.24,5.61,9s3.41-7.85,3.63-9.94c.3-3,.79-7.81-1.7-9.21-1.61-.89-3.64.09-3.92.23C12.53,58.49,12,63.63,12.3,66.74Z"/><path class="cls-2" d="M24.23,51a22.31,22.31,0,0,0,7,7.43A23.56,23.56,0,0,0,56,58.68a23,23,0,0,0,8.3-9.16"/><path class="cls-1" d="M71.84,28.09C70.7,16.14,60.92.51,44.26.51,28.09.51,18.09,15.94,16.68,28.09c-.21,1.84-1.35,14.59,8.17,23.39,7.54,7,16.82,6.89,19.39,6.83,2-.05,13.35-.54,21.21-9.92C66,47.77,73,39.59,71.84,28.09Z"/><path d="M66.5,84.07c.43-1.17,1.13-3.1.25-4.72-1.35-2.46-5.38-2.42-9.26-2.38s-7.7,0-9,2.51c-.91,1.69-.31,3.6,0,4.59,1,3.26,4.31,7.1,9,7.1C63.79,91.17,66.33,84.54,66.5,84.07Z"/><path class="cls-1" d="M39.61,73.86c-2,11,.21,15.34,2.58,17.29,2.66,2.21,6.1,1.77,6.71,3.88.85,2.94-5.41,5.25-6.2,10.06-.43,2.63.68,6.54,7.49,12.14-4-6.22-3.79-9.37-2.84-11.1s2.44-1.68,4.65-4.39c1.11-1.37,3.32-4.09,3.09-7-.31-3.87-4.75-4.43-6.91-8.75-1.13-2.24-1.83-5.89.46-11.9a4.15,4.15,0,0,0-.24-3.2c-1.12-1.89-4.07-2.22-6.07-1.2A5.59,5.59,0,0,0,39.61,73.86Z"/><path class="cls-3" d="M42.56,115.48A22.71,22.71,0,0,1,52,120.13a26.83,26.83,0,0,1-.89-4.51,25.65,25.65,0,0,1,0-5.34Z"/><path d="M43,61.45s.59-.4.75.06v6.1s.09,1-.47.78-4.82-5-9.8-5.63-10.46.12-12,2.15c0,0-3.33-12.33-15.19-12.39,0,0,.88-8-2.56-12.9,0,0-3.53-.58-3.78-1.57,0,0,20.67.87,27.6,4.31,0,0,2-1.92,2.11-1.3S28.87,43,28.87,43,31.52,62.14,43,61.45Z"/><path d="M46.57,61.45s-.59-.4-.75.06v6.1s-.09,1,.47.78,4.82-5,9.8-5.63,10.46.12,12,2.15c0,0,3.33-12.33,15.18-12.39,0,0-.88-8,2.57-12.9,0,0,3.52-.58,3.77-1.57,0,0-20.66.87-27.59,4.31,0,0-2-1.92-2.12-1.3s.84,1.93.84,1.93S58.08,62.14,46.57,61.45Z"/></g></g></svg>