<svg xmlns="http://www.w3.org/2000/svg" viewBox="0 0 77.92 91.87"><defs><style>.cls-1{fill:#d30000;stroke-width:1.01px;}.cls-1,.cls-2{stroke:#000;stroke-miterlimit:10;}.cls-2{stroke-width:0.8px;}.cls-3{fill:#8c0000;opacity:0.46;}</style></defs><g id="Layer_2" data-name="Layer 2"><g id="Layer_1-2" data-name="Layer 1"><path d="M36.85,61s.36-.41.46.06v6.1s.06,1-.29.78-3-5-6.07-5.64-6.47.13-7.42,2.15c0,0-2.06-12.32-9.4-12.39,0,0,.55-8-1.58-12.89,0,0-2.19-.58-2.34-1.58,0,0,12.79.87,17.08,4.32,0,0,1.25-1.92,1.31-1.3a5.83,5.83,0,0,1-.52,1.93S29.72,61.63,36.85,61Z"/><path class="cls-1" d="M35.89,73.48a5,5,0,0,1-4-.11,4.82,4.82,0,0,1-1.94-2.11c-.71-1.4-.2-2-.94-3.48a4.66,4.66,0,0,0-1.68-2,5.14,5.14,0,0,0-3.69-.41c-2.52.44-2.74,1.77-4.75,2a5.21,5.21,0,0,1-4.12-1.55c-1.89-2-.26-4.58-2.21-6.56A4.35,4.35,0,0,0,9.1,58c-2.45.26-4.71,3.16-5,7.2,1.2-3,3.09-5,4.84-4.9a2.48,2.48,0,0,1,1.68.71c.6.68.39,1.51.43,2.81a9,9,0,0,0,1.09,4.5,7.57,7.57,0,0,0,3.18,2.8,6.31,6.31,0,0,0,3.45.83,7.43,7.43,0,0,0,2.67-.72,2.77,2.77,0,0,1,1.82-.57.64.64,0,0,1,.2,0,1.25,1.25,0,0,1,.69.75,19.88,19.88,0,0,1,.66,3,7.73,7.73,0,0,0,2.26,3.49A10.15,10.15,0,0,0,28.55,79l.11.07a6.48,6.48,0,0,0,1.12.51,8.91,8.91,0,0,0,5.07.54h0a6.3,6.3,0,0,0,3.39-1.75"/><path class="cls-2" d="M.83,59.43a22.8,22.8,0,0,1,.54,4.49,22.86,22.86,0,0,1-.67,6,26.77,26.77,0,0,1,3.69-2.76,25.78,25.78,0,0,1,4.8-2.32Z"/><path d="M63.92,81.29c-1.66-1.5-1-3-2.39-4.06s-4,.08-6.09,1-2.66,2-2.8,2.27A4.1,4.1,0,0,0,52.52,83,9.22,9.22,0,0,0,55,87.69c1.48,1.61,2.93,3.18,4.68,3s4.45-2.07,4.73-2.23h0l0,0s4.64-3.37,3.91-5.22C67.94,82,65.8,83,63.92,81.29Z"/><path d="M44.29,86.71c1-3.38,4.1-4,3.79-6-.07-.42-1.25-1.3-3.61-3s-3.16-2.21-4.36-2.11a3.54,3.54,0,0,0-1.52.55c-.52.28-1.82,1.12-3.19,4.15C34.14,83.1,33.51,84.5,34,85.68c.7,1.56,3.37,3.57,3.62,3.79l0,0,0,0s4.67,3.33,6.2,2.06C44.86,90.77,43.57,89.31,44.29,86.71Z"/><path class="cls-1" d="M63.8,63.26c.52,2.4,2.69,12.39-2.45,16.57-2.08,1.68-5.16,1.75-11.34,1.88s-9.33.2-11.24-1.37c-4.41-3.6-3.88-12.14-2.55-17.08.1-.36.17-.61.25-.84,1.18-4,5.73-17.61,13.54-17.61C56.68,44.81,62.18,55.84,63.8,63.26Z"/><path class="cls-3" d="M38.29,57.25A17.77,17.77,0,0,0,50.05,62a17.81,17.81,0,0,0,11.8-4.81"/><path class="cls-3" d="M45.67,64.06a12.8,12.8,0,0,0,1.46,8c.75,1.31,2.28,4,4.9,4.21a4.79,4.79,0,0,0,2.63-.55"/><path d="M55.24,66.29c.4,5.64.63,8.89-.82,9.54-2,.9-7-3.57-8.31-8.88C45.47,64.35,45,59.1,48,57.77a5.79,5.79,0,0,1,4.78.31C53.36,58.41,54.76,59.63,55.24,66.29Z"/><path d="M63.13,45.9l1.19,3,1.2-3"/><path class="cls-1" d="M77.3,29.43C76.19,17.49,66.73,1.86,50.61,1.86,35,1.86,25.27,17.28,23.91,29.43,23.7,31.27,22.6,44,31.82,52.82c7.29,7,16.28,6.89,18.76,6.83,2,0,12.93-.54,20.53-9.92A29.21,29.21,0,0,0,77.3,29.43Z"/><path d="M50.1,12.42a21.3,21.3,0,0,1-5.73-7.68A20.49,20.49,0,0,1,43,0c-.64,2.7-1.07,5-1.35,6.63A29,29,0,0,0,41,13c0,.2,0,.36,0,.39a14.58,14.58,0,0,0,1.47,5.21,5.29,5.29,0,0,0,7.63-6.21Z"/><path d="M61.13,45.9A37.39,37.39,0,0,1,67.26,45a38.32,38.32,0,0,1,6.63.11l-.5.91L61.13,45.9"/><path class="cls-3" d="M57.52,27.92a15,15,0,0,0,.93,5.22c.71,1.9,1.27,3.39,2.75,4.13,2,1,4.38,0,5.7-.93A7.19,7.19,0,0,0,69.64,31"/><path d="M69.67,30.1A5.92,5.92,0,0,1,63.74,36C59.42,36,58,30.6,57.82,30.1c-.22-.87-.86-3.36.6-5,1.64-1.81,4.66-1.11,5.32-1C64,24.23,69.67,25.63,69.67,30.1Z"/><path d="M63.09,45.9l1.19,3,1.2-3"/></g></g></svg>