<svg xmlns="http://www.w3.org/2000/svg" xmlns:xlink="http://www.w3.org/1999/xlink" viewBox="0 0 56.83 173.9"><defs><style>.cls-1{isolation:isolate;}.cls-2{fill:#232323;}.cls-10,.cls-11,.cls-12,.cls-13,.cls-14,.cls-15,.cls-2,.cls-4,.cls-5,.cls-6,.cls-7,.cls-8{fill-rule:evenodd;}.cls-11,.cls-14,.cls-3,.cls-7,.cls-9{mix-blend-mode:screen;}.cls-3{fill:url(#linear-gradient);}.cls-4{fill:url(#linear-gradient-2);}.cls-6{fill:url(#linear-gradient-3);}.cls-7{fill:url(#linear-gradient-4);}.cls-12,.cls-15,.cls-8{mix-blend-mode:multiply;}.cls-8{fill:url(#linear-gradient-5);}.cls-9{fill:url(#linear-gradient-6);}.cls-10{fill:url(#linear-gradient-7);}.cls-11{fill:url(#linear-gradient-8);}.cls-12{fill:url(#linear-gradient-9);}.cls-13{fill:url(#linear-gradient-10);}.cls-14{fill:url(#linear-gradient-11);}.cls-15{fill:url(#linear-gradient-12);}</style><linearGradient id="linear-gradient" x1="162.91" y1="165.52" x2="162.91" y2="154.78" gradientTransform="translate(-137.1 260.83) rotate(-90)" gradientUnits="userSpaceOnUse"><stop offset="0"/><stop offset="1" stop-color="#a0a0a0"/></linearGradient><linearGradient id="linear-gradient-2" x1="162.91" y1="172.41" x2="162.91" y2="158.62" gradientTransform="translate(-137.1 260.83) rotate(-90)" gradientUnits="userSpaceOnUse"><stop offset="0" stop-color="#333"/><stop offset="1"/></linearGradient><linearGradient id="linear-gradient-3" x1="107.09" y1="170.91" x2="107.09" y2="160.13" gradientTransform="translate(-137.1 260.83) rotate(-90)" gradientUnits="userSpaceOnUse"><stop offset="0" stop-color="#8a1f1f"/><stop offset="1" stop-color="#e30613"/></linearGradient><linearGradient id="linear-gradient-4" x1="107.09" y1="165.52" x2="107.09" y2="161.63" gradientTransform="translate(-137.1 260.83) rotate(-90)" gradientUnits="userSpaceOnUse"><stop offset="0"/><stop offset="1" stop-color="#ff8383"/></linearGradient><linearGradient id="linear-gradient-5" x1="107.09" y1="170.91" x2="107.09" y2="164.75" gradientTransform="translate(-137.1 260.83) rotate(-90)" gradientUnits="userSpaceOnUse"><stop offset="0" stop-color="#c30"/><stop offset="0.1" stop-color="#d5572d"/><stop offset="0.46" stop-color="#f3cfc3"/><stop offset="0.62" stop-color="#fff"/></linearGradient><linearGradient id="linear-gradient-6" x1="227.4" y1="161.63" x2="227.4" y2="161.63" xlink:href="#linear-gradient-4"/><linearGradient id="linear-gradient-7" x1="118.28" y1="170.91" x2="118.28" y2="160.13" xlink:href="#linear-gradient-3"/><linearGradient id="linear-gradient-8" x1="117.29" y1="165.52" x2="117.29" y2="161.63" xlink:href="#linear-gradient-4"/><linearGradient id="linear-gradient-9" x1="118.28" y1="170.91" x2="118.28" y2="164.75" xlink:href="#linear-gradient-5"/><linearGradient id="linear-gradient-10" x1="129.44" y1="257.25" x2="129.44" y2="246.46" gradientTransform="matrix(0, 1, 1, 0, -223.44, 36.3)" xlink:href="#linear-gradient-3"/><linearGradient id="linear-gradient-11" x1="128.45" y1="251.85" x2="128.45" y2="247.96" gradientTransform="matrix(0, 1, 1, 0, -223.44, 36.3)" xlink:href="#linear-gradient-4"/><linearGradient id="linear-gradient-12" x1="129.44" y1="257.25" x2="129.44" y2="251.08" gradientTransform="matrix(0, 1, 1, 0, -223.44, 36.3)" xlink:href="#linear-gradient-5"/></defs><g class="cls-1"><g id="Layer_2" data-name="Layer 2"><g id="Layer_1-2" data-name="Layer 1"><path d="M31.63,19.93c.75-1.63,1.41-3,2.83-4,1.92-1.25,3.6-.57,6.39-.71a19,19,0,0,0,8.65-3C54.58,8.83,55.56,2.18,55.79,0a17.65,17.65,0,0,1,.66,9.58,15.93,15.93,0,0,1-4.68,8.65,18.23,18.23,0,0,1-8.13,4.11,9.17,9.17,0,0,0-4,1.14,7.63,7.63,0,0,0-2.88,3.87c-2.88.41-5.45-.42-6.25-2.1C29.83,23.8,30.63,22.08,31.63,19.93Z"/><path d="M25.2,19.93c-.76-1.63-1.41-3-2.84-4-1.91-1.25-3.6-.57-6.38-.71a19,19,0,0,1-8.65-3C2.25,8.83,1.27,2.18,1,0A17.65,17.65,0,0,0,.38,9.58a15.93,15.93,0,0,0,4.68,8.65,18.23,18.23,0,0,0,8.13,4.11,9.1,9.1,0,0,1,4,1.14,7.66,7.66,0,0,1,2.89,3.87c2.88.41,5.44-.42,6.25-2.1C27,23.8,26.2,22.08,25.2,19.93Z"/><path class="cls-2" d="M17,162.5V33.35a11.4,11.4,0,0,1,22.8,0V162.5a11.4,11.4,0,0,1-22.8,0Z"/><path class="cls-3" d="M27.16,25.9a7.6,7.6,0,0,0-6.3,7.45V162.5a7.6,7.6,0,0,0,6.3,7.45c1.95.33,1.52,3.48-.49,3.14a10.77,10.77,0,0,1-9-10.59V33.35a10.77,10.77,0,0,1,9-10.59c2-.34,2.44,2.81.49,3.14Z"/><path class="cls-4" d="M21.52,162.5a6.9,6.9,0,0,0,13.79,0V33.35a6.9,6.9,0,0,0-13.79,0V162.5Z"/><path class="cls-5" d="M38,33.35V162.5a11.44,11.44,0,0,1-10.51,11.37c.29,0,.59,0,.89,0a11.43,11.43,0,0,0,11.4-11.4V33.35A11.43,11.43,0,0,0,28.41,22c-.3,0-.6,0-.89,0A11.44,11.44,0,0,1,38,33.35Z"/><path class="cls-6" d="M23,163.16c0,.43,2.44.78,5.39.78s5.4-.35,5.4-.78V144.35c0-.43-2.44-.81-5.4-.81s-5.39.36-5.39.79v18.83Z"/><path class="cls-7" d="M24.52,163.16c0,.17.57.33,1.44.43a8.31,8.31,0,0,0,1.59,0c.54,0,.86-.11.86-.2V144.06c0-.09-.32-.16-.85-.2a8.35,8.35,0,0,0-1.59,0c-.88.1-1.45.26-1.45.44v18.83Z"/><path class="cls-8" d="M32.27,163.16c0,.39-2,.72-4.63.77h.77c3,0,5.4-.35,5.4-.78V144.35c0-.43-2.44-.81-5.4-.81h-.77c2.6,0,4.63.38,4.63.78v18.83Z"/><line class="cls-9" x1="24.53" y1="33.37" x2="24.53" y2="33.49"/><path class="cls-10" d="M33.81,145.32a5.55,5.55,0,0,0-5.39-5.54,5.43,5.43,0,0,0-5.39,5.4"/><path class="cls-11" d="M28.42,145.25v-1.91A1.5,1.5,0,0,0,26,142.16a3.85,3.85,0,0,0-1.45,3v0"/><path class="cls-12" d="M33.81,145.32a5.55,5.55,0,0,0-5.39-5.54,4.9,4.9,0,0,0-.77.06,5.43,5.43,0,0,1,4.62,5.34v.14"/><path class="cls-13" d="M33.81,163a5.55,5.55,0,0,1-5.39,5.54,5.43,5.43,0,0,1-5.39-5.4"/><path class="cls-14" d="M28.42,163V165A1.5,1.5,0,0,1,26,166.13a3.85,3.85,0,0,1-1.45-3v0"/><path class="cls-15" d="M33.81,163a5.55,5.55,0,0,1-5.39,5.54,4.9,4.9,0,0,1-.77-.06,5.43,5.43,0,0,0,4.62-5.34V163"/></g></g></g></svg>