<svg xmlns="http://www.w3.org/2000/svg" xmlns:xlink="http://www.w3.org/1999/xlink" viewBox="0 0 56.83 173.9"><defs><style>.cls-1{isolation:isolate;}.cls-2{fill:#232323;}.cls-10,.cls-11,.cls-12,.cls-13,.cls-14,.cls-15,.cls-2,.cls-4,.cls-5,.cls-6,.cls-7,.cls-8{fill-rule:evenodd;}.cls-11,.cls-14,.cls-3,.cls-7,.cls-9{mix-blend-mode:screen;}.cls-3{fill:url(#linear-gradient);}.cls-4{fill:url(#linear-gradient-2);}.cls-6{fill:url(#linear-gradient-3);}.cls-7{fill:url(#linear-gradient-4);}.cls-12,.cls-15,.cls-8{mix-blend-mode:multiply;}.cls-8{fill:url(#linear-gradient-5);}.cls-9{fill:url(#linear-gradient-6);}.cls-10{fill:url(#linear-gradient-7);}.cls-11{fill:url(#linear-gradient-8);}.cls-12{fill:url(#linear-gradient-9);}.cls-13{fill:url(#linear-gradient-10);}.cls-14{fill:url(#linear-gradient-11);}.cls-15{fill:url(#linear-gradient-12);}</style><linearGradient id="linear-gradient" x1="295.73" y1="32.71" x2="295.73" y2="21.96" gradientTransform="translate(-4.29 393.65) rotate(-90)" gradientUnits="userSpaceOnUse"><stop offset="0"/><stop offset="1" stop-color="#a0a0a0"/></linearGradient><linearGradient id="linear-gradient-2" x1="295.73" y1="39.59" x2="295.73" y2="25.81" gradientTransform="translate(-4.29 393.65) rotate(-90)" gradientUnits="userSpaceOnUse"><stop offset="0" stop-color="#333"/><stop offset="1"/></linearGradient><linearGradient id="linear-gradient-3" x1="267.71" y1="38.09" x2="267.71" y2="27.31" gradientTransform="translate(-4.29 393.65) rotate(-90)" gradientUnits="userSpaceOnUse"><stop offset="0" stop-color="#8a1f1f"/><stop offset="1" stop-color="#e30613"/></linearGradient><linearGradient id="linear-gradient-4" x1="267.71" y1="32.7" x2="267.71" y2="28.81" gradientTransform="translate(-4.29 393.65) rotate(-90)" gradientUnits="userSpaceOnUse"><stop offset="0"/><stop offset="1" stop-color="#ff8383"/></linearGradient><linearGradient id="linear-gradient-5" x1="267.71" y1="38.09" x2="267.71" y2="31.93" gradientTransform="translate(-4.29 393.65) rotate(-90)" gradientUnits="userSpaceOnUse"><stop offset="0" stop-color="#c30"/><stop offset="0.1" stop-color="#d5572d"/><stop offset="0.46" stop-color="#f3cfc3"/><stop offset="0.62" stop-color="#fff"/></linearGradient><linearGradient id="linear-gradient-6" x1="360.22" y1="28.82" x2="360.22" y2="28.82" xlink:href="#linear-gradient-4"/><linearGradient id="linear-gradient-7" x1="307.26" y1="38.09" x2="307.26" y2="27.31" xlink:href="#linear-gradient-3"/><linearGradient id="linear-gradient-8" x1="306.27" y1="32.7" x2="306.27" y2="28.81" xlink:href="#linear-gradient-4"/><linearGradient id="linear-gradient-9" x1="307.26" y1="38.09" x2="307.26" y2="31.93" xlink:href="#linear-gradient-5"/><linearGradient id="linear-gradient-10" x1="261.54" y1="124.42" x2="261.54" y2="113.64" gradientTransform="matrix(0, 1, 1, 0, -90.62, -96.52)" xlink:href="#linear-gradient-3"/><linearGradient id="linear-gradient-11" x1="260.55" y1="119.03" x2="260.55" y2="115.14" gradientTransform="matrix(0, 1, 1, 0, -90.62, -96.52)" xlink:href="#linear-gradient-4"/><linearGradient id="linear-gradient-12" x1="261.54" y1="124.42" x2="261.54" y2="118.26" gradientTransform="matrix(0, 1, 1, 0, -90.62, -96.52)" xlink:href="#linear-gradient-5"/></defs><g class="cls-1"><g id="Layer_2" data-name="Layer 2"><g id="Layer_1-2" data-name="Layer 1"><path d="M31.63,19.93c.75-1.63,1.41-3,2.83-4,1.92-1.25,3.6-.57,6.39-.71a19,19,0,0,0,8.65-3C54.58,8.83,55.56,2.18,55.79,0a17.65,17.65,0,0,1,.66,9.58,15.93,15.93,0,0,1-4.68,8.65,18.23,18.23,0,0,1-8.13,4.11,9.17,9.17,0,0,0-4,1.14,7.63,7.63,0,0,0-2.88,3.87c-2.88.41-5.45-.42-6.25-2.1C29.83,23.8,30.63,22.08,31.63,19.93Z"/><path d="M25.2,19.93c-.76-1.63-1.41-3-2.84-4-1.91-1.25-3.6-.57-6.38-.71a19,19,0,0,1-8.65-3C2.25,8.83,1.27,2.18,1,0A17.65,17.65,0,0,0,.38,9.58a15.93,15.93,0,0,0,4.68,8.65,18.23,18.23,0,0,0,8.13,4.11,9.1,9.1,0,0,1,4,1.14,7.66,7.66,0,0,1,2.89,3.87c2.88.41,5.44-.42,6.25-2.1C27,23.8,26.2,22.08,25.2,19.93Z"/><path class="cls-2" d="M17,162.5V33.35a11.4,11.4,0,0,1,22.8,0V162.5a11.4,11.4,0,0,1-22.8,0Z"/><path class="cls-3" d="M27.16,25.9a7.6,7.6,0,0,0-6.3,7.45V162.5a7.6,7.6,0,0,0,6.3,7.45c1.95.33,1.52,3.48-.49,3.14a10.77,10.77,0,0,1-9-10.59V33.35a10.77,10.77,0,0,1,9-10.59c2-.34,2.44,2.81.49,3.14Z"/><path class="cls-4" d="M21.52,162.5a6.9,6.9,0,0,0,13.79,0V33.35a6.9,6.9,0,0,0-13.79,0V162.5Z"/><path class="cls-5" d="M38,33.35V162.5a11.44,11.44,0,0,1-10.51,11.37c.29,0,.59,0,.89,0a11.43,11.43,0,0,0,11.4-11.4V33.35A11.43,11.43,0,0,0,28.41,22c-.3,0-.6,0-.89,0A11.44,11.44,0,0,1,38,33.35Z"/><path class="cls-6" d="M23,162.76c0,1.69,2.44,3.08,5.39,3.08s5.4-1.39,5.4-3.08V89.19c0-1.69-2.44-3.16-5.4-3.16S23,87.42,23,89.11v73.65Z"/><path class="cls-7" d="M24.52,162.76A2.12,2.12,0,0,0,26,164.48a2.45,2.45,0,0,0,1.59.11c.54-.15.86-.44.86-.78V88.06c0-.34-.31-.63-.85-.77a2.4,2.4,0,0,0-1.59.1,2.09,2.09,0,0,0-1.45,1.72v73.65Z"/><path class="cls-8" d="M32.27,162.76c0,1.54-2,2.83-4.63,3.05.26,0,.51,0,.77,0,3,0,5.4-1.39,5.4-3.08V89.19c0-1.69-2.44-3.16-5.4-3.16-.26,0-.51,0-.77,0,2.6.22,4.63,1.51,4.63,3v73.65Z"/><line class="cls-9" x1="24.53" y1="33.37" x2="24.53" y2="33.49"/><path class="cls-10" d="M33.81,89.15a5.55,5.55,0,0,0-5.4-5.53A5.42,5.42,0,0,0,23,89"/><path class="cls-11" d="M28.41,89.09V87.17A1.5,1.5,0,0,0,26,86a3.84,3.84,0,0,0-1.45,3v0"/><path class="cls-12" d="M33.81,89.15a5.55,5.55,0,0,0-5.4-5.53,5,5,0,0,0-.77.06A5.43,5.43,0,0,1,32.27,89v.14"/><path class="cls-13" d="M33.81,162.25a5.55,5.55,0,0,1-5.4,5.53A5.42,5.42,0,0,1,23,162.39"/><path class="cls-14" d="M28.41,162.32v1.91a1.47,1.47,0,0,1-.85,1.36A1.49,1.49,0,0,1,26,165.4a3.83,3.83,0,0,1-1.45-3v0"/><path class="cls-15" d="M33.81,162.25a5.55,5.55,0,0,1-5.4,5.53,5,5,0,0,1-.77-.05,5.43,5.43,0,0,0,4.63-5.34v-.14"/></g></g></g></svg>