<svg xmlns="http://www.w3.org/2000/svg" xmlns:xlink="http://www.w3.org/1999/xlink" viewBox="0 0 56.83 173.9"><defs><style>.cls-1{isolation:isolate;}.cls-2{fill:#232323;}.cls-10,.cls-11,.cls-12,.cls-13,.cls-14,.cls-15,.cls-2,.cls-4,.cls-5,.cls-6,.cls-7,.cls-8{fill-rule:evenodd;}.cls-11,.cls-14,.cls-3,.cls-7,.cls-9{mix-blend-mode:screen;}.cls-3{fill:url(#linear-gradient);}.cls-4{fill:url(#linear-gradient-2);}.cls-6{fill:url(#linear-gradient-3);}.cls-7{fill:url(#linear-gradient-4);}.cls-12,.cls-15,.cls-8{mix-blend-mode:multiply;}.cls-8{fill:url(#linear-gradient-5);}.cls-9{fill:url(#linear-gradient-6);}.cls-10{fill:url(#linear-gradient-7);}.cls-11{fill:url(#linear-gradient-8);}.cls-12{fill:url(#linear-gradient-9);}.cls-13{fill:url(#linear-gradient-10);}.cls-14{fill:url(#linear-gradient-11);}.cls-15{fill:url(#linear-gradient-12);}</style><linearGradient id="linear-gradient" x1="361.62" y1="-33.19" x2="361.62" y2="-43.93" gradientTransform="translate(61.61 459.54) rotate(-90)" gradientUnits="userSpaceOnUse"><stop offset="0"/><stop offset="1" stop-color="#a0a0a0"/></linearGradient><linearGradient id="linear-gradient-2" x1="361.62" y1="-26.3" x2="361.62" y2="-40.09" gradientTransform="translate(61.61 459.54) rotate(-90)" gradientUnits="userSpaceOnUse"><stop offset="0" stop-color="#333"/><stop offset="1"/></linearGradient><linearGradient id="linear-gradient-3" x1="347.98" y1="-27.8" x2="347.98" y2="-38.59" gradientTransform="translate(61.61 459.54) rotate(-90)" gradientUnits="userSpaceOnUse"><stop offset="0" stop-color="#8a1f1f"/><stop offset="1" stop-color="#e30613"/></linearGradient><linearGradient id="linear-gradient-4" x1="347.98" y1="-33.19" x2="347.98" y2="-37.08" gradientTransform="translate(61.61 459.54) rotate(-90)" gradientUnits="userSpaceOnUse"><stop offset="0"/><stop offset="1" stop-color="#ff8383"/></linearGradient><linearGradient id="linear-gradient-5" x1="347.98" y1="-27.8" x2="347.98" y2="-33.96" gradientTransform="translate(61.61 459.54) rotate(-90)" gradientUnits="userSpaceOnUse"><stop offset="0" stop-color="#c30"/><stop offset="0.1" stop-color="#d5572d"/><stop offset="0.46" stop-color="#f3cfc3"/><stop offset="0.62" stop-color="#fff"/></linearGradient><linearGradient id="linear-gradient-6" x1="426.11" y1="-37.08" x2="426.11" y2="-37.08" xlink:href="#linear-gradient-4"/><linearGradient id="linear-gradient-7" x1="401.53" y1="-27.8" x2="401.53" y2="-38.59" xlink:href="#linear-gradient-3"/><linearGradient id="linear-gradient-8" x1="400.55" y1="-33.19" x2="400.55" y2="-37.08" xlink:href="#linear-gradient-4"/><linearGradient id="linear-gradient-9" x1="401.53" y1="-27.8" x2="401.53" y2="-33.96" xlink:href="#linear-gradient-5"/><linearGradient id="linear-gradient-10" x1="327.43" y1="58.53" x2="327.43" y2="47.75" gradientTransform="matrix(0, 1, 1, 0, -24.72, -162.42)" xlink:href="#linear-gradient-3"/><linearGradient id="linear-gradient-11" x1="326.44" y1="53.14" x2="326.44" y2="49.25" gradientTransform="matrix(0, 1, 1, 0, -24.72, -162.42)" xlink:href="#linear-gradient-4"/><linearGradient id="linear-gradient-12" x1="327.43" y1="58.53" x2="327.43" y2="52.37" gradientTransform="matrix(0, 1, 1, 0, -24.72, -162.42)" xlink:href="#linear-gradient-5"/></defs><g class="cls-1"><g id="Layer_2" data-name="Layer 2"><g id="Layer_1-2" data-name="Layer 1"><path d="M31.63,19.93c.75-1.63,1.41-3,2.83-4,1.92-1.25,3.6-.57,6.39-.71a19,19,0,0,0,8.65-3C54.58,8.83,55.56,2.18,55.79,0a17.65,17.65,0,0,1,.66,9.58,15.93,15.93,0,0,1-4.68,8.65,18.23,18.23,0,0,1-8.13,4.11,9.17,9.17,0,0,0-4,1.14,7.63,7.63,0,0,0-2.88,3.87c-2.88.41-5.45-.42-6.25-2.1C29.83,23.8,30.63,22.08,31.63,19.93Z"/><path d="M25.2,19.93c-.76-1.63-1.41-3-2.84-4-1.91-1.25-3.6-.57-6.38-.71a19,19,0,0,1-8.65-3C2.25,8.83,1.27,2.18,1,0A17.65,17.65,0,0,0,.38,9.58a15.93,15.93,0,0,0,4.68,8.65,18.23,18.23,0,0,0,8.13,4.11,9.1,9.1,0,0,1,4,1.14,7.66,7.66,0,0,1,2.89,3.87c2.88.41,5.44-.42,6.25-2.1C27,23.8,26.2,22.08,25.2,19.93Z"/><path class="cls-2" d="M17,162.5V33.35a11.4,11.4,0,0,1,22.8,0V162.5a11.4,11.4,0,0,1-22.8,0Z"/><path class="cls-3" d="M27.16,25.9a7.6,7.6,0,0,0-6.3,7.45V162.5a7.6,7.6,0,0,0,6.3,7.45c1.95.33,1.52,3.48-.49,3.14a10.77,10.77,0,0,1-9-10.59V33.35a10.77,10.77,0,0,1,9-10.59c2-.34,2.44,2.81.49,3.14Z"/><path class="cls-4" d="M21.52,162.5a6.9,6.9,0,0,0,13.79,0V33.35a6.9,6.9,0,0,0-13.79,0V162.5Z"/><path class="cls-5" d="M38,33.35V162.5a11.44,11.44,0,0,1-10.51,11.37c.29,0,.59,0,.89,0a11.43,11.43,0,0,0,11.4-11.4V33.35A11.43,11.43,0,0,0,28.41,22c-.3,0-.6,0-.89,0A11.44,11.44,0,0,1,38,33.35Z"/><path class="cls-6" d="M23,162.09c0,2.31,2.44,4.22,5.39,4.22s5.4-1.91,5.4-4.22V61.15c0-2.31-2.44-4.33-5.4-4.33S23,58.72,23,61V162.09Z"/><path class="cls-7" d="M24.52,162.09A2.87,2.87,0,0,0,26,164.44a1.81,1.81,0,0,0,1.59.15,1.17,1.17,0,0,0,.86-1.06V59.6a1.15,1.15,0,0,0-.85-1.06,1.81,1.81,0,0,0-1.59.14A2.82,2.82,0,0,0,24.52,61V162.09Z"/><path class="cls-8" d="M32.27,162.09c0,2.11-2,3.88-4.63,4.18.26,0,.51,0,.77,0,3,0,5.4-1.91,5.4-4.22V61.15c0-2.31-2.44-4.33-5.4-4.33a6.62,6.62,0,0,0-.77,0c2.6.3,4.63,2.07,4.63,4.18V162.09Z"/><line class="cls-9" x1="24.53" y1="33.37" x2="24.53" y2="33.49"/><path class="cls-10" d="M33.81,60.75a5.52,5.52,0,0,0-5.4-5.47A5.39,5.39,0,0,0,23,60.61"/><path class="cls-11" d="M28.41,60.68V58.79a1.44,1.44,0,0,0-.85-1.34,1.49,1.49,0,0,0-1.59.18,3.78,3.78,0,0,0-1.45,3v0"/><path class="cls-12" d="M33.81,60.75a5.52,5.52,0,0,0-5.4-5.47,6.64,6.64,0,0,0-.77,0,5.39,5.39,0,0,1,4.63,5.28v.14"/><path class="cls-13" d="M33.81,162.25a5.55,5.55,0,0,1-5.39,5.53A5.42,5.42,0,0,1,23,162.39"/><path class="cls-14" d="M28.42,162.32v1.91A1.5,1.5,0,0,1,26,165.4a3.83,3.83,0,0,1-1.45-3v0"/><path class="cls-15" d="M33.81,162.25a5.55,5.55,0,0,1-5.39,5.53,4.9,4.9,0,0,1-.77-.05,5.43,5.43,0,0,0,4.62-5.34v-.14"/></g></g></g></svg>