<svg xmlns="http://www.w3.org/2000/svg" viewBox="0 0 127.51 138.21"><g id="Layer_2" data-name="Layer 2"><g id="Layer_1-2" data-name="Layer 1"><path d="M14.88,113A96.31,96.31,0,0,1,3.79,87.69,91.14,91.14,0,0,1,1.2,74.07c-.14-1.14-.18-2.3-.27-3.46s-.17-2.3-.16-3.46l0-3.47.19-3.47L1,58.47c.05-.57.13-1.14.2-1.72l.42-3.44c.33-2.24.71-4.47,1.15-6.72A79.59,79.59,0,0,1,6.56,33.27,56.38,56.38,0,0,1,13.1,20.9a48.58,48.58,0,0,1,9.68-10.21A50.12,50.12,0,0,1,34.93,3.75,50,50,0,0,1,48.47.26a40,40,0,0,1,14.05.87A43.37,43.37,0,0,1,75.36,6.75,58.71,58.71,0,0,1,94,26.87a74.44,74.44,0,0,1,9.18,25.68c1.44,9,1.13,18.46-2.06,27.18a44.11,44.11,0,0,1-6.78,12,33.43,33.43,0,0,1-4.84,5,26.52,26.52,0,0,1-5.89,3.78l-1.62.7c-.55.2-1.12.36-1.68.54l-.84.26c-.28.07-.58.11-.86.17l-1.74.33a24.8,24.8,0,0,1-7-.08,27.56,27.56,0,0,1-12.65-5.48A25.89,25.89,0,0,1,52.37,92a21.75,21.75,0,0,1-1.89-2.92c-.27-.51-.58-1-.81-1.53L49,85.92a24.09,24.09,0,0,1-1.54-6.74,28.4,28.4,0,0,1-.1-3.45c0-.58.09-1.15.14-1.72a12.5,12.5,0,0,1,.22-1.71,34,34,0,0,1,4.86-12.71A29.91,29.91,0,0,1,62.19,50a34.33,34.33,0,0,1,6.18-2.87A37.55,37.55,0,0,1,75,45.6a43.53,43.53,0,0,1,13.48.2,41.07,41.07,0,0,1,12.62,4.65,47.84,47.84,0,0,1,5.63,3.69,56,56,0,0,1,5.11,4.36,73.68,73.68,0,0,1,8.78,10.14,78,78,0,0,1,6.91,11.46,76.82,76.82,0,0,0-7.08-11.34,71.91,71.91,0,0,0-8.89-10,54.81,54.81,0,0,0-5.13-4.25A45.18,45.18,0,0,0,100.79,51,40.31,40.31,0,0,0,88.32,46.6a42.28,42.28,0,0,0-13.19,0,36.77,36.77,0,0,0-6.4,1.6,33.16,33.16,0,0,0-5.91,2.85,28.69,28.69,0,0,0-9,9.29A32.38,32.38,0,0,0,49.3,72.55a12.39,12.39,0,0,0-.18,1.61c0,.54-.09,1.08-.11,1.62A26.93,26.93,0,0,0,49.16,79a22.7,22.7,0,0,0,1.52,6.24l.65,1.47c.22.49.52.94.77,1.41a20.06,20.06,0,0,0,1.79,2.67,24.4,24.4,0,0,0,4.58,4.5,25.51,25.51,0,0,0,11.74,4.88,22.15,22.15,0,0,0,6.35,0l1.56-.32.77-.16.76-.25c.5-.17,1-.32,1.5-.5l1.44-.66a23.91,23.91,0,0,0,5.3-3.51A31.46,31.46,0,0,0,92.3,90.1a41.67,41.67,0,0,0,6.19-11.33c2.84-8.16,3-17.14,1.53-25.7A71.52,71.52,0,0,0,90.9,28.72,55,55,0,0,0,73.21,10.16,39.11,39.11,0,0,0,61.54,5.25,35.82,35.82,0,0,0,49,4.67,45.55,45.55,0,0,0,36.71,8a45.45,45.45,0,0,0-10.93,6.46,43.82,43.82,0,0,0-8.54,9.29,51.31,51.31,0,0,0-5.77,11.34A74,74,0,0,0,8.15,47.6c-.38,2.14-.72,4.32-1,6.51l-.34,3.2c-.06.54-.13,1.07-.17,1.61l-.06,1.61c-.94,17.22,4.48,34.49,13.77,49Z"/><path d="M0,89,11.65,83.8c2.39,2.17,2.59,3.84,2.25,5A8.42,8.42,0,0,0,13,92.29a4.23,4.23,0,0,0,.57,1.8l1.8-.81.87,1.92L14.42,96l16.77,37.4c.63,1.5-.36,3.4-2.23,4.3s-4,.51-4.85-.9L7.26,99.23l-1.77.8L4.63,98.1l1.79-.8a4.32,4.32,0,0,0-1-1.64C4.39,94.56,3.12,94.4,2.23,94,1.14,93.42,0,92.17,0,89Z"/><path d="M9.7,100.12a50.9,50.9,0,0,1,2,9c.2,1.53.33,3.07.42,4.61s.05,3.08.11,4.58a78.06,78.06,0,0,0,.67,9,22.6,22.6,0,0,0,1,4.22,6.18,6.18,0,0,0,.94,1.74,5.68,5.68,0,0,0,.68.71,3,3,0,0,0,.39.32l.58.42-.2-.15a5.52,5.52,0,0,0,2.47.72,3.4,3.4,0,0,0,2.36-.79,5.19,5.19,0,0,0,1.58-2.23,7.64,7.64,0,0,0,.49-2.87,6.92,6.92,0,0,1,.07,3,5.75,5.75,0,0,1-1.43,2.83,4.62,4.62,0,0,1-3,1.42A6.88,6.88,0,0,1,15.5,136l-.2-.15a.69.69,0,0,0,.17.13h0l0,0-.07,0-.15-.08-.28-.17a6.15,6.15,0,0,1-.52-.37,6,6,0,0,1-1-.87,8.35,8.35,0,0,1-1.36-2.2,19.56,19.56,0,0,1-1.26-4.63,54.58,54.58,0,0,1-.62-9.27c.07-3.11.21-6.06.1-9.1S10,103.18,9.7,100.12Z"/></g></g></svg>