<svg xmlns="http://www.w3.org/2000/svg" viewBox="0 0 129.23 242.34"><defs><style>.cls-1{fill:#d30000;stroke-width:2px;}.cls-1,.cls-3{stroke:#000;stroke-miterlimit:10;}.cls-2{fill:#8c0000;opacity:0.46;}.cls-3{stroke-width:1.59px;}</style></defs><g id="Layer_2" data-name="Layer 2"><g id="Layer_1-2" data-name="Layer 1"><path d="M.16,132c1.09,10.34,6.06,18.29,11.1,17.76,5.24-.55,6.75-15.54,7.17-19.68.6-5.84,1.58-15.45-3.36-18.2-3.18-1.77-7.19.17-7.74.45C.61,115.71-.49,125.88.16,132Z"/><path d="M107.37,166.32c.85-2.34,2.23-6.14.49-9.34-2.66-4.87-10.64-4.79-18.32-4.71s-15.22.1-17.83,4.95c-1.8,3.35-.61,7.13,0,9.1,2,6.43,8.53,14,17.83,14C102,180.36,107,167.24,107.37,166.32Z"/><path class="cls-1" d="M122.4,123.7C117.78,98.1,87.37,86,66.05,86c-21,0-50.86,11.57-56.36,37.7-.23,1.1-3.32,16.7,3.73,28.59,5.21,8.79,13.34,9.76,52.63,9.12,38.32-.63,46.47-1.95,52-11C125,139.16,122.55,124.52,122.4,123.7Z"/><path d="M23.76,27.29a42.16,42.16,0,0,0-5-18.3,40.76,40.76,0,0,0-5.65-8c5,2.29,9,4.4,12,6,8,4.34,10.13,6.18,11.31,7.32A31.31,31.31,0,0,1,42.73,23a11.71,11.71,0,0,1-6.4,7.21A11.65,11.65,0,0,1,23.76,27.29Z"/><path d="M103,27.29A42.16,42.16,0,0,1,108,9a40.76,40.76,0,0,1,5.65-8c-5,2.29-9,4.4-12,6-6.89,3.73-9.42,5.62-10.74,6.79l-.57.53A28.66,28.66,0,0,0,84,23a10.46,10.46,0,0,0,19,4.33Z"/><path class="cls-2" d="M23.75,100.84a44.39,44.39,0,0,0,13.93,14.69,46.61,46.61,0,0,0,48.89.54A45.53,45.53,0,0,0,103,98"/><path class="cls-1" d="M118,55.56C115.67,31.93,96.34,1,63.38,1c-32,0-51.77,30.53-54.56,54.56C8.4,59.21,6.15,84.44,25,101.85c14.91,13.78,33.28,13.62,38.36,13.5,4-.09,26.41-1.06,42-19.63C106.33,94.49,120.14,78.32,118,55.56Z"/><path d="M129.07,132C128,142.36,123,150.31,118,149.78c-5.24-.55-6.75-15.54-7.17-19.68-.6-5.84-1.58-15.45,3.36-18.2,3.17-1.77,7.19.17,7.74.45C128.62,115.71,129.71,125.88,129.07,132Z"/><path d="M57.4,166.32c.85-2.34,2.23-6.14.49-9.34-2.66-4.87-10.64-4.79-18.32-4.71s-15.22.1-17.83,4.95c-1.8,3.35-.61,7.13,0,9.1,2,6.43,8.53,14,17.83,14C52.05,180.36,57.07,167.24,57.4,166.32Z"/><path class="cls-1" d="M73.17,147.21c-6.8,12.94,2.1,24-5.11,34.22-4.58,6.49-10.42,5.19-11.23,10.06C55.77,197.82,65.47,201.07,67,209c1,5-1.14,12.65-14.81,24,7.91-12.35,7.58-18.56,5.62-22C55,206.1,48.17,206.2,44.7,198.89A17,17,0,0,1,43.17,190c1.08-9.4,10.31-9.69,13-18.69,2.43-8-3.58-11.09-.91-23.54.93-4.38,2.33-7,4.69-8.77.32-.24,4.7-3.39,9.38-1.64.36.13,4.12,1.6,4.88,4.83A7.29,7.29,0,0,1,73.17,147.21Z"/><path class="cls-3" d="M49.39,219.73a45.26,45.26,0,0,1-.13,8.94,45.21,45.21,0,0,1-2.91,11.57,51.34,51.34,0,0,1,18-7.71Z"/></g></g></svg>