<svg xmlns="http://www.w3.org/2000/svg" viewBox="0 0 129.23 180.36"><defs><style>.cls-1{fill:#d30000;stroke:#000;stroke-miterlimit:10;stroke-width:2px;}.cls-2{fill:#8c0000;opacity:0.46;}</style></defs><g id="Layer_2" data-name="Layer 2"><g id="Layer_1-2" data-name="Layer 1"><path d="M107.37,166.32c.85-2.34,2.23-6.14.49-9.34-2.66-4.87-10.64-4.79-18.32-4.71s-15.22.1-17.83,4.95c-1.8,3.35-.61,7.13,0,9.1,2,6.43,8.53,14,17.83,14C102,180.36,107,167.24,107.37,166.32Z"/><path d="M.16,132c1.09,10.34,6.06,18.29,11.1,17.76,5.24-.55,6.75-15.54,7.17-19.68.6-5.84,1.58-15.45-3.36-18.2-3.18-1.77-7.19.17-7.74.45C.61,115.71-.49,125.88.16,132Z"/><path class="cls-1" d="M122.4,123.7C117.78,98.1,87.37,86,66.05,86c-21,0-50.86,11.57-56.36,37.7-.23,1.1-3.32,16.7,3.73,28.59,5.21,8.79,13.34,9.76,52.63,9.12,38.32-.63,46.47-1.95,52-11C125,139.16,122.55,124.52,122.4,123.7Z"/><path class="cls-2" d="M23.75,100.84a44.39,44.39,0,0,0,13.93,14.69,46.61,46.61,0,0,0,48.89.54A45.53,45.53,0,0,0,103,98"/><path class="cls-1" d="M118,55.56C115.67,31.93,96.34,1,63.38,1c-32,0-51.77,30.53-54.56,54.56C8.4,59.21,6.15,84.44,25,101.85c14.91,13.78,33.28,13.62,38.36,13.5,4-.09,26.41-1.06,42-19.63C106.33,94.49,120.14,78.32,118,55.56Z"/><path d="M23.76,27.29a42.16,42.16,0,0,0-5-18.3,40.76,40.76,0,0,0-5.65-8c5,2.29,9,4.4,12,6,8,4.34,10.13,6.18,11.31,7.32A31.31,31.31,0,0,1,42.73,23a11.71,11.71,0,0,1-6.4,7.21A11.65,11.65,0,0,1,23.76,27.29Z"/><path d="M103,27.29A42.16,42.16,0,0,1,108,9a40.76,40.76,0,0,1,5.65-8c-5,2.29-9,4.4-12,6-6.89,3.73-9.42,5.62-10.74,6.79l-.57.53A28.66,28.66,0,0,0,84,23a10.46,10.46,0,0,0,19,4.33Z"/><path d="M39.75,90.33a109.29,109.29,0,0,1,12.42-1.41c2.08-.16,4.15-.2,6.22-.3l6.21-.09c2.07,0,4.14,0,6.21.1s4.15.13,6.22.3a107,107,0,0,1,12.42,1.4v.21l-24.85.1-24.85-.1Z"/><path d="M79.55,90.43q1.17,3,2.36,5.92c.79-2,1.57-3.94,2.36-5.92"/><path d="M43.48,90.43l2.37,5.92q1.17-3,2.36-5.92"/><path class="cls-2" d="M117.38,111.16a9.7,9.7,0,0,0-4.92,2c-2.66,2.17-3.37,5.5-3.71,13.35-.54,12.53-.74,18.85,2.62,21.45,1.15.89,3.52,2.22,8,1.75"/><path d="M129.07,132C128,142.36,123,150.31,118,149.78c-5.24-.55-6.75-15.54-7.17-19.68-.6-5.84-1.58-15.45,3.36-18.2,3.17-1.77,7.19.17,7.74.45C128.62,115.71,129.71,125.88,129.07,132Z"/><path class="cls-2" d="M31.4,54.85A29.18,29.18,0,0,0,33.24,65.2c1.4,3.75,2.51,6.7,5.43,8.17,3.92,2,8.67.06,11.29-1.85,5-3.7,5.38-9.76,5.41-10.61"/><path class="cls-2" d="M95.23,54.85A29.18,29.18,0,0,1,93.39,65.2C92,69,90.88,71.9,88,73.37c-3.92,2-8.67.06-11.29-1.85-5-3.7-5.37-9.76-5.41-10.61"/><path d="M55.5,59.13A11.73,11.73,0,0,1,43.78,70.86c-8.57,0-11.47-10.73-11.73-11.73-.44-1.72-1.7-6.64,1.19-9.83,3.24-3.59,9.21-2.2,10.54-1.89C44.26,47.52,55.5,50.29,55.5,59.13Z"/><path d="M71.19,59.13A11.73,11.73,0,0,0,82.92,70.86c8.56,0,11.47-10.73,11.73-11.73.44-1.72,1.7-6.64-1.19-9.83-3.24-3.59-9.22-2.2-10.54-1.89C82.44,47.52,71.19,50.29,71.19,59.13Z"/><path d="M57.4,166.32c.85-2.34,2.23-6.14.49-9.34-2.66-4.87-10.64-4.79-18.32-4.71s-15.22.1-17.83,4.95c-1.8,3.35-.61,7.13,0,9.1,2,6.43,8.53,14,17.83,14C52.05,180.36,57.07,167.24,57.4,166.32Z"/></g></g></svg>